<?xml version="1.0" encoding="UTF-8"?>
<svg version="1.1" xmlns="http://www.w3.org/2000/svg" width="512" height="512">
<path d="M0 0 C1.90239944 -0.00956978 1.90239944 -0.00956978 3.8432312 -0.01933289 C5.23419151 -0.02086166 6.62515233 -0.02197557 8.01611328 -0.02270508 C9.43856846 -0.0259176 10.86102331 -0.02928167 12.28347778 -0.03279114 C15.26776902 -0.03878413 18.25203129 -0.0406309 21.23632812 -0.04003906 C25.05857318 -0.03993751 28.88063219 -0.05358172 32.70283318 -0.07081127 C35.64194591 -0.08193639 38.58101378 -0.0839581 41.52014542 -0.08342934 C42.9291358 -0.08460899 44.33812735 -0.08902996 45.74709702 -0.0967617 C47.71939448 -0.10656993 49.6917464 -0.10241714 51.6640625 -0.09765625 C52.78610077 -0.09908127 53.90813904 -0.10050629 55.06417847 -0.10197449 C57.9516174 0.14442667 59.48487125 0.73061019 61.96142578 2.14526367 C64.1392794 2.6097214 66.32904482 3.01941139 68.52392578 3.39526367 C82.21088708 5.95986825 95.183189 10.39013584 107.66455078 16.53198242 C111.05786323 18.19245403 114.47933799 19.68261004 117.96142578 21.14526367 C117.96142578 21.80526367 117.96142578 22.46526367 117.96142578 23.14526367 C119.29560547 23.55131836 119.29560547 23.55131836 120.65673828 23.96557617 C133.84719349 28.67422567 147.82156715 40.30480866 157.35986328 50.47338867 C158.89460909 52.07551357 160.47913874 53.45034742 162.21142578 54.83276367 C164.89577543 57.0900577 166.82060553 59.38291496 168.96142578 62.14526367 C171.54493471 64.85479743 173.84285594 67.06621711 176.96142578 69.14526367 C177.99806316 70.78939284 178.99394944 72.45950945 179.96142578 74.14526367 C181.19433312 75.86597349 182.44539214 77.5737786 183.71142578 79.27026367 C187.72248207 84.74788533 191.41221957 90.35957136 194.96142578 96.14526367 C195.52603516 97.0450293 196.09064453 97.94479492 196.67236328 98.87182617 C204.7422387 112.12687042 210.35928771 126.37561126 214.96142578 141.14526367 C215.90278104 143.99122143 216.84239482 146.82685897 217.89208984 149.63476562 C223.11109097 166.76810288 223.56172125 184.89220922 223.37304688 202.65087891 C223.33612287 206.23718405 223.33203254 209.82245817 223.33251953 213.40893555 C223.2792805 230.68128292 222.68778911 247.68196911 216.96142578 264.14526367 C216.67525391 265.16491211 216.38908203 266.18456055 216.09423828 267.23510742 C214.82090477 271.73311672 213.32834419 276.15340783 211.83642578 280.58276367 C211.55927734 281.40969727 211.28212891 282.23663086 210.99658203 283.08862305 C210.31957672 285.10796647 209.64069499 287.12668065 208.96142578 289.14526367 C208.30142578 289.14526367 207.64142578 289.14526367 206.96142578 289.14526367 C206.87892578 289.78463867 206.79642578 290.42401367 206.71142578 291.08276367 C204.87742024 298.57161962 200.90174169 305.27154066 196.96142578 311.83276367 C196.53603516 312.55270508 196.11064453 313.27264648 195.67236328 314.0144043 C193.76284398 317.22719981 191.82022941 320.3911712 189.71142578 323.47729492 C187.84052169 326.08147061 187.84052169 326.08147061 186.96142578 329.14526367 C185.65168581 330.50178008 184.31340437 331.83084005 182.96142578 333.14526367 C180.38784438 335.99646172 178.19656311 338.4398517 176.96142578 342.14526367 C176.26017578 342.70213867 175.55892578 343.25901367 174.83642578 343.83276367 C171.67752766 346.37361651 169.23368108 349.17259228 166.60205078 352.23901367 C164.81018205 354.32099448 163.01617725 356.31881792 160.96142578 358.14526367 C160.30142578 358.14526367 159.64142578 358.14526367 158.96142578 358.14526367 C158.69330078 358.78463867 158.42517578 359.42401367 158.14892578 360.08276367 C156.96142578 362.14526367 156.96142578 362.14526367 153.96142578 363.14526367 C153.96142578 363.80526367 153.96142578 364.46526367 153.96142578 365.14526367 C151.18130399 367.73416015 148.01661472 369.8934146 144.96142578 372.14526367 C143.93275391 372.91483398 142.90408203 373.6844043 141.84423828 374.47729492 C127.40206486 385.13800541 111.82082897 394.8184418 94.64111328 400.23901367 C91.82361566 401.1158216 91.82361566 401.1158216 88.83642578 402.77026367 C85.42836079 404.4002078 82.22105662 404.95409621 78.52001953 405.61401367 C76.12987112 406.11028876 73.99479754 406.79484588 71.71142578 407.64526367 C58.20024307 412.23009813 43.67470009 411.45540682 29.60302734 411.40600586 C25.96971954 411.39528814 22.33690606 411.40594589 18.70361328 411.41870117 C4.73554178 411.42773963 -8.81809537 411.33848933 -22.28857422 407.20776367 C-23.44228516 406.85842773 -24.59599609 406.5090918 -25.78466797 406.14916992 C-26.85845703 405.81788086 -27.93224609 405.4865918 -29.03857422 405.14526367 C-30.41722656 404.75661133 -30.41722656 404.75661133 -31.82373047 404.36010742 C-36.68689037 402.98459233 -41.21256149 401.29216129 -45.79248047 399.15698242 C-47.99258339 398.16597954 -50.20943514 397.34555277 -52.47607422 396.52026367 C-67.20966724 390.63594943 -80.36942998 381.54771569 -93.03857422 372.14526367 C-94.04919922 371.40405273 -95.05982422 370.6628418 -96.10107422 369.89916992 C-100.58108713 366.53216022 -100.58108713 366.53216022 -102.03857422 365.14526367 C-102.03857422 364.48526367 -102.03857422 363.82526367 -102.03857422 363.14526367 C-102.63186523 362.87649414 -103.22515625 362.60772461 -103.83642578 362.33081055 C-106.04397455 361.14235635 -107.50400303 359.93783978 -109.27294922 358.17651367 C-110.13339844 357.31993164 -110.13339844 357.31993164 -111.01123047 356.44604492 C-111.59775391 355.85178711 -112.18427734 355.2575293 -112.78857422 354.64526367 C-113.39056641 354.05100586 -113.99255859 353.45674805 -114.61279297 352.84448242 C-115.46550781 351.98790039 -115.46550781 351.98790039 -116.33544922 351.11401367 C-116.85461914 350.59258789 -117.37378906 350.07116211 -117.90869141 349.53393555 C-119.03857422 348.14526367 -119.03857422 348.14526367 -119.03857422 346.14526367 C-120.02857422 345.81526367 -121.01857422 345.48526367 -122.03857422 345.14526367 C-124.75660492 342.88023808 -126.24331979 340.16129111 -128.03857422 337.14526367 C-128.65345703 336.37956055 -129.26833984 335.61385742 -129.90185547 334.82495117 C-133.61886925 330.16339458 -136.7926332 325.14129311 -140.03857422 320.14526367 C-140.71533203 319.10756836 -141.39208984 318.06987305 -142.08935547 317.00073242 C-149.57099899 305.2189598 -154.9502962 292.89159182 -159.67919922 279.80151367 C-160.59580315 277.33616516 -161.5865591 274.89729811 -162.64404297 272.48901367 C-163.83899692 269.62380196 -164.58628867 267.18399778 -165.10107422 264.14526367 C-165.63168297 261.23349336 -166.22318859 258.49911339 -167.03857422 255.64526367 C-170.2797303 244.30121739 -171.19525738 233.17100938 -171.20654297 221.42260742 C-171.21153557 219.59518761 -171.21153557 219.59518761 -171.21662903 217.73085022 C-171.22167746 215.15813574 -171.224038 212.58541474 -171.22387695 210.01269531 C-171.22605344 206.11992291 -171.24420432 202.22743878 -171.26318359 198.3347168 C-171.30292813 180.7155121 -170.75621241 163.96184659 -165.03857422 147.14526367 C-164.57504803 145.39663194 -164.11731554 143.64645991 -163.66357422 141.89526367 C-162.17981176 136.4353102 -160.27292326 131.33824616 -158.03857422 126.14526367 C-157.77447754 125.51233398 -157.51038086 124.8794043 -157.23828125 124.22729492 C-148.65719618 103.69720306 -137.33884806 83.47332649 -121.97998047 67.20776367 C-120.25230839 65.37232936 -118.66730255 63.49288944 -117.10107422 61.52026367 C-116.42044922 60.73651367 -115.73982422 59.95276367 -115.03857422 59.14526367 C-114.37857422 59.14526367 -113.71857422 59.14526367 -113.03857422 59.14526367 C-112.70857422 58.15526367 -112.37857422 57.16526367 -112.03857422 56.14526367 C-110.36669922 54.49682617 -110.36669922 54.49682617 -108.28857422 52.77026367 C-106.00094983 50.85808909 -103.85058004 48.95209238 -101.76904297 46.81323242 C-98.41028389 43.53135481 -94.82679367 40.68436717 -91.10107422 37.83276367 C-90.35978271 37.26533447 -89.61849121 36.69790527 -88.85473633 36.11328125 C-71.60765994 23.14526367 -71.60765994 23.14526367 -66.03857422 23.14526367 C-66.03857422 22.48526367 -66.03857422 21.82526367 -66.03857422 21.14526367 C-47.70957154 12.85504136 -29.63917555 5.72369698 -9.89501953 1.59912109 C-3.4013525 0.01157151 -3.4013525 0.01157151 0 0 Z " fill="#FEFEFD" transform="translate(222.03857421875,46.854736328125)"/>
<path d="M0 0 C0.24492187 0.53367188 0.48984375 1.06734375 0.7421875 1.6171875 C5.91006369 11.91729936 14.21754344 19.15972743 24 25 C24.94359375 25.61875 24.94359375 25.61875 25.90625 26.25 C29.70152759 28.64701742 32.51588087 29.72997288 37 29 C39.2973659 26.19265527 39.2973659 26.19265527 38.875 23.0625 C37.88480361 19.59681265 36.58160165 18.41504671 34 16 C34 15.01 34 14.02 34 13 C33.01 12.67 32.02 12.34 31 12 C31 11.67 31 11.34 31 11 C93.04 11 155.08 11 219 11 C218.67 12.32 218.34 13.64 218 15 C217.90589253 17.42957075 217.86929013 19.861577 217.8671875 22.29296875 C217.86623077 22.99843338 217.86527405 23.70389801 217.86428833 24.43074036 C217.86360904 25.92265919 217.86544582 27.41458101 217.86962891 28.90649414 C217.87494076 31.16234188 217.8696962 33.41798688 217.86328125 35.67382812 C217.85827057 45.4479762 218.12340069 54.5711467 221 64 C221.46126818 65.95764413 221.91931476 67.91604879 222.375 69.875 C223.72581502 75.27157288 225.49769992 80.04321449 228 85 C228.52851563 86.09054687 229.05703125 87.18109375 229.6015625 88.3046875 C230.18679688 89.46226562 230.77203125 90.61984375 231.375 91.8125 C231.91898437 92.89144531 232.46296875 93.97039062 233.0234375 95.08203125 C235.37460882 98.55302922 237.41411079 99.9141236 241 102 C240.67 102.66 240.34 103.32 240 104 C238.89655652 103.99815641 237.79311304 103.99631283 236.65623188 103.99441338 C209.82466391 103.95004233 182.99310069 103.9171618 156.16150379 103.89637566 C143.18602508 103.88605683 130.21057059 103.87198489 117.23510742 103.84912109 C105.92758073 103.82920581 94.62007158 103.81628798 83.31252784 103.81182301 C77.32358771 103.80921248 71.33469776 103.80306396 65.3457737 103.78853989 C59.71111332 103.77498541 54.07652388 103.77077305 48.44184875 103.77378464 C46.3718089 103.77323352 44.30176673 103.76924341 42.23174095 103.76158905 C39.40890765 103.75166128 36.58634336 103.75402326 33.76350403 103.75949097 C32.53051951 103.75075244 32.53051951 103.75075244 31.27262622 103.74183738 C27.01852358 103.76415992 23.86690728 104.26267611 20 106 C16.4375 105.875 16.4375 105.875 13 105 C12.48308594 104.33484375 11.96617187 103.6696875 11.43359375 102.984375 C7.57631341 99.8391127 3.45736067 100.40147869 -1.375 100.375 C-13.41853779 100.20865279 -13.41853779 100.20865279 -18 98 C-18.69258229 96.00882592 -19.35747635 94.0078864 -20 92 C-22.48187653 89.37267224 -22.48187653 89.37267224 -26 88 C-28.36681703 88.12716001 -30.61824561 88.49884405 -32.953125 88.8984375 C-35 89 -35 89 -37.375 87.125 C-37.91125 86.42375 -38.4475 85.7225 -39 85 C-39.99 84.67 -40.98 84.34 -42 84 C-42.33 84.99 -42.66 85.98 -43 87 C-44.98 87 -46.96 87 -49 87 C-49.66401572 85.40327382 -50.30497129 83.79695917 -50.9375 82.1875 C-51.29714844 81.29417969 -51.65679687 80.40085937 -52.02734375 79.48046875 C-54.54084082 70.48638887 -54.18224489 60.89500695 -54.1875 51.625 C-54.19974609 50.49578125 -54.21199219 49.3665625 -54.22460938 48.203125 C-54.261313 26.81714844 -54.261313 26.81714844 -49 20 C-45.3125 19.6875 -45.3125 19.6875 -42 20 C-41.73316406 19.41089844 -41.46632812 18.82179687 -41.19140625 18.21484375 C-36.19407819 8.92472897 -25.69141085 3.96760546 -16 1 C-10.69994664 -0.26740406 -5.41685379 -0.0963472 0 0 Z " fill="#08AE30" transform="translate(177,190)"/>
<path d="M0 0 C1.90239944 -0.00956978 1.90239944 -0.00956978 3.8432312 -0.01933289 C5.23419151 -0.02086166 6.62515233 -0.02197557 8.01611328 -0.02270508 C9.43856846 -0.0259176 10.86102331 -0.02928167 12.28347778 -0.03279114 C15.26776902 -0.03878413 18.25203129 -0.0406309 21.23632812 -0.04003906 C25.05857318 -0.03993751 28.88063219 -0.05358172 32.70283318 -0.07081127 C35.64194591 -0.08193639 38.58101378 -0.0839581 41.52014542 -0.08342934 C42.9291358 -0.08460899 44.33812735 -0.08902996 45.74709702 -0.0967617 C47.71939448 -0.10656993 49.6917464 -0.10241714 51.6640625 -0.09765625 C52.78610077 -0.09908127 53.90813904 -0.10050629 55.06417847 -0.10197449 C57.9516174 0.14442667 59.48487125 0.73061019 61.96142578 2.14526367 C64.1392794 2.6097214 66.32904482 3.01941139 68.52392578 3.39526367 C82.21088708 5.95986825 95.183189 10.39013584 107.66455078 16.53198242 C111.05786323 18.19245403 114.47933799 19.68261004 117.96142578 21.14526367 C117.96142578 21.80526367 117.96142578 22.46526367 117.96142578 23.14526367 C119.29560547 23.55131836 119.29560547 23.55131836 120.65673828 23.96557617 C133.84719349 28.67422567 147.82156715 40.30480866 157.35986328 50.47338867 C158.89460909 52.07551357 160.47913874 53.45034742 162.21142578 54.83276367 C164.89577543 57.0900577 166.82060553 59.38291496 168.96142578 62.14526367 C171.54493471 64.85479743 173.84285594 67.06621711 176.96142578 69.14526367 C177.99806316 70.78939284 178.99394944 72.45950945 179.96142578 74.14526367 C181.19433312 75.86597349 182.44539214 77.5737786 183.71142578 79.27026367 C187.72248207 84.74788533 191.41221957 90.35957136 194.96142578 96.14526367 C195.52603516 97.0450293 196.09064453 97.94479492 196.67236328 98.87182617 C204.7422387 112.12687042 210.35928771 126.37561126 214.96142578 141.14526367 C215.90278104 143.99122143 216.84239482 146.82685897 217.89208984 149.63476562 C223.11109097 166.76810288 223.56172125 184.89220922 223.37304688 202.65087891 C223.33612287 206.23718405 223.33203254 209.82245817 223.33251953 213.40893555 C223.2792805 230.68128292 222.68778911 247.68196911 216.96142578 264.14526367 C216.67525391 265.16491211 216.38908203 266.18456055 216.09423828 267.23510742 C214.82090477 271.73311672 213.32834419 276.15340783 211.83642578 280.58276367 C211.55927734 281.40969727 211.28212891 282.23663086 210.99658203 283.08862305 C210.31957672 285.10796647 209.64069499 287.12668065 208.96142578 289.14526367 C208.30142578 289.14526367 207.64142578 289.14526367 206.96142578 289.14526367 C206.87892578 289.78463867 206.79642578 290.42401367 206.71142578 291.08276367 C204.87742024 298.57161962 200.90174169 305.27154066 196.96142578 311.83276367 C196.53603516 312.55270508 196.11064453 313.27264648 195.67236328 314.0144043 C193.76284398 317.22719981 191.82022941 320.3911712 189.71142578 323.47729492 C187.84052169 326.08147061 187.84052169 326.08147061 186.96142578 329.14526367 C185.65168581 330.50178008 184.31340437 331.83084005 182.96142578 333.14526367 C180.38784438 335.99646172 178.19656311 338.4398517 176.96142578 342.14526367 C176.26017578 342.70213867 175.55892578 343.25901367 174.83642578 343.83276367 C171.67752766 346.37361651 169.23368108 349.17259228 166.60205078 352.23901367 C164.81018205 354.32099448 163.01617725 356.31881792 160.96142578 358.14526367 C160.30142578 358.14526367 159.64142578 358.14526367 158.96142578 358.14526367 C158.69330078 358.78463867 158.42517578 359.42401367 158.14892578 360.08276367 C156.96142578 362.14526367 156.96142578 362.14526367 153.96142578 363.14526367 C153.96142578 363.80526367 153.96142578 364.46526367 153.96142578 365.14526367 C151.18130399 367.73416015 148.01661472 369.8934146 144.96142578 372.14526367 C143.93275391 372.91483398 142.90408203 373.6844043 141.84423828 374.47729492 C127.40206486 385.13800541 111.82082897 394.8184418 94.64111328 400.23901367 C91.82361566 401.1158216 91.82361566 401.1158216 88.83642578 402.77026367 C85.42836079 404.4002078 82.22105662 404.95409621 78.52001953 405.61401367 C76.12987112 406.11028876 73.99479754 406.79484588 71.71142578 407.64526367 C58.20024307 412.23009813 43.67470009 411.45540682 29.60302734 411.40600586 C25.96971954 411.39528814 22.33690606 411.40594589 18.70361328 411.41870117 C4.73554178 411.42773963 -8.81809537 411.33848933 -22.28857422 407.20776367 C-23.44228516 406.85842773 -24.59599609 406.5090918 -25.78466797 406.14916992 C-26.85845703 405.81788086 -27.93224609 405.4865918 -29.03857422 405.14526367 C-30.41722656 404.75661133 -30.41722656 404.75661133 -31.82373047 404.36010742 C-36.68689037 402.98459233 -41.21256149 401.29216129 -45.79248047 399.15698242 C-47.99258339 398.16597954 -50.20943514 397.34555277 -52.47607422 396.52026367 C-67.20966724 390.63594943 -80.36942998 381.54771569 -93.03857422 372.14526367 C-94.04919922 371.40405273 -95.05982422 370.6628418 -96.10107422 369.89916992 C-100.58108713 366.53216022 -100.58108713 366.53216022 -102.03857422 365.14526367 C-102.03857422 364.48526367 -102.03857422 363.82526367 -102.03857422 363.14526367 C-102.63186523 362.87649414 -103.22515625 362.60772461 -103.83642578 362.33081055 C-106.04397455 361.14235635 -107.50400303 359.93783978 -109.27294922 358.17651367 C-110.13339844 357.31993164 -110.13339844 357.31993164 -111.01123047 356.44604492 C-111.59775391 355.85178711 -112.18427734 355.2575293 -112.78857422 354.64526367 C-113.39056641 354.05100586 -113.99255859 353.45674805 -114.61279297 352.84448242 C-115.46550781 351.98790039 -115.46550781 351.98790039 -116.33544922 351.11401367 C-116.85461914 350.59258789 -117.37378906 350.07116211 -117.90869141 349.53393555 C-119.03857422 348.14526367 -119.03857422 348.14526367 -119.03857422 346.14526367 C-120.02857422 345.81526367 -121.01857422 345.48526367 -122.03857422 345.14526367 C-124.75660492 342.88023808 -126.24331979 340.16129111 -128.03857422 337.14526367 C-128.65345703 336.37956055 -129.26833984 335.61385742 -129.90185547 334.82495117 C-133.61886925 330.16339458 -136.7926332 325.14129311 -140.03857422 320.14526367 C-140.71533203 319.10756836 -141.39208984 318.06987305 -142.08935547 317.00073242 C-149.57099899 305.2189598 -154.9502962 292.89159182 -159.67919922 279.80151367 C-160.59580315 277.33616516 -161.5865591 274.89729811 -162.64404297 272.48901367 C-163.83899692 269.62380196 -164.58628867 267.18399778 -165.10107422 264.14526367 C-165.63168297 261.23349336 -166.22318859 258.49911339 -167.03857422 255.64526367 C-170.2797303 244.30121739 -171.19525738 233.17100938 -171.20654297 221.42260742 C-171.21153557 219.59518761 -171.21153557 219.59518761 -171.21662903 217.73085022 C-171.22167746 215.15813574 -171.224038 212.58541474 -171.22387695 210.01269531 C-171.22605344 206.11992291 -171.24420432 202.22743878 -171.26318359 198.3347168 C-171.30292813 180.7155121 -170.75621241 163.96184659 -165.03857422 147.14526367 C-164.57504803 145.39663194 -164.11731554 143.64645991 -163.66357422 141.89526367 C-162.17981176 136.4353102 -160.27292326 131.33824616 -158.03857422 126.14526367 C-157.77447754 125.51233398 -157.51038086 124.8794043 -157.23828125 124.22729492 C-148.65719618 103.69720306 -137.33884806 83.47332649 -121.97998047 67.20776367 C-120.25230839 65.37232936 -118.66730255 63.49288944 -117.10107422 61.52026367 C-116.42044922 60.73651367 -115.73982422 59.95276367 -115.03857422 59.14526367 C-114.37857422 59.14526367 -113.71857422 59.14526367 -113.03857422 59.14526367 C-112.70857422 58.15526367 -112.37857422 57.16526367 -112.03857422 56.14526367 C-110.36669922 54.49682617 -110.36669922 54.49682617 -108.28857422 52.77026367 C-106.00094983 50.85808909 -103.85058004 48.95209238 -101.76904297 46.81323242 C-98.41028389 43.53135481 -94.82679367 40.68436717 -91.10107422 37.83276367 C-90.35978271 37.26533447 -89.61849121 36.69790527 -88.85473633 36.11328125 C-71.60765994 23.14526367 -71.60765994 23.14526367 -66.03857422 23.14526367 C-66.03857422 22.48526367 -66.03857422 21.82526367 -66.03857422 21.14526367 C-47.70957154 12.85504136 -29.63917555 5.72369698 -9.89501953 1.59912109 C-3.4013525 0.01157151 -3.4013525 0.01157151 0 0 Z M-0.49536133 19.44335938 C-4.02858532 20.41849799 -7.52944191 20.69010648 -11.17529297 20.93432617 C-13.05178802 20.95078514 -13.05178802 20.95078514 -14.03857422 22.14526367 C-15.9965582 22.45854111 -17.95555256 22.7665637 -19.91870117 23.0456543 C-29.41013418 24.40987512 -38.13650343 26.41555171 -46.36279297 31.61401367 C-48.57817088 32.88179198 -50.48801149 33.71499825 -52.87060547 34.55541992 C-57.14314559 36.0965826 -60.86990794 38.20393401 -64.72607422 40.58276367 C-65.36351562 40.9649707 -66.00095703 41.34717773 -66.65771484 41.7409668 C-73.30468062 45.48600197 -73.30468062 45.48600197 -78.03857422 51.14526367 C-78.75142578 51.39663086 -79.46427734 51.64799805 -80.19873047 51.90698242 C-84.01782929 53.5722566 -86.50652232 56.08546025 -89.47607422 58.95776367 C-90.57757789 60.00737082 -91.68043451 61.05556001 -92.78466797 62.10229492 C-93.59363525 62.87089844 -93.59363525 62.87089844 -94.41894531 63.6550293 C-95.981402 65.09265902 -97.58519473 66.44773991 -99.22998047 67.78979492 C-101.58733266 69.76682325 -103.55908106 71.68174479 -105.53857422 74.02026367 C-106.410625 75.04700195 -106.410625 75.04700195 -107.30029297 76.09448242 C-108.16074219 77.10961914 -108.16074219 77.10961914 -109.03857422 78.14526367 C-109.60189453 78.77045898 -110.16521484 79.3956543 -110.74560547 80.03979492 C-113.69963618 83.33882192 -115.40525752 86.00752804 -117.03857422 90.14526367 C-118.66306664 91.8530634 -120.33077449 93.52077125 -122.03857422 95.14526367 C-123.82436722 97.24994828 -124.90628187 98.58302118 -125.53857422 101.27026367 C-126.03857422 103.14526367 -126.03857422 103.14526367 -129.03857422 105.14526367 C-132.08754284 110.14631587 -134.34447632 115.61282736 -136.30419922 121.12182617 C-137.08923051 123.28483793 -137.96659059 125.39605299 -138.85107422 127.52026367 C-146.82282268 147.35765312 -151.32043671 165.69239592 -151.03857422 187.14526367 C-150.04857422 187.14526367 -149.05857422 187.14526367 -148.03857422 187.14526367 C-148.36857422 193.41526367 -148.69857422 199.68526367 -149.03857422 206.14526367 C-151.09779823 204.08603966 -150.45285001 199.92818243 -150.60107422 197.08276367 C-150.64425781 196.32415039 -150.68744141 195.56553711 -150.73193359 194.78393555 C-150.83831055 192.90460929 -150.93897356 191.02496124 -151.03857422 189.14526367 C-153.01857422 190.13526367 -153.01857422 190.13526367 -155.03857422 191.14526367 C-155.09697646 195.33270442 -155.13230588 199.52003932 -155.16357422 203.70776367 C-155.18033203 204.88918945 -155.19708984 206.07061523 -155.21435547 207.2878418 C-155.24846375 213.37617041 -154.84833607 218.30251194 -153.03857422 224.14526367 C-152.5273931 228.89069778 -152.30728416 233.66526008 -152.09130859 238.43237305 C-151.6661924 244.79227965 -150.31689086 249.35176003 -147.23950195 254.93212891 C-145.73558139 257.70363528 -144.83083417 260.49083537 -143.97607422 263.52026367 C-143.65509766 264.61467773 -143.33412109 265.7090918 -143.00341797 266.83666992 C-142.68501953 267.92850586 -142.36662109 269.0203418 -142.03857422 270.14526367 C-139.54362877 278.19757782 -136.7802131 285.61101476 -132.41357422 292.83276367 C-131.00440416 295.20273149 -129.99724399 297.56422967 -129.03857422 300.14526367 C-128.37857422 300.14526367 -127.71857422 300.14526367 -127.03857422 300.14526367 C-126.95607422 300.68151367 -126.87357422 301.21776367 -126.78857422 301.77026367 C-125.77670047 304.97453056 -123.9104499 307.36581191 -122.03857422 310.14526367 C-121.72919922 310.99088867 -121.41982422 311.83651367 -121.10107422 312.70776367 C-119.68965971 315.94571459 -117.67670348 317.83690057 -115.03857422 320.14526367 C-114.37857422 320.14526367 -113.71857422 320.14526367 -113.03857422 320.14526367 C-112.90322266 320.98637695 -112.90322266 320.98637695 -112.76513672 321.84448242 C-109.03330006 333.66196516 -93.37231907 345.44381017 -84.32763672 353.53198242 C-83.52253662 354.25260864 -83.52253662 354.25260864 -82.70117188 354.98779297 C-80.82928736 356.29096543 -79.23803111 356.61964786 -77.03857422 357.14526367 C-75.70524089 358.47859701 -74.37190755 359.81193034 -73.03857422 361.14526367 C-72.15169922 361.49588867 -71.26482422 361.84651367 -70.35107422 362.20776367 C-69.58794922 362.51713867 -68.82482422 362.82651367 -68.03857422 363.14526367 C-67.54357422 364.63026367 -67.54357422 364.63026367 -67.03857422 366.14526367 C-65.25325657 367.25057266 -65.25325657 367.25057266 -63.03857422 368.08276367 C-61.82234375 368.58549805 -61.82234375 368.58549805 -60.58154297 369.09838867 C-59.32277344 369.6165918 -59.32277344 369.6165918 -58.03857422 370.14526367 C-56.4749646 370.87204785 -54.91242099 371.60113089 -53.35107422 372.33276367 C-49.93123902 373.86268995 -46.79393521 374.76009844 -43.03857422 375.14526367 C-43.03857422 375.80526367 -43.03857422 376.46526367 -43.03857422 377.14526367 C-39.70941478 378.48920714 -36.3749658 379.81938552 -33.03857422 381.14526367 C-32.39404297 381.40694336 -31.74951172 381.66862305 -31.08544922 381.93823242 C-19.85419876 386.35748532 -9.08571754 388.7790891 2.96142578 389.14526367 C2.96142578 389.80526367 2.96142578 390.46526367 2.96142578 391.14526367 C8.76383146 391.16993699 14.56620676 391.18811091 20.36865234 391.20019531 C22.34359265 391.20523177 24.31852921 391.21206119 26.29345703 391.22070312 C29.12810183 391.23279875 31.96269744 391.23849877 34.79736328 391.24291992 C35.68386566 391.24808121 36.57036804 391.25324249 37.48373413 391.25856018 C41.85913817 391.39928459 41.85913817 391.39928459 45.96142578 390.14526367 C47.9998298 389.93453818 50.03881359 389.72795776 52.08032227 389.54980469 C58.85275277 388.94827699 64.8027942 388.37630392 70.89111328 385.15307617 C74.2172009 383.53396182 77.754853 382.78119947 81.32470703 381.86010742 C84.97899988 380.86938803 88.45814984 379.57170303 91.96142578 378.14526367 C92.93982422 377.75661133 92.93982422 377.75661133 93.93798828 377.36010742 C96.74131793 376.21224199 98.79836279 375.30832666 100.96142578 373.14526367 C101.93080078 372.75338867 102.90017578 372.36151367 103.89892578 371.95776367 C108.40513519 370.11945649 112.31415549 367.43575741 116.37548828 364.78198242 C118.96142578 363.14526367 118.96142578 363.14526367 122.39892578 361.45776367 C125.19699399 360.02460678 126.75817325 358.36910735 128.96142578 356.14526367 C130.27760367 355.10240498 131.61191705 354.08211578 132.96142578 353.08276367 C138.96749435 348.47184447 144.46160267 343.33703658 149.96142578 338.14526367 C151.09837891 337.07211914 151.09837891 337.07211914 152.25830078 335.97729492 C156.3735249 331.98169941 159.9112869 327.76142159 163.36376953 323.18432617 C165.36774581 320.62668407 167.63417078 318.4078727 169.96142578 316.14526367 C173.06381949 312.4683526 174.96142578 309.02700653 174.96142578 304.14526367 C175.58017578 303.91838867 176.19892578 303.69151367 176.83642578 303.45776367 C179.62931425 301.73274433 179.89388543 300.20554602 180.96142578 297.14526367 C181.67298828 296.00057617 181.67298828 296.00057617 182.39892578 294.83276367 C184.08367319 291.93499813 185.09615124 289.09489809 186.11767578 285.91479492 C186.96142578 284.14526367 186.96142578 284.14526367 189.96142578 282.14526367 C191.13275948 279.14766595 191.13275948 279.14766595 192.02392578 275.70776367 C193.05556864 271.9996498 193.81787142 269.36059521 195.96142578 266.14526367 C196.31993074 264.21901086 196.60137318 262.27794386 196.83642578 260.33276367 C197.67907289 254.31385576 199.12966324 248.71126326 200.96142578 242.92260742 C203.41026627 233.6724951 204.27061373 224.59953641 204.26220703 215.05541992 C204.26649216 213.94903671 204.27077728 212.8426535 204.27519226 211.70274353 C204.28089262 209.38093749 204.28146787 207.05911361 204.27709961 204.73730469 C204.27393677 201.21998162 204.2974643 197.70349903 204.32275391 194.1862793 C204.40730715 177.93731075 204.40730715 177.93731075 200.96142578 162.14526367 C200.56479736 160.87682617 200.56479736 160.87682617 200.16015625 159.58276367 C199.25514983 156.74948013 198.25275968 153.95558583 197.24658203 151.15698242 C195.78560866 146.96359399 194.64822881 142.80441927 193.68115234 138.46679688 C191.93720179 130.77582989 189.4961716 124.64500609 185.44970703 117.81713867 C184.16478772 115.5103544 183.42122593 113.7201445 182.96142578 111.14526367 C182.30142578 111.14526367 181.64142578 111.14526367 180.96142578 111.14526367 C180.58824219 109.8671582 180.58824219 109.8671582 180.20751953 108.56323242 C178.85507412 104.85354673 177.11197879 101.80564755 175.02392578 98.45776367 C174.33427734 97.34014648 173.64462891 96.2225293 172.93408203 95.07104492 C171.35825075 92.7338219 169.97599699 91.05267684 167.96142578 89.14526367 C166.7669177 87.62992848 165.58056627 86.10815412 164.39892578 84.58276367 C159.87478648 79.01688177 154.95675232 73.91540122 149.89892578 68.83276367 C149.14345459 68.06826904 148.3879834 67.30377441 147.60961914 66.51611328 C143.50784729 62.4357443 139.35675283 58.74608286 134.63525391 55.39648438 C132.96142578 54.14526367 132.96142578 54.14526367 130.52392578 51.64526367 C125.68196886 46.92140326 120.24459773 43.58643048 113.96142578 41.14526367 C113.09517578 40.60901367 112.22892578 40.07276367 111.33642578 39.52026367 C108.98609802 37.89474554 108.98609802 37.89474554 105.96142578 38.14526367 C105.96142578 37.48526367 105.96142578 36.82526367 105.96142578 36.14526367 C104.85347656 35.69086914 104.85347656 35.69086914 103.72314453 35.22729492 C98.54319326 33.08817909 93.40751696 30.90708627 88.33642578 28.52026367 C82.00518879 25.61844672 75.60898695 23.71483555 68.81787109 22.23413086 C65.80013244 21.56853187 62.80115654 20.86089779 59.80859375 20.09033203 C49.59880975 17.52772797 39.97049053 16.53828121 29.45458984 16.67871094 C27.06554987 16.70801978 24.67869948 16.69917914 22.28955078 16.6862793 C14.36405741 16.69833647 7.1582582 17.13018799 -0.49536133 19.44335938 Z " fill="#FF8B03" transform="translate(222.03857421875,46.854736328125)"/>
<path d="M0 0 C0.24492187 0.53367188 0.48984375 1.06734375 0.7421875 1.6171875 C5.91006369 11.91729936 14.21754344 19.15972743 24 25 C24.94359375 25.61875 24.94359375 25.61875 25.90625 26.25 C29.71502163 28.65553998 32.50966813 29.79828122 37 29 C39.37719693 27.12498069 39.37719693 27.12498069 41 25 C47.98074286 35.93649715 48.84730939 49.20025526 46.20703125 61.77734375 C43.93693453 69.37042589 41.06912724 75.98927626 36.0625 82.1875 C35.39347656 83.02667969 34.72445312 83.86585938 34.03515625 84.73046875 C32.13802704 86.84607733 30.4009632 88.48754293 28 90 C25.64809002 89.72330471 24.11312926 89.05656463 22 88 C16.59559265 87.64561263 13.46331148 87.61870343 9 91 C7.03177114 92.96822886 7.33751619 96.34808709 7 99 C3.21888737 100.19959157 -0.42935485 100.16781115 -4.375 100.1875 C-5.66148437 100.20167969 -6.94796875 100.21585937 -8.2734375 100.23046875 C-11.92835118 100.00443111 -14.6678047 99.50502477 -18 98 C-18.69258229 96.00882592 -19.35747635 94.0078864 -20 92 C-22.48187653 89.37267224 -22.48187653 89.37267224 -26 88 C-28.36681703 88.12716001 -30.61824561 88.49884405 -32.953125 88.8984375 C-35 89 -35 89 -37.375 87.125 C-37.91125 86.42375 -38.4475 85.7225 -39 85 C-39.99 84.67 -40.98 84.34 -42 84 C-42.33 84.99 -42.66 85.98 -43 87 C-44.98 87 -46.96 87 -49 87 C-49.66401572 85.40327382 -50.30497129 83.79695917 -50.9375 82.1875 C-51.29714844 81.29417969 -51.65679687 80.40085937 -52.02734375 79.48046875 C-54.54084082 70.48638887 -54.18224489 60.89500695 -54.1875 51.625 C-54.19974609 50.49578125 -54.21199219 49.3665625 -54.22460938 48.203125 C-54.261313 26.81714844 -54.261313 26.81714844 -49 20 C-45.3125 19.6875 -45.3125 19.6875 -42 20 C-41.73316406 19.41089844 -41.46632812 18.82179687 -41.19140625 18.21484375 C-36.19407819 8.92472897 -25.69141085 3.96760546 -16 1 C-10.69994664 -0.26740406 -5.41685379 -0.0963472 0 0 Z " fill="#FD0505" transform="translate(177,190)"/>
<path d="M0 0 C6.78970406 -0.19585685 13.28047912 0.5664996 20 1.5 C21.06089844 1.64308594 22.12179688 1.78617188 23.21484375 1.93359375 C25.81057243 2.2843679 28.40554555 2.63994284 31 3 C30.36577065 6.28285553 29.64283565 9.52022992 28.80859375 12.7578125 C28.47504883 14.06685547 28.47504883 14.06685547 28.13476562 15.40234375 C27.66780361 17.22571925 27.19903701 19.0486335 26.72851562 20.87109375 C26.50744141 21.74121094 26.28636719 22.61132812 26.05859375 23.5078125 C25.85548584 24.29816895 25.65237793 25.08852539 25.44311523 25.90283203 C24.89663602 28.13195419 24.89663602 28.13195419 25 31 C25.7734375 29.88625 25.7734375 29.88625 26.5625 28.75 C30.37896856 24.4442406 34.4256309 21.90304537 40.15625 21.3984375 C41.60370277 21.36096512 43.05221849 21.35373042 44.5 21.375 C45.62547241 21.38321777 45.62547241 21.38321777 46.77368164 21.39160156 C51.92209257 21.5877315 55.25522234 22.39528078 58.87109375 26.296875 C62.34848741 31.54304675 62.69590506 35.7890473 62 42 C60.26999877 49.17557329 57.46102904 54.97585328 52 60 C51.40832031 60.55042969 50.81664062 61.10085938 50.20703125 61.66796875 C45.31358774 64.62135678 38.04762672 63.57885118 32.59375 62.54296875 C31.04022247 62.10046808 29.51391202 61.5633161 28 61 C28 62.65 28 64.3 28 66 C27.32195312 65.7834375 26.64390625 65.566875 25.9453125 65.34375 C18.63927235 63.15800946 11.42115561 61.52628146 4 64 C4 61.03 4 58.06 4 55 C6.64 55 9.28 55 12 55 C11.79721436 54.26821533 11.59442871 53.53643066 11.38549805 52.7824707 C8.94366306 43.2436624 8.26601742 33.98741983 7.8125 24.1875 C7.7308727 22.60866906 7.64819663 21.02989198 7.56445312 19.45117188 C7.36424446 15.63462553 7.17810745 11.81763893 7 8 C4.69 7.01 2.38 6.02 0 5 C0 3.35 0 1.7 0 0 Z " fill="#FEF3F3" transform="translate(149,206)"/>
<path d="M0 0 C1.89453125 0.23828125 1.89453125 0.23828125 4 1 C5.01171875 2.85546875 5.01171875 2.85546875 5.6875 5.1875 C5.91824219 5.94417969 6.14898437 6.70085937 6.38671875 7.48046875 C7.70665859 12.90315154 8.15891637 18.13883324 8.16796875 23.70703125 C8.17129715 24.43186203 8.17462555 25.15669281 8.17805481 25.90348816 C8.18309399 27.43052542 8.18546407 28.95757358 8.18530273 30.48461914 C8.18748374 32.79527361 8.20565615 35.10544573 8.22460938 37.41601562 C8.29542706 55.55685941 8.29542706 55.55685941 4 62 C2.1875 61.9375 2.1875 61.9375 0 61 C-5.07447345 51.97871387 -4.18645882 41.25531294 -4.18530273 31.19848633 C-4.187492 29.07027246 -4.20571563 26.942576 -4.22460938 24.81445312 C-4.30197558 6.45296337 -4.30197558 6.45296337 0 0 Z " fill="#FD0909" transform="translate(108,212)"/>
<path d="M0 0 C3.07052964 2.26210517 4.15422734 4.03820442 5.1796875 7.69140625 C5.1796875 11.12890625 5.1796875 11.12890625 3.1796875 15.12890625 C72.8096875 15.12890625 142.4396875 15.12890625 214.1796875 15.12890625 C214.5096875 14.46890625 214.8396875 13.80890625 215.1796875 13.12890625 C216.1696875 14.11890625 216.1696875 14.11890625 217.1796875 15.12890625 C215.3647068 16.94388695 212.86195505 16.24621641 210.446697 16.24866337 C209.61646655 16.24438628 208.78623611 16.2401092 207.93084717 16.23570251 C207.05555681 16.23514581 206.18026646 16.2345891 205.27845216 16.23401552 C202.32200065 16.23096015 199.36561502 16.22076449 196.40917969 16.21069336 C194.29894583 16.20714001 192.18871114 16.20405327 190.07847595 16.20140076 C185.52219414 16.19483264 180.96593168 16.1852621 176.40966034 16.17350578 C169.20835288 16.15527115 162.00705022 16.14562926 154.8057251 16.1375885 C134.32375002 16.11339335 113.84180374 16.07756348 93.35986328 16.03295898 C82.0570943 16.00842056 70.75433671 15.99105201 59.451545 15.9813996 C52.29007824 15.97484784 45.12870491 15.9592696 37.96727037 15.93708217 C33.51259162 15.92536411 29.05793572 15.92198544 24.60324287 15.92098427 C22.53481198 15.91883391 20.4663814 15.91323239 18.3979702 15.90395355 C15.57738739 15.891789 12.75706348 15.89191617 9.9364624 15.89512634 C9.11515485 15.88861854 8.29384729 15.88211074 7.44765162 15.87540573 C3.19390061 15.89428501 0.04604643 16.39141706 -3.8203125 18.12890625 C-9.24931759 17.93841484 -11.1463035 16.92143167 -14.8203125 13.12890625 C-17.96513041 12.32574971 -17.96513041 12.32574971 -20.8203125 12.12890625 C-19.5003125 11.79890625 -18.1803125 11.46890625 -16.8203125 11.12890625 C-16.9028125 10.05640625 -16.9853125 8.98390625 -17.0703125 7.87890625 C-16.8203125 4.12890625 -16.8203125 4.12890625 -15.0078125 1.75390625 C-10.70200999 -1.4446899 -4.91509654 -2.3520741 0 0 Z " fill="#D6F1DE" transform="translate(200.8203125,277.87109375)"/>
<path d="M0 0 C0 0.66 0 1.32 0 2 C-0.66 2 -1.32 2 -2 2 C-1.12278382 4.95063625 -0.455223 6.64435703 2 8.5625 C4.85826331 9.99325235 4.85826331 9.99325235 7.375 10.859375 C13.22331479 12.98287025 16.7861914 14.53652538 20 20 C20.40998755 23.39703973 20.28497616 25.89175939 19.4375 29.1875 C17.17113716 32.04508793 14.35612226 33.71124905 11 35 C7.0625 35.25 7.0625 35.25 4 35 C4 34.67 4 34.34 4 34 C6.31 33.34 8.62 32.68 11 32 C11 30.35 11 28.7 11 27 C7.49657206 24.92654265 4.21934592 23.088508 0.4375 21.5625 C-3.65759028 19.70109533 -5.95971409 18.33689917 -9 15 C-9.78616096 11.13722838 -9.24407966 7.73223897 -8 4 C-3.65714286 0 -3.65714286 0 0 0 Z " fill="#F5E302" transform="translate(339,214)"/>
<path d="M0 0 C0.66 0 1.32 0 2 0 C2.48937429 1.32962072 2.96583581 2.66399425 3.4375 4 C3.70433594 4.7425 3.97117187 5.485 4.24609375 6.25 C6.32477002 13.83232174 6.18284383 21.57126062 6.1875 29.375 C6.19974609 30.4475 6.21199219 31.52 6.22460938 32.625 C6.23881257 40.40835357 5.46754457 47.59736628 3 55 C0 54 0 54 -2 51 C-3.50632858 42.84109625 -3.18303778 34.26403157 -3.1875 26 C-3.19974609 24.80632812 -3.21199219 23.61265625 -3.22460938 22.3828125 C-3.23656614 15.09715527 -2.85938852 8.0768413 -1 1 C-0.67 0.67 -0.34 0.34 0 0 Z " fill="#FD0D0D" transform="translate(92,215)"/>
<path d="M0 0 C8.86133603 -0.7742915 8.86133603 -0.7742915 13.125 2.125 C15.34903824 5.53519196 15.74812849 7.00998139 15 11 C13 13.875 13 13.875 11 16 C11.804375 16.61875 12.60875 17.2375 13.4375 17.875 C16.38118592 20.3161054 16.86709078 21.02533238 17.375 24.75 C16.97991526 28.17406778 16.16384646 30.28512489 13.84375 32.875 C10.00574616 35.21683285 5.3204092 34.40858511 1 34 C1.31710937 33.45859375 1.63421875 32.9171875 1.9609375 32.359375 C3.18307974 29.5842851 3.40943436 27.26791902 3.625 24.25 C3.73714844 22.77273437 3.73714844 22.77273437 3.8515625 21.265625 C3.92503906 20.14414063 3.92503906 20.14414063 4 19 C1.525 18.01 1.525 18.01 -1 17 C-1 16.34 -1 15.68 -1 15 C-0.01 14.34 0.98 13.68 2 13 C2.43995262 10.93326515 2.43995262 10.93326515 2.3125 8.625 C2.30863281 7.85414063 2.30476563 7.08328125 2.30078125 6.2890625 C1.97634488 3.81997531 1.23105029 2.14820728 0 0 Z " fill="#ECE103" transform="translate(308,214)"/>
<path d="M0 0 C4.29 0 8.58 0 13 0 C13 11.22 13 22.44 13 34 C8.71 34 4.42 34 0 34 C0.33 33.34 0.66 32.68 1 32 C1.09772811 29.77253661 1.13077394 27.5421053 1.1328125 25.3125 C1.13376923 24.65419189 1.13472595 23.99588379 1.13571167 23.31762695 C1.13639225 21.92561752 1.13454646 20.5336049 1.13037109 19.14160156 C1.12502104 17.00839117 1.13032012 14.87539133 1.13671875 12.7421875 C1.13605795 11.39062453 1.13477674 10.0390617 1.1328125 8.6875 C1.13168457 7.45386719 1.13055664 6.22023437 1.12939453 4.94921875 C1.20369803 2.06774669 1.20369803 2.06774669 0 0 Z " fill="#FAE401" transform="translate(290,214)"/>
<path d="M0 0 C4.29 0 8.58 0 13 0 C13 11.22 13 22.44 13 34 C8.71 34 4.42 34 0 34 C0.33 33.34 0.66 32.68 1 32 C1.09772811 29.77253661 1.13077394 27.5421053 1.1328125 25.3125 C1.13376923 24.65419189 1.13472595 23.99588379 1.13571167 23.31762695 C1.13639225 21.92561752 1.13454646 20.5336049 1.13037109 19.14160156 C1.12502104 17.00839117 1.13032012 14.87539133 1.13671875 12.7421875 C1.13605795 11.39062453 1.13477674 10.0390617 1.1328125 8.6875 C1.13168457 7.45386719 1.13055664 6.22023437 1.12939453 4.94921875 C1.20369803 2.06774669 1.20369803 2.06774669 0 0 Z " fill="#FBE401" transform="translate(248,214)"/>
<path d="M0 0 C8.86133603 -0.7742915 8.86133603 -0.7742915 13.125 2.125 C15.34903824 5.53519196 15.74812849 7.00998139 15 11 C13 13.875 13 13.875 11 16 C11.825 16.45375 12.65 16.9075 13.5 17.375 C16.32065695 20.3366898 16.4293115 21.07383461 16.5625 25 C16.37207494 28.07400449 16.07592288 29.84815423 14.6875 32.625 C10.32237279 34.8583209 5.80626028 34.2983196 1 34 C1.495 33.319375 1.99 32.63875 2.5 31.9375 C4.34127336 28.33167301 4.3641066 26.00517255 4 22 C3.32575833 19.64539322 3.32575833 19.64539322 2 18 C1.01 17.67 0.02 17.34 -1 17 C-1 16.34 -1 15.68 -1 15 C-0.505 14.62875 -0.01 14.2575 0.5 13.875 C2.51184507 11.36019367 2.3189036 9.17032361 2.30078125 6.03515625 C1.95690763 3.70842697 1.14568157 2.04031739 0 0 Z " fill="#F4E302" transform="translate(266,214)"/>
<path d="M0 0 C10.23 0 20.46 0 31 0 C31 0.33 31 0.66 31 1 C28.36 1.33 25.72 1.66 23 2 C23.99 3.485 23.99 3.485 25 5 C25.265625 6.9375 25.265625 6.9375 25.25 9 C25.25515625 9.680625 25.2603125 10.36125 25.265625 11.0625 C25 13 25 13 23 16 C22.34 16 21.68 16 21 16 C21 16.66 21 17.32 21 18 C21.61875 18.0825 22.2375 18.165 22.875 18.25 C25 19 25 19 26.25 20.625 C27.28601422 23.90571168 27.30541819 26.57931632 27 30 C25.5 32.4375 25.5 32.4375 24 34 C26.97 34.33 29.94 34.66 33 35 C33 35.33 33 35.66 33 36 C22.11 36 11.22 36 0 36 C0 35.34 0 34.68 0 34 C5.61 34.33 11.22 34.66 17 35 C17 23.78 17 12.56 17 1 C8.585 1.495 8.585 1.495 0 2 C0 1.34 0 0.68 0 0 Z " fill="#55BF1E" transform="translate(244,213)"/>
<path d="M0 0 C9.9 0 19.8 0 30 0 C30 0.33 30 0.66 30 1 C27.69 1.33 25.38 1.66 23 2 C23.99 3.485 23.99 3.485 25 5 C25.1953125 7.26171875 25.1953125 7.26171875 25.125 9.6875 C25.10695313 10.49574219 25.08890625 11.30398437 25.0703125 12.13671875 C25.04710937 12.75160156 25.02390625 13.36648437 25 14 C23.02 14.99 23.02 14.99 21 16 C21 16.66 21 17.32 21 18 C22.65 18.66 24.3 19.32 26 20 C26.05410687 21.77049689 26.09284119 23.54146849 26.125 25.3125 C26.14820313 26.29863281 26.17140625 27.28476563 26.1953125 28.30078125 C26 31 26 31 24 34 C26.97 34.33 29.94 34.66 33 35 C33 35.33 33 35.66 33 36 C22.11 36 11.22 36 0 36 C0 35.34 0 34.68 0 34 C5.61 34.33 11.22 34.66 17 35 C17 23.78 17 12.56 17 1 C8.585 1.495 8.585 1.495 0 2 C0 1.34 0 0.68 0 0 Z " fill="#55BF1E" transform="translate(286,213)"/>
<path d="M0 0 C0.7425 -0.020625 1.485 -0.04125 2.25 -0.0625 C7.11386589 -0.09687361 10.40852676 0.56620185 14.625 3.25 C16 5.4375 16 5.4375 16.625 7.25 C12.03976192 10.84962615 8.63735939 11.908873 2.75 11.75 C2.04544678 11.73936523 1.34089355 11.72873047 0.61499023 11.71777344 C-5.08643358 11.50941795 -8.79437193 10.6153594 -13.375 7.25 C-14.19140625 5.234375 -14.19140625 5.234375 -14.375 3.25 C-10.46296592 -0.66203408 -5.25820214 0.03613885 0 0 Z " fill="#FD0F0F" transform="translate(185.375,243.75)"/>
<path d="M0 0 C0.4846875 0.32613281 0.969375 0.65226563 1.46875 0.98828125 C4.97135053 3.27170737 8.29506126 5.23482416 12.25 6.625 C17.86046512 8.68217054 17.86046512 8.68217054 20 11 C20.375 13.5625 20.375 13.5625 20 16 C17.25938133 18.74061867 15.01716922 18.74480767 11.25390625 19.11328125 C7.91062232 18.94524792 6.336123 17.2674135 4 15 C3.01 15 2.02 15 1 15 C0.34 16.32 -0.32 17.64 -1 19 C-1.02690104 16.20826945 -1.04679053 13.41679652 -1.0625 10.625 C-1.07087891 9.8309375 -1.07925781 9.036875 -1.08789062 8.21875 C-1.11328125 2.2265625 -1.11328125 2.2265625 0 0 Z " fill="#0FAF2B" transform="translate(331,230)"/>
<path d="M0 0 C2.12890625 0.48046875 2.12890625 0.48046875 4.69140625 2.54296875 C6.50672302 6.2525291 6.78512862 8.39730732 6.12890625 12.48046875 C3.53674542 16.17233417 2.08741561 17.30930636 -2.37109375 18.10546875 C-6.82960311 17.30930636 -8.27893292 16.17233417 -10.87109375 12.48046875 C-11.52731612 8.39730732 -11.24891052 6.2525291 -9.43359375 2.54296875 C-6.17915045 -0.07646122 -4.09697101 -0.24973299 0 0 Z " fill="#0AB033" transform="translate(150.87109375,279.51953125)"/>
<path d="M0 0 C2.375 1 2.375 1 4 3 C4.90590246 5.71770739 5.22281154 8.14244196 5 11 C3.5 13.9375 3.5 13.9375 1 16 C-3.11453459 17.27176524 -5.02851705 17.50686067 -8.875 15.5 C-11.6350094 12.25293011 -12 10.23692038 -12 6 C-9.21306374 -0.10471753 -6.50222178 -0.44842909 0 0 Z " fill="#06AE30" transform="translate(198,279)"/>
<path d="M0 0 C0 7.26 0 14.52 0 22 C-4 23 -4 23 -6 22 C-6 22.66 -6 23.32 -6 24 C-7.875 23.6875 -7.875 23.6875 -10 23 C-12.15164703 19.77252945 -12.27245079 18.79494361 -12.25 15.0625 C-12.25515625 14.20785156 -12.2603125 13.35320312 -12.265625 12.47265625 C-11.98713633 9.88025433 -11.30669172 8.23485766 -10 6 C-8.35 6 -6.7 6 -5 6 C-5.33 4.35 -5.66 2.7 -6 1 C-4 0 -4 0 0 0 Z " fill="#D0EFD7" transform="translate(273,257)"/>
<path d="M0 0 C0.66 0 1.32 0 2 0 C3.93854332 7.30800061 4.30374385 14.082946 4.25 21.625 C4.25773437 22.718125 4.26546875 23.81125 4.2734375 24.9375 C4.25953315 30.67999584 3.9550233 35.58489577 2 41 C1.34 40.67 0.68 40.34 0 40 C0 38.68 0 37.36 0 36 C-0.66 36 -1.32 36 -2 36 C-2.04936883 31.19451403 -2.08570443 26.38917506 -2.10986328 21.58349609 C-2.11993254 19.94805328 -2.13358881 18.31262851 -2.15087891 16.67724609 C-2.17508705 14.3290563 -2.18647357 11.98110412 -2.1953125 9.6328125 C-2.21079636 8.53273361 -2.21079636 8.53273361 -2.22659302 7.41043091 C-2.22699368 5.60537303 -2.12212755 3.8009217 -2 2 C-1.34 1.34 -0.68 0.68 0 0 Z " fill="#FD1F1F" transform="translate(80,223)"/>
<path d="M0 0 C1.98 0 3.96 0 6 0 C6 2.31 6 4.62 6 7 C6.66 7 7.32 7 8 7 C8 4.69 8 2.38 8 0 C9.32 0 10.64 0 12 0 C11.66666667 1.33333333 11.33333333 2.66666667 11 4 C10.71382813 5.1653125 10.42765625 6.330625 10.1328125 7.53125 C9.79742687 8.85430669 9.4614742 10.17721974 9.125 11.5 C8.96386719 12.16386719 8.80273438 12.82773437 8.63671875 13.51171875 C7.66674914 17.27881002 6.60415513 20.08334625 4 23 C2.68 22.67 1.36 22.34 0 22 C-0.33 20.35 -0.66 18.7 -1 17 C0.32 17 1.64 17 3 17 C2.855625 16.39671875 2.71125 15.7934375 2.5625 15.171875 C2.376875 14.37265625 2.19125 13.5734375 2 12.75 C1.814375 11.96109375 1.62875 11.1721875 1.4375 10.359375 C1 8 1 8 1 4 C0.34 4 -0.32 4 -1 4 C-0.67 2.68 -0.34 1.36 0 0 Z " fill="#E7F7EC" transform="translate(372,263)"/>
<path d="M0 0 C5.97873264 0.11935764 5.97873264 0.11935764 7.08984375 1.23046875 C7.13065158 3.23005239 7.13238731 5.23092129 7.08984375 7.23046875 C5.43984375 7.23046875 3.78984375 7.23046875 2.08984375 7.23046875 C2.41984375 10.86046875 2.74984375 14.49046875 3.08984375 18.23046875 C1.10984375 18.23046875 -0.87015625 18.23046875 -2.91015625 18.23046875 C-3.93901986 14.82287249 -4.07584559 11.65624495 -4.09765625 8.10546875 C-4.11183594 7.05101562 -4.12601562 5.9965625 -4.140625 4.91015625 C-3.86952377 1.75803009 -3.30041223 0.39820925 0 0 Z " fill="#DBF3E1" transform="translate(358.91015625,262.76953125)"/>
<path d="M0 0 C2.4375 0.375 2.4375 0.375 4.4375 2.375 C4.5625 6 4.5625 6 4.4375 9.375 C2.4575 9.375 0.4775 9.375 -1.5625 9.375 C-0.5725 10.86 -0.5725 10.86 0.4375 12.375 C1.7575 12.375 3.0775 12.375 4.4375 12.375 C3.86405063 15.24224686 3.5760485 16.2364515 1.4375 18.375 C-0.5 18.3125 -0.5 18.3125 -2.5625 17.375 C-5.02746119 14.46986717 -5.78455154 12.03888059 -5.9375 8.3125 C-5.4876863 3.58945615 -5.04618331 0.73846585 0 0 Z " fill="#EFF9F2" transform="translate(228.5625,262.625)"/>
<path d="M0 0 C2.83181098 -0.43566323 4.36063578 -0.39684676 6.8125 1.125 C8.49106106 3.77535957 8.20450238 5.93246424 8 9 C6.02 9 4.04 9 2 9 C2.33 10.32 2.66 11.64 3 13 C4.32 12.67 5.64 12.34 7 12 C6.49396008 14.16874252 6.00016187 15.99967627 5 18 C2.625 17.75 2.625 17.75 0 17 C-1.99573039 13.99282801 -2.27148868 11.49924867 -2.25 7.9375 C-2.25515625 7.08027344 -2.2603125 6.22304688 -2.265625 5.33984375 C-2 3 -2 3 0 0 Z " fill="#EEF9F1" transform="translate(282,263)"/>
<path d="M0 0 C0.804375 0.144375 1.60875 0.28875 2.4375 0.4375 C4.72763653 3.8727048 4.61592973 5.422831 4.4375 9.4375 C2.4575 9.4375 0.4775 9.4375 -1.5625 9.4375 C-1.2325 10.4275 -0.9025 11.4175 -0.5625 12.4375 C0.7575 12.4375 2.0775 12.4375 3.4375 12.4375 C3.1075 14.0875 2.7775 15.7375 2.4375 17.4375 C0.7875 17.7675 -0.8625 18.0975 -2.5625 18.4375 C-5.2271869 15.39214354 -5.97444472 13.47678889 -5.9375 9.4375 C-5.94523437 8.591875 -5.95296875 7.74625 -5.9609375 6.875 C-5.32546057 2.98737645 -3.97010069 0.67782207 0 0 Z " fill="#E7F7EB" transform="translate(344.5625,262.5625)"/>
<path d="M0 0 C1.98 0 3.96 0 6 0 C8.57452839 2.83198123 8.97465182 4.75919233 9.375 8.5625 C8.98117226 12.17258765 8.78460056 13.67949954 6 16 C4.02 16 2.04 16 0 16 C0 10.72 0 5.44 0 0 Z " fill="#10AF2B" transform="translate(262,231)"/>
<path d="M0 0 C1.09400202 3.42906862 0.96970597 6.29044881 0.66015625 9.859375 C0.56669922 10.97441406 0.47324219 12.08945313 0.37695312 13.23828125 C0.27318359 14.39714844 0.16941406 15.55601562 0.0625 16.75 C-0.03740234 17.92433594 -0.13730469 19.09867188 -0.24023438 20.30859375 C-0.48759865 23.20628956 -0.74107341 26.10331824 -1 29 C-0.01 29 0.98 29 2 29 C2 35.6 2 42.2 2 49 C1.01 48.34 0.02 47.68 -1 47 C-1.51171875 43.7421875 -1.51171875 43.7421875 -1.6875 39.875 C-1.75324219 38.59367187 -1.81898437 37.31234375 -1.88671875 35.9921875 C-1.92410156 35.00476563 -1.96148437 34.01734375 -2 33 C-2.99 33 -3.98 33 -5 33 C-5.25051975 25.73492723 -5.25051975 25.73492723 -4.05859375 22.23828125 C-2.81236798 18.42602602 -2.35857211 14.78522385 -1.9375 10.8125 C-1.11993243 3.3597973 -1.11993243 3.3597973 0 0 Z " fill="#FE8573" transform="translate(72,205)"/>
<path d="M0 0 C5 0 5 0 8 2 C8.36328125 4.49609375 8.36328125 4.49609375 8.3125 7.4375 C8.30863281 8.40558594 8.30476563 9.37367188 8.30078125 10.37109375 C8 13 8 13 6 16 C4.02 16 2.04 16 0 16 C0 10.72 0 5.44 0 0 Z " fill="#08AD2C" transform="translate(304,231)"/>
<path d="M0 0 C1.98 0 3.96 0 6 0 C6 2.31 6 4.62 6 7 C6.66 7 7.32 7 8 7 C8 4.69 8 2.38 8 0 C9.65 0 11.3 0 13 0 C13 0.99 13 1.98 13 3 C12.01 3.495 12.01 3.495 11 4 C10.21376109 6.16072227 9.51798774 8.35490875 8.875 10.5625 C8.52179688 11.76003906 8.16859375 12.95757812 7.8046875 14.19140625 C7.53914063 15.11824219 7.27359375 16.04507812 7 17 C6.34 17 5.68 17 5 17 C2.01170674 11.43090802 0 6.37354033 0 0 Z " fill="#E2F5E7" transform="translate(321,263)"/>
<path d="M0 0 C1.32 0 2.64 0 4 0 C4.33 7.59 4.66 15.18 5 23 C3.02 23 1.04 23 -1 23 C-0.505 14.09 -0.505 14.09 0 5 C-0.66 5 -1.32 5 -2 5 C-1.125 1.125 -1.125 1.125 0 0 Z " fill="#E6F7EB" transform="translate(297,257)"/>
<path d="M0 0 C0 0.33 0 0.66 0 1 C-1.91425781 1.19916016 -1.91425781 1.19916016 -3.8671875 1.40234375 C-5.53647996 1.58052665 -7.20574964 1.75892314 -8.875 1.9375 C-9.71675781 2.02451172 -10.55851562 2.11152344 -11.42578125 2.20117188 C-12.63427734 2.33168945 -12.63427734 2.33168945 -13.8671875 2.46484375 C-14.61081543 2.543396 -15.35444336 2.62194824 -16.12060547 2.70288086 C-18.08446316 2.91637347 -18.08446316 2.91637347 -20 4 C-23.06242321 4.08711775 -26.10186465 4.1154846 -29.1640625 4.09765625 C-30.07127045 4.0962413 -30.97847839 4.09482635 -31.91317749 4.09336853 C-34.81715155 4.08776096 -37.72104915 4.07520718 -40.625 4.0625 C-42.59114472 4.05748598 -44.55729065 4.0529229 -46.5234375 4.04882812 C-51.3489879 4.03778906 -56.17448097 4.02051935 -61 4 C-61 3.34 -61 2.68 -61 2 C-62.98 2 -64.96 2 -67 2 C-67 1.67 -67 1.34 -67 1 C-61.06 1 -55.12 1 -49 1 C-49 1.66 -49 2.32 -49 3 C-37.2655682 2.61397831 -25.58886416 2.17892691 -13.93798828 0.66064453 C-9.23816982 0.061992 -4.72616918 -0.07920954 0 0 Z " fill="#FFDEB7" transform="translate(286,434)"/>
<path d="M0 0 C3.03739604 2.23769515 4.14893949 4.02128822 5.1796875 7.62890625 C5.1796875 11.07398334 4.74263059 13.09495791 3.1796875 16.12890625 C1.8596875 15.79890625 0.5396875 15.46890625 -0.8203125 15.12890625 C-0.1603125 14.13890625 0.4996875 13.14890625 1.1796875 12.12890625 C1.31840109 10.13171818 1.31840109 10.13171818 0.9921875 8.06640625 C0.91613281 7.37417969 0.84007812 6.68195313 0.76171875 5.96875 C0.2660418 3.73436825 0.2660418 3.73436825 -2.8203125 2.12890625 C-7.46133715 1.65068862 -7.46133715 1.65068862 -11.6953125 3.25390625 C-13.22342274 5.80075666 -13.44711126 8.20549656 -13.8203125 11.12890625 C-14.1503125 11.78890625 -14.4803125 12.44890625 -14.8203125 13.12890625 C-17.7903125 12.63390625 -17.7903125 12.63390625 -20.8203125 12.12890625 C-19.5003125 11.79890625 -18.1803125 11.46890625 -16.8203125 11.12890625 C-16.9028125 10.05640625 -16.9853125 8.98390625 -17.0703125 7.87890625 C-16.8203125 4.12890625 -16.8203125 4.12890625 -15.0078125 1.75390625 C-10.70200999 -1.4446899 -4.91509654 -2.3520741 0 0 Z " fill="#DFD8C8" transform="translate(200.8203125,277.87109375)"/>
<path d="M0 0 C1.65 0 3.3 0 5 0 C7.08940868 3.13411302 7.27364412 3.97450472 7.25 7.5625 C7.25515625 8.34753906 7.2603125 9.13257813 7.265625 9.94140625 C7 12 7 12 5 14 C3.35 14 1.7 14 0 14 C0 9.38 0 4.76 0 0 Z " fill="#0FAF2B" transform="translate(304,215)"/>
<path d="M0 0 C1.65 0 3.3 0 5 0 C6.99825961 2.99738941 7.27550398 3.63347508 7.25 7 C7.25515625 7.680625 7.2603125 8.36125 7.265625 9.0625 C7 11 7 11 5 14 C3.35 14 1.7 14 0 14 C0 9.38 0 4.76 0 0 Z " fill="#0EAE2C" transform="translate(262,215)"/>
<path d="M0 0 C0.19384179 2.81219705 0.38036603 5.62454196 0.5625 8.4375 C0.61857422 9.23994141 0.67464844 10.04238281 0.73242188 10.86914062 C0.8616295 12.91062111 0.9351273 14.95546369 1 17 C0 18 0 18 -2.5625 18.0625 C-3.366875 18.041875 -4.17125 18.02125 -5 18 C-5.08074203 15.37438891 -5.1403623 12.75124324 -5.1875 10.125 C-5.21263672 9.37863281 -5.23777344 8.63226563 -5.26367188 7.86328125 C-5.29296875 5.6953125 -5.29296875 5.6953125 -5 2 C-2 0 -2 0 0 0 Z " fill="#E1F5E6" transform="translate(314,263)"/>
<path d="M0 0 C1.18916016 0.01353516 1.18916016 0.01353516 2.40234375 0.02734375 C4.35169281 0.05082988 6.30088575 0.08669863 8.25 0.125 C1.87340207 3.4818434 -4.65070493 4.34810617 -11.74609375 4.87890625 C-13.74600793 4.91579325 -13.74600793 4.91579325 -14.75 6.125 C-16.34207821 6.54839421 -17.94957573 6.91466289 -19.5625 7.25 C-20.43519531 7.43820313 -21.30789062 7.62640625 -22.20703125 7.8203125 C-24.73963976 8.12375868 -26.35079158 7.91914358 -28.75 7.125 C-27.64140625 6.78726563 -26.5328125 6.44953125 -25.390625 6.1015625 C-23.92702702 5.65122466 -22.46348845 5.20069367 -21 4.75 C-19.90558594 4.41742188 -19.90558594 4.41742188 -18.7890625 4.078125 C-14.6515675 2.83731673 -14.6515675 2.83731673 -10.78125 0.96875 C-7.32297059 -0.46776606 -3.69796059 -0.07972386 0 0 Z " fill="#FFC480" transform="translate(222.75,63.875)"/>
<path d="M0 0 C0.66 0.33 1.32 0.66 2 1 C-5.67091193 9.40408752 -13.31907206 17.61921104 -22 25 C-22 22 -22 22 -20.64453125 20.3515625 C-20.03996094 19.78179687 -19.43539062 19.21203125 -18.8125 18.625 C-18.22082031 18.06039062 -17.62914063 17.49578125 -17.01953125 16.9140625 C-16.35308594 16.28242187 -15.68664062 15.65078125 -15 15 C-13.32926996 13.33740663 -11.66290587 11.670419 -10 10 C-5 5 -5 5 0 0 Z " fill="#FFDCB3" transform="translate(134,104)"/>
<path d="M0 0 C0.99 0.495 0.99 0.495 2 1 C2.2475 1.86625 2.495 2.7325 2.75 3.625 C4.6458733 8.74385791 8.18667561 12.18667561 12 16 C9.03824877 15.38722388 7.61941217 14.74627478 5 13 C4.01 13 3.02 13 2 13 C1.34 14.32 0.68 15.64 0 17 C0 11.39 0 5.78 0 0 Z " fill="#C2D90B" transform="translate(330,232)"/>
<path d="M0 0 C2.74086056 -0.22223194 4.43963721 -0.34781139 6.8125 1.125 C8.49106106 3.77535957 8.20450238 5.93246424 8 9 C2.25 7.375 2.25 7.375 0 4 C-0.99 4.495 -0.99 4.495 -2 5 C-1.34 3.35 -0.68 1.7 0 0 Z " fill="#DFF5E5" transform="translate(282,263)"/>
<path d="M0 0 C7.62595318 -0.45755719 14.6029854 1.25463701 22 3 C22 3.66 22 4.32 22 5 C23.98 5 25.96 5 28 5 C28.33 5.66 28.66 6.32 29 7 C23.0574717 6.57553369 17.45580301 5.49410696 11.6875 4.0625 C10.99398438 3.89266602 10.30046875 3.72283203 9.5859375 3.54785156 C6.18129091 2.6801625 3.05716672 1.75256601 0 0 Z " fill="#FFB55E" transform="translate(268,64)"/>
<path d="M0 0 C3.56894672 2.71572914 4.3640771 6.57052039 5.5625 10.6875 C5.77068359 11.37005859 5.97886719 12.05261719 6.19335938 12.75585938 C7.61319181 17.46934699 8.8352489 22.21754271 10 27 C6.79323908 25.39661954 6.23110509 22.06855974 5 18.875 C4.73960938 18.22273438 4.47921875 17.57046875 4.2109375 16.8984375 C2.0257265 11.33608223 0 6.04172175 0 0 Z " fill="#FFC480" transform="translate(73,298)"/>
<path d="M0 0 C4.10505226 0.07894331 7.16383361 0.76318127 10.5 3.125 C13 6 13 6 12.875 9.8125 C12.58625 10.864375 12.2975 11.91625 12 13 C11.67 13 11.34 13 11 13 C10.71125 11.88625 10.4225 10.7725 10.125 9.625 C9.30758671 5.99708908 9.30758671 5.99708908 7 4 C4.80295489 3.32348793 4.80295489 3.32348793 2.375 2.875 C1.14910156 2.62363281 1.14910156 2.62363281 -0.1015625 2.3671875 C-0.72804687 2.24601562 -1.35453125 2.12484375 -2 2 C-1.34 1.34 -0.68 0.68 0 0 Z " fill="#E8D8CC" transform="translate(146,277)"/>
<path d="M0 0 C1.2684375 0.12375 1.2684375 0.12375 2.5625 0.25 C4.85263653 3.6852048 4.74092973 5.235331 4.5625 9.25 C4.2325 9.25 3.9025 9.25 3.5625 9.25 C3.5625 7.6 3.5625 5.95 3.5625 4.25 C2.9025 4.25 2.2425 4.25 1.5625 4.25 C1.5625 4.91 1.5625 5.57 1.5625 6.25 C-1.4075 5.755 -1.4075 5.755 -4.4375 5.25 C-3.32911727 0.34144793 -3.32911727 0.34144793 0 0 Z " fill="#BFEAC8" transform="translate(344.4375,262.75)"/>
<path d="M0 0 C0 0.66 0 1.32 0 2 C-2.44921875 3.91015625 -2.44921875 3.91015625 -5.6875 6.0625 C-6.74324219 6.77535156 -7.79898438 7.48820312 -8.88671875 8.22265625 C-11.74155162 9.85245419 -13.77154688 10.61066892 -17 11 C-13.04925974 6.52249437 -6.24406437 0 0 0 Z " fill="#FFD6A6" transform="translate(162,86)"/>
<path d="M0 0 C2.31 0.66 4.62 1.32 7 2 C7.66 1.34 8.32 0.68 9 0 C9 3.63 9 7.26 9 11 C8.34 11 7.68 11 7 11 C6.6596875 9.88625 6.6596875 9.88625 6.3125 8.75 C4.75626034 5.48930737 2.836696 4.16484695 0 2 C0 1.34 0 0.68 0 0 Z " fill="#CFDC08" transform="translate(347,214)"/>
<path d="M0 0 C0.763125 0.0825 1.52625 0.165 2.3125 0.25 C1.9825 2.56 1.6525 4.87 1.3125 7.25 C0.3225 7.25 -0.6675 7.25 -1.6875 7.25 C-1.6875 6.26 -1.6875 5.27 -1.6875 4.25 C-2.6775 4.745 -2.6775 4.745 -3.6875 5.25 C-4.09479228 7.57156597 -4.43188677 9.9068787 -4.6875 12.25 C-5.0175 12.25 -5.3475 12.25 -5.6875 12.25 C-6.04940476 5.01190476 -6.04940476 5.01190476 -4.5 1.75 C-2.6875 0.25 -2.6875 0.25 0 0 Z " fill="#ABE3B8" transform="translate(228.6875,262.75)"/>
<path d="M0 0 C0.33 0 0.66 0 1 0 C1.20674944 5.78898419 0.59162079 10.42932723 -1 16 C-1.66 16 -2.32 16 -3 16 C-3.33 17.65 -3.66 19.3 -4 21 C-5.09868574 17.72606396 -4.9040331 15.9556512 -3.6875 12.75 C-2.16480955 8.53815439 -1.02998959 4.35764827 0 0 Z " fill="#FFB865" transform="translate(423,286)"/>
<path d="M0 0 C0.99 0.495 0.99 0.495 2 1 C2 2.32 2 3.64 2 5 C2.99 5.33 3.98 5.66 5 6 C6.10228696 10.40914783 6.07654536 14.48382401 6 19 C3.77423889 15.66135833 2.95201066 12.79479374 1.875 8.9375 C1.52179688 7.68839844 1.16859375 6.43929687 0.8046875 5.15234375 C0 2 0 2 0 0 Z " fill="#FFC27B" transform="translate(416,189)"/>
<path d="M0 0 C0.33 0 0.66 0 1 0 C1 4.29 1 8.58 1 13 C0.01 13 -0.98 13 -2 13 C-1.34 11.68 -0.68 10.36 0 9 C-1.32 9.33 -2.64 9.66 -4 10 C-4.66 8.68 -5.32 7.36 -6 6 C-4.02 6 -2.04 6 0 6 C0 4.02 0 2.04 0 0 Z " fill="#39BC53" transform="translate(233,266)"/>
<path d="M0 0 C1.98 0 3.96 0 6 0 C6.042721 1.66611905 6.04063832 3.33382885 6 5 C5 6 5 6 2.4375 6.0625 C1.2309375 6.0315625 1.2309375 6.0315625 0 6 C0 4.02 0 2.04 0 0 Z " fill="#CDEED6" transform="translate(244,268)"/>
<path d="M0 0 C0.6875 1.6875 0.6875 1.6875 1 4 C-0.125 6.125 -0.125 6.125 -2 9 C-3.71354825 12.31014809 -5.35652218 15.65458071 -7 19 C-7.99134419 16.38260955 -8.09832287 15.265213 -7.109375 12.59765625 C-6.66078125 11.76105469 -6.2121875 10.92445313 -5.75 10.0625 C-5.05583984 8.75345703 -5.05583984 8.75345703 -4.34765625 7.41796875 C-2.95031705 4.91085871 -1.53596029 2.42520046 0 0 Z " fill="#FFC887" transform="translate(94,151)"/>
<path d="M0 0 C2 3 2 3 1.75 6 C1 9 1 9 -1 12 C-1.99 11.67 -2.98 11.34 -4 11 C-3.34 10.01 -2.68 9.02 -2 8 C-1.92094936 5.66800612 -1.91201231 3.33167378 -2 1 C-1.34 0.67 -0.68 0.34 0 0 Z " fill="#BBE9C6" transform="translate(204,282)"/>
<path d="M0 0 C0 0.66 0 1.32 0 2 C-0.66 2 -1.32 2 -2 2 C-2.33 2.99 -2.66 3.98 -3 5 C-3.66 5 -4.32 5 -5 5 C-7.05925681 8.08888522 -7.2390374 8.70935927 -7.125 12.1875 C-7.08375 13.445625 -7.0425 14.70375 -7 16 C-7.66 15.67 -8.32 15.34 -9 15 C-9.125 7.375 -9.125 7.375 -8 4 C-3.65714286 0 -3.65714286 0 0 0 Z " fill="#B4D60D" transform="translate(339,214)"/>
<path d="M0 0 C0.33 0 0.66 0 1 0 C0.67 3.63 0.34 7.26 0 11 C-0.33 10.01 -0.66 9.02 -1 8 C-2.32 8.33 -3.64 8.66 -5 9 C-5.33 7.68 -5.66 6.36 -6 5 C-4.02 5 -2.04 5 0 5 C0 3.35 0 1.7 0 0 Z " fill="#37BB51" transform="translate(290,267)"/>
<path d="M0 0 C1.32 0 2.64 0 4 0 C3.11223998 3.69900008 2.05418136 7.34550461 1 11 C0.67 10.01 0.34 9.02 0 8 C-0.66 7.67 -1.32 7.34 -2 7 C-1.34 7 -0.68 7 0 7 C0 4.69 0 2.38 0 0 Z " fill="#D3F1DB" transform="translate(380,263)"/>
<path d="M0 0 C-2.7596861 1.83979073 -4.29741882 2.48323221 -7.4375 3.1875 C-8.19933594 3.36667969 -8.96117187 3.54585938 -9.74609375 3.73046875 C-12.12958496 4.0154963 -13.73104204 3.72875415 -16 3 C-14.08802961 2.29954544 -12.17019565 1.615081 -10.25 0.9375 C-9.18265625 0.55464844 -8.1153125 0.17179687 -7.015625 -0.22265625 C-4.07719958 -0.98010011 -2.77651052 -1.07151741 0 0 Z " fill="#FFAF51" transform="translate(303,430)"/>
<path d="M0 0 C3.08496658 3.49629546 4.93180036 6.43587428 6 11 C5.54296875 13.18359375 5.54296875 13.18359375 5 15 C4.15733289 13.25447527 3.32619962 11.5033792 2.5 9.75 C2.0359375 8.77546875 1.571875 7.8009375 1.09375 6.796875 C0 4 0 4 0 0 Z " fill="#FFD099" transform="translate(409,170)"/>
<path d="M0 0 C0.66 0 1.32 0 2 0 C2 1.32 2 2.64 2 4 C2.99 4 3.98 4 5 4 C4.67 4.99 4.34 5.98 4 7 C2.68 6.67 1.36 6.34 0 6 C-0.38218767 4.34385343 -0.71395102 2.67542976 -1 1 C-0.67 0.67 -0.34 0.34 0 0 Z " fill="#D5F1DC" transform="translate(372,279)"/>
<path d="M0 0 C4.8333472 -0.08333357 9.23692563 0.04738513 14 1 C14 1.66 14 2.32 14 3 C11.36 3 8.72 3 6 3 C6 2.34 6 1.68 6 1 C4.02 1 2.04 1 0 1 C0 0.67 0 0.34 0 0 Z " fill="#FFCF98" transform="translate(219,435)"/>
<path d="M0 0 C5.52677733 -0.19392201 9.75614911 0.2520497 15 2 C15 2.33 15 2.66 15 3 C9.47322267 3.19392201 5.24385089 2.7479503 0 1 C0 0.67 0 0.34 0 0 Z " fill="#FFD6A6" transform="translate(204,432)"/>
<path d="M0 0 C1.65 0 3.3 0 5 0 C4.67 1.98 4.34 3.96 4 6 C3.01 6 2.02 6 1 6 C0.67 5.34 0.34 4.68 0 4 C-0.99 4.495 -0.99 4.495 -2 5 C-1.34 3.35 -0.68 1.7 0 0 Z " fill="#A3E0B1" transform="translate(282,263)"/>
<path d="M0 0 C3.93774177 -0.36630156 5.56539771 -0.30233203 8.875 2 C9.926875 2.99 9.926875 2.99 11 4 C10.67 4.99 10.34 5.98 10 7 C9.0925 6.21625 8.185 5.4325 7.25 4.625 C4.94809764 2.69947504 2.78422793 1.17794259 0 0 Z " fill="#E3EADC" transform="translate(193,277)"/>
<path d="M0 0 C1.32 0 2.64 0 4 0 C4 1.32 4 2.64 4 4 C2.35 4.33 0.7 4.66 -1 5 C-0.67 3.35 -0.34 1.7 0 0 Z " fill="#DFF4E5" transform="translate(310,257)"/>
<path d="M0 0 C0.33 0 0.66 0 1 0 C1.1799928 5.21979128 0.97094808 9.07262981 -1 14 C-1.33 14 -1.66 14 -2 14 C-2.1799928 8.78020872 -1.97094808 4.92737019 0 0 Z " fill="#FFCE96" transform="translate(69,224)"/>
<path d="M0 0 C1.65 0 3.3 0 5 0 C5.33 1.98 5.66 3.96 6 6 C5.34 5.34 4.68 4.68 4 4 C1.93125966 3.3574765 1.93125966 3.3574765 0 3 C0 2.01 0 1.02 0 0 Z " fill="#52C467" transform="translate(343,272)"/>
<path d="M0 0 C-5.75 5 -5.75 5 -8 5 C-6.19780722 -0.02039417 -5.34443412 -1.60333024 0 0 Z " fill="#10B236" transform="translate(195,280)"/>
<path d="M0 0 C-0.33 0.66 -0.66 1.32 -1 2 C-3.875 2.125 -3.875 2.125 -7 2 C-7.66 1.34 -8.32 0.68 -9 0 C-5.93109813 -1.53445094 -3.29905734 -0.54984289 0 0 Z " fill="#D9CDBB" transform="translate(153,278)"/>
<path d="M0 0 C0.33 0 0.66 0 1 0 C1 1.65 1 3.3 1 5 C1.66 5.33 2.32 5.66 3 6 C-0.63423209 8.32590854 -3.77088331 8.16265833 -8 8 C-8 7.67 -8 7.34 -8 7 C-5.69 6.34 -3.38 5.68 -1 5 C-0.67 3.35 -0.34 1.7 0 0 Z " fill="#98CF12" transform="translate(351,241)"/>
<path d="M0 0 C2.64 0 5.28 0 8 0 C7.67 0.99 7.34 1.98 7 3 C4.69 3 2.38 3 0 3 C0 2.01 0 1.02 0 0 Z " fill="#A7D110" transform="translate(270,228)"/>
<path d="M0 0 C0 0.66 0 1.32 0 2 C-7.42857143 4.42857143 -7.42857143 4.42857143 -11 3 C-4.5 0 -4.5 0 0 0 Z " fill="#FFD19B" transform="translate(194,72)"/>
<path d="M0 0 C1.00000429 4.00001715 0.80688405 6.05523353 0 10 C-1.32 9.67 -2.64 9.34 -4 9 C-3.34 9 -2.68 9 -2 9 C-1.34 6.03 -0.68 3.06 0 0 Z " fill="#40C05C" transform="translate(330,271)"/>
<path d="M0 0 C0.33 0 0.66 0 1 0 C1.36923077 5.53846154 1.36923077 5.53846154 -0.5 7.875 C-1.2425 8.431875 -1.2425 8.431875 -2 9 C-2.25 3.375 -2.25 3.375 0 0 Z " fill="#FFD5A5" transform="translate(417,307)"/>
<path d="M0 0 C1.98 0 3.96 0 6 0 C6 1.98 6 3.96 6 6 C5.67 6 5.34 6 5 6 C5 4.35 5 2.7 5 1 C1.88214887 1.64644661 1.88214887 1.64644661 1 4 C0.34 4 -0.32 4 -1 4 C-0.67 2.68 -0.34 1.36 0 0 Z " fill="#C4ECCE" transform="translate(372,263)"/>
<path d="M0 0 C0.66 0.33 1.32 0.66 2 1 C-0.25 3.0625 -0.25 3.0625 -3 5 C-5.3125 4.75 -5.3125 4.75 -7 4 C-1.7265625 0.77734375 -1.7265625 0.77734375 0 0 Z " fill="#FFC785" transform="translate(169,81)"/>
<path d="M0 0 C0 1.65 0 3.3 0 5 C-1.65 5 -3.3 5 -5 5 C-5 3 -5 3 -3.625 1.375 C-2 0 -2 0 0 0 Z " fill="#FAFDFB" transform="translate(348,267)"/>
<path d="" fill="#FF8A00" transform="translate(0,0)"/>
<path d="" fill="#FF8A00" transform="translate(0,0)"/>
<path d="" fill="#FF8A00" transform="translate(0,0)"/>
<path d="" fill="#FF8A00" transform="translate(0,0)"/>
<path d="" fill="#FF8A00" transform="translate(0,0)"/>
</svg>
