<?xml version="1.0" encoding="UTF-8"?>
<svg version="1.1" xmlns="http://www.w3.org/2000/svg" width="512" height="512">
<path d="M0 0 C1.68787628 -0.00642769 1.68787628 -0.00642769 3.40985107 -0.01298523 C5.7763197 -0.01869307 8.14280586 -0.01925518 10.50927734 -0.01489258 C14.08592411 -0.01173942 17.66173675 -0.03521445 21.23828125 -0.06054688 C33.14331892 -0.09436152 44.31819189 0.09728873 55.859375 3.30078125 C56.76268555 3.54111084 57.66599609 3.78144043 58.59667969 4.02905273 C60.95547695 4.69162846 63.28135404 5.41274587 65.609375 6.17578125 C66.4144751 6.43552734 67.2195752 6.69527344 68.04907227 6.96289062 C74.2064364 8.99239556 80.06313867 11.38926654 85.859375 14.30078125 C86.83003906 14.76226562 87.80070313 15.22375 88.80078125 15.69921875 C115.2715655 28.47821804 138.761915 48.43297668 155.859375 72.30078125 C156.50390625 73.17347656 157.1484375 74.04617187 157.8125 74.9453125 C164.86755333 84.68435351 170.03851651 95.31575214 174.859375 106.30078125 C175.354375 107.41839844 175.849375 108.53601563 176.359375 109.6875 C180.95416986 120.56424096 184.06823869 131.8387544 186.859375 143.30078125 C187.02979309 143.90645432 187.20021118 144.51212738 187.37579346 145.13615417 C189.19206496 152.14904769 189.14811556 159.03223196 189.125 166.2421875 C189.12635072 167.57779511 189.12829462 168.91340223 189.13079834 170.24900818 C189.13372948 173.03348522 189.12951663 175.81783303 189.12011719 178.60229492 C189.10871259 182.15156856 189.11530114 185.70053995 189.12726212 189.24980259 C189.13452589 192.00292698 189.13217236 194.75598095 189.12700653 197.50910759 C189.12504503 199.44768854 189.13106283 201.38627235 189.13726807 203.32484436 C189.10359065 209.69038808 188.73604668 215.21272958 186.859375 221.30078125 C186.56417969 222.53957031 186.26898438 223.77835938 185.96484375 225.0546875 C182.39034019 239.88507459 177.61829185 253.61662073 170.859375 267.30078125 C170.54983887 267.94176758 170.24030273 268.58275391 169.92138672 269.24316406 C167.57029215 274.05781214 164.95736686 278.63868931 162.109375 283.17578125 C161.67181885 283.87340576 161.2342627 284.57103027 160.78344727 285.28979492 C157.17531024 290.95897438 153.19093757 296.16393797 148.859375 301.30078125 C148.12847656 302.22632813 147.39757812 303.151875 146.64453125 304.10546875 C142.7406062 309.03042035 138.87051334 313.51399379 133.9765625 317.47265625 C132.08292565 319.10775227 130.38925915 320.8045737 128.65234375 322.6015625 C124.83965599 326.44360978 120.70119781 329.60648769 116.296875 332.73828125 C115.51183594 333.3003125 114.72679687 333.86234375 113.91796875 334.44140625 C107.13850397 339.22885297 100.19452948 343.41964888 92.859375 347.30078125 C92.02664063 347.75710938 91.19390625 348.2134375 90.3359375 348.68359375 C82.82348323 352.6519666 74.83925771 355.43599505 66.859375 358.30078125 C65.60447266 358.76677734 65.60447266 358.76677734 64.32421875 359.2421875 C53.16781405 363.22512824 41.94782959 364.76402887 30.1484375 364.734375 C28.89662689 364.73961685 27.64481628 364.7448587 26.35507202 364.7502594 C23.72825862 364.75663352 21.1014165 364.7554031 18.47460938 364.74682617 C14.5007748 364.73831637 10.52838081 364.76714664 6.5546875 364.79882812 C-6.64355205 364.83519062 -18.56392476 364.49067076 -31.140625 360.30078125 C-32.72245053 359.87738009 -34.3067046 359.46280874 -35.89453125 359.0625 C-45.4911159 356.355771 -54.30161595 352.91302969 -63.140625 348.30078125 C-63.80481445 347.95499023 -64.46900391 347.60919922 -65.15332031 347.25292969 C-74.44776541 342.35206186 -82.92031728 336.88164558 -91.140625 330.30078125 C-92.0171875 329.62789063 -92.89375 328.955 -93.796875 328.26171875 C-105.0559389 319.4200421 -115.90252633 309.05380202 -124.140625 297.30078125 C-124.69621094 296.53894531 -125.25179687 295.77710938 -125.82421875 294.9921875 C-141.00895438 273.85530605 -152.06150602 250.78623101 -157.68771362 225.3283844 C-158.09373253 223.51071044 -158.52164878 221.69796032 -158.95239258 219.88598633 C-161.36599443 208.71303703 -161.63302611 197.77255942 -161.58666992 186.3671875 C-161.57819293 183.20115297 -161.606974 180.03695002 -161.63867188 176.87109375 C-161.72355549 152.37496691 -157.33116218 127.30779866 -146.140625 105.30078125 C-145.5358955 104.04907636 -144.93318877 102.79639308 -144.33203125 101.54296875 C-135.64371591 83.58697347 -124.97577561 67.71873124 -111.140625 53.30078125 C-110.56892578 52.6965332 -109.99722656 52.09228516 -109.40820312 51.46972656 C-100.98001327 42.59245662 -92.44202017 34.91879054 -82.140625 28.30078125 C-81.44565918 27.84719238 -80.75069336 27.39360352 -80.03466797 26.92626953 C-64.92584638 17.12405858 -49.11448037 9.82628 -31.828125 4.73828125 C-31.14556641 4.53009766 -30.46300781 4.32191406 -29.75976562 4.10742188 C-19.87001165 1.18357431 -10.30136913 -0.00889523 0 0 Z " fill="#FEFDFC" transform="translate(230.140625,59.69921875)"/>
<path d="M0 0 C1.68787628 -0.00642769 1.68787628 -0.00642769 3.40985107 -0.01298523 C5.7763197 -0.01869307 8.14280586 -0.01925518 10.50927734 -0.01489258 C14.08592411 -0.01173942 17.66173675 -0.03521445 21.23828125 -0.06054688 C33.14331892 -0.09436152 44.31819189 0.09728873 55.859375 3.30078125 C56.76268555 3.54111084 57.66599609 3.78144043 58.59667969 4.02905273 C60.95547695 4.69162846 63.28135404 5.41274587 65.609375 6.17578125 C66.4144751 6.43552734 67.2195752 6.69527344 68.04907227 6.96289062 C74.2064364 8.99239556 80.06313867 11.38926654 85.859375 14.30078125 C86.83003906 14.76226562 87.80070313 15.22375 88.80078125 15.69921875 C115.2715655 28.47821804 138.761915 48.43297668 155.859375 72.30078125 C156.50390625 73.17347656 157.1484375 74.04617187 157.8125 74.9453125 C164.86755333 84.68435351 170.03851651 95.31575214 174.859375 106.30078125 C175.354375 107.41839844 175.849375 108.53601563 176.359375 109.6875 C180.95416986 120.56424096 184.06823869 131.8387544 186.859375 143.30078125 C187.02979309 143.90645432 187.20021118 144.51212738 187.37579346 145.13615417 C189.19206496 152.14904769 189.14811556 159.03223196 189.125 166.2421875 C189.12635072 167.57779511 189.12829462 168.91340223 189.13079834 170.24900818 C189.13372948 173.03348522 189.12951663 175.81783303 189.12011719 178.60229492 C189.10871259 182.15156856 189.11530114 185.70053995 189.12726212 189.24980259 C189.13452589 192.00292698 189.13217236 194.75598095 189.12700653 197.50910759 C189.12504503 199.44768854 189.13106283 201.38627235 189.13726807 203.32484436 C189.10359065 209.69038808 188.73604668 215.21272958 186.859375 221.30078125 C186.56417969 222.53957031 186.26898438 223.77835938 185.96484375 225.0546875 C182.39034019 239.88507459 177.61829185 253.61662073 170.859375 267.30078125 C170.54983887 267.94176758 170.24030273 268.58275391 169.92138672 269.24316406 C167.57029215 274.05781214 164.95736686 278.63868931 162.109375 283.17578125 C161.67181885 283.87340576 161.2342627 284.57103027 160.78344727 285.28979492 C157.17531024 290.95897438 153.19093757 296.16393797 148.859375 301.30078125 C148.12847656 302.22632813 147.39757812 303.151875 146.64453125 304.10546875 C142.7406062 309.03042035 138.87051334 313.51399379 133.9765625 317.47265625 C132.08292565 319.10775227 130.38925915 320.8045737 128.65234375 322.6015625 C124.83965599 326.44360978 120.70119781 329.60648769 116.296875 332.73828125 C115.51183594 333.3003125 114.72679687 333.86234375 113.91796875 334.44140625 C107.13850397 339.22885297 100.19452948 343.41964888 92.859375 347.30078125 C92.02664063 347.75710938 91.19390625 348.2134375 90.3359375 348.68359375 C82.82348323 352.6519666 74.83925771 355.43599505 66.859375 358.30078125 C65.60447266 358.76677734 65.60447266 358.76677734 64.32421875 359.2421875 C53.16781405 363.22512824 41.94782959 364.76402887 30.1484375 364.734375 C28.89662689 364.73961685 27.64481628 364.7448587 26.35507202 364.7502594 C23.72825862 364.75663352 21.1014165 364.7554031 18.47460938 364.74682617 C14.5007748 364.73831637 10.52838081 364.76714664 6.5546875 364.79882812 C-6.64355205 364.83519062 -18.56392476 364.49067076 -31.140625 360.30078125 C-32.72245053 359.87738009 -34.3067046 359.46280874 -35.89453125 359.0625 C-45.4911159 356.355771 -54.30161595 352.91302969 -63.140625 348.30078125 C-63.80481445 347.95499023 -64.46900391 347.60919922 -65.15332031 347.25292969 C-74.44776541 342.35206186 -82.92031728 336.88164558 -91.140625 330.30078125 C-92.0171875 329.62789063 -92.89375 328.955 -93.796875 328.26171875 C-105.0559389 319.4200421 -115.90252633 309.05380202 -124.140625 297.30078125 C-124.69621094 296.53894531 -125.25179687 295.77710938 -125.82421875 294.9921875 C-141.00895438 273.85530605 -152.06150602 250.78623101 -157.68771362 225.3283844 C-158.09373253 223.51071044 -158.52164878 221.69796032 -158.95239258 219.88598633 C-161.36599443 208.71303703 -161.63302611 197.77255942 -161.58666992 186.3671875 C-161.57819293 183.20115297 -161.606974 180.03695002 -161.63867188 176.87109375 C-161.72355549 152.37496691 -157.33116218 127.30779866 -146.140625 105.30078125 C-145.5358955 104.04907636 -144.93318877 102.79639308 -144.33203125 101.54296875 C-135.64371591 83.58697347 -124.97577561 67.71873124 -111.140625 53.30078125 C-110.56892578 52.6965332 -109.99722656 52.09228516 -109.40820312 51.46972656 C-100.98001327 42.59245662 -92.44202017 34.91879054 -82.140625 28.30078125 C-81.44565918 27.84719238 -80.75069336 27.39360352 -80.03466797 26.92626953 C-64.92584638 17.12405858 -49.11448037 9.82628 -31.828125 4.73828125 C-31.14556641 4.53009766 -30.46300781 4.32191406 -29.75976562 4.10742188 C-19.87001165 1.18357431 -10.30136913 -0.00889523 0 0 Z M-14.140625 17.30078125 C-15.94021877 17.6775915 -17.74107025 18.04843224 -19.54296875 18.4140625 C-29.32565092 20.50730397 -38.2523327 22.61324373 -47.140625 27.30078125 C-48.130625 27.63078125 -49.120625 27.96078125 -50.140625 28.30078125 C-50.140625 28.96078125 -50.140625 29.62078125 -50.140625 30.30078125 C-51.28660156 30.36394531 -52.43257813 30.42710938 -53.61328125 30.4921875 C-58.73779316 31.13486929 -62.33877498 33.42126674 -66.578125 36.23828125 C-67.29677734 36.69396484 -68.01542969 37.14964844 -68.75585938 37.61914062 C-72.56338213 39.8780804 -72.56338213 39.8780804 -75.140625 43.30078125 C-75.83671875 43.54699219 -76.5328125 43.79320313 -77.25 44.046875 C-81.27216882 45.79162661 -84.13719101 48.46531961 -87.390625 51.36328125 C-88.05884277 51.95399414 -88.72706055 52.54470703 -89.41552734 53.15332031 C-91.33301574 54.85930393 -93.23861436 56.5775786 -95.140625 58.30078125 C-96.38972656 59.42033203 -96.38972656 59.42033203 -97.6640625 60.5625 C-105.70615588 68.17109764 -118.9433042 81.51149806 -121.703125 92.55078125 C-122.140625 94.30078125 -122.140625 94.30078125 -125.140625 96.30078125 C-129.05347516 102.50408028 -131.22546574 109.27853065 -133.140625 116.30078125 C-133.98274813 118.99557528 -134.8254961 121.61965063 -136.01171875 124.18359375 C-139.680661 132.37804064 -141.04190992 141.04390451 -142.60986328 149.82885742 C-143.140625 152.30078125 -143.140625 152.30078125 -144.18432617 155.53491211 C-145.29245454 159.89868033 -145.4117044 163.78589627 -145.37109375 168.26171875 C-145.37063553 169.09289215 -145.37017731 169.92406555 -145.3697052 170.78042603 C-145.36670182 172.52339114 -145.35887346 174.26635402 -145.34643555 176.00927734 C-145.32803717 178.68857205 -145.3259271 181.36752335 -145.32617188 184.046875 C-145.3212613 185.74349259 -145.31543501 187.44010784 -145.30859375 189.13671875 C-145.30748093 189.9408017 -145.3063681 190.74488464 -145.30522156 191.57333374 C-145.61958996 195.23793278 -145.61958996 195.23793278 -144.140625 198.30078125 C-143.90150622 200.03590106 -143.71990098 201.77900537 -143.5625 203.5234375 C-141.95353255 220.00711995 -139.33906578 234.27521491 -132.140625 249.30078125 C-131.4290625 251.00234375 -131.4290625 251.00234375 -130.703125 252.73828125 C-128.20164168 258.44166322 -125.59944809 264.11254662 -122.140625 269.30078125 C-121.480625 269.30078125 -120.820625 269.30078125 -120.140625 269.30078125 C-119.90214844 269.99042969 -119.66367188 270.68007813 -119.41796875 271.390625 C-117.89836848 274.85271123 -115.9034015 277.81161372 -113.703125 280.86328125 C-113.26718018 281.47099365 -112.83123535 282.07870605 -112.38208008 282.70483398 C-106.36908567 290.91835575 -99.33499336 298.11828479 -92.140625 305.30078125 C-91.61339844 305.8628125 -91.08617187 306.42484375 -90.54296875 307.00390625 C-83.31479744 314.63685515 -75.14301455 320.9666514 -65.140625 324.30078125 C-65.140625 324.96078125 -65.140625 325.62078125 -65.140625 326.30078125 C-59.95980449 329.64672783 -56.29284936 330.86904621 -50.140625 331.30078125 C-50.140625 331.96078125 -50.140625 332.62078125 -50.140625 333.30078125 C-38.15940594 338.36615412 -26.67776061 343.01826794 -13.734375 344.765625 C-10.140625 345.30078125 -10.140625 345.30078125 -6.86279297 346.31762695 C-3.07203233 347.31889896 0.09675913 347.55908316 4.0078125 347.56640625 C4.6646402 347.5683197 5.3214679 347.57023315 5.99819946 347.57220459 C7.37803534 347.57355603 8.7578844 347.56993297 10.13769531 347.56152344 C12.22230364 347.5508431 14.30604359 347.56143594 16.390625 347.57421875 C22.78804225 347.58023823 28.83446886 347.4056038 35.04296875 345.75976562 C37.57781936 345.11923886 40.06579679 345.02271692 42.671875 344.92578125 C54.56296323 344.06345042 65.47907214 338.63845923 75.9375 333.23046875 C77.859375 332.30078125 77.859375 332.30078125 80.19140625 331.40234375 C106.28113964 320.63030156 130.22513814 298.01276769 144.859375 274.30078125 C145.39175781 273.45773437 145.92414063 272.6146875 146.47265625 271.74609375 C149.88479325 266.22671968 152.78422547 260.53463174 155.5625 254.671875 C156.859375 252.30078125 156.859375 252.30078125 158.859375 251.30078125 C159.40270058 249.44894423 159.40270058 249.44894423 159.734375 247.23828125 C160.38596064 243.98035304 161.2089015 241.34209761 162.796875 238.42578125 C167.10715401 230.26817913 168.36311095 221.05843215 169.85766602 212.05102539 C170.35893392 209.03545035 170.89070038 206.20680512 171.859375 203.30078125 C171.9545168 201.96393207 171.99740219 200.62292577 172.00463867 199.28271484 C172.01101852 198.47691986 172.01739838 197.67112488 172.02397156 196.84091187 C172.02508438 195.96915314 172.0261972 195.09739441 172.02734375 194.19921875 C172.03067215 193.28935211 172.03400055 192.37948547 172.03742981 191.44204712 C172.04249899 189.50694279 172.04483814 187.57182971 172.04467773 185.63671875 C172.04683067 182.73552014 172.06489147 179.83472332 172.08398438 176.93359375 C172.20300381 155.19718938 172.20300381 155.19718938 166.859375 134.30078125 C166.24508666 132.55164961 165.63734069 130.80021055 165.03515625 129.046875 C164.41475564 127.27710062 163.79365753 125.50757059 163.171875 123.73828125 C162.85154297 122.82498047 162.53121094 121.91167969 162.20117188 120.97070312 C161.42119178 118.74717779 160.64058338 116.52387527 159.859375 114.30078125 C159.199375 114.30078125 158.539375 114.30078125 157.859375 114.30078125 C157.776875 113.47578125 157.694375 112.65078125 157.609375 111.80078125 C156.83367678 108.18085624 155.60469225 105.53327465 153.88671875 102.29296875 C152.859375 100.30078125 152.859375 100.30078125 151.546875 96.98828125 C147.4489118 87.32410066 140.57180389 79.23596759 133.859375 71.30078125 C133.00484143 70.21773731 132.15059846 69.13446389 131.296875 68.05078125 C128.80349961 65.23774235 126.18088065 62.87295942 123.3203125 60.4453125 C121.34758059 58.72621755 119.42974848 56.97848829 117.5234375 55.1875 C116.94013672 54.6404541 116.35683594 54.0934082 115.75585938 53.52978516 C114.58437079 52.42772051 113.41633236 51.32197567 112.25195312 50.21240234 C109.517384 47.2691825 109.517384 47.2691825 105.859375 46.30078125 C105.529375 45.31078125 105.199375 44.32078125 104.859375 43.30078125 C101.57632123 41.72005166 98.31400572 40.45232482 94.859375 39.30078125 C94.529375 38.31078125 94.199375 37.32078125 93.859375 36.30078125 C91.879375 35.97078125 89.899375 35.64078125 87.859375 35.30078125 C87.859375 34.64078125 87.859375 33.98078125 87.859375 33.30078125 C87.14910156 33.03523438 86.43882812 32.7696875 85.70703125 32.49609375 C84.78792969 32.14289063 83.86882812 31.7896875 82.921875 31.42578125 C82.00535156 31.07773438 81.08882812 30.7296875 80.14453125 30.37109375 C77.859375 29.30078125 77.859375 29.30078125 76.859375 27.30078125 C74.78169403 26.72794142 72.69968105 26.4097246 70.57421875 26.05859375 C68.13070122 25.37651835 66.38911094 24.55932248 64.1796875 23.36328125 C59.54139286 20.96395715 54.91006961 20.06201694 49.796875 19.17578125 C48.07632218 18.86342282 46.35625671 18.54836652 44.63671875 18.23046875 C43.88640381 18.09882324 43.13608887 17.96717773 42.36303711 17.83154297 C39.859375 17.30078125 39.859375 17.30078125 36.58740234 16.25927734 C32.40533776 15.18404581 28.72366717 15.01174362 24.43359375 15.03515625 C23.25214531 15.03228607 23.25214531 15.03228607 22.04682922 15.02935791 C20.38871947 15.02800402 18.73059882 15.03164449 17.07250977 15.04003906 C14.56436728 15.05070685 12.056948 15.04013902 9.54882812 15.02734375 C1.40119916 15.01938386 -6.20967719 15.26024044 -14.140625 17.30078125 Z " fill="#FF8B04" transform="translate(230.140625,59.69921875)"/>
<path d="M0 0 C1.56127876 0.00033989 1.56127876 0.00033989 3.15409851 0.00068665 C4.83702751 0.02391243 4.83702751 0.02391243 6.55395508 0.04760742 C7.70390457 0.05185226 8.85385406 0.05609711 10.03865051 0.06047058 C13.71716574 0.07728428 17.39513625 0.1149424 21.07348633 0.15307617 C23.56501488 0.16811949 26.05655201 0.1818085 28.5480957 0.1940918 C34.66091226 0.22719664 40.77341038 0.27742312 46.88598633 0.34057617 C46.88598633 1.00057617 46.88598633 1.66057617 46.88598633 2.34057617 C47.50473633 2.52620117 48.12348633 2.71182617 48.76098633 2.90307617 C51.87565889 5.01006055 52.13185222 7.82980711 52.88598633 11.34057617 C53.56859362 15.30878515 54.13235454 19.29181104 54.69848633 23.27807617 C56.19884961 33.50603809 58.06522394 43.59572314 60.31103516 53.68603516 C60.51623779 54.6200415 60.72144043 55.55404785 60.93286133 56.51635742 C61.116875 57.33015869 61.30088867 58.14395996 61.49047852 58.98242188 C61.91799382 61.5314159 62.1164687 63.76251937 61.88598633 66.34057617 C59.44848633 69.09057617 59.44848633 69.09057617 56.88598633 71.34057617 C56.55598633 71.67057617 56.22598633 72.00057617 55.88598633 72.34057617 C53.69889016 72.45071779 51.50819432 72.48971866 49.31835938 72.50170898 C48.63213501 72.50667389 47.94591064 72.51163879 47.2388916 72.51675415 C44.95848605 72.53141239 42.6781501 72.53818455 40.39770508 72.54370117 C38.81687924 72.54945056 37.23605344 72.55520832 35.65522766 72.56097412 C32.33541538 72.57149518 29.0156274 72.57733028 25.69580078 72.58081055 C21.44187712 72.5862911 17.18827423 72.61030483 12.9344511 72.6387825 C9.66678431 72.65740978 6.39919467 72.66261457 3.13147926 72.66414642 C1.56338565 72.66717438 -0.00470656 72.67520777 -1.57274818 72.6883316 C-3.76814727 72.70539106 -5.9627646 72.70351232 -8.15820312 72.69702148 C-10.03231621 72.70248993 -10.03231621 72.70248993 -11.94429016 72.70806885 C-15.36209949 72.3118135 -16.76754254 71.82685437 -19.11401367 69.34057617 C-19.86401367 65.65307617 -19.86401367 65.65307617 -20.11401367 62.34057617 C-18.80581665 62.31870239 -18.80581665 62.31870239 -17.47119141 62.29638672 C-14.20741371 62.23500245 -10.9444341 62.16079229 -7.68115234 62.078125 C-6.27403587 62.04505623 -4.86679251 62.01696913 -3.45947266 61.99414062 C-1.42580543 61.96025819 0.60671767 61.90793399 2.63989258 61.85229492 C3.8600708 61.82611084 5.08024902 61.79992676 6.33740234 61.77294922 C11.60163736 61.13153469 15.54224472 59.71877269 19.32348633 55.84057617 C21.50355303 50.95722675 21.8329618 46.60511779 20.88598633 41.34057617 C18.45195513 38.11712945 16.22394068 36.56587907 12.88598633 34.34057617 C13.89962478 32.15735489 14.85584381 30.37575516 16.42895508 28.53979492 C19.08414081 24.53210172 18.63251792 19.95674401 17.88598633 15.34057617 C15.28996616 11.90260351 12.14105369 8.67093153 7.70947266 8.02172852 C6.88729248 7.99030762 6.0651123 7.95888672 5.21801758 7.92651367 C3.87900391 7.86850586 3.87900391 7.86850586 2.51293945 7.80932617 C1.58416992 7.77838867 0.65540039 7.74745117 -0.30151367 7.71557617 C-1.24188477 7.6769043 -2.18225586 7.63823242 -3.15112305 7.59838867 C-5.47189077 7.5041443 -7.79265115 7.41853592 -10.11401367 7.34057617 C-7.75488253 2.07789901 -5.93805855 -0.0431336 0 0 Z " fill="#CD090A" transform="translate(115.114013671875,203.659423828125)"/>
<path d="M0 0 C20 0 20 0 26 5 C26.69140625 7.5703125 26.69140625 7.5703125 26.5625 10.125 C26.54316406 10.97320312 26.52382812 11.82140625 26.50390625 12.6953125 C25.92215798 15.35602162 25.08042748 16.30237118 23 18 C23.71758704 20.97298808 23.71758704 20.97298808 25.53125 22.3828125 C28.01744861 25.12027587 27.52148526 28.00927029 27.43359375 31.55078125 C26.78494081 35.21479381 24.89335023 36.81234495 22 39 C21.67 39.33 21.34 39.66 21 40 C19.43827255 40.08685603 17.87270656 40.10702219 16.30859375 40.09765625 C15.03326782 40.09390991 15.03326782 40.09390991 13.73217773 40.09008789 C12.64493408 40.08098389 11.55769043 40.07187988 10.4375 40.0625 C6.993125 40.041875 3.54875 40.02125 0 40 C0 26.8 0 13.6 0 0 Z " fill="#D01D1D" transform="translate(213,211)"/>
<path d="M0 0 C20 0 20 0 26 5 C26.69140625 7.5703125 26.69140625 7.5703125 26.5625 10.125 C26.54316406 10.97320312 26.52382812 11.82140625 26.50390625 12.6953125 C25.91610173 15.38372077 25.18095516 16.36026467 23 18 C22.34 18 21.68 18 21 18 C21 18.66 21 19.32 21 20 C21.61875 20.28875 22.2375 20.5775 22.875 20.875 C25 22 25 22 27 24 C27.5689878 27.3839801 27.53256913 30.61286032 27 34 C24.47323961 37.34625024 22.96066458 38.67977847 19 40 C12.73 40 6.46 40 0 40 C0 26.8 0 13.6 0 0 Z " fill="#D01C1C" transform="translate(179,211)"/>
<path d="M0 0 C19 0 19 0 25 5 C26.72872716 8.45745433 26.49807084 12.21977004 26 16 C24.71203834 18.02951535 23.38442 20.03501678 22 22 C22 26.23932267 24.33066116 30.0597562 26.16015625 33.81640625 C27 36 27 36 27 40 C24.03 40 21.06 40 18 40 C17.68546875 38.92878906 17.3709375 37.85757813 17.046875 36.75390625 C16.61546087 35.35649961 16.183121 33.95937854 15.75 32.5625 C15.54503906 31.85544922 15.34007812 31.14839844 15.12890625 30.41992188 C14.44262829 28.11896243 14.44262829 28.11896243 13 25 C11.68 24.67 10.36 24.34 9 24 C9 29.28 9 34.56 9 40 C6.03 40 3.06 40 0 40 C0 26.8 0 13.6 0 0 Z " fill="#D01E1E" transform="translate(340,211)"/>
<path d="M0 0 C3.42751692 3.04401852 5.72110323 6.58199298 7 11 C7 12.32 7 13.64 7 15 C7.99 15.66 8.98 16.32 10 17 C-5.84 17 -21.68 17 -38 17 C-35.9767035 7.89516574 -34.02529053 2.97149695 -27 -3 C-25.68 -3 -24.36 -3 -23 -3 C-23 -3.66 -23 -4.32 -23 -5 C-14.51789532 -7.38559194 -7.14745198 -4.58863957 0 0 Z " fill="#FCF4F4" transform="translate(150,187)"/>
<path d="M0 0 C2.97 0 5.94 0 9 0 C11.28144922 6.63589037 13.41668304 13.26916888 15.20703125 20.0546875 C16.46755238 24.73662314 17.85709816 29.38133611 19.23046875 34.03125 C20 37 20 37 20 40 C16.7 40 13.4 40 10 40 C9.67 37.36 9.34 34.72 9 32 C5.04 32 1.08 32 -3 32 C-3.33 34.64 -3.66 37.28 -4 40 C-6.64 40 -9.28 40 -12 40 C-11.06716785 33.90945105 -9.41738277 28.15408626 -7.6875 22.25 C-7.39166016 21.21617187 -7.09582031 20.18234375 -6.79101562 19.1171875 C-4.88399647 12.5764825 -2.66102535 6.27210561 0 0 Z " fill="#D12222" transform="translate(317,211)"/>
<path d="M0 0 C3.84324769 2.03039501 6.95120023 4.1180636 9 8 C9.52565697 10.67981983 9.77243714 13.26924563 10 16 C7.03 16 4.06 16 1 16 C0.34 13.69 -0.32 11.38 -1 9 C-3.475 8.505 -3.475 8.505 -6 8 C-7.81407833 12.65757412 -8.27013034 16.57520775 -8.25 21.5625 C-8.25515625 22.84253906 -8.2603125 24.12257812 -8.265625 25.44140625 C-8.01723151 28.76914848 -7.44081142 31.02117957 -6 34 C-3.525 33.505 -3.525 33.505 -1 33 C-0.34 31.02 0.32 29.04 1 27 C3.97 27 6.94 27 10 27 C9.42935636 32.99175819 7.40241285 36.99798929 2.75 40.875 C-0.9081503 42.37151603 -4.14321825 42.65291974 -8 42 C-12.8820803 39.79827751 -15.68082899 36.58037256 -18.08203125 31.89453125 C-20.36465442 24.69698331 -20.48884921 15.18850052 -17.3125 8.25 C-12.66567082 1.71932116 -8.06332157 -1.09613124 0 0 Z " fill="#D22525" transform="translate(294,210)"/>
<path d="M0 0 C2.77457665 1.28097277 4.94477933 2.73005478 7 5 C7.9375 7.8125 7.9375 7.8125 8 10 C5.69 10.66 3.38 11.32 1 12 C0.4225 11.34 -0.155 10.68 -0.75 10 C-2.99653977 7.55709077 -2.99653977 7.55709077 -7 8 C-7.33 9.65 -7.66 11.3 -8 13 C-7.10796875 13.45890625 -6.2159375 13.9178125 -5.296875 14.390625 C-4.11437938 15.01002747 -2.93209902 15.62984099 -1.75 16.25 C-0.58984375 16.85328125 0.5703125 17.4565625 1.765625 18.078125 C4.74733683 19.84986681 6.85927733 21.28772516 9 24 C10.1211973 28.53425378 9.37362966 32.25274068 7.3125 36.375 C3.54719793 40.64912668 0.79702011 42.17577136 -4.875 42.5625 C-9.67930202 42.41169231 -12.3280229 41.08504784 -15.7265625 37.734375 C-17.54802826 35.25360568 -17.92767725 33.03755564 -18 30 C-14.75 29.1875 -14.75 29.1875 -11 29 C-8.875 31.4375 -8.875 31.4375 -7 34 C-4.37221956 34.50135199 -4.37221956 34.50135199 -2 34 C-0.75339676 32.94945399 -0.75339676 32.94945399 -0.625 30.625 C-0.71474782 27.84027982 -0.71474782 27.84027982 -3.0625 26.375 C-5.19322595 25.37763892 -7.36770594 24.4721135 -9.5625 23.625 C-13.43920001 21.79237818 -14.98760369 20.78330506 -17 17 C-17.79976113 13.4582007 -17.89355581 10.53036775 -17 7 C-12.88405041 0.87494572 -7.22051359 -1.84710813 0 0 Z " fill="#D02020" transform="translate(262,210)"/>
<path d="M0 0 C8.25 0 16.5 0 25 0 C25 2.64 25 5.28 25 8 C22.36 8 19.72 8 17 8 C17 18.56 17 29.12 17 40 C14.03 40 11.06 40 8 40 C8 29.44 8 18.88 8 8 C5.36 8 2.72 8 0 8 C0 5.36 0 2.72 0 0 Z " fill="#D12121" transform="translate(369,211)"/>
<path d="M0 0 C2.875 0.8125 2.875 0.8125 4.875 2.8125 C5.205 2.1525 5.535 1.4925 5.875 0.8125 C7.49963842 0.75854522 9.12478541 0.71972805 10.75 0.6875 C12.10738281 0.65269531 12.10738281 0.65269531 13.4921875 0.6171875 C15.875 0.8125 15.875 0.8125 17.875 2.8125 C17.30681818 8.38068182 17.30681818 8.38068182 15.875 9.8125 C13.87541636 9.85330783 11.87454746 9.85504356 9.875 9.8125 C9.875 11.4625 9.875 13.1125 9.875 14.8125 C8.555 14.8125 7.235 14.8125 5.875 14.8125 C5.875 14.1525 5.875 13.4925 5.875 12.8125 C5.17375 13.328125 4.4725 13.84375 3.75 14.375 C0.22022437 16.13988782 -1.39882974 15.97175297 -5.125 14.8125 C-5.785 13.8225 -6.445 12.8325 -7.125 11.8125 C-7.455 12.8025 -7.785 13.7925 -8.125 14.8125 C-9.445 14.8125 -10.765 14.8125 -12.125 14.8125 C-12.125 12.8325 -12.125 10.8525 -12.125 8.8125 C-13.775 8.8125 -15.425 8.8125 -17.125 8.8125 C-17.125 10.7925 -17.125 12.7725 -17.125 14.8125 C-18.115 14.8125 -19.105 14.8125 -20.125 14.8125 C-20.125 10.1925 -20.125 5.5725 -20.125 0.8125 C-19.135 0.8125 -18.145 0.8125 -17.125 0.8125 C-17.125 2.4625 -17.125 4.1125 -17.125 5.8125 C-15.475 5.8125 -13.825 5.8125 -12.125 5.8125 C-12.125 4.1625 -12.125 2.5125 -12.125 0.8125 C-10.805 0.8125 -9.485 0.8125 -8.125 0.8125 C-7.795 1.4725 -7.465 2.1325 -7.125 2.8125 C-6.58875 2.296875 -6.0525 1.78125 -5.5 1.25 C-3.125 -0.1875 -3.125 -0.1875 0 0 Z " fill="#3B3B3B" transform="translate(304.125,258.1875)"/>
<path d="M0 0 C3.56084189 2.87794071 5.20540251 5.84573317 5.8125 10.375 C5.874375 11.57125 5.93625 12.7675 6 14 C5.34 14 4.68 14 4 14 C2.9790625 12.6696875 2.9790625 12.6696875 1.9375 11.3125 C-1.94585896 6.54604484 -6.66838114 3.5381126 -12.78125 2.55078125 C-19.10029481 2.29906106 -22.81655321 3.47084474 -28 7 C-28.66 7 -29.32 7 -30 7 C-30.28875 7.5775 -30.5775 8.155 -30.875 8.75 C-32.4375 11.875 -32.4375 11.875 -34 15 C-34.99 15 -35.98 15 -37 15 C-36.43999804 7.99997547 -34.03071412 4.33532124 -29.5 -0.875 C-27 -3 -27 -3 -23 -3 C-23 -3.66 -23 -4.32 -23 -5 C-14.49063096 -7.39326004 -7.17984746 -4.56450783 0 0 Z " fill="#CE1515" transform="translate(150,187)"/>
<path d="M0 0 C4.13045831 0.61501309 7.30785607 2.01136879 11 3.9375 C14.62116338 5.81736415 18.20020868 7.51699937 22 9 C24.00751815 9.98482022 26.00934459 10.98152514 28 12 C28 12.66 28 13.32 28 14 C27.25234375 14.18433594 26.5046875 14.36867187 25.734375 14.55859375 C19.80050099 16.17763169 19.80050099 16.17763169 15.4140625 20.19921875 C14.45173049 22.44586604 13.67926061 24.65428671 13 27 C12.67 27.66 12.34 28.32 12 29 C11.34 29 10.68 29 10 29 C6.57436925 19.36255882 3.18398806 9.72052825 0 0 Z " fill="#FCF2F2" transform="translate(142,240)"/>
<path d="M0 0 C3.5578125 -0.12375 3.5578125 -0.12375 7.1875 -0.25 C7.92508545 -0.28641602 8.6626709 -0.32283203 9.42260742 -0.36035156 C12.99293231 -0.42013823 14.90284823 -0.06027008 17.953125 1.83203125 C20 4 20 4 20.5625 6.9375 C19.85153585 10.8083048 18.87202068 12.30437114 16 15 C13.03327323 15.37233017 10.68143759 15.4808246 7.75 15.3125 C7.00492187 15.28994141 6.25984375 15.26738281 5.4921875 15.24414062 C3.660591 15.18543561 1.83003347 15.09575757 0 15 C0 10.05 0 5.1 0 0 Z " fill="#32B015" transform="translate(106,242)"/>
<path d="M0 0 C1.0725 0.2475 2.145 0.495 3.25 0.75 C3.91 2.4 4.57 4.05 5.25 5.75 C2.28 5.42 -0.69 5.09 -3.75 4.75 C-3.75 6.73 -3.75 8.71 -3.75 10.75 C-0.78 11.245 -0.78 11.245 2.25 11.75 C2.25 11.09 2.25 10.43 2.25 9.75 C0.93 9.75 -0.39 9.75 -1.75 9.75 C-1.75 8.76 -1.75 7.77 -1.75 6.75 C0.56 6.75 2.87 6.75 5.25 6.75 C5.73038431 12.15432346 5.73038431 12.15432346 3.6875 14.6875 C0.19869263 16.20826219 -2.11904394 15.69135898 -5.75 14.75 C-6.41 13.76 -7.07 12.77 -7.75 11.75 C-8.08 12.74 -8.41 13.73 -8.75 14.75 C-10.07 14.75 -11.39 14.75 -12.75 14.75 C-15 11.75 -15 11.75 -16.75 8.75 C-17.08 10.73 -17.41 12.71 -17.75 14.75 C-18.74 14.75 -19.73 14.75 -20.75 14.75 C-20.75 10.13 -20.75 5.51 -20.75 0.75 C-16.45574125 1.82356469 -16.00259529 2.2584773 -13.75 5.75 C-13.42 4.1 -13.09 2.45 -12.75 0.75 C-11.43 0.75 -10.11 0.75 -8.75 0.75 C-8.42 1.74 -8.09 2.73 -7.75 3.75 C-7.234375 3.069375 -6.71875 2.38875 -6.1875 1.6875 C-3.75 -0.25 -3.75 -0.25 0 0 Z " fill="#242424" transform="translate(360.75,258.25)"/>
<path d="M0 0 C2.4178712 -0.10826289 4.83087556 -0.18739789 7.25 -0.25 C8.27287109 -0.30027344 8.27287109 -0.30027344 9.31640625 -0.3515625 C12.80359079 -0.41927482 14.63662263 -0.27644498 17.44921875 1.86328125 C19 4 19 4 19.5625 6.4375 C18.95340084 9.21228508 18.13909574 11.09546001 16.04296875 13.0625 C11.19705761 15.28624507 5.14655654 14.2404933 0 14 C0 9.38 0 4.76 0 0 Z " fill="#2FAF10" transform="translate(106,220)"/>
<path d="M0 0 C3.30742165 1.222308 4.33959766 1.90639519 5.875 5.0625 C6.375 8 6.375 8 5.875 11.0625 C3.75 14 3.75 14 0.875 16.0625 C-2.68453149 16.13369063 -4.34619455 15.7634249 -7 13.375 C-8.50685358 10.27757874 -8.68151279 8.47114082 -8.125 5.0625 C-5.58554286 1.55207396 -4.41454364 0.08829087 0 0 Z " fill="#181818" transform="translate(202.125,257.9375)"/>
<path d="M0 0 C1.62463842 -0.05395478 3.24978541 -0.09277195 4.875 -0.125 C5.77992188 -0.14820313 6.68484375 -0.17140625 7.6171875 -0.1953125 C10 0 10 0 12 2 C11.43181818 7.56818182 11.43181818 7.56818182 10 9 C8.00041636 9.04080783 5.99954746 9.04254356 4 9 C4 10.65 4 12.3 4 14 C2.68 14 1.36 14 0 14 C-1.49594333 9.32517708 -1.54799337 4.64398011 0 0 Z " fill="#626262" transform="translate(310,259)"/>
<path d="M0 0 C2.65494275 -0.00969311 5.30910555 -0.04079013 7.96386719 -0.07226562 C20.32770664 -0.14908836 31.14423713 1.19327327 42.92480469 5.24023438 C39.66756168 6.29603038 37.43972475 6.15609877 34.11230469 5.42773438 C33.30148437 5.25628906 32.49066406 5.08484375 31.65527344 4.90820312 C28.92480469 4.24023438 28.92480469 4.24023438 25.78076172 3.21508789 C21.54518575 2.14426005 17.83796039 1.95093008 13.49902344 1.97460938 C12.317575 1.9717392 12.317575 1.9717392 11.11225891 1.96881104 C9.45414916 1.96745715 7.79602851 1.97109762 6.13793945 1.97949219 C3.62979696 1.99015998 1.12237769 1.97959215 -1.38574219 1.96679688 C-9.52700129 1.95940254 -17.14963087 2.18845266 -25.07519531 4.24023438 C-26.49271955 4.53268593 -27.91199138 4.81681474 -29.33300781 5.09179688 C-30.60917969 5.34703125 -31.88535156 5.60226563 -33.20019531 5.86523438 C-36.63769531 6.55273438 -36.63769531 6.55273438 -40.07519531 7.24023438 C-39.74519531 6.58023438 -39.41519531 5.92023438 -39.07519531 5.24023438 C-37.42519531 5.24023438 -35.77519531 5.24023438 -34.07519531 5.24023438 C-34.07519531 4.58023438 -34.07519531 3.92023438 -34.07519531 3.24023438 C-31.76519531 3.24023438 -29.45519531 3.24023438 -27.07519531 3.24023438 C-27.07519531 2.58023438 -27.07519531 1.92023438 -27.07519531 1.24023438 C-18.05642912 0.08014412 -9.07882292 0.01999007 0 0 Z " fill="#FF9521" transform="translate(241.0751953125,73.759765625)"/>
<path d="M0 0 C0.9075 0.226875 1.815 0.45375 2.75 0.6875 C3.08 2.3375 3.41 3.9875 3.75 5.6875 C1.44 5.0275 -0.87 4.3675 -3.25 3.6875 C-3.25 4.3475 -3.25 5.0075 -3.25 5.6875 C-2.30125 5.81125 -1.3525 5.935 -0.375 6.0625 C2.75 6.6875 2.75 6.6875 4.75 8.6875 C4.19444444 13.24305556 4.19444444 13.24305556 2.75 14.6875 C0.07941149 14.82865161 -2.57432238 14.72997107 -5.25 14.6875 C-5.91 13.0375 -6.57 11.3875 -7.25 9.6875 C-4.58333333 10.35416667 -1.91666667 11.02083333 0.75 11.6875 C-0.14335797 9.32964682 -0.14335797 9.32964682 -3.3125 8.5625 C-4.281875 8.27375 -5.25125 7.985 -6.25 7.6875 C-6.58 6.0375 -6.91 4.3875 -7.25 2.6875 C-4.61280971 0.1517401 -3.74095095 -0.35970682 0 0 Z " fill="#202020" transform="translate(278.25,258.3125)"/>
<path d="M0 0 C4.29425875 1.07356469 4.74740471 1.5084773 7 5 C7.33 3.35 7.66 1.7 8 0 C8.99 0 9.98 0 11 0 C11 4.62 11 9.24 11 14 C10.01 14 9.02 14 8 14 C5.8125 11 5.8125 11 4 8 C3.67 9.98 3.34 11.96 3 14 C2.01 14 1.02 14 0 14 C0 9.38 0 4.76 0 0 Z " fill="#222222" transform="translate(340,259)"/>
<path d="M0 0 C4.29425875 1.07356469 4.74740471 1.5084773 7 5 C7.33 3.35 7.66 1.7 8 0 C8.99 0 9.98 0 11 0 C11 4.62 11 9.24 11 14 C10.01 14 9.02 14 8 14 C5.8125 11 5.8125 11 4 8 C3.67 9.98 3.34 11.96 3 14 C2.01 14 1.02 14 0 14 C0 9.38 0 4.76 0 0 Z " fill="#222222" transform="translate(237,259)"/>
<path d="M0 0 C4.29425875 1.07356469 4.74740471 1.5084773 7 5 C7.33 3.35 7.66 1.7 8 0 C8.99 0 9.98 0 11 0 C11 4.62 11 9.24 11 14 C10.01 14 9.02 14 8 14 C5.8125 11 5.8125 11 4 8 C3.67 9.98 3.34 11.96 3 14 C2.01 14 1.02 14 0 14 C0 9.38 0 4.76 0 0 Z " fill="#121212" transform="translate(209,259)"/>
<path d="M0 0 C3.63 0 7.26 0 11 0 C10.67 0.99 10.34 1.98 10 3 C7.69 3 5.38 3 3 3 C3 3.66 3 4.32 3 5 C5.31 5 7.62 5 10 5 C10 5.99 10 6.98 10 8 C7.69 8 5.38 8 3 8 C3 8.99 3 9.98 3 11 C5.31 11 7.62 11 10 11 C10.33 11.99 10.66 12.98 11 14 C7.37 14 3.74 14 0 14 C0 9.38 0 4.76 0 0 Z " fill="#161616" transform="translate(250,259)"/>
<path d="M0 0 C6.8359375 -0.1953125 6.8359375 -0.1953125 9 0 C9.66 0.66 10.32 1.32 11 2 C10.43181818 7.56818182 10.43181818 7.56818182 9 9 C7.00041636 9.04080783 4.99954746 9.04254356 3 9 C3 10.65 3 12.3 3 14 C2.01 14 1.02 14 0 14 C0 9.38 0 4.76 0 0 Z " fill="#080808" transform="translate(323,259)"/>
<path d="M0 0 C6.625 -0.25 6.625 -0.25 10 2 C10.3125 5.5 10.3125 5.5 10 9 C8 11 8 11 6.0546875 11.1953125 C4.03645833 11.13020833 2.01822917 11.06510417 0 11 C0 7.37 0 3.74 0 0 Z " fill="#FAE9E9" transform="translate(221,233)"/>
<path d="M0 0 C6.625 -0.25 6.625 -0.25 10 2 C10.3125 5.5 10.3125 5.5 10 9 C8 11 8 11 6.0546875 11.1953125 C4.03645833 11.13020833 2.01822917 11.06510417 0 11 C0 7.37 0 3.74 0 0 Z " fill="#FAEAEA" transform="translate(187,233)"/>
<path d="M0 0 C0.99 0 1.98 0 3 0 C3 1.65 3 3.3 3 5 C4.65 5 6.3 5 8 5 C8 3.35 8 1.7 8 0 C8.99 0 9.98 0 11 0 C11 4.62 11 9.24 11 14 C10.01 14 9.02 14 8 14 C8 12.02 8 10.04 8 8 C6.35 8 4.7 8 3 8 C3 9.98 3 11.96 3 14 C2.01 14 1.02 14 0 14 C0 9.38 0 4.76 0 0 Z " fill="#1A1A1A" transform="translate(284,259)"/>
<path d="M0 0 C6.15234375 -0.09765625 6.15234375 -0.09765625 8 0 C9.89488952 1.89488952 9.18019112 4.57139146 9.23046875 7.08984375 C9 9 9 9 7 11 C3.375 11.125 3.375 11.125 0 11 C0 7.37 0 3.74 0 0 Z " fill="#F9E6E6" transform="translate(348,218)"/>
<path d="M0 0 C5.625 -0.25 5.625 -0.25 9 2 C9.3125 5 9.3125 5 9 8 C7 10 7 10 3.375 10.125 C2.26125 10.08375 1.1475 10.0425 0 10 C0 6.7 0 3.4 0 0 Z " fill="#FAE8E8" transform="translate(221,217)"/>
<path d="M0 0 C5.625 -0.25 5.625 -0.25 9 2 C9.3125 5 9.3125 5 9 8 C7 10 7 10 3.375 10.125 C2.26125 10.08375 1.1475 10.0425 0 10 C0 6.7 0 3.4 0 0 Z " fill="#FAE9E9" transform="translate(187,217)"/>
<path d="M0 0 C0.33 0 0.66 0 1 0 C1.02505615 1.145896 1.0501123 2.29179199 1.07592773 3.47241211 C1.16983106 7.70853598 1.27009275 11.94448928 1.37231445 16.18041992 C1.4157282 18.01664247 1.45739839 19.85290708 1.49731445 21.68920898 C1.55486169 24.32288311 1.61859998 26.95634421 1.68359375 29.58984375 C1.70030624 30.41588608 1.71701874 31.24192841 1.73423767 32.09300232 C1.47807433 35.85476753 1.47807433 35.85476753 3 39 C3.22670908 40.55753051 3.39435092 42.12377359 3.53515625 43.69140625 C3.62216797 44.63564453 3.70917969 45.57988281 3.79882812 46.55273438 C3.88583984 47.54595703 3.97285156 48.53917969 4.0625 49.5625 C4.15337891 50.55958984 4.24425781 51.55667969 4.33789062 52.58398438 C4.56258814 55.05565702 4.78310351 57.52763256 5 60 C-0.55333016 54.44666984 -0.02896889 43.48914031 -0.11352539 36.10107422 C-0.11337047 34.418937 -0.10792802 32.73679336 -0.09765625 31.0546875 C-0.0962413 30.15879913 -0.09482635 29.26291077 -0.09336853 28.33987427 C-0.08783441 25.51821347 -0.07529489 22.69663624 -0.0625 19.875 C-0.05747646 17.94531366 -0.05291506 16.01562605 -0.04882812 14.0859375 C-0.03788669 9.3905935 -0.02066878 4.69531085 0 0 Z " fill="#FFBD71" transform="translate(84,219)"/>
<path d="M0 0 C1.0725 0.2475 2.145 0.495 3.25 0.75 C3.91 2.4 4.57 4.05 5.25 5.75 C2.28 5.42 -0.69 5.09 -3.75 4.75 C-4.08 6.4 -4.41 8.05 -4.75 9.75 C-5.41 8.43 -6.07 7.11 -6.75 5.75 C-7.41 8.72 -8.07 11.69 -8.75 14.75 C-9.08 14.75 -9.41 14.75 -9.75 14.75 C-9.75 10.13 -9.75 5.51 -9.75 0.75 C-8.76 2.235 -8.76 2.235 -7.75 3.75 C-7.234375 3.069375 -6.71875 2.38875 -6.1875 1.6875 C-3.75 -0.25 -3.75 -0.25 0 0 Z " fill="#545454" transform="translate(360.75,258.25)"/>
<path d="M0 0 C2.62030687 4.86628419 4.3283194 9.4185702 4 15 C1.69 15 -0.62 15 -3 15 C-2.44854729 9.76119922 -1.57077907 5.02649303 0 0 Z " fill="#F8E0E0" transform="translate(320,221)"/>
<path d="M0 0 C1.79244141 0.01740234 1.79244141 0.01740234 3.62109375 0.03515625 C5.41740234 0.04869141 5.41740234 0.04869141 7.25 0.0625 C8.17683594 0.07410156 9.10367188 0.08570313 10.05859375 0.09765625 C10.05859375 0.42765625 10.05859375 0.75765625 10.05859375 1.09765625 C2.47663031 3.22533419 -4.87340215 3.40583355 -12.70019531 3.35839844 C-14.83296443 3.3475722 -16.96491095 3.35839884 -19.09765625 3.37109375 C-20.45963727 3.36977387 -21.82161777 3.36721502 -23.18359375 3.36328125 C-24.40933105 3.36102539 -25.63506836 3.35876953 -26.89794922 3.35644531 C-29.94140625 3.09765625 -29.94140625 3.09765625 -32.94140625 1.09765625 C-32.06814697 1.10289307 -31.1948877 1.10812988 -30.29516602 1.11352539 C-27.06551352 1.13053376 -23.8358838 1.14308994 -20.60620117 1.15258789 C-19.20645397 1.15762705 -17.80671205 1.16445841 -16.40698242 1.1730957 C-14.39894848 1.18517945 -12.39087668 1.19035432 -10.3828125 1.1953125 C-9.17310791 1.20054932 -7.96340332 1.20578613 -6.71704102 1.21118164 C-3.43219331 1.07682909 -3.3438042 0.11101608 0 0 Z " fill="#FFE5C6" transform="translate(256.94140625,403.90234375)"/>
<path d="M0 0 C0.99 0 1.98 0 3 0 C3 3.63 3 7.26 3 11 C4.65 11 6.3 11 8 11 C8.33 11.99 8.66 12.98 9 14 C6.03 14 3.06 14 0 14 C0 9.38 0 4.76 0 0 Z " fill="#141414" transform="translate(222,259)"/>
<path d="M0 0 C1.32 0.33 2.64 0.66 4 1 C3.125 6.875 3.125 6.875 2 8 C0.00041636 8.04080783 -2.00045254 8.04254356 -4 8 C-4 9.65 -4 11.3 -4 13 C-4.66 13 -5.32 13 -6 13 C-6 9.04 -6 5.08 -6 1 C-5.67 2.32 -5.34 3.64 -5 5 C-3.02 5 -1.04 5 1 5 C0.67 3.35 0.34 1.7 0 0 Z " fill="#0F0F0F" transform="translate(318,260)"/>
<path d="M0 0 C1.99954746 -0.04254356 4.00041636 -0.04080783 6 0 C7 1 7 1 7.125 4 C7 7 7 7 6 8 C3.5 8.125 3.5 8.125 1 8 C0 7 0 7 -0.0625 3.4375 C-0.041875 2.303125 -0.02125 1.16875 0 0 Z " fill="#EEEEEE" transform="translate(300,262)"/>
<path d="M0 0 C1.99954746 -0.04254356 4.00041636 -0.04080783 6 0 C7 1 7 1 7.125 4 C7 7 7 7 6 8 C3.5 8.125 3.5 8.125 1 8 C0 7 0 7 -0.0625 3.4375 C-0.041875 2.303125 -0.02125 1.16875 0 0 Z " fill="#ECECEC" transform="translate(198,262)"/>
<path d="M0 0 C0.66 0 1.32 0 2 0 C2 3.96 2 7.92 2 12 C5.63 12 9.26 12 13 12 C13.33 12.66 13.66 13.32 14 14 C9.38 14 4.76 14 0 14 C0 9.38 0 4.76 0 0 Z " fill="#43B82D" transform="translate(106,220)"/>
<path d="M0 0 C0.99 0 1.98 0 3 0 C3 1.98 3 3.96 3 6 C4.65 6 6.3 6 8 6 C8 6.33 8 6.66 8 7 C6.35 7 4.7 7 3 7 C3 9.31 3 11.62 3 14 C2.01 14 1.02 14 0 14 C0 9.38 0 4.76 0 0 Z " fill="#080808" transform="translate(284,259)"/>
<path d="M0 0 C-0.875 5.875 -0.875 5.875 -2 7 C-3.99958364 7.04080783 -6.00045254 7.04254356 -8 7 C-6.68 6.34 -5.36 5.68 -4 5 C-5.32 4.67 -6.64 4.34 -8 4 C-8 2.68 -8 1.36 -8 0 C-4.71303767 -0.79953138 -3.28976808 -1.09658936 0 0 Z " fill="#5E5E5E" transform="translate(334,261)"/>
<path d="M0 0 C2.625 0.25 2.625 0.25 4.4375 1.75 C4.829375 2.245 5.22125 2.74 5.625 3.25 C3.645 3.25 1.665 3.25 -0.375 3.25 C-0.375 4.24 -0.375 5.23 -0.375 6.25 C0.945 6.25 2.265 6.25 3.625 6.25 C3.625 6.91 3.625 7.57 3.625 8.25 C1.62545254 8.29254356 -0.37541636 8.29080783 -2.375 8.25 C-3.375 7.25 -3.375 7.25 -3.5 4.25 C-3.33755507 0.35132159 -3.33755507 0.35132159 0 0 Z " fill="#E8E8E8" transform="translate(359.375,261.75)"/>
<path d="M0 0 C3.96 0 7.92 0 12 0 C9.19805389 2.80194611 6.0791746 2.92056898 2.3125 3.5625 C1.61705078 3.68818359 0.92160156 3.81386719 0.20507812 3.94335938 C-4.18443297 4.72617601 -8.58307668 5.39216652 -13 6 C-12.67 5.34 -12.34 4.68 -12 4 C-10.35 4 -8.7 4 -7 4 C-7 3.34 -7 2.68 -7 2 C-4.69 2 -2.38 2 0 2 C0 1.34 0 0.68 0 0 Z " fill="#FFB762" transform="translate(214,75)"/>
<path d="M0 0 C0.99 0 1.98 0 3 0 C3 4.62 3 9.24 3 14 C2.01 14 1.02 14 0 14 C0 9.38 0 4.76 0 0 Z " fill="#141414" transform="translate(335,259)"/>
<path d="M0 0 C0.99 0 1.98 0 3 0 C3 4.62 3 9.24 3 14 C2.01 14 1.02 14 0 14 C0 9.38 0 4.76 0 0 Z " fill="#141414" transform="translate(232,259)"/>
<path d="M0 0 C0.928125 0.20625 1.85625 0.4125 2.8125 0.625 C3.1425 2.275 3.4725 3.925 3.8125 5.625 C1.5025 4.965 -0.8075 4.305 -3.1875 3.625 C-3.5175 4.285 -3.8475 4.945 -4.1875 5.625 C-4.5175 4.965 -4.8475 4.305 -5.1875 3.625 C-5.8475 4.285 -6.5075 4.945 -7.1875 5.625 C-6.875 3.75 -6.875 3.75 -6.1875 1.625 C-3.1875 -0.375 -3.1875 -0.375 0 0 Z " fill="#4F4F4F" transform="translate(278.1875,258.375)"/>
<path d="M0 0 C0.33 0 0.66 0 1 0 C1.226875 0.94875 1.45375 1.8975 1.6875 2.875 C2.69083714 6.19323388 2.69083714 6.19323388 5.625 7.375 C6.800625 7.684375 6.800625 7.684375 8 8 C8 8.99 8 9.98 8 11 C4.625 10.6875 4.625 10.6875 1 10 C-1.29404844 6.55892734 -1.26293056 5.03160191 -1 1 C-0.67 0.67 -0.34 0.34 0 0 Z " fill="#1D1D1D" transform="translate(354,263)"/>
<path d="M0 0 C3 1 3 1 4 3 C4.2965955 6.41084821 4.35902137 8.37987218 2.625 11.375 C2.08875 11.91125 1.5525 12.4475 1 13 C0.34 13 -0.32 13 -1 13 C-0.9278125 12.31292969 -0.855625 11.62585938 -0.78125 10.91796875 C-0.6884375 10.01691406 -0.595625 9.11585938 -0.5 8.1875 C-0.4071875 7.29417969 -0.314375 6.40085937 -0.21875 5.48046875 C0.04392401 2.91694901 0.04392401 2.91694901 0 0 Z " fill="#141414" transform="translate(306,260)"/>
<path d="M0 0 C3 1 3 1 4 3 C4.2965955 6.41084821 4.35902137 8.37987218 2.625 11.375 C2.08875 11.91125 1.5525 12.4475 1 13 C0.34 13 -0.32 13 -1 13 C-0.9278125 12.31292969 -0.855625 11.62585938 -0.78125 10.91796875 C-0.6884375 10.01691406 -0.595625 9.11585938 -0.5 8.1875 C-0.4071875 7.29417969 -0.314375 6.40085937 -0.21875 5.48046875 C0.04392401 2.91694901 0.04392401 2.91694901 0 0 Z " fill="#191919" transform="translate(204,260)"/>
<path d="M0 0 C0.66 0 1.32 0 2 0 C2 4.62 2 9.24 2 14 C1.01 14 0.02 14 -1 14 C-1.66 12.35 -2.32 10.7 -3 9 C-2.01 9 -1.02 9 0 9 C0 6.03 0 3.06 0 0 Z " fill="#050505" transform="translate(349,259)"/>
<path d="M0 0 C0.66 0 1.32 0 2 0 C2 4.62 2 9.24 2 14 C1.01 14 0.02 14 -1 14 C-1.66 12.35 -2.32 10.7 -3 9 C-2.01 9 -1.02 9 0 9 C0 6.03 0 3.06 0 0 Z " fill="#040404" transform="translate(246,259)"/>
<path d="M0 0 C7.57266875 -0.5939348 13.87518733 1.56713714 21 4 C17.742757 5.05579601 15.51492006 4.91586439 12.1875 4.1875 C10.88232422 3.90326172 10.88232422 3.90326172 9.55078125 3.61328125 C6.33139186 2.83924735 3.16755954 1.96403986 0 1 C0 0.67 0 0.34 0 0 Z " fill="#FFBA69" transform="translate(263,75)"/>
<path d="M0 0 C0.33 0 0.66 0 1 0 C1 4.62 1 9.24 1 14 C-1 11 -1 11 -1.25 8.9375 C-1.62125 7.9784375 -1.62125 7.9784375 -2 7 C-4.99615946 5.6954344 -4.99615946 5.6954344 -8 5 C-8 4.34 -8 3.68 -8 3 C-3.25 3.875 -3.25 3.875 -1 5 C-0.67 3.35 -0.34 1.7 0 0 Z " fill="#C5C5C5" transform="translate(283,259)"/>
<path d="M0 0 C-7.06075526 3.32270836 -13.2723068 3.31806054 -21 3 C-21 2.67 -21 2.34 -21 2 C-18.25162151 1.46892686 -15.50187625 0.94984119 -12.75 0.4375 C-11.97269531 0.28603516 -11.19539063 0.13457031 -10.39453125 -0.02148438 C-9.64042969 -0.16005859 -8.88632812 -0.29863281 -8.109375 -0.44140625 C-7.07248535 -0.63778687 -7.07248535 -0.63778687 -6.01464844 -0.83813477 C-3.78712058 -1.01710362 -2.12493038 -0.65206197 0 0 Z " fill="#FFA53D" transform="translate(271,405)"/>
<path d="M0 0 C0.33 0 0.66 0 1 0 C1.33 1.98 1.66 3.96 2 6 C3.32 6.33 4.64 6.66 6 7 C6 8.32 6 9.64 6 11 C3.03 10.505 3.03 10.505 0 10 C-1.231394 6.30581799 -0.64432764 3.7943739 0 0 Z " fill="#3F3F3F" transform="translate(197,263)"/>
<path d="M0 0 C1 2 1 2 0.3125 4.5 C-1.38616521 9.0297739 -3.1758966 13.51943533 -5 18 C-6.66201898 13.94507418 -5.20927166 11.22066185 -3.625 7.3125 C-3.16351563 6.15363281 -2.70203125 4.99476563 -2.2265625 3.80078125 C-1 1 -1 1 0 0 Z " fill="#FFBA69" transform="translate(97,174)"/>
<path d="M0 0 C1.65 0 3.3 0 5 0 C5.66 1.65 6.32 3.3 7 5 C4.33333333 4.33333333 1.66666667 3.66666667 -1 3 C-0.67 2.01 -0.34 1.02 0 0 Z " fill="#262626" transform="translate(359,259)"/>
<path d="M0 0 C2.64 0.33 5.28 0.66 8 1 C8 1.33 8 1.66 8 2 C6.02 2 4.04 2 2 2 C2 3.65 2 5.3 2 7 C1.34 7 0.68 7 0 7 C0 4.69 0 2.38 0 0 Z " fill="#212121" transform="translate(312,266)"/>
<path d="M0 0 C1.2065625 0.0309375 1.2065625 0.0309375 2.4375 0.0625 C2.7675 1.7125 3.0975 3.3625 3.4375 5.0625 C2.4475 4.7325 1.4575 4.4025 0.4375 4.0625 C0.4375 3.4025 0.4375 2.7425 0.4375 2.0625 C-0.8825 1.7325 -2.2025 1.4025 -3.5625 1.0625 C-2.5625 0.0625 -2.5625 0.0625 0 0 Z " fill="#161616" transform="translate(278.5625,258.9375)"/>
<path d="M0 0 C2.97 0.495 2.97 0.495 6 1 C5.67 1.99 5.34 2.98 5 4 C3.35 4 1.7 4 0 4 C0 2.68 0 1.36 0 0 Z " fill="#323232" transform="translate(301,258)"/>
<path d="M0 0 C2.97 0.495 2.97 0.495 6 1 C5.67 1.99 5.34 2.98 5 4 C3.35 4 1.7 4 0 4 C0 2.68 0 1.36 0 0 Z " fill="#333333" transform="translate(199,258)"/>
<path d="M0 0 C0.33 0.99 0.66 1.98 1 3 C1.99 3 2.98 3 4 3 C4 3.99 4 4.98 4 6 C2.35 5.67 0.7 5.34 -1 5 C-0.67 3.35 -0.34 1.7 0 0 Z " fill="#141414" transform="translate(273,261)"/>
<path d="M0 0 C0.99 0.33 1.98 0.66 3 1 C3.33 2.98 3.66 4.96 4 7 C3.34 7 2.68 7 2 7 C0.5393715 4.35261084 0 3.10551666 0 0 Z " fill="#0C0C0C" transform="translate(306,260)"/>
<path d="M0 0 C0.94875 0.350625 1.8975 0.70125 2.875 1.0625 C2.875 1.7225 2.875 2.3825 2.875 3.0625 C-0.49962715 2.51526317 -2.20735 2.0076 -5.125 0.0625 C-3.125 -0.9375 -3.125 -0.9375 0 0 Z " fill="#CACACA" transform="translate(276.125,266.9375)"/>
<path d="M0 0 C0.99 0.33 1.98 0.66 3 1 C3 2.98 3 4.96 3 7 C2.01 7.495 2.01 7.495 1 8 C0.67 5.36 0.34 2.72 0 0 Z " fill="#0A0A0A" transform="translate(204,260)"/>
</svg>
