<?xml version="1.0" encoding="UTF-8"?>
<svg version="1.1" xmlns="http://www.w3.org/2000/svg" width="512" height="512">
<path d="M0 0 C3.08662554 0.01072591 6.17266928 0.00004105 9.25927734 -0.01269531 C20.53403419 -0.01946938 31.44751182 0.47399026 42.59130859 2.26074219 C42.59130859 2.92074219 42.59130859 3.58074219 42.59130859 4.26074219 C48.03630859 4.75574219 48.03630859 4.75574219 53.59130859 5.26074219 C53.59130859 5.92074219 53.59130859 6.58074219 53.59130859 7.26074219 C56.56130859 7.59074219 59.53130859 7.92074219 62.59130859 8.26074219 C62.59130859 8.92074219 62.59130859 9.58074219 62.59130859 10.26074219 C65.23130859 10.59074219 67.87130859 10.92074219 70.59130859 11.26074219 C70.59130859 11.92074219 70.59130859 12.58074219 70.59130859 13.26074219 C71.29126953 13.36515625 71.99123047 13.46957031 72.71240234 13.57714844 C76.00994039 14.36014594 78.64536186 15.64267365 81.65380859 17.19824219 C83.18714844 17.98521484 83.18714844 17.98521484 84.75146484 18.78808594 C85.68861328 19.2740625 86.62576172 19.76003906 87.59130859 20.26074219 C88.92332267 20.93004086 90.25605958 21.59792073 91.59130859 22.26074219 C91.59130859 22.92074219 91.59130859 23.58074219 91.59130859 24.26074219 C93.24130859 24.59074219 94.89130859 24.92074219 96.59130859 25.26074219 C96.59130859 25.92074219 96.59130859 26.58074219 96.59130859 27.26074219 C98.24130859 27.59074219 99.89130859 27.92074219 101.59130859 28.26074219 C101.59130859 28.92074219 101.59130859 29.58074219 101.59130859 30.26074219 C102.91130859 30.59074219 104.23130859 30.92074219 105.59130859 31.26074219 C105.59130859 31.92074219 105.59130859 32.58074219 105.59130859 33.26074219 C106.91130859 33.59074219 108.23130859 33.92074219 109.59130859 34.26074219 C109.59130859 34.92074219 109.59130859 35.58074219 109.59130859 36.26074219 C110.91130859 36.59074219 112.23130859 36.92074219 113.59130859 37.26074219 C113.59130859 37.92074219 113.59130859 38.58074219 113.59130859 39.26074219 C114.18943359 39.36386719 114.78755859 39.46699219 115.40380859 39.57324219 C117.90389145 40.35898251 118.96665942 41.22993072 120.59130859 43.26074219 C120.59130859 43.92074219 120.59130859 44.58074219 120.59130859 45.26074219 C121.25130859 45.26074219 121.91130859 45.26074219 122.59130859 45.26074219 C123.93026492 46.92289486 125.26261002 48.59037826 126.59130859 50.26074219 C127.82880859 51.25074219 127.82880859 51.25074219 129.09130859 52.26074219 C131.7250186 54.3677102 133.53093892 56.60220067 135.59130859 59.26074219 C136.52523437 60.185 136.52523437 60.185 137.47802734 61.12792969 C139.60806115 63.27764958 141.47691999 65.50346785 143.34130859 67.88574219 C143.95490234 68.66175781 144.56849609 69.43777344 145.20068359 70.23730469 C146.59130859 72.26074219 146.59130859 72.26074219 146.59130859 74.26074219 C147.25130859 74.26074219 147.91130859 74.26074219 148.59130859 74.26074219 C148.92130859 75.91074219 149.25130859 77.56074219 149.59130859 79.26074219 C150.25130859 79.26074219 150.91130859 79.26074219 151.59130859 79.26074219 C151.92130859 80.25074219 152.25130859 81.24074219 152.59130859 82.26074219 C153.25130859 82.59074219 153.91130859 82.92074219 154.59130859 83.26074219 C157.59130859 88.68381911 157.59130859 88.68381911 157.59130859 91.26074219 C158.25130859 91.26074219 158.91130859 91.26074219 159.59130859 91.26074219 C159.92130859 93.24074219 160.25130859 95.22074219 160.59130859 97.26074219 C161.25130859 97.26074219 161.91130859 97.26074219 162.59130859 97.26074219 C162.92130859 99.24074219 163.25130859 101.22074219 163.59130859 103.26074219 C164.25130859 103.26074219 164.91130859 103.26074219 165.59130859 103.26074219 C165.92130859 105.57074219 166.25130859 107.88074219 166.59130859 110.26074219 C167.25130859 110.26074219 167.91130859 110.26074219 168.59130859 110.26074219 C168.92130859 112.90074219 169.25130859 115.54074219 169.59130859 118.26074219 C170.25130859 118.26074219 170.91130859 118.26074219 171.59130859 118.26074219 C173.84810503 126.00487614 176.02482699 133.74678235 177.93505859 141.58496094 C178.33525009 143.21669413 178.74858839 144.84536776 179.18505859 146.46777344 C181.52108321 155.17633579 181.74193777 163.79177619 181.72412109 172.76074219 C181.72555618 174.37432617 181.72555618 174.37432617 181.72702026 176.02050781 C181.7276973 178.2828782 181.72587643 180.54525059 181.72167969 182.80761719 C181.71632473 186.25037034 181.72164097 189.69299305 181.72802734 193.13574219 C181.72736648 195.34407581 181.72608514 197.55240934 181.72412109 199.76074219 C181.72614532 200.77974609 181.72816956 201.79875 181.73025513 202.84863281 C181.70423432 210.86669982 181.19829388 218.50769288 179.12207031 226.26904297 C178.57584638 228.3187646 178.09426449 230.37538787 177.62646484 232.44433594 C175.93556912 239.85358034 174.19306151 247.10592166 171.59130859 254.26074219 C170.93130859 254.26074219 170.27130859 254.26074219 169.59130859 254.26074219 C169.26130859 256.90074219 168.93130859 259.54074219 168.59130859 262.26074219 C167.93130859 262.26074219 167.27130859 262.26074219 166.59130859 262.26074219 C166.26130859 264.57074219 165.93130859 266.88074219 165.59130859 269.26074219 C164.93130859 269.26074219 164.27130859 269.26074219 163.59130859 269.26074219 C163.26130859 271.24074219 162.93130859 273.22074219 162.59130859 275.26074219 C161.93130859 275.26074219 161.27130859 275.26074219 160.59130859 275.26074219 C160.26130859 277.24074219 159.93130859 279.22074219 159.59130859 281.26074219 C158.93130859 281.26074219 158.27130859 281.26074219 157.59130859 281.26074219 C156.51605665 283.91303031 155.49674708 286.54442673 154.59130859 289.26074219 C153.93130859 289.59074219 153.27130859 289.92074219 152.59130859 290.26074219 C152.26130859 291.25074219 151.93130859 292.24074219 151.59130859 293.26074219 C150.93130859 293.26074219 150.27130859 293.26074219 149.59130859 293.26074219 C149.26130859 294.91074219 148.93130859 296.56074219 148.59130859 298.26074219 C147.93130859 298.26074219 147.27130859 298.26074219 146.59130859 298.26074219 C146.28193359 299.28167969 146.28193359 299.28167969 145.96630859 300.32324219 C144.42440555 303.61730779 142.51326221 305.87116442 140.10302734 308.56152344 C138.84932881 309.97071946 137.67713725 311.45193515 136.52880859 312.94824219 C134.43588169 315.44625172 132.13108498 317.22892108 129.59130859 319.26074219 C128.22886063 320.90369414 126.89265984 322.56898556 125.59130859 324.26074219 C123.96630859 326.07324219 123.96630859 326.07324219 122.59130859 327.26074219 C121.93130859 327.26074219 121.27130859 327.26074219 120.59130859 327.26074219 C120.59130859 327.92074219 120.59130859 328.58074219 120.59130859 329.26074219 C116.12072036 333.26074219 116.12072036 333.26074219 113.59130859 333.26074219 C113.59130859 333.92074219 113.59130859 334.58074219 113.59130859 335.26074219 C112.27130859 335.59074219 110.95130859 335.92074219 109.59130859 336.26074219 C109.59130859 336.92074219 109.59130859 337.58074219 109.59130859 338.26074219 C108.27130859 338.59074219 106.95130859 338.92074219 105.59130859 339.26074219 C105.59130859 339.92074219 105.59130859 340.58074219 105.59130859 341.26074219 C104.27130859 341.59074219 102.95130859 341.92074219 101.59130859 342.26074219 C101.59130859 342.92074219 101.59130859 343.58074219 101.59130859 344.26074219 C99.94130859 344.59074219 98.29130859 344.92074219 96.59130859 345.26074219 C96.59130859 345.92074219 96.59130859 346.58074219 96.59130859 347.26074219 C94.94130859 347.59074219 93.29130859 347.92074219 91.59130859 348.26074219 C91.59130859 348.92074219 91.59130859 349.58074219 91.59130859 350.26074219 C89.03244355 351.58076775 86.46963791 352.89188 83.90380859 354.19824219 C83.18257813 354.57142578 82.46134766 354.94460938 81.71826172 355.32910156 C78.02625117 357.20039458 74.75437764 358.74343775 70.59130859 359.26074219 C70.59130859 359.92074219 70.59130859 360.58074219 70.59130859 361.26074219 C67.95130859 361.59074219 65.31130859 361.92074219 62.59130859 362.26074219 C62.59130859 362.92074219 62.59130859 363.58074219 62.59130859 364.26074219 C59.62130859 364.59074219 56.65130859 364.92074219 53.59130859 365.26074219 C53.59130859 365.92074219 53.59130859 366.58074219 53.59130859 367.26074219 C49.96130859 367.59074219 46.33130859 367.92074219 42.59130859 368.26074219 C42.59130859 368.92074219 42.59130859 369.58074219 42.59130859 370.26074219 C30.42571208 372.21132541 18.48675756 372.57225531 6.18261719 372.52148438 C3.09599165 372.51075846 0.0099479 372.52144333 -3.07666016 372.53417969 C-14.351417 372.54095375 -25.26489463 372.04749412 -36.40869141 370.26074219 C-36.40869141 369.60074219 -36.40869141 368.94074219 -36.40869141 368.26074219 C-40.03869141 367.93074219 -43.66869141 367.60074219 -47.40869141 367.26074219 C-47.40869141 366.60074219 -47.40869141 365.94074219 -47.40869141 365.26074219 C-50.37869141 364.93074219 -53.34869141 364.60074219 -56.40869141 364.26074219 C-56.40869141 363.60074219 -56.40869141 362.94074219 -56.40869141 362.26074219 C-59.04869141 361.93074219 -61.68869141 361.60074219 -64.40869141 361.26074219 C-64.40869141 360.60074219 -64.40869141 359.94074219 -64.40869141 359.26074219 C-65.06869141 359.17566406 -65.72869141 359.09058594 -66.40869141 359.00292969 C-70.3931701 358.01718626 -73.77225 356.2576373 -77.40869141 354.38574219 C-78.10736328 354.03382813 -78.80603516 353.68191406 -79.52587891 353.31933594 C-87.36942154 349.33836807 -87.36942154 349.33836807 -90.40869141 347.26074219 C-90.40869141 346.60074219 -90.40869141 345.94074219 -90.40869141 345.26074219 C-92.05869141 344.93074219 -93.70869141 344.60074219 -95.40869141 344.26074219 C-95.40869141 343.60074219 -95.40869141 342.94074219 -95.40869141 342.26074219 C-96.72869141 341.93074219 -98.04869141 341.60074219 -99.40869141 341.26074219 C-99.40869141 340.60074219 -99.40869141 339.94074219 -99.40869141 339.26074219 C-100.17181641 339.15761719 -100.93494141 339.05449219 -101.72119141 338.94824219 C-104.59285624 338.21363025 -105.63911234 337.58913569 -107.40869141 335.26074219 C-107.40869141 334.60074219 -107.40869141 333.94074219 -107.40869141 333.26074219 C-108.72869141 332.93074219 -110.04869141 332.60074219 -111.40869141 332.26074219 C-111.40869141 331.60074219 -111.40869141 330.94074219 -111.40869141 330.26074219 C-112.39869141 329.93074219 -113.38869141 329.60074219 -114.40869141 329.26074219 C-114.40869141 328.60074219 -114.40869141 327.94074219 -114.40869141 327.26074219 C-115.06869141 327.26074219 -115.72869141 327.26074219 -116.40869141 327.26074219 C-118.03369141 325.88574219 -118.03369141 325.88574219 -119.40869141 324.26074219 C-119.40869141 323.60074219 -119.40869141 322.94074219 -119.40869141 322.26074219 C-120.39869141 321.93074219 -121.38869141 321.60074219 -122.40869141 321.26074219 C-122.40869141 320.60074219 -122.40869141 319.94074219 -122.40869141 319.26074219 C-123.39869141 318.93074219 -124.38869141 318.60074219 -125.40869141 318.26074219 C-125.40869141 317.60074219 -125.40869141 316.94074219 -125.40869141 316.26074219 C-126.39869141 315.93074219 -127.38869141 315.60074219 -128.40869141 315.26074219 C-128.40869141 314.60074219 -128.40869141 313.94074219 -128.40869141 313.26074219 C-129.39869141 312.93074219 -130.38869141 312.60074219 -131.40869141 312.26074219 C-132.43481089 310.61002823 -133.43177284 308.94104213 -134.40869141 307.26074219 C-135.08931641 306.60074219 -135.76994141 305.94074219 -136.47119141 305.26074219 C-138.61033219 303.05259686 -139.44446354 301.15342578 -140.40869141 298.26074219 C-141.06869141 298.26074219 -141.72869141 298.26074219 -142.40869141 298.26074219 C-142.40869141 297.27074219 -142.40869141 296.28074219 -142.40869141 295.26074219 C-143.06869141 295.26074219 -143.72869141 295.26074219 -144.40869141 295.26074219 C-148.40869141 289.96662454 -148.40869141 289.96662454 -148.40869141 286.26074219 C-149.06869141 286.26074219 -149.72869141 286.26074219 -150.40869141 286.26074219 C-150.73869141 284.61074219 -151.06869141 282.96074219 -151.40869141 281.26074219 C-152.06869141 281.26074219 -152.72869141 281.26074219 -153.40869141 281.26074219 C-153.73869141 279.28074219 -154.06869141 277.30074219 -154.40869141 275.26074219 C-155.06869141 275.26074219 -155.72869141 275.26074219 -156.40869141 275.26074219 C-156.73869141 273.28074219 -157.06869141 271.30074219 -157.40869141 269.26074219 C-158.06869141 269.26074219 -158.72869141 269.26074219 -159.40869141 269.26074219 C-160.41727563 266.84734423 -161.41571813 264.43055544 -162.40869141 262.01074219 C-162.69486328 261.32882812 -162.98103516 260.64691406 -163.27587891 259.94433594 C-164.70214634 256.44658484 -165.40869141 254.0917403 -165.40869141 250.26074219 C-166.06869141 250.26074219 -166.72869141 250.26074219 -167.40869141 250.26074219 C-167.90369141 245.31074219 -167.90369141 245.31074219 -168.40869141 240.26074219 C-169.06869141 240.26074219 -169.72869141 240.26074219 -170.40869141 240.26074219 C-170.90369141 234.32074219 -170.90369141 234.32074219 -171.40869141 228.26074219 C-172.06869141 228.26074219 -172.72869141 228.26074219 -173.40869141 228.26074219 C-175.35898639 215.34170388 -175.72005886 202.60333543 -175.66943359 189.54980469 C-175.6587078 186.26576277 -175.66939253 182.98226768 -175.68212891 179.69824219 C-175.68888185 167.74013725 -175.19461353 156.09095071 -173.40869141 144.26074219 C-172.74869141 144.26074219 -172.08869141 144.26074219 -171.40869141 144.26074219 C-171.07869141 140.30074219 -170.74869141 136.34074219 -170.40869141 132.26074219 C-169.74869141 132.26074219 -169.08869141 132.26074219 -168.40869141 132.26074219 C-168.07869141 128.96074219 -167.74869141 125.66074219 -167.40869141 122.26074219 C-166.74869141 122.26074219 -166.08869141 122.26074219 -165.40869141 122.26074219 C-165.34681641 121.35324219 -165.28494141 120.44574219 -165.22119141 119.51074219 C-164.43767342 113.75307217 -161.75106421 108.52459842 -159.40869141 103.26074219 C-158.74869141 103.26074219 -158.08869141 103.26074219 -157.40869141 103.26074219 C-157.07869141 101.28074219 -156.74869141 99.30074219 -156.40869141 97.26074219 C-155.74869141 97.26074219 -155.08869141 97.26074219 -154.40869141 97.26074219 C-154.07869141 95.28074219 -153.74869141 93.30074219 -153.40869141 91.26074219 C-152.74869141 91.26074219 -152.08869141 91.26074219 -151.40869141 91.26074219 C-151.07869141 89.61074219 -150.74869141 87.96074219 -150.40869141 86.26074219 C-149.74869141 86.26074219 -149.08869141 86.26074219 -148.40869141 86.26074219 C-148.30556641 85.70386719 -148.20244141 85.14699219 -148.09619141 84.57324219 C-147.26690732 81.78383208 -146.06570085 79.64683579 -144.40869141 77.26074219 C-143.74869141 77.26074219 -143.08869141 77.26074219 -142.40869141 77.26074219 C-142.40869141 76.27074219 -142.40869141 75.28074219 -142.40869141 74.26074219 C-141.74869141 74.26074219 -141.08869141 74.26074219 -140.40869141 74.26074219 C-140.20244141 73.58011719 -139.99619141 72.89949219 -139.78369141 72.19824219 C-138.23293544 68.88526352 -136.28398417 66.60294069 -133.84619141 63.90917969 C-132.21594454 62.11114285 -132.21594454 62.11114285 -130.40869141 59.26074219 C-129.74869141 59.26074219 -129.08869141 59.26074219 -128.40869141 59.26074219 C-128.07869141 58.27074219 -127.74869141 57.28074219 -127.40869141 56.26074219 C-126.74869141 56.26074219 -126.08869141 56.26074219 -125.40869141 56.26074219 C-125.07869141 55.27074219 -124.74869141 54.28074219 -124.40869141 53.26074219 C-123.74869141 53.26074219 -123.08869141 53.26074219 -122.40869141 53.26074219 C-122.07869141 52.27074219 -121.74869141 51.28074219 -121.40869141 50.26074219 C-120.74869141 50.26074219 -120.08869141 50.26074219 -119.40869141 50.26074219 C-119.40869141 49.60074219 -119.40869141 48.94074219 -119.40869141 48.26074219 C-118.03369141 46.63574219 -118.03369141 46.63574219 -116.40869141 45.26074219 C-115.74869141 45.26074219 -115.08869141 45.26074219 -114.40869141 45.26074219 C-114.07869141 44.27074219 -113.74869141 43.28074219 -113.40869141 42.26074219 C-112.74869141 42.26074219 -112.08869141 42.26074219 -111.40869141 42.26074219 C-111.40869141 41.60074219 -111.40869141 40.94074219 -111.40869141 40.26074219 C-110.08869141 39.93074219 -108.76869141 39.60074219 -107.40869141 39.26074219 C-107.40869141 38.60074219 -107.40869141 37.94074219 -107.40869141 37.26074219 C-105.63911234 34.93234868 -104.59285624 34.30785412 -101.72119141 33.57324219 C-100.57650391 33.41855469 -100.57650391 33.41855469 -99.40869141 33.26074219 C-99.40869141 32.60074219 -99.40869141 31.94074219 -99.40869141 31.26074219 C-98.08869141 30.93074219 -96.76869141 30.60074219 -95.40869141 30.26074219 C-95.40869141 29.60074219 -95.40869141 28.94074219 -95.40869141 28.26074219 C-93.75869141 27.93074219 -92.10869141 27.60074219 -90.40869141 27.26074219 C-90.40869141 26.60074219 -90.40869141 25.94074219 -90.40869141 25.26074219 C-83.72315801 20.25036502 -72.850566 13.26074219 -64.40869141 13.26074219 C-64.40869141 12.60074219 -64.40869141 11.94074219 -64.40869141 11.26074219 C-61.76869141 10.93074219 -59.12869141 10.60074219 -56.40869141 10.26074219 C-56.40869141 9.60074219 -56.40869141 8.94074219 -56.40869141 8.26074219 C-51.95369141 7.76574219 -51.95369141 7.76574219 -47.40869141 7.26074219 C-47.40869141 6.60074219 -47.40869141 5.94074219 -47.40869141 5.26074219 C-43.77869141 4.93074219 -40.14869141 4.60074219 -36.40869141 4.26074219 C-36.40869141 3.60074219 -36.40869141 2.94074219 -36.40869141 2.26074219 C-24.24309489 0.31015896 -12.30414038 -0.05077093 0 0 Z " fill="#FEFDFD" transform="translate(239.40869140625,65.7392578125)"/>
<path d="M0 0 C3.08662554 0.01072591 6.17266928 0.00004105 9.25927734 -0.01269531 C20.53403419 -0.01946938 31.44751182 0.47399026 42.59130859 2.26074219 C42.59130859 2.92074219 42.59130859 3.58074219 42.59130859 4.26074219 C48.03630859 4.75574219 48.03630859 4.75574219 53.59130859 5.26074219 C53.59130859 5.92074219 53.59130859 6.58074219 53.59130859 7.26074219 C56.56130859 7.59074219 59.53130859 7.92074219 62.59130859 8.26074219 C62.59130859 8.92074219 62.59130859 9.58074219 62.59130859 10.26074219 C65.23130859 10.59074219 67.87130859 10.92074219 70.59130859 11.26074219 C70.59130859 11.92074219 70.59130859 12.58074219 70.59130859 13.26074219 C71.29126953 13.36515625 71.99123047 13.46957031 72.71240234 13.57714844 C76.00994039 14.36014594 78.64536186 15.64267365 81.65380859 17.19824219 C83.18714844 17.98521484 83.18714844 17.98521484 84.75146484 18.78808594 C85.68861328 19.2740625 86.62576172 19.76003906 87.59130859 20.26074219 C88.92332267 20.93004086 90.25605958 21.59792073 91.59130859 22.26074219 C91.59130859 22.92074219 91.59130859 23.58074219 91.59130859 24.26074219 C93.24130859 24.59074219 94.89130859 24.92074219 96.59130859 25.26074219 C96.59130859 25.92074219 96.59130859 26.58074219 96.59130859 27.26074219 C98.24130859 27.59074219 99.89130859 27.92074219 101.59130859 28.26074219 C101.59130859 28.92074219 101.59130859 29.58074219 101.59130859 30.26074219 C102.91130859 30.59074219 104.23130859 30.92074219 105.59130859 31.26074219 C105.59130859 31.92074219 105.59130859 32.58074219 105.59130859 33.26074219 C106.91130859 33.59074219 108.23130859 33.92074219 109.59130859 34.26074219 C109.59130859 34.92074219 109.59130859 35.58074219 109.59130859 36.26074219 C110.91130859 36.59074219 112.23130859 36.92074219 113.59130859 37.26074219 C113.59130859 37.92074219 113.59130859 38.58074219 113.59130859 39.26074219 C114.18943359 39.36386719 114.78755859 39.46699219 115.40380859 39.57324219 C117.90389145 40.35898251 118.96665942 41.22993072 120.59130859 43.26074219 C120.59130859 43.92074219 120.59130859 44.58074219 120.59130859 45.26074219 C121.25130859 45.26074219 121.91130859 45.26074219 122.59130859 45.26074219 C123.93026492 46.92289486 125.26261002 48.59037826 126.59130859 50.26074219 C127.82880859 51.25074219 127.82880859 51.25074219 129.09130859 52.26074219 C131.7250186 54.3677102 133.53093892 56.60220067 135.59130859 59.26074219 C136.52523437 60.185 136.52523437 60.185 137.47802734 61.12792969 C139.60806115 63.27764958 141.47691999 65.50346785 143.34130859 67.88574219 C143.95490234 68.66175781 144.56849609 69.43777344 145.20068359 70.23730469 C146.59130859 72.26074219 146.59130859 72.26074219 146.59130859 74.26074219 C147.25130859 74.26074219 147.91130859 74.26074219 148.59130859 74.26074219 C148.92130859 75.91074219 149.25130859 77.56074219 149.59130859 79.26074219 C150.25130859 79.26074219 150.91130859 79.26074219 151.59130859 79.26074219 C151.92130859 80.25074219 152.25130859 81.24074219 152.59130859 82.26074219 C153.25130859 82.59074219 153.91130859 82.92074219 154.59130859 83.26074219 C157.59130859 88.68381911 157.59130859 88.68381911 157.59130859 91.26074219 C158.25130859 91.26074219 158.91130859 91.26074219 159.59130859 91.26074219 C159.92130859 93.24074219 160.25130859 95.22074219 160.59130859 97.26074219 C161.25130859 97.26074219 161.91130859 97.26074219 162.59130859 97.26074219 C162.92130859 99.24074219 163.25130859 101.22074219 163.59130859 103.26074219 C164.25130859 103.26074219 164.91130859 103.26074219 165.59130859 103.26074219 C165.92130859 105.57074219 166.25130859 107.88074219 166.59130859 110.26074219 C167.25130859 110.26074219 167.91130859 110.26074219 168.59130859 110.26074219 C168.92130859 112.90074219 169.25130859 115.54074219 169.59130859 118.26074219 C170.25130859 118.26074219 170.91130859 118.26074219 171.59130859 118.26074219 C173.84810503 126.00487614 176.02482699 133.74678235 177.93505859 141.58496094 C178.33525009 143.21669413 178.74858839 144.84536776 179.18505859 146.46777344 C181.52108321 155.17633579 181.74193777 163.79177619 181.72412109 172.76074219 C181.72555618 174.37432617 181.72555618 174.37432617 181.72702026 176.02050781 C181.7276973 178.2828782 181.72587643 180.54525059 181.72167969 182.80761719 C181.71632473 186.25037034 181.72164097 189.69299305 181.72802734 193.13574219 C181.72736648 195.34407581 181.72608514 197.55240934 181.72412109 199.76074219 C181.72614532 200.77974609 181.72816956 201.79875 181.73025513 202.84863281 C181.70423432 210.86669982 181.19829388 218.50769288 179.12207031 226.26904297 C178.57584638 228.3187646 178.09426449 230.37538787 177.62646484 232.44433594 C175.93556912 239.85358034 174.19306151 247.10592166 171.59130859 254.26074219 C170.93130859 254.26074219 170.27130859 254.26074219 169.59130859 254.26074219 C169.26130859 256.90074219 168.93130859 259.54074219 168.59130859 262.26074219 C167.93130859 262.26074219 167.27130859 262.26074219 166.59130859 262.26074219 C166.26130859 264.57074219 165.93130859 266.88074219 165.59130859 269.26074219 C164.93130859 269.26074219 164.27130859 269.26074219 163.59130859 269.26074219 C163.26130859 271.24074219 162.93130859 273.22074219 162.59130859 275.26074219 C161.93130859 275.26074219 161.27130859 275.26074219 160.59130859 275.26074219 C160.26130859 277.24074219 159.93130859 279.22074219 159.59130859 281.26074219 C158.93130859 281.26074219 158.27130859 281.26074219 157.59130859 281.26074219 C156.51605665 283.91303031 155.49674708 286.54442673 154.59130859 289.26074219 C153.93130859 289.59074219 153.27130859 289.92074219 152.59130859 290.26074219 C152.26130859 291.25074219 151.93130859 292.24074219 151.59130859 293.26074219 C150.93130859 293.26074219 150.27130859 293.26074219 149.59130859 293.26074219 C149.26130859 294.91074219 148.93130859 296.56074219 148.59130859 298.26074219 C147.93130859 298.26074219 147.27130859 298.26074219 146.59130859 298.26074219 C146.28193359 299.28167969 146.28193359 299.28167969 145.96630859 300.32324219 C144.42440555 303.61730779 142.51326221 305.87116442 140.10302734 308.56152344 C138.84932881 309.97071946 137.67713725 311.45193515 136.52880859 312.94824219 C134.43588169 315.44625172 132.13108498 317.22892108 129.59130859 319.26074219 C128.22886063 320.90369414 126.89265984 322.56898556 125.59130859 324.26074219 C123.96630859 326.07324219 123.96630859 326.07324219 122.59130859 327.26074219 C121.93130859 327.26074219 121.27130859 327.26074219 120.59130859 327.26074219 C120.59130859 327.92074219 120.59130859 328.58074219 120.59130859 329.26074219 C116.12072036 333.26074219 116.12072036 333.26074219 113.59130859 333.26074219 C113.59130859 333.92074219 113.59130859 334.58074219 113.59130859 335.26074219 C112.27130859 335.59074219 110.95130859 335.92074219 109.59130859 336.26074219 C109.59130859 336.92074219 109.59130859 337.58074219 109.59130859 338.26074219 C108.27130859 338.59074219 106.95130859 338.92074219 105.59130859 339.26074219 C105.59130859 339.92074219 105.59130859 340.58074219 105.59130859 341.26074219 C104.27130859 341.59074219 102.95130859 341.92074219 101.59130859 342.26074219 C101.59130859 342.92074219 101.59130859 343.58074219 101.59130859 344.26074219 C99.94130859 344.59074219 98.29130859 344.92074219 96.59130859 345.26074219 C96.59130859 345.92074219 96.59130859 346.58074219 96.59130859 347.26074219 C94.94130859 347.59074219 93.29130859 347.92074219 91.59130859 348.26074219 C91.59130859 348.92074219 91.59130859 349.58074219 91.59130859 350.26074219 C89.03244355 351.58076775 86.46963791 352.89188 83.90380859 354.19824219 C83.18257813 354.57142578 82.46134766 354.94460938 81.71826172 355.32910156 C78.02625117 357.20039458 74.75437764 358.74343775 70.59130859 359.26074219 C70.59130859 359.92074219 70.59130859 360.58074219 70.59130859 361.26074219 C67.95130859 361.59074219 65.31130859 361.92074219 62.59130859 362.26074219 C62.59130859 362.92074219 62.59130859 363.58074219 62.59130859 364.26074219 C59.62130859 364.59074219 56.65130859 364.92074219 53.59130859 365.26074219 C53.59130859 365.92074219 53.59130859 366.58074219 53.59130859 367.26074219 C49.96130859 367.59074219 46.33130859 367.92074219 42.59130859 368.26074219 C42.59130859 368.92074219 42.59130859 369.58074219 42.59130859 370.26074219 C30.42571208 372.21132541 18.48675756 372.57225531 6.18261719 372.52148438 C3.09599165 372.51075846 0.0099479 372.52144333 -3.07666016 372.53417969 C-14.351417 372.54095375 -25.26489463 372.04749412 -36.40869141 370.26074219 C-36.40869141 369.60074219 -36.40869141 368.94074219 -36.40869141 368.26074219 C-40.03869141 367.93074219 -43.66869141 367.60074219 -47.40869141 367.26074219 C-47.40869141 366.60074219 -47.40869141 365.94074219 -47.40869141 365.26074219 C-50.37869141 364.93074219 -53.34869141 364.60074219 -56.40869141 364.26074219 C-56.40869141 363.60074219 -56.40869141 362.94074219 -56.40869141 362.26074219 C-59.04869141 361.93074219 -61.68869141 361.60074219 -64.40869141 361.26074219 C-64.40869141 360.60074219 -64.40869141 359.94074219 -64.40869141 359.26074219 C-65.06869141 359.17566406 -65.72869141 359.09058594 -66.40869141 359.00292969 C-70.3931701 358.01718626 -73.77225 356.2576373 -77.40869141 354.38574219 C-78.10736328 354.03382813 -78.80603516 353.68191406 -79.52587891 353.31933594 C-87.36942154 349.33836807 -87.36942154 349.33836807 -90.40869141 347.26074219 C-90.40869141 346.60074219 -90.40869141 345.94074219 -90.40869141 345.26074219 C-92.05869141 344.93074219 -93.70869141 344.60074219 -95.40869141 344.26074219 C-95.40869141 343.60074219 -95.40869141 342.94074219 -95.40869141 342.26074219 C-96.72869141 341.93074219 -98.04869141 341.60074219 -99.40869141 341.26074219 C-99.40869141 340.60074219 -99.40869141 339.94074219 -99.40869141 339.26074219 C-100.17181641 339.15761719 -100.93494141 339.05449219 -101.72119141 338.94824219 C-104.59285624 338.21363025 -105.63911234 337.58913569 -107.40869141 335.26074219 C-107.40869141 334.60074219 -107.40869141 333.94074219 -107.40869141 333.26074219 C-108.72869141 332.93074219 -110.04869141 332.60074219 -111.40869141 332.26074219 C-111.40869141 331.60074219 -111.40869141 330.94074219 -111.40869141 330.26074219 C-112.39869141 329.93074219 -113.38869141 329.60074219 -114.40869141 329.26074219 C-114.40869141 328.60074219 -114.40869141 327.94074219 -114.40869141 327.26074219 C-115.06869141 327.26074219 -115.72869141 327.26074219 -116.40869141 327.26074219 C-118.03369141 325.88574219 -118.03369141 325.88574219 -119.40869141 324.26074219 C-119.40869141 323.60074219 -119.40869141 322.94074219 -119.40869141 322.26074219 C-120.39869141 321.93074219 -121.38869141 321.60074219 -122.40869141 321.26074219 C-122.40869141 320.60074219 -122.40869141 319.94074219 -122.40869141 319.26074219 C-123.39869141 318.93074219 -124.38869141 318.60074219 -125.40869141 318.26074219 C-125.40869141 317.60074219 -125.40869141 316.94074219 -125.40869141 316.26074219 C-126.39869141 315.93074219 -127.38869141 315.60074219 -128.40869141 315.26074219 C-128.40869141 314.60074219 -128.40869141 313.94074219 -128.40869141 313.26074219 C-129.39869141 312.93074219 -130.38869141 312.60074219 -131.40869141 312.26074219 C-132.43481089 310.61002823 -133.43177284 308.94104213 -134.40869141 307.26074219 C-135.08931641 306.60074219 -135.76994141 305.94074219 -136.47119141 305.26074219 C-138.61033219 303.05259686 -139.44446354 301.15342578 -140.40869141 298.26074219 C-141.06869141 298.26074219 -141.72869141 298.26074219 -142.40869141 298.26074219 C-142.40869141 297.27074219 -142.40869141 296.28074219 -142.40869141 295.26074219 C-143.06869141 295.26074219 -143.72869141 295.26074219 -144.40869141 295.26074219 C-148.40869141 289.96662454 -148.40869141 289.96662454 -148.40869141 286.26074219 C-149.06869141 286.26074219 -149.72869141 286.26074219 -150.40869141 286.26074219 C-150.73869141 284.61074219 -151.06869141 282.96074219 -151.40869141 281.26074219 C-152.06869141 281.26074219 -152.72869141 281.26074219 -153.40869141 281.26074219 C-153.73869141 279.28074219 -154.06869141 277.30074219 -154.40869141 275.26074219 C-155.06869141 275.26074219 -155.72869141 275.26074219 -156.40869141 275.26074219 C-156.73869141 273.28074219 -157.06869141 271.30074219 -157.40869141 269.26074219 C-158.06869141 269.26074219 -158.72869141 269.26074219 -159.40869141 269.26074219 C-160.41727563 266.84734423 -161.41571813 264.43055544 -162.40869141 262.01074219 C-162.69486328 261.32882812 -162.98103516 260.64691406 -163.27587891 259.94433594 C-164.70214634 256.44658484 -165.40869141 254.0917403 -165.40869141 250.26074219 C-166.06869141 250.26074219 -166.72869141 250.26074219 -167.40869141 250.26074219 C-167.90369141 245.31074219 -167.90369141 245.31074219 -168.40869141 240.26074219 C-169.06869141 240.26074219 -169.72869141 240.26074219 -170.40869141 240.26074219 C-170.90369141 234.32074219 -170.90369141 234.32074219 -171.40869141 228.26074219 C-172.06869141 228.26074219 -172.72869141 228.26074219 -173.40869141 228.26074219 C-175.35898639 215.34170388 -175.72005886 202.60333543 -175.66943359 189.54980469 C-175.6587078 186.26576277 -175.66939253 182.98226768 -175.68212891 179.69824219 C-175.68888185 167.74013725 -175.19461353 156.09095071 -173.40869141 144.26074219 C-172.74869141 144.26074219 -172.08869141 144.26074219 -171.40869141 144.26074219 C-171.07869141 140.30074219 -170.74869141 136.34074219 -170.40869141 132.26074219 C-169.74869141 132.26074219 -169.08869141 132.26074219 -168.40869141 132.26074219 C-168.07869141 128.96074219 -167.74869141 125.66074219 -167.40869141 122.26074219 C-166.74869141 122.26074219 -166.08869141 122.26074219 -165.40869141 122.26074219 C-165.34681641 121.35324219 -165.28494141 120.44574219 -165.22119141 119.51074219 C-164.43767342 113.75307217 -161.75106421 108.52459842 -159.40869141 103.26074219 C-158.74869141 103.26074219 -158.08869141 103.26074219 -157.40869141 103.26074219 C-157.07869141 101.28074219 -156.74869141 99.30074219 -156.40869141 97.26074219 C-155.74869141 97.26074219 -155.08869141 97.26074219 -154.40869141 97.26074219 C-154.07869141 95.28074219 -153.74869141 93.30074219 -153.40869141 91.26074219 C-152.74869141 91.26074219 -152.08869141 91.26074219 -151.40869141 91.26074219 C-151.07869141 89.61074219 -150.74869141 87.96074219 -150.40869141 86.26074219 C-149.74869141 86.26074219 -149.08869141 86.26074219 -148.40869141 86.26074219 C-148.30556641 85.70386719 -148.20244141 85.14699219 -148.09619141 84.57324219 C-147.26690732 81.78383208 -146.06570085 79.64683579 -144.40869141 77.26074219 C-143.74869141 77.26074219 -143.08869141 77.26074219 -142.40869141 77.26074219 C-142.40869141 76.27074219 -142.40869141 75.28074219 -142.40869141 74.26074219 C-141.74869141 74.26074219 -141.08869141 74.26074219 -140.40869141 74.26074219 C-140.20244141 73.58011719 -139.99619141 72.89949219 -139.78369141 72.19824219 C-138.23293544 68.88526352 -136.28398417 66.60294069 -133.84619141 63.90917969 C-132.21594454 62.11114285 -132.21594454 62.11114285 -130.40869141 59.26074219 C-129.74869141 59.26074219 -129.08869141 59.26074219 -128.40869141 59.26074219 C-128.07869141 58.27074219 -127.74869141 57.28074219 -127.40869141 56.26074219 C-126.74869141 56.26074219 -126.08869141 56.26074219 -125.40869141 56.26074219 C-125.07869141 55.27074219 -124.74869141 54.28074219 -124.40869141 53.26074219 C-123.74869141 53.26074219 -123.08869141 53.26074219 -122.40869141 53.26074219 C-122.07869141 52.27074219 -121.74869141 51.28074219 -121.40869141 50.26074219 C-120.74869141 50.26074219 -120.08869141 50.26074219 -119.40869141 50.26074219 C-119.40869141 49.60074219 -119.40869141 48.94074219 -119.40869141 48.26074219 C-118.03369141 46.63574219 -118.03369141 46.63574219 -116.40869141 45.26074219 C-115.74869141 45.26074219 -115.08869141 45.26074219 -114.40869141 45.26074219 C-114.07869141 44.27074219 -113.74869141 43.28074219 -113.40869141 42.26074219 C-112.74869141 42.26074219 -112.08869141 42.26074219 -111.40869141 42.26074219 C-111.40869141 41.60074219 -111.40869141 40.94074219 -111.40869141 40.26074219 C-110.08869141 39.93074219 -108.76869141 39.60074219 -107.40869141 39.26074219 C-107.40869141 38.60074219 -107.40869141 37.94074219 -107.40869141 37.26074219 C-105.63911234 34.93234868 -104.59285624 34.30785412 -101.72119141 33.57324219 C-100.57650391 33.41855469 -100.57650391 33.41855469 -99.40869141 33.26074219 C-99.40869141 32.60074219 -99.40869141 31.94074219 -99.40869141 31.26074219 C-98.08869141 30.93074219 -96.76869141 30.60074219 -95.40869141 30.26074219 C-95.40869141 29.60074219 -95.40869141 28.94074219 -95.40869141 28.26074219 C-93.75869141 27.93074219 -92.10869141 27.60074219 -90.40869141 27.26074219 C-90.40869141 26.60074219 -90.40869141 25.94074219 -90.40869141 25.26074219 C-83.72315801 20.25036502 -72.850566 13.26074219 -64.40869141 13.26074219 C-64.40869141 12.60074219 -64.40869141 11.94074219 -64.40869141 11.26074219 C-61.76869141 10.93074219 -59.12869141 10.60074219 -56.40869141 10.26074219 C-56.40869141 9.60074219 -56.40869141 8.94074219 -56.40869141 8.26074219 C-51.95369141 7.76574219 -51.95369141 7.76574219 -47.40869141 7.26074219 C-47.40869141 6.60074219 -47.40869141 5.94074219 -47.40869141 5.26074219 C-43.77869141 4.93074219 -40.14869141 4.60074219 -36.40869141 4.26074219 C-36.40869141 3.60074219 -36.40869141 2.94074219 -36.40869141 2.26074219 C-24.24309489 0.31015896 -12.30414038 -0.05077093 0 0 Z M-46.40869141 21.26074219 C-46.40869141 21.92074219 -46.40869141 22.58074219 -46.40869141 23.26074219 C-47.27236328 23.37675781 -48.13603516 23.49277344 -49.02587891 23.61230469 C-52.45285667 24.26920805 -55.3237321 25.28115578 -58.53369141 26.63574219 C-59.54689453 27.05597656 -60.56009766 27.47621094 -61.60400391 27.90917969 C-64.17804919 29.14959705 -66.14698106 30.54351766 -68.40869141 32.26074219 C-71.03246447 33.4242036 -73.6951535 34.31100392 -76.40869141 35.26074219 C-76.40869141 35.92074219 -76.40869141 36.58074219 -76.40869141 37.26074219 C-77.33681641 37.42574219 -78.26494141 37.59074219 -79.22119141 37.76074219 C-85.1022411 39.43595028 -89.64993209 43.57718372 -94.40869141 47.26074219 C-95.30201172 47.92460938 -96.19533203 48.58847656 -97.11572266 49.27246094 C-100.34464506 51.66698952 -100.34464506 51.66698952 -103.40869141 54.26074219 C-103.40869141 54.92074219 -103.40869141 55.58074219 -103.40869141 56.26074219 C-103.96041016 56.48761719 -104.51212891 56.71449219 -105.08056641 56.94824219 C-113.60027795 61.75130105 -120.6240597 71.57864586 -126.40869141 79.26074219 C-126.90240234 79.89882812 -127.39611328 80.53691406 -127.90478516 81.19433594 C-130.32707757 84.42166322 -131.94565174 87.52782827 -133.40869141 91.26855469 C-134.72429554 93.88948481 -136.43964696 96.05758751 -138.22119141 98.38574219 C-146.50033232 109.49042477 -151.69586761 123.14334852 -153.81884766 136.81152344 C-154.40869141 139.26074219 -154.40869141 139.26074219 -155.84130859 142.47167969 C-161.10348916 154.62708515 -160.86073166 168.24207053 -160.74487305 181.23510742 C-160.72107631 184.0870355 -160.72436478 186.93803528 -160.73095703 189.79003906 C-160.71783075 198.79065337 -160.63075681 207.48344399 -158.40869141 216.26074219 C-158.22121338 217.06229736 -158.03373535 217.86385254 -157.84057617 218.68969727 C-157.27169433 221.05688714 -156.66266374 223.40885774 -156.03369141 225.76074219 C-155.81600098 226.58098877 -155.59831055 227.40123535 -155.37402344 228.24633789 C-153.71298847 234.38755665 -151.7479486 240.34262143 -149.40869141 246.26074219 C-148.82307434 247.82238769 -148.23954647 249.38481921 -147.65869141 250.94824219 C-147.24619141 252.04136719 -146.83369141 253.13449219 -146.40869141 254.26074219 C-145.74869141 254.26074219 -145.08869141 254.26074219 -144.40869141 254.26074219 C-144.32619141 255.12699219 -144.24369141 255.99324219 -144.15869141 256.88574219 C-143.29106546 260.79005892 -141.70871155 263.01365492 -139.40869141 266.26074219 C-137.04864937 270.52697202 -135.62728912 274.57382792 -134.40869141 279.26074219 C-133.74869141 279.26074219 -133.08869141 279.26074219 -132.40869141 279.26074219 C-131.74869141 280.91074219 -131.08869141 282.56074219 -130.40869141 284.26074219 C-129.74869141 284.26074219 -129.08869141 284.26074219 -128.40869141 284.26074219 C-128.22306641 285.12699219 -128.03744141 285.99324219 -127.84619141 286.88574219 C-126.20439578 290.74039279 -124.58267057 291.98227208 -121.38916016 294.51074219 C-119.14074586 296.4975067 -117.4266359 298.63450593 -115.59619141 301.01074219 C-104.18096018 315.62486739 -89.01894521 327.4266966 -72.24072266 335.35449219 C-70.36342373 336.28313473 -68.62477317 337.34402291 -66.84619141 338.44824219 C-63.07294707 340.43777102 -60.59657442 340.91887419 -56.40869141 341.26074219 C-56.40869141 341.92074219 -56.40869141 342.58074219 -56.40869141 343.26074219 C-52.24694968 345.07897886 -48.00140179 346.16202475 -43.59619141 347.19824219 C-35.06112489 349.25657505 -35.06112489 349.25657505 -31.03369141 350.88574219 C-21.28875486 354.58209743 -11.6640307 354.54552482 -1.38330078 354.46655273 C1.11354594 354.44807765 3.61002503 354.44604503 6.10693359 354.44628906 C7.69547848 354.44138059 9.28402087 354.43555523 10.87255859 354.42871094 C11.61832153 354.42759811 12.36408447 354.42648529 13.13244629 354.42533875 C16.98928804 354.45794877 16.98928804 354.45794877 20.59130859 353.26074219 C22.33845092 353.0107201 24.0893 352.78651025 25.84130859 352.57324219 C32.32219633 351.61016055 38.57826482 350.08540207 44.90380859 348.38574219 C45.83418945 348.14122314 46.76457031 347.8967041 47.72314453 347.64477539 C52.74189616 346.26448412 57.26498194 344.64479537 61.82641602 342.12353516 C63.72276949 341.19647565 65.53292337 340.70495728 67.59130859 340.26074219 C67.59130859 339.60074219 67.59130859 338.94074219 67.59130859 338.26074219 C68.29255859 338.15761719 68.99380859 338.05449219 69.71630859 337.94824219 C73.00577142 337.16163151 75.57898557 335.79643628 78.59130859 334.26074219 C80.02485405 333.74951458 81.4625312 333.24974702 82.90380859 332.76074219 C84.12068359 332.26574219 85.33755859 331.77074219 86.59130859 331.26074219 C86.92130859 330.27074219 87.25130859 329.28074219 87.59130859 328.26074219 C89.56787109 326.89355469 89.56787109 326.89355469 92.21630859 325.38574219 C100.08014333 320.55671199 106.78686372 314.45975862 113.59130859 308.26074219 C114.37763672 307.54789062 115.16396484 306.83503906 115.97412109 306.10058594 C124.77180979 297.71250623 131.61076637 287.38151934 138.52880859 277.44824219 C139.08463623 276.66022217 139.64046387 275.87220215 140.21313477 275.06030273 C143.51909163 270.24753886 145.70033274 265.77954633 147.59130859 260.26074219 C148.59767624 258.56249678 149.60415459 256.86429963 150.61865234 255.17089844 C152.15642625 252.15093282 152.97525014 248.96547663 153.88037109 245.70996094 C154.59130859 243.26074219 154.59130859 243.26074219 156.02880859 239.63574219 C158.2576418 233.84777743 159.63996376 227.73908488 161.01879883 221.70092773 C161.43581683 219.92348853 161.89113725 218.15490633 162.36889648 216.39282227 C164.89637892 206.2941793 165.08352949 196.48507216 165.03735352 186.11987305 C165.02881175 183.19932183 165.05775884 180.28071256 165.08935547 177.36035156 C165.12375926 167.96182369 164.80379499 159.80375726 161.5559082 150.91088867 C160.21628011 147.23038679 159.71060851 143.69780158 159.15380859 139.82324219 C157.88987703 131.86164618 155.57840832 124.76559833 152.59130859 117.26074219 C152.06150391 115.83568359 152.06150391 115.83568359 151.52099609 114.38183594 C149.68044613 109.51959567 147.58852206 105.49818191 144.59130859 101.26074219 C144.26130859 100.27074219 143.93130859 99.28074219 143.59130859 98.26074219 C142.93130859 97.93074219 142.27130859 97.60074219 141.59130859 97.26074219 C140.53778016 94.95108371 139.53411764 92.61776479 138.59130859 90.26074219 C137.93130859 90.26074219 137.27130859 90.26074219 136.59130859 90.26074219 C136.23359375 89.22820312 136.23359375 89.22820312 135.86865234 88.17480469 C134.34454557 84.69779046 132.35443271 81.70735821 130.15380859 78.63574219 C129.71568848 78.02400146 129.27756836 77.41226074 128.82617188 76.78198242 C122.23635177 67.81632806 114.05058897 60.43506858 105.59130859 53.26074219 C104.93904297 52.68066406 104.28677734 52.10058594 103.61474609 51.50292969 C102.98826172 50.94863281 102.36177734 50.39433594 101.71630859 49.82324219 C101.16201172 49.32953125 100.60771484 48.83582031 100.03662109 48.32714844 C98.62244238 47.06283612 98.62244238 47.06283612 96.59130859 47.26074219 C96.35669922 46.63683594 96.12208984 46.01292969 95.88037109 45.37011719 C94.22307784 42.65818277 92.97714869 42.37098222 89.96630859 41.51074219 C89.14904297 41.26839844 88.33177734 41.02605469 87.48974609 40.77636719 C86.86326172 40.60621094 86.23677734 40.43605469 85.59130859 40.26074219 C85.59130859 39.60074219 85.59130859 38.94074219 85.59130859 38.26074219 C84.62193359 37.80699219 83.65255859 37.35324219 82.65380859 36.88574219 C79.59130859 35.26074219 79.59130859 35.26074219 78.59130859 33.26074219 C76.47167065 32.4205519 74.31874363 31.66367282 72.15380859 30.94824219 C67.84359955 29.48722807 63.7261575 27.93360048 59.71630859 25.76074219 C49.95612907 20.68032033 39.12371936 17.99835777 28.26318359 16.62011719 C25.59130859 16.26074219 25.59130859 16.26074219 23.66114807 15.75132751 C20.21749919 14.93512721 16.70430466 15.01410339 13.18115234 14.95214844 C12.34874023 14.93715805 11.51632813 14.92216766 10.65869141 14.90672302 C7.94870857 14.86702282 5.2390145 14.84207983 2.52880859 14.82324219 C1.61157013 14.81607178 0.69433167 14.80890137 -0.2507019 14.80151367 C-16.36969503 14.73523332 -30.91357895 16.59171939 -46.40869141 21.26074219 Z " fill="#FF8B03" transform="translate(239.40869140625,65.7392578125)"/>
<path d="M0 0 C0.83662264 28.71645555 1.05976433 57.2885388 0 86 C-8.58 86 -17.16 86 -26 86 C-26 68.51 -26 51.02 -26 33 C-26.66 33 -27.32 33 -28 33 C-28.06574219 33.88558594 -28.13148438 34.77117187 -28.19921875 35.68359375 C-29.06903833 41.75100424 -31.61983366 47.37702862 -33.8125 53.0625 C-36.98752168 61.44065573 -40.03826289 69.71807739 -42.28125 78.3984375 C-43 81 -43 81 -45 86 C-49.29 86 -53.58 86 -58 86 C-58.54163411 84.37509766 -59.08324637 82.75018802 -59.62475586 81.12524414 C-60.08741953 79.73758159 -60.55047991 78.35005126 -61.01391602 76.96264648 C-61.94787482 74.16534991 -62.88078807 71.36825864 -63.7890625 68.5625 C-66.04575588 61.60209631 -68.68851721 54.78201859 -71.27001953 47.9375 C-72.31289139 45.16952975 -73.3492195 42.39935297 -74.375 39.625 C-74.69210937 38.77164063 -75.00921875 37.91828125 -75.3359375 37.0390625 C-76 35 -76 35 -76 33 C-76.66 33 -77.32 33 -78 33 C-78 50.49 -78 67.98 -78 86 C-86.25 86 -94.5 86 -103 86 C-103 57.95 -103 29.9 -103 1 C-68 1 -68 1 -66 2 C-65.140625 4.30859375 -65.140625 4.30859375 -64.25 7.4375 C-62.58821132 13.08260237 -60.81183316 18.67182152 -58.9375 24.25 C-58.69225586 24.9814624 -58.44701172 25.7129248 -58.19433594 26.46655273 C-57.95360352 27.18399658 -57.71287109 27.90144043 -57.46484375 28.640625 C-57.1088208 29.70313477 -57.1088208 29.70313477 -56.74560547 30.78710938 C-56.21815698 32.3525295 -55.6854058 33.91616763 -55.14892578 35.47851562 C-54.87419434 36.28482422 -54.59946289 37.09113281 -54.31640625 37.921875 C-54.0644751 38.6550293 -53.81254395 39.38818359 -53.55297852 40.14355469 C-53 42 -53 42 -53 44 C-50.65694494 41.89660322 -49.51135279 40.25928542 -48.5703125 37.26171875 C-48.33481689 36.53065918 -48.09932129 35.79959961 -47.85668945 35.04638672 C-47.61523193 34.2679541 -47.37377441 33.48952148 -47.125 32.6875 C-46.60149424 31.0581968 -46.07673955 29.4292944 -45.55078125 27.80078125 C-45.29119629 26.9907666 -45.03161133 26.18075195 -44.76416016 25.34619141 C-42.09295613 17.14482696 -39.03760684 9.0711052 -36 1 C-31.19450973 0.85721003 -26.38900832 0.71480303 -21.58349609 0.57275391 C-19.94807629 0.52435717 -18.3126596 0.47585503 -16.67724609 0.42724609 C-14.32910964 0.35747127 -11.98096232 0.28807318 -9.6328125 0.21875 C-8.89942657 0.19687622 -8.16604065 0.17500244 -7.41043091 0.15246582 C-2.22774341 0 -2.22774341 0 0 0 Z " fill="#040404" transform="translate(377,204)"/>
<path d="M0 0 C0 0.66 0 1.32 0 2 C0.66 2 1.32 2 2 2 C2.81498562 3.6029053 3.62689927 5.20737278 4.4375 6.8125 C4.88996094 7.70582031 5.34242188 8.59914062 5.80859375 9.51953125 C9.21911347 16.62012148 9.24131641 26.25984355 7.24609375 33.87890625 C5.45257103 38.03565891 3.16269694 41.73187983 0 45 C-0.66 45 -1.32 45 -2 45 C-2 45.66 -2 46.32 -2 47 C-3.98 47.99 -3.98 47.99 -6 49 C-5.45325235 54.7974104 -3.14468673 59.407508 -0.625 64.5625 C-0.02558594 65.81836914 -0.02558594 65.81836914 0.5859375 67.09960938 C2.20592027 70.46480384 3.82777174 73.72059913 5.7890625 76.90234375 C7 79 7 79 7 82 C-2.9 82 -12.8 82 -23 82 C-25.06612322 77.17904583 -27.10236226 72.3627458 -29.0625 67.5 C-29.31837891 66.87480469 -29.57425781 66.24960937 -29.83789062 65.60546875 C-31.51148698 61.44944285 -32.83703481 57.31799516 -34 53 C-39.445 53.495 -39.445 53.495 -45 54 C-45.33 63.24 -45.66 72.48 -46 82 C-54.91 82 -63.82 82 -73 82 C-73.02255001 70.41311251 -73.0409145 58.82623948 -73.05181217 47.23933506 C-73.05704125 41.85966238 -73.06413935 36.48000542 -73.07543945 31.1003418 C-73.08626745 25.91325157 -73.09227665 20.72617651 -73.09487724 15.53907585 C-73.09673165 13.5554372 -73.10035256 11.57179942 -73.10573006 9.58816719 C-73.11293932 6.81990864 -73.11399099 4.05171362 -73.11352539 1.28344727 C-73.11712067 0.45482681 -73.12071594 -0.37379364 -73.12442017 -1.2275238 C-73.11405216 -6.88594784 -73.11405216 -6.88594784 -72 -8 C-70.57692809 -8.13786193 -69.1473295 -8.20928503 -67.71826172 -8.25292969 C-66.80575653 -8.28255798 -65.89325134 -8.31218628 -64.95309448 -8.3427124 C-63.45650803 -8.38189789 -63.45650803 -8.38189789 -61.9296875 -8.421875 C-60.9012674 -8.44977112 -59.87284729 -8.47766724 -58.81326294 -8.50640869 C-56.62248861 -8.56297764 -54.43163587 -8.61657367 -52.24072266 -8.66748047 C-48.93718631 -8.74847534 -45.63489101 -8.85240681 -42.33203125 -8.95703125 C-10.09213706 -9.81863741 -10.09213706 -9.81863741 0 0 Z " fill="#040404" transform="translate(261,208)"/>
<path d="M0 0 C0 0.66 0 1.32 0 2 C0.969375 2.268125 1.93875 2.53625 2.9375 2.8125 C3.948125 3.204375 4.95875 3.59625 6 4 C6.495 5.485 6.495 5.485 7 7 C7.60585937 7.13664063 8.21171875 7.27328125 8.8359375 7.4140625 C11.88180499 8.23875586 12.78063714 9.86439153 14.625 12.375 C15.51058594 13.56222656 15.51058594 13.56222656 16.4140625 14.7734375 C20 19.80788177 20 19.80788177 20 24 C17.1079732 25.32100495 14.21077206 26.63026087 11.3125 27.9375 C10.08756836 28.49727539 10.08756836 28.49727539 8.83789062 29.06835938 C4.92104302 30.82856215 1.3022011 32.44798642 -3 33 C-3.33 32.113125 -3.66 31.22625 -4 30.3125 C-6.94677732 25.43190007 -10.70653918 22.96552898 -16.171875 21.36328125 C-22.10418667 20.38508092 -27.64304179 21.2639668 -33 24 C-38.59094732 28.66786409 -42.43688146 34.4823973 -43.34765625 41.7890625 C-43.7139812 49.20949091 -42.27499002 53.98288977 -38 60 C-37.38125 60.94875 -36.7625 61.8975 -36.125 62.875 C-32.00413495 66.99586505 -27.78913628 68.17364272 -22.125 68.4375 C-15.50071662 68.21534416 -10.09115015 66.19570766 -5.5 61.375 C-4.01036497 59.10364971 -4.01036497 59.10364971 -3 57 C-1.35 57 0.3 57 2 57 C2 57.66 2 58.32 2 59 C2.99 59.0825 3.98 59.165 5 59.25 C8.83684549 59.78029572 11.82380661 61.2241508 15.203125 63.0625 C17.14681586 64.13697523 17.14681586 64.13697523 20 65 C20 66.98 20 68.96 20 71 C19.34 71 18.68 71 18 71 C17.773125 71.53625 17.54625 72.0725 17.3125 72.625 C12.0598865 82.1297292 3.10686358 87.69229919 -7 91 C-7.33 91.33 -7.66 91.66 -8 92 C-11.63841372 92.25580245 -15.29118419 92.1852478 -18.9375 92.1875 C-19.94619141 92.19974609 -20.95488281 92.21199219 -21.99414062 92.22460938 C-28.56689173 92.23730625 -34.61409981 91.56044771 -41 90 C-41 89.34 -41 88.68 -41 88 C-42.32 88 -43.64 88 -45 88 C-45 87.34 -45 86.68 -45 86 C-46.32 85.67 -47.64 85.34 -49 85 C-49 84.34 -49 83.68 -49 83 C-49.99 83 -50.98 83 -52 83 C-52 82.34 -52 81.68 -52 81 C-53.32 80.67 -54.64 80.34 -56 80 C-56 79.34 -56 78.68 -56 78 C-56.639375 77.7525 -57.27875 77.505 -57.9375 77.25 C-60 76 -60 76 -60.5625 73.9375 C-60.706875 73.298125 -60.85125 72.65875 -61 72 C-61.99 71.67 -62.98 71.34 -64 71 C-69.75514225 62.77211603 -72.94860756 48.39778289 -71.5 38.5625 C-70.24285939 33.13224766 -68.2586375 28.08193438 -66 23 C-65.7525 22.34 -65.505 21.68 -65.25 21 C-63.60437417 16.6615319 -61.46281411 14.05057433 -58 11 C-57.278125 10.360625 -56.55625 9.72125 -55.8125 9.0625 C-38.10431599 -3.92350161 -20.90884047 -4.85848575 0 0 Z " fill="#040404" transform="translate(163,202)"/>
<path d="M0 0 C0.85980469 -0.020625 1.71960938 -0.04125 2.60546875 -0.0625 C7.49826556 -0.09265591 10.77388701 0.07220989 14.75 3.25 C16.85643536 5.42907107 17.65141887 6.70076227 18.1875 9.6875 C17.59954547 13.1312337 16.16092081 14.77019574 13.75 17.25 C9.59340763 18.63553079 5.54303199 18.65609669 1.1875 18.875 C-0.12637695 18.95234375 -0.12637695 18.95234375 -1.46679688 19.03125 C-2.30404297 19.07507813 -3.14128906 19.11890625 -4.00390625 19.1640625 C-4.77033447 19.2048291 -5.5367627 19.2455957 -6.32641602 19.28759766 C-8.25 19.25 -8.25 19.25 -10.25 18.25 C-10.27684312 15.43743719 -10.29676188 12.62512759 -10.3125 9.8125 C-10.32087891 9.01005859 -10.32925781 8.20761719 -10.33789062 7.38085938 C-10.3465143 5.33704779 -10.3022815 3.29316098 -10.25 1.25 C-8.02365101 -0.97634899 -2.98808934 0.01760288 0 0 Z " fill="#F4F4F4" transform="translate(225.25,220.75)"/>
<path d="M0 0 C0.33 0 0.66 0 1 0 C1.11162201 6.33268845 0.68414166 12.51231608 0.0625 18.8125 C-0.06801758 20.22305664 -0.06801758 20.22305664 -0.20117188 21.66210938 C-0.87228842 28.61686525 -0.87228842 28.61686525 -2 32 C-2.09185751 33.45741472 -2.13066657 34.9186012 -2.1328125 36.37890625 C-2.13410156 37.21744141 -2.13539062 38.05597656 -2.13671875 38.91992188 C-2.13285156 39.79197266 -2.12898438 40.66402344 -2.125 41.5625 C-2.12886719 42.43841797 -2.13273437 43.31433594 -2.13671875 44.21679688 C-2.13542969 45.05404297 -2.13414063 45.89128906 -2.1328125 46.75390625 C-2.13168457 47.52033447 -2.13055664 48.2867627 -2.12939453 49.07641602 C-2.11868694 51.08443868 -2.11868694 51.08443868 -1 53 C-0.84733388 54.73868744 -0.75067404 56.48247501 -0.68359375 58.2265625 C-0.64169922 59.2578125 -0.59980469 60.2890625 -0.55664062 61.3515625 C-0.51732422 62.43179688 -0.47800781 63.51203125 -0.4375 64.625 C-0.39431641 65.71296875 -0.35113281 66.8009375 -0.30664062 67.921875 C-0.2003547 70.6144517 -0.09831943 73.30712253 0 76 C0.66 76 1.32 76 2 76 C2 78.97 2 81.94 2 85 C1.67 85 1.34 85 1 85 C0.53676507 83.23044256 0.07975792 81.45925488 -0.375 79.6875 C-0.63023438 78.70136719 -0.88546875 77.71523438 -1.1484375 76.69921875 C-1.42945312 75.47847656 -1.71046875 74.25773437 -2 73 C-2.26574829 71.94679565 -2.26574829 71.94679565 -2.53686523 70.87231445 C-4.52118405 61.89622654 -4.33681217 52.82256166 -4.31567383 43.67749023 C-4.31252607 40.83603066 -4.33599205 37.99562751 -4.36132812 35.15429688 C-4.40201723 23.14577866 -3.83230325 11.49690975 0 0 Z " fill="#FFDDB6" transform="translate(83,209)"/>
<path d="M0 0 C3.57770698 6.67437773 4.27166506 13.52921098 4 21 C4.66 21 5.32 21 6 21 C6 23.97 6 26.94 6 30 C5.67 30 5.34 30 5 30 C-0.41413374 9.31800912 -0.41413374 9.31800912 0 0 Z " fill="#FFCB8E" transform="translate(79,264)"/>
<path d="M0 0 C2 2 2 2 2 6 C2.66 6 3.32 6 4 6 C4.06058594 6.62648437 4.12117188 7.25296875 4.18359375 7.8984375 C4.26738281 8.71570313 4.35117187 9.53296875 4.4375 10.375 C4.55931641 11.59316406 4.55931641 11.59316406 4.68359375 12.8359375 C4.89090114 15.04272805 4.89090114 15.04272805 6 17 C6.039992 18.99960012 6.04346799 21.00047242 6 23 C2.14285345 15.55286857 0.50549371 8.34936165 0 0 Z " fill="#FFB55D" transform="translate(398,204)"/>
<path d="M0 0 C0.66 0.33 1.32 0.66 2 1 C1.01 1.33 0.02 1.66 -1 2 C-1 2.66 -1 3.32 -1 4 C-2.95513161 4.696553 -4.91422476 5.38199565 -6.875 6.0625 C-7.96554687 6.44535156 -9.05609375 6.82820313 -10.1796875 7.22265625 C-13 8 -13 8 -15 7 C-13.75539217 6.32332002 -12.50403104 5.65905281 -11.25 5 C-10.20585937 4.443125 -10.20585937 4.443125 -9.140625 3.875 C-7 3 -7 3 -3 3 C-3 2.34 -3 1.68 -3 1 C-2.01 0.67 -1.02 0.34 0 0 Z " fill="#FFB660" transform="translate(310,403)"/>
<path d="M0 0 C0.33 0 0.66 0 1 0 C1 2.64 1 5.28 1 8 C0.34 8 -0.32 8 -1 8 C-1.04898437 8.61488281 -1.09796875 9.22976563 -1.1484375 9.86328125 C-1.22320312 10.67152344 -1.29796875 11.47976563 -1.375 12.3125 C-1.44460938 13.11300781 -1.51421875 13.91351563 -1.5859375 14.73828125 C-2 17 -2 17 -4 20 C-3.13411482 13.21723277 -1.67513028 6.62573852 0 0 Z " fill="#FFBA68" transform="translate(401,281)"/>
<path d="M0 0 C3.43022354 2.46272459 5.27472607 3.79341119 6 8 C6.66 8.33 7.32 8.66 8 9 C7.67 9.99 7.34 10.98 7 12 C7 11.34 7 10.68 7 10 C6.01 9.67 5.02 9.34 4 9 C3.66666667 7.66666667 3.33333333 6.33333333 3 5 C2.01 4.67 1.02 4.34 0 4 C0 2.68 0 1.36 0 0 Z " fill="#FFC683" transform="translate(104,340)"/>
<path d="M0 0 C4.95 0.99 4.95 0.99 10 2 C10.33 2.99 10.66 3.98 11 5 C13.01508358 5.73323796 13.01508358 5.73323796 15 6 C14.01 6.495 14.01 6.495 13 7 C10.75689987 6.10333658 8.55245679 5.10853317 6.375 4.0625 C5.18648438 3.49660156 3.99796875 2.93070312 2.7734375 2.34765625 C1.85820312 1.90292969 0.94296875 1.45820312 0 1 C0 0.67 0 0.34 0 0 Z " fill="#FFB258" transform="translate(294,89)"/>
<path d="M0 0 C4.96916636 0.51405169 9.29026351 1.23384882 14 3 C10.16455058 4.38076179 6.92847503 3.85712183 3 3 C1.0625 1.4375 1.0625 1.4375 0 0 Z " fill="#FFC27B" transform="translate(190,411)"/>
<path d="M0 0 C1.32 0 2.64 0 4 0 C4 0.99 4 1.98 4 3 C-0.29 3 -4.58 3 -9 3 C-9 2.67 -9 2.34 -9 2 C-6.03 2 -3.06 2 0 2 C0 1.34 0 0.68 0 0 Z " fill="#2F2F2F" transform="translate(328,287)"/>
<path d="M0 0 C1 2 1 2 0.51171875 4.12890625 C0.23972656 4.93199219 -0.03226562 5.73507813 -0.3125 6.5625 C-0.57675781 7.36816406 -0.84101562 8.17382812 -1.11328125 9.00390625 C-2 11 -2 11 -4 12 C-3.33501617 7.61110675 -1.81242323 4.0188515 0 0 Z " fill="#FFC887" transform="translate(95,175)"/>
</svg>
