<?xml version="1.0" encoding="UTF-8"?>
<svg version="1.1" xmlns="http://www.w3.org/2000/svg" width="512" height="512">
<path d="M0 0 C3.08662554 0.01072591 6.17266928 0.00004105 9.25927734 -0.01269531 C20.53403419 -0.01946938 31.44751182 0.47399026 42.59130859 2.26074219 C42.59130859 2.92074219 42.59130859 3.58074219 42.59130859 4.26074219 C48.03630859 4.75574219 48.03630859 4.75574219 53.59130859 5.26074219 C53.59130859 5.92074219 53.59130859 6.58074219 53.59130859 7.26074219 C56.56130859 7.59074219 59.53130859 7.92074219 62.59130859 8.26074219 C62.59130859 8.92074219 62.59130859 9.58074219 62.59130859 10.26074219 C65.23130859 10.59074219 67.87130859 10.92074219 70.59130859 11.26074219 C70.59130859 11.92074219 70.59130859 12.58074219 70.59130859 13.26074219 C71.29126953 13.36515625 71.99123047 13.46957031 72.71240234 13.57714844 C76.00994039 14.36014594 78.64536186 15.64267365 81.65380859 17.19824219 C83.18714844 17.98521484 83.18714844 17.98521484 84.75146484 18.78808594 C85.68861328 19.2740625 86.62576172 19.76003906 87.59130859 20.26074219 C88.92332267 20.93004086 90.25605958 21.59792073 91.59130859 22.26074219 C91.59130859 22.92074219 91.59130859 23.58074219 91.59130859 24.26074219 C93.24130859 24.59074219 94.89130859 24.92074219 96.59130859 25.26074219 C96.59130859 25.92074219 96.59130859 26.58074219 96.59130859 27.26074219 C98.24130859 27.59074219 99.89130859 27.92074219 101.59130859 28.26074219 C101.59130859 28.92074219 101.59130859 29.58074219 101.59130859 30.26074219 C102.91130859 30.59074219 104.23130859 30.92074219 105.59130859 31.26074219 C105.59130859 31.92074219 105.59130859 32.58074219 105.59130859 33.26074219 C106.91130859 33.59074219 108.23130859 33.92074219 109.59130859 34.26074219 C109.59130859 34.92074219 109.59130859 35.58074219 109.59130859 36.26074219 C110.91130859 36.59074219 112.23130859 36.92074219 113.59130859 37.26074219 C113.59130859 37.92074219 113.59130859 38.58074219 113.59130859 39.26074219 C114.18943359 39.36386719 114.78755859 39.46699219 115.40380859 39.57324219 C117.90389145 40.35898251 118.96665942 41.22993072 120.59130859 43.26074219 C120.59130859 43.92074219 120.59130859 44.58074219 120.59130859 45.26074219 C121.25130859 45.26074219 121.91130859 45.26074219 122.59130859 45.26074219 C123.93026492 46.92289486 125.26261002 48.59037826 126.59130859 50.26074219 C127.82880859 51.25074219 127.82880859 51.25074219 129.09130859 52.26074219 C131.7250186 54.3677102 133.53093892 56.60220067 135.59130859 59.26074219 C136.52523437 60.185 136.52523437 60.185 137.47802734 61.12792969 C139.60806115 63.27764958 141.47691999 65.50346785 143.34130859 67.88574219 C143.95490234 68.66175781 144.56849609 69.43777344 145.20068359 70.23730469 C146.59130859 72.26074219 146.59130859 72.26074219 146.59130859 74.26074219 C147.25130859 74.26074219 147.91130859 74.26074219 148.59130859 74.26074219 C148.92130859 75.91074219 149.25130859 77.56074219 149.59130859 79.26074219 C150.25130859 79.26074219 150.91130859 79.26074219 151.59130859 79.26074219 C151.92130859 80.25074219 152.25130859 81.24074219 152.59130859 82.26074219 C153.25130859 82.59074219 153.91130859 82.92074219 154.59130859 83.26074219 C157.59130859 88.68381911 157.59130859 88.68381911 157.59130859 91.26074219 C158.25130859 91.26074219 158.91130859 91.26074219 159.59130859 91.26074219 C159.92130859 93.24074219 160.25130859 95.22074219 160.59130859 97.26074219 C161.25130859 97.26074219 161.91130859 97.26074219 162.59130859 97.26074219 C162.92130859 99.24074219 163.25130859 101.22074219 163.59130859 103.26074219 C164.25130859 103.26074219 164.91130859 103.26074219 165.59130859 103.26074219 C165.92130859 105.57074219 166.25130859 107.88074219 166.59130859 110.26074219 C167.25130859 110.26074219 167.91130859 110.26074219 168.59130859 110.26074219 C168.92130859 112.90074219 169.25130859 115.54074219 169.59130859 118.26074219 C170.25130859 118.26074219 170.91130859 118.26074219 171.59130859 118.26074219 C173.84810503 126.00487614 176.02482699 133.74678235 177.93505859 141.58496094 C178.33525009 143.21669413 178.74858839 144.84536776 179.18505859 146.46777344 C181.52108321 155.17633579 181.74193777 163.79177619 181.72412109 172.76074219 C181.72555618 174.37432617 181.72555618 174.37432617 181.72702026 176.02050781 C181.7276973 178.2828782 181.72587643 180.54525059 181.72167969 182.80761719 C181.71632473 186.25037034 181.72164097 189.69299305 181.72802734 193.13574219 C181.72736648 195.34407581 181.72608514 197.55240934 181.72412109 199.76074219 C181.72614532 200.77974609 181.72816956 201.79875 181.73025513 202.84863281 C181.70423432 210.86669982 181.19829388 218.50769288 179.12207031 226.26904297 C178.57584638 228.3187646 178.09426449 230.37538787 177.62646484 232.44433594 C175.93556912 239.85358034 174.19306151 247.10592166 171.59130859 254.26074219 C170.93130859 254.26074219 170.27130859 254.26074219 169.59130859 254.26074219 C169.26130859 256.90074219 168.93130859 259.54074219 168.59130859 262.26074219 C167.93130859 262.26074219 167.27130859 262.26074219 166.59130859 262.26074219 C166.26130859 264.57074219 165.93130859 266.88074219 165.59130859 269.26074219 C164.93130859 269.26074219 164.27130859 269.26074219 163.59130859 269.26074219 C163.26130859 271.24074219 162.93130859 273.22074219 162.59130859 275.26074219 C161.93130859 275.26074219 161.27130859 275.26074219 160.59130859 275.26074219 C160.26130859 277.24074219 159.93130859 279.22074219 159.59130859 281.26074219 C158.93130859 281.26074219 158.27130859 281.26074219 157.59130859 281.26074219 C156.51605665 283.91303031 155.49674708 286.54442673 154.59130859 289.26074219 C153.93130859 289.59074219 153.27130859 289.92074219 152.59130859 290.26074219 C152.26130859 291.25074219 151.93130859 292.24074219 151.59130859 293.26074219 C150.93130859 293.26074219 150.27130859 293.26074219 149.59130859 293.26074219 C149.26130859 294.91074219 148.93130859 296.56074219 148.59130859 298.26074219 C147.93130859 298.26074219 147.27130859 298.26074219 146.59130859 298.26074219 C146.28193359 299.28167969 146.28193359 299.28167969 145.96630859 300.32324219 C144.42440555 303.61730779 142.51326221 305.87116442 140.10302734 308.56152344 C138.84932881 309.97071946 137.67713725 311.45193515 136.52880859 312.94824219 C134.43588169 315.44625172 132.13108498 317.22892108 129.59130859 319.26074219 C128.22886063 320.90369414 126.89265984 322.56898556 125.59130859 324.26074219 C123.96630859 326.07324219 123.96630859 326.07324219 122.59130859 327.26074219 C121.93130859 327.26074219 121.27130859 327.26074219 120.59130859 327.26074219 C120.59130859 327.92074219 120.59130859 328.58074219 120.59130859 329.26074219 C116.12072036 333.26074219 116.12072036 333.26074219 113.59130859 333.26074219 C113.59130859 333.92074219 113.59130859 334.58074219 113.59130859 335.26074219 C112.27130859 335.59074219 110.95130859 335.92074219 109.59130859 336.26074219 C109.59130859 336.92074219 109.59130859 337.58074219 109.59130859 338.26074219 C108.27130859 338.59074219 106.95130859 338.92074219 105.59130859 339.26074219 C105.59130859 339.92074219 105.59130859 340.58074219 105.59130859 341.26074219 C104.27130859 341.59074219 102.95130859 341.92074219 101.59130859 342.26074219 C101.59130859 342.92074219 101.59130859 343.58074219 101.59130859 344.26074219 C99.94130859 344.59074219 98.29130859 344.92074219 96.59130859 345.26074219 C96.59130859 345.92074219 96.59130859 346.58074219 96.59130859 347.26074219 C94.94130859 347.59074219 93.29130859 347.92074219 91.59130859 348.26074219 C91.59130859 348.92074219 91.59130859 349.58074219 91.59130859 350.26074219 C89.03244355 351.58076775 86.46963791 352.89188 83.90380859 354.19824219 C83.18257813 354.57142578 82.46134766 354.94460938 81.71826172 355.32910156 C78.02625117 357.20039458 74.75437764 358.74343775 70.59130859 359.26074219 C70.59130859 359.92074219 70.59130859 360.58074219 70.59130859 361.26074219 C67.95130859 361.59074219 65.31130859 361.92074219 62.59130859 362.26074219 C62.59130859 362.92074219 62.59130859 363.58074219 62.59130859 364.26074219 C59.62130859 364.59074219 56.65130859 364.92074219 53.59130859 365.26074219 C53.59130859 365.92074219 53.59130859 366.58074219 53.59130859 367.26074219 C49.96130859 367.59074219 46.33130859 367.92074219 42.59130859 368.26074219 C42.59130859 368.92074219 42.59130859 369.58074219 42.59130859 370.26074219 C30.42571208 372.21132541 18.48675756 372.57225531 6.18261719 372.52148438 C3.09599165 372.51075846 0.0099479 372.52144333 -3.07666016 372.53417969 C-14.351417 372.54095375 -25.26489463 372.04749412 -36.40869141 370.26074219 C-36.40869141 369.60074219 -36.40869141 368.94074219 -36.40869141 368.26074219 C-40.03869141 367.93074219 -43.66869141 367.60074219 -47.40869141 367.26074219 C-47.40869141 366.60074219 -47.40869141 365.94074219 -47.40869141 365.26074219 C-50.37869141 364.93074219 -53.34869141 364.60074219 -56.40869141 364.26074219 C-56.40869141 363.60074219 -56.40869141 362.94074219 -56.40869141 362.26074219 C-59.04869141 361.93074219 -61.68869141 361.60074219 -64.40869141 361.26074219 C-64.40869141 360.60074219 -64.40869141 359.94074219 -64.40869141 359.26074219 C-65.06869141 359.17566406 -65.72869141 359.09058594 -66.40869141 359.00292969 C-70.3931701 358.01718626 -73.77225 356.2576373 -77.40869141 354.38574219 C-78.10736328 354.03382813 -78.80603516 353.68191406 -79.52587891 353.31933594 C-87.36942154 349.33836807 -87.36942154 349.33836807 -90.40869141 347.26074219 C-90.40869141 346.60074219 -90.40869141 345.94074219 -90.40869141 345.26074219 C-92.05869141 344.93074219 -93.70869141 344.60074219 -95.40869141 344.26074219 C-95.40869141 343.60074219 -95.40869141 342.94074219 -95.40869141 342.26074219 C-96.72869141 341.93074219 -98.04869141 341.60074219 -99.40869141 341.26074219 C-99.40869141 340.60074219 -99.40869141 339.94074219 -99.40869141 339.26074219 C-100.17181641 339.15761719 -100.93494141 339.05449219 -101.72119141 338.94824219 C-104.59285624 338.21363025 -105.63911234 337.58913569 -107.40869141 335.26074219 C-107.40869141 334.60074219 -107.40869141 333.94074219 -107.40869141 333.26074219 C-108.72869141 332.93074219 -110.04869141 332.60074219 -111.40869141 332.26074219 C-111.40869141 331.60074219 -111.40869141 330.94074219 -111.40869141 330.26074219 C-112.39869141 329.93074219 -113.38869141 329.60074219 -114.40869141 329.26074219 C-114.40869141 328.60074219 -114.40869141 327.94074219 -114.40869141 327.26074219 C-115.06869141 327.26074219 -115.72869141 327.26074219 -116.40869141 327.26074219 C-118.03369141 325.88574219 -118.03369141 325.88574219 -119.40869141 324.26074219 C-119.40869141 323.60074219 -119.40869141 322.94074219 -119.40869141 322.26074219 C-120.39869141 321.93074219 -121.38869141 321.60074219 -122.40869141 321.26074219 C-122.40869141 320.60074219 -122.40869141 319.94074219 -122.40869141 319.26074219 C-123.39869141 318.93074219 -124.38869141 318.60074219 -125.40869141 318.26074219 C-125.40869141 317.60074219 -125.40869141 316.94074219 -125.40869141 316.26074219 C-126.39869141 315.93074219 -127.38869141 315.60074219 -128.40869141 315.26074219 C-128.40869141 314.60074219 -128.40869141 313.94074219 -128.40869141 313.26074219 C-129.39869141 312.93074219 -130.38869141 312.60074219 -131.40869141 312.26074219 C-132.43481089 310.61002823 -133.43177284 308.94104213 -134.40869141 307.26074219 C-135.08931641 306.60074219 -135.76994141 305.94074219 -136.47119141 305.26074219 C-138.61033219 303.05259686 -139.44446354 301.15342578 -140.40869141 298.26074219 C-141.06869141 298.26074219 -141.72869141 298.26074219 -142.40869141 298.26074219 C-142.40869141 297.27074219 -142.40869141 296.28074219 -142.40869141 295.26074219 C-143.06869141 295.26074219 -143.72869141 295.26074219 -144.40869141 295.26074219 C-148.40869141 289.96662454 -148.40869141 289.96662454 -148.40869141 286.26074219 C-149.06869141 286.26074219 -149.72869141 286.26074219 -150.40869141 286.26074219 C-150.73869141 284.61074219 -151.06869141 282.96074219 -151.40869141 281.26074219 C-152.06869141 281.26074219 -152.72869141 281.26074219 -153.40869141 281.26074219 C-153.73869141 279.28074219 -154.06869141 277.30074219 -154.40869141 275.26074219 C-155.06869141 275.26074219 -155.72869141 275.26074219 -156.40869141 275.26074219 C-156.73869141 273.28074219 -157.06869141 271.30074219 -157.40869141 269.26074219 C-158.06869141 269.26074219 -158.72869141 269.26074219 -159.40869141 269.26074219 C-160.41727563 266.84734423 -161.41571813 264.43055544 -162.40869141 262.01074219 C-162.69486328 261.32882812 -162.98103516 260.64691406 -163.27587891 259.94433594 C-164.70214634 256.44658484 -165.40869141 254.0917403 -165.40869141 250.26074219 C-166.06869141 250.26074219 -166.72869141 250.26074219 -167.40869141 250.26074219 C-167.90369141 245.31074219 -167.90369141 245.31074219 -168.40869141 240.26074219 C-169.06869141 240.26074219 -169.72869141 240.26074219 -170.40869141 240.26074219 C-170.90369141 234.32074219 -170.90369141 234.32074219 -171.40869141 228.26074219 C-172.06869141 228.26074219 -172.72869141 228.26074219 -173.40869141 228.26074219 C-175.35898639 215.34170388 -175.72005886 202.60333543 -175.66943359 189.54980469 C-175.6587078 186.26576277 -175.66939253 182.98226768 -175.68212891 179.69824219 C-175.68888185 167.74013725 -175.19461353 156.09095071 -173.40869141 144.26074219 C-172.74869141 144.26074219 -172.08869141 144.26074219 -171.40869141 144.26074219 C-171.07869141 140.30074219 -170.74869141 136.34074219 -170.40869141 132.26074219 C-169.74869141 132.26074219 -169.08869141 132.26074219 -168.40869141 132.26074219 C-168.07869141 128.96074219 -167.74869141 125.66074219 -167.40869141 122.26074219 C-166.74869141 122.26074219 -166.08869141 122.26074219 -165.40869141 122.26074219 C-165.34681641 121.35324219 -165.28494141 120.44574219 -165.22119141 119.51074219 C-164.43767342 113.75307217 -161.75106421 108.52459842 -159.40869141 103.26074219 C-158.74869141 103.26074219 -158.08869141 103.26074219 -157.40869141 103.26074219 C-157.07869141 101.28074219 -156.74869141 99.30074219 -156.40869141 97.26074219 C-155.74869141 97.26074219 -155.08869141 97.26074219 -154.40869141 97.26074219 C-154.07869141 95.28074219 -153.74869141 93.30074219 -153.40869141 91.26074219 C-152.74869141 91.26074219 -152.08869141 91.26074219 -151.40869141 91.26074219 C-151.07869141 89.61074219 -150.74869141 87.96074219 -150.40869141 86.26074219 C-149.74869141 86.26074219 -149.08869141 86.26074219 -148.40869141 86.26074219 C-148.30556641 85.70386719 -148.20244141 85.14699219 -148.09619141 84.57324219 C-147.26690732 81.78383208 -146.06570085 79.64683579 -144.40869141 77.26074219 C-143.74869141 77.26074219 -143.08869141 77.26074219 -142.40869141 77.26074219 C-142.40869141 76.27074219 -142.40869141 75.28074219 -142.40869141 74.26074219 C-141.74869141 74.26074219 -141.08869141 74.26074219 -140.40869141 74.26074219 C-140.20244141 73.58011719 -139.99619141 72.89949219 -139.78369141 72.19824219 C-138.23293544 68.88526352 -136.28398417 66.60294069 -133.84619141 63.90917969 C-132.21594454 62.11114285 -132.21594454 62.11114285 -130.40869141 59.26074219 C-129.74869141 59.26074219 -129.08869141 59.26074219 -128.40869141 59.26074219 C-128.07869141 58.27074219 -127.74869141 57.28074219 -127.40869141 56.26074219 C-126.74869141 56.26074219 -126.08869141 56.26074219 -125.40869141 56.26074219 C-125.07869141 55.27074219 -124.74869141 54.28074219 -124.40869141 53.26074219 C-123.74869141 53.26074219 -123.08869141 53.26074219 -122.40869141 53.26074219 C-122.07869141 52.27074219 -121.74869141 51.28074219 -121.40869141 50.26074219 C-120.74869141 50.26074219 -120.08869141 50.26074219 -119.40869141 50.26074219 C-119.40869141 49.60074219 -119.40869141 48.94074219 -119.40869141 48.26074219 C-118.03369141 46.63574219 -118.03369141 46.63574219 -116.40869141 45.26074219 C-115.74869141 45.26074219 -115.08869141 45.26074219 -114.40869141 45.26074219 C-114.07869141 44.27074219 -113.74869141 43.28074219 -113.40869141 42.26074219 C-112.74869141 42.26074219 -112.08869141 42.26074219 -111.40869141 42.26074219 C-111.40869141 41.60074219 -111.40869141 40.94074219 -111.40869141 40.26074219 C-110.08869141 39.93074219 -108.76869141 39.60074219 -107.40869141 39.26074219 C-107.40869141 38.60074219 -107.40869141 37.94074219 -107.40869141 37.26074219 C-105.63911234 34.93234868 -104.59285624 34.30785412 -101.72119141 33.57324219 C-100.57650391 33.41855469 -100.57650391 33.41855469 -99.40869141 33.26074219 C-99.40869141 32.60074219 -99.40869141 31.94074219 -99.40869141 31.26074219 C-98.08869141 30.93074219 -96.76869141 30.60074219 -95.40869141 30.26074219 C-95.40869141 29.60074219 -95.40869141 28.94074219 -95.40869141 28.26074219 C-93.75869141 27.93074219 -92.10869141 27.60074219 -90.40869141 27.26074219 C-90.40869141 26.60074219 -90.40869141 25.94074219 -90.40869141 25.26074219 C-83.72315801 20.25036502 -72.850566 13.26074219 -64.40869141 13.26074219 C-64.40869141 12.60074219 -64.40869141 11.94074219 -64.40869141 11.26074219 C-61.76869141 10.93074219 -59.12869141 10.60074219 -56.40869141 10.26074219 C-56.40869141 9.60074219 -56.40869141 8.94074219 -56.40869141 8.26074219 C-51.95369141 7.76574219 -51.95369141 7.76574219 -47.40869141 7.26074219 C-47.40869141 6.60074219 -47.40869141 5.94074219 -47.40869141 5.26074219 C-43.77869141 4.93074219 -40.14869141 4.60074219 -36.40869141 4.26074219 C-36.40869141 3.60074219 -36.40869141 2.94074219 -36.40869141 2.26074219 C-24.24309489 0.31015896 -12.30414038 -0.05077093 0 0 Z " fill="#FEFDFD" transform="translate(250.40869140625,71.7392578125)"/>
<path d="M0 0 C3.08662554 0.01072591 6.17266928 0.00004105 9.25927734 -0.01269531 C20.53403419 -0.01946938 31.44751182 0.47399026 42.59130859 2.26074219 C42.59130859 2.92074219 42.59130859 3.58074219 42.59130859 4.26074219 C48.03630859 4.75574219 48.03630859 4.75574219 53.59130859 5.26074219 C53.59130859 5.92074219 53.59130859 6.58074219 53.59130859 7.26074219 C56.56130859 7.59074219 59.53130859 7.92074219 62.59130859 8.26074219 C62.59130859 8.92074219 62.59130859 9.58074219 62.59130859 10.26074219 C65.23130859 10.59074219 67.87130859 10.92074219 70.59130859 11.26074219 C70.59130859 11.92074219 70.59130859 12.58074219 70.59130859 13.26074219 C71.29126953 13.36515625 71.99123047 13.46957031 72.71240234 13.57714844 C76.00994039 14.36014594 78.64536186 15.64267365 81.65380859 17.19824219 C83.18714844 17.98521484 83.18714844 17.98521484 84.75146484 18.78808594 C85.68861328 19.2740625 86.62576172 19.76003906 87.59130859 20.26074219 C88.92332267 20.93004086 90.25605958 21.59792073 91.59130859 22.26074219 C91.59130859 22.92074219 91.59130859 23.58074219 91.59130859 24.26074219 C93.24130859 24.59074219 94.89130859 24.92074219 96.59130859 25.26074219 C96.59130859 25.92074219 96.59130859 26.58074219 96.59130859 27.26074219 C98.24130859 27.59074219 99.89130859 27.92074219 101.59130859 28.26074219 C101.59130859 28.92074219 101.59130859 29.58074219 101.59130859 30.26074219 C102.91130859 30.59074219 104.23130859 30.92074219 105.59130859 31.26074219 C105.59130859 31.92074219 105.59130859 32.58074219 105.59130859 33.26074219 C106.91130859 33.59074219 108.23130859 33.92074219 109.59130859 34.26074219 C109.59130859 34.92074219 109.59130859 35.58074219 109.59130859 36.26074219 C110.91130859 36.59074219 112.23130859 36.92074219 113.59130859 37.26074219 C113.59130859 37.92074219 113.59130859 38.58074219 113.59130859 39.26074219 C114.18943359 39.36386719 114.78755859 39.46699219 115.40380859 39.57324219 C117.90389145 40.35898251 118.96665942 41.22993072 120.59130859 43.26074219 C120.59130859 43.92074219 120.59130859 44.58074219 120.59130859 45.26074219 C121.25130859 45.26074219 121.91130859 45.26074219 122.59130859 45.26074219 C123.93026492 46.92289486 125.26261002 48.59037826 126.59130859 50.26074219 C127.82880859 51.25074219 127.82880859 51.25074219 129.09130859 52.26074219 C131.7250186 54.3677102 133.53093892 56.60220067 135.59130859 59.26074219 C136.52523437 60.185 136.52523437 60.185 137.47802734 61.12792969 C139.60806115 63.27764958 141.47691999 65.50346785 143.34130859 67.88574219 C143.95490234 68.66175781 144.56849609 69.43777344 145.20068359 70.23730469 C146.59130859 72.26074219 146.59130859 72.26074219 146.59130859 74.26074219 C147.25130859 74.26074219 147.91130859 74.26074219 148.59130859 74.26074219 C148.92130859 75.91074219 149.25130859 77.56074219 149.59130859 79.26074219 C150.25130859 79.26074219 150.91130859 79.26074219 151.59130859 79.26074219 C151.92130859 80.25074219 152.25130859 81.24074219 152.59130859 82.26074219 C153.25130859 82.59074219 153.91130859 82.92074219 154.59130859 83.26074219 C157.59130859 88.68381911 157.59130859 88.68381911 157.59130859 91.26074219 C158.25130859 91.26074219 158.91130859 91.26074219 159.59130859 91.26074219 C159.92130859 93.24074219 160.25130859 95.22074219 160.59130859 97.26074219 C161.25130859 97.26074219 161.91130859 97.26074219 162.59130859 97.26074219 C162.92130859 99.24074219 163.25130859 101.22074219 163.59130859 103.26074219 C164.25130859 103.26074219 164.91130859 103.26074219 165.59130859 103.26074219 C165.92130859 105.57074219 166.25130859 107.88074219 166.59130859 110.26074219 C167.25130859 110.26074219 167.91130859 110.26074219 168.59130859 110.26074219 C168.92130859 112.90074219 169.25130859 115.54074219 169.59130859 118.26074219 C170.25130859 118.26074219 170.91130859 118.26074219 171.59130859 118.26074219 C173.84810503 126.00487614 176.02482699 133.74678235 177.93505859 141.58496094 C178.33525009 143.21669413 178.74858839 144.84536776 179.18505859 146.46777344 C181.52108321 155.17633579 181.74193777 163.79177619 181.72412109 172.76074219 C181.72555618 174.37432617 181.72555618 174.37432617 181.72702026 176.02050781 C181.7276973 178.2828782 181.72587643 180.54525059 181.72167969 182.80761719 C181.71632473 186.25037034 181.72164097 189.69299305 181.72802734 193.13574219 C181.72736648 195.34407581 181.72608514 197.55240934 181.72412109 199.76074219 C181.72614532 200.77974609 181.72816956 201.79875 181.73025513 202.84863281 C181.70423432 210.86669982 181.19829388 218.50769288 179.12207031 226.26904297 C178.57584638 228.3187646 178.09426449 230.37538787 177.62646484 232.44433594 C175.93556912 239.85358034 174.19306151 247.10592166 171.59130859 254.26074219 C170.93130859 254.26074219 170.27130859 254.26074219 169.59130859 254.26074219 C169.26130859 256.90074219 168.93130859 259.54074219 168.59130859 262.26074219 C167.93130859 262.26074219 167.27130859 262.26074219 166.59130859 262.26074219 C166.26130859 264.57074219 165.93130859 266.88074219 165.59130859 269.26074219 C164.93130859 269.26074219 164.27130859 269.26074219 163.59130859 269.26074219 C163.26130859 271.24074219 162.93130859 273.22074219 162.59130859 275.26074219 C161.93130859 275.26074219 161.27130859 275.26074219 160.59130859 275.26074219 C160.26130859 277.24074219 159.93130859 279.22074219 159.59130859 281.26074219 C158.93130859 281.26074219 158.27130859 281.26074219 157.59130859 281.26074219 C156.51605665 283.91303031 155.49674708 286.54442673 154.59130859 289.26074219 C153.93130859 289.59074219 153.27130859 289.92074219 152.59130859 290.26074219 C152.26130859 291.25074219 151.93130859 292.24074219 151.59130859 293.26074219 C150.93130859 293.26074219 150.27130859 293.26074219 149.59130859 293.26074219 C149.26130859 294.91074219 148.93130859 296.56074219 148.59130859 298.26074219 C147.93130859 298.26074219 147.27130859 298.26074219 146.59130859 298.26074219 C146.28193359 299.28167969 146.28193359 299.28167969 145.96630859 300.32324219 C144.42440555 303.61730779 142.51326221 305.87116442 140.10302734 308.56152344 C138.84932881 309.97071946 137.67713725 311.45193515 136.52880859 312.94824219 C134.43588169 315.44625172 132.13108498 317.22892108 129.59130859 319.26074219 C128.22886063 320.90369414 126.89265984 322.56898556 125.59130859 324.26074219 C123.96630859 326.07324219 123.96630859 326.07324219 122.59130859 327.26074219 C121.93130859 327.26074219 121.27130859 327.26074219 120.59130859 327.26074219 C120.59130859 327.92074219 120.59130859 328.58074219 120.59130859 329.26074219 C116.12072036 333.26074219 116.12072036 333.26074219 113.59130859 333.26074219 C113.59130859 333.92074219 113.59130859 334.58074219 113.59130859 335.26074219 C112.27130859 335.59074219 110.95130859 335.92074219 109.59130859 336.26074219 C109.59130859 336.92074219 109.59130859 337.58074219 109.59130859 338.26074219 C108.27130859 338.59074219 106.95130859 338.92074219 105.59130859 339.26074219 C105.59130859 339.92074219 105.59130859 340.58074219 105.59130859 341.26074219 C104.27130859 341.59074219 102.95130859 341.92074219 101.59130859 342.26074219 C101.59130859 342.92074219 101.59130859 343.58074219 101.59130859 344.26074219 C99.94130859 344.59074219 98.29130859 344.92074219 96.59130859 345.26074219 C96.59130859 345.92074219 96.59130859 346.58074219 96.59130859 347.26074219 C94.94130859 347.59074219 93.29130859 347.92074219 91.59130859 348.26074219 C91.59130859 348.92074219 91.59130859 349.58074219 91.59130859 350.26074219 C89.03244355 351.58076775 86.46963791 352.89188 83.90380859 354.19824219 C83.18257813 354.57142578 82.46134766 354.94460938 81.71826172 355.32910156 C78.02625117 357.20039458 74.75437764 358.74343775 70.59130859 359.26074219 C70.59130859 359.92074219 70.59130859 360.58074219 70.59130859 361.26074219 C67.95130859 361.59074219 65.31130859 361.92074219 62.59130859 362.26074219 C62.59130859 362.92074219 62.59130859 363.58074219 62.59130859 364.26074219 C59.62130859 364.59074219 56.65130859 364.92074219 53.59130859 365.26074219 C53.59130859 365.92074219 53.59130859 366.58074219 53.59130859 367.26074219 C49.96130859 367.59074219 46.33130859 367.92074219 42.59130859 368.26074219 C42.59130859 368.92074219 42.59130859 369.58074219 42.59130859 370.26074219 C30.42571208 372.21132541 18.48675756 372.57225531 6.18261719 372.52148438 C3.09599165 372.51075846 0.0099479 372.52144333 -3.07666016 372.53417969 C-14.351417 372.54095375 -25.26489463 372.04749412 -36.40869141 370.26074219 C-36.40869141 369.60074219 -36.40869141 368.94074219 -36.40869141 368.26074219 C-40.03869141 367.93074219 -43.66869141 367.60074219 -47.40869141 367.26074219 C-47.40869141 366.60074219 -47.40869141 365.94074219 -47.40869141 365.26074219 C-50.37869141 364.93074219 -53.34869141 364.60074219 -56.40869141 364.26074219 C-56.40869141 363.60074219 -56.40869141 362.94074219 -56.40869141 362.26074219 C-59.04869141 361.93074219 -61.68869141 361.60074219 -64.40869141 361.26074219 C-64.40869141 360.60074219 -64.40869141 359.94074219 -64.40869141 359.26074219 C-65.06869141 359.17566406 -65.72869141 359.09058594 -66.40869141 359.00292969 C-70.3931701 358.01718626 -73.77225 356.2576373 -77.40869141 354.38574219 C-78.10736328 354.03382813 -78.80603516 353.68191406 -79.52587891 353.31933594 C-87.36942154 349.33836807 -87.36942154 349.33836807 -90.40869141 347.26074219 C-90.40869141 346.60074219 -90.40869141 345.94074219 -90.40869141 345.26074219 C-92.05869141 344.93074219 -93.70869141 344.60074219 -95.40869141 344.26074219 C-95.40869141 343.60074219 -95.40869141 342.94074219 -95.40869141 342.26074219 C-96.72869141 341.93074219 -98.04869141 341.60074219 -99.40869141 341.26074219 C-99.40869141 340.60074219 -99.40869141 339.94074219 -99.40869141 339.26074219 C-100.17181641 339.15761719 -100.93494141 339.05449219 -101.72119141 338.94824219 C-104.59285624 338.21363025 -105.63911234 337.58913569 -107.40869141 335.26074219 C-107.40869141 334.60074219 -107.40869141 333.94074219 -107.40869141 333.26074219 C-108.72869141 332.93074219 -110.04869141 332.60074219 -111.40869141 332.26074219 C-111.40869141 331.60074219 -111.40869141 330.94074219 -111.40869141 330.26074219 C-112.39869141 329.93074219 -113.38869141 329.60074219 -114.40869141 329.26074219 C-114.40869141 328.60074219 -114.40869141 327.94074219 -114.40869141 327.26074219 C-115.06869141 327.26074219 -115.72869141 327.26074219 -116.40869141 327.26074219 C-118.03369141 325.88574219 -118.03369141 325.88574219 -119.40869141 324.26074219 C-119.40869141 323.60074219 -119.40869141 322.94074219 -119.40869141 322.26074219 C-120.39869141 321.93074219 -121.38869141 321.60074219 -122.40869141 321.26074219 C-122.40869141 320.60074219 -122.40869141 319.94074219 -122.40869141 319.26074219 C-123.39869141 318.93074219 -124.38869141 318.60074219 -125.40869141 318.26074219 C-125.40869141 317.60074219 -125.40869141 316.94074219 -125.40869141 316.26074219 C-126.39869141 315.93074219 -127.38869141 315.60074219 -128.40869141 315.26074219 C-128.40869141 314.60074219 -128.40869141 313.94074219 -128.40869141 313.26074219 C-129.39869141 312.93074219 -130.38869141 312.60074219 -131.40869141 312.26074219 C-132.43481089 310.61002823 -133.43177284 308.94104213 -134.40869141 307.26074219 C-135.08931641 306.60074219 -135.76994141 305.94074219 -136.47119141 305.26074219 C-138.61033219 303.05259686 -139.44446354 301.15342578 -140.40869141 298.26074219 C-141.06869141 298.26074219 -141.72869141 298.26074219 -142.40869141 298.26074219 C-142.40869141 297.27074219 -142.40869141 296.28074219 -142.40869141 295.26074219 C-143.06869141 295.26074219 -143.72869141 295.26074219 -144.40869141 295.26074219 C-148.40869141 289.96662454 -148.40869141 289.96662454 -148.40869141 286.26074219 C-149.06869141 286.26074219 -149.72869141 286.26074219 -150.40869141 286.26074219 C-150.73869141 284.61074219 -151.06869141 282.96074219 -151.40869141 281.26074219 C-152.06869141 281.26074219 -152.72869141 281.26074219 -153.40869141 281.26074219 C-153.73869141 279.28074219 -154.06869141 277.30074219 -154.40869141 275.26074219 C-155.06869141 275.26074219 -155.72869141 275.26074219 -156.40869141 275.26074219 C-156.73869141 273.28074219 -157.06869141 271.30074219 -157.40869141 269.26074219 C-158.06869141 269.26074219 -158.72869141 269.26074219 -159.40869141 269.26074219 C-160.41727563 266.84734423 -161.41571813 264.43055544 -162.40869141 262.01074219 C-162.69486328 261.32882812 -162.98103516 260.64691406 -163.27587891 259.94433594 C-164.70214634 256.44658484 -165.40869141 254.0917403 -165.40869141 250.26074219 C-166.06869141 250.26074219 -166.72869141 250.26074219 -167.40869141 250.26074219 C-167.90369141 245.31074219 -167.90369141 245.31074219 -168.40869141 240.26074219 C-169.06869141 240.26074219 -169.72869141 240.26074219 -170.40869141 240.26074219 C-170.90369141 234.32074219 -170.90369141 234.32074219 -171.40869141 228.26074219 C-172.06869141 228.26074219 -172.72869141 228.26074219 -173.40869141 228.26074219 C-175.35898639 215.34170388 -175.72005886 202.60333543 -175.66943359 189.54980469 C-175.6587078 186.26576277 -175.66939253 182.98226768 -175.68212891 179.69824219 C-175.68888185 167.74013725 -175.19461353 156.09095071 -173.40869141 144.26074219 C-172.74869141 144.26074219 -172.08869141 144.26074219 -171.40869141 144.26074219 C-171.07869141 140.30074219 -170.74869141 136.34074219 -170.40869141 132.26074219 C-169.74869141 132.26074219 -169.08869141 132.26074219 -168.40869141 132.26074219 C-168.07869141 128.96074219 -167.74869141 125.66074219 -167.40869141 122.26074219 C-166.74869141 122.26074219 -166.08869141 122.26074219 -165.40869141 122.26074219 C-165.34681641 121.35324219 -165.28494141 120.44574219 -165.22119141 119.51074219 C-164.43767342 113.75307217 -161.75106421 108.52459842 -159.40869141 103.26074219 C-158.74869141 103.26074219 -158.08869141 103.26074219 -157.40869141 103.26074219 C-157.07869141 101.28074219 -156.74869141 99.30074219 -156.40869141 97.26074219 C-155.74869141 97.26074219 -155.08869141 97.26074219 -154.40869141 97.26074219 C-154.07869141 95.28074219 -153.74869141 93.30074219 -153.40869141 91.26074219 C-152.74869141 91.26074219 -152.08869141 91.26074219 -151.40869141 91.26074219 C-151.07869141 89.61074219 -150.74869141 87.96074219 -150.40869141 86.26074219 C-149.74869141 86.26074219 -149.08869141 86.26074219 -148.40869141 86.26074219 C-148.30556641 85.70386719 -148.20244141 85.14699219 -148.09619141 84.57324219 C-147.26690732 81.78383208 -146.06570085 79.64683579 -144.40869141 77.26074219 C-143.74869141 77.26074219 -143.08869141 77.26074219 -142.40869141 77.26074219 C-142.40869141 76.27074219 -142.40869141 75.28074219 -142.40869141 74.26074219 C-141.74869141 74.26074219 -141.08869141 74.26074219 -140.40869141 74.26074219 C-140.20244141 73.58011719 -139.99619141 72.89949219 -139.78369141 72.19824219 C-138.23293544 68.88526352 -136.28398417 66.60294069 -133.84619141 63.90917969 C-132.21594454 62.11114285 -132.21594454 62.11114285 -130.40869141 59.26074219 C-129.74869141 59.26074219 -129.08869141 59.26074219 -128.40869141 59.26074219 C-128.07869141 58.27074219 -127.74869141 57.28074219 -127.40869141 56.26074219 C-126.74869141 56.26074219 -126.08869141 56.26074219 -125.40869141 56.26074219 C-125.07869141 55.27074219 -124.74869141 54.28074219 -124.40869141 53.26074219 C-123.74869141 53.26074219 -123.08869141 53.26074219 -122.40869141 53.26074219 C-122.07869141 52.27074219 -121.74869141 51.28074219 -121.40869141 50.26074219 C-120.74869141 50.26074219 -120.08869141 50.26074219 -119.40869141 50.26074219 C-119.40869141 49.60074219 -119.40869141 48.94074219 -119.40869141 48.26074219 C-118.03369141 46.63574219 -118.03369141 46.63574219 -116.40869141 45.26074219 C-115.74869141 45.26074219 -115.08869141 45.26074219 -114.40869141 45.26074219 C-114.07869141 44.27074219 -113.74869141 43.28074219 -113.40869141 42.26074219 C-112.74869141 42.26074219 -112.08869141 42.26074219 -111.40869141 42.26074219 C-111.40869141 41.60074219 -111.40869141 40.94074219 -111.40869141 40.26074219 C-110.08869141 39.93074219 -108.76869141 39.60074219 -107.40869141 39.26074219 C-107.40869141 38.60074219 -107.40869141 37.94074219 -107.40869141 37.26074219 C-105.63911234 34.93234868 -104.59285624 34.30785412 -101.72119141 33.57324219 C-100.57650391 33.41855469 -100.57650391 33.41855469 -99.40869141 33.26074219 C-99.40869141 32.60074219 -99.40869141 31.94074219 -99.40869141 31.26074219 C-98.08869141 30.93074219 -96.76869141 30.60074219 -95.40869141 30.26074219 C-95.40869141 29.60074219 -95.40869141 28.94074219 -95.40869141 28.26074219 C-93.75869141 27.93074219 -92.10869141 27.60074219 -90.40869141 27.26074219 C-90.40869141 26.60074219 -90.40869141 25.94074219 -90.40869141 25.26074219 C-83.72315801 20.25036502 -72.850566 13.26074219 -64.40869141 13.26074219 C-64.40869141 12.60074219 -64.40869141 11.94074219 -64.40869141 11.26074219 C-61.76869141 10.93074219 -59.12869141 10.60074219 -56.40869141 10.26074219 C-56.40869141 9.60074219 -56.40869141 8.94074219 -56.40869141 8.26074219 C-51.95369141 7.76574219 -51.95369141 7.76574219 -47.40869141 7.26074219 C-47.40869141 6.60074219 -47.40869141 5.94074219 -47.40869141 5.26074219 C-43.77869141 4.93074219 -40.14869141 4.60074219 -36.40869141 4.26074219 C-36.40869141 3.60074219 -36.40869141 2.94074219 -36.40869141 2.26074219 C-24.24309489 0.31015896 -12.30414038 -0.05077093 0 0 Z M-46.40869141 21.26074219 C-46.40869141 21.92074219 -46.40869141 22.58074219 -46.40869141 23.26074219 C-47.27236328 23.37675781 -48.13603516 23.49277344 -49.02587891 23.61230469 C-52.45285667 24.26920805 -55.3237321 25.28115578 -58.53369141 26.63574219 C-59.54689453 27.05597656 -60.56009766 27.47621094 -61.60400391 27.90917969 C-64.17804919 29.14959705 -66.14698106 30.54351766 -68.40869141 32.26074219 C-71.03246447 33.4242036 -73.6951535 34.31100392 -76.40869141 35.26074219 C-76.40869141 35.92074219 -76.40869141 36.58074219 -76.40869141 37.26074219 C-77.33681641 37.42574219 -78.26494141 37.59074219 -79.22119141 37.76074219 C-85.1022411 39.43595028 -89.64993209 43.57718372 -94.40869141 47.26074219 C-95.30201172 47.92460938 -96.19533203 48.58847656 -97.11572266 49.27246094 C-100.34464506 51.66698952 -100.34464506 51.66698952 -103.40869141 54.26074219 C-103.40869141 54.92074219 -103.40869141 55.58074219 -103.40869141 56.26074219 C-103.96041016 56.48761719 -104.51212891 56.71449219 -105.08056641 56.94824219 C-113.60027795 61.75130105 -120.6240597 71.57864586 -126.40869141 79.26074219 C-126.90240234 79.89882812 -127.39611328 80.53691406 -127.90478516 81.19433594 C-130.32707757 84.42166322 -131.94565174 87.52782827 -133.40869141 91.26855469 C-134.72429554 93.88948481 -136.43964696 96.05758751 -138.22119141 98.38574219 C-146.50033232 109.49042477 -151.69586761 123.14334852 -153.81884766 136.81152344 C-154.40869141 139.26074219 -154.40869141 139.26074219 -155.84130859 142.47167969 C-161.10348916 154.62708515 -160.86073166 168.24207053 -160.74487305 181.23510742 C-160.72107631 184.0870355 -160.72436478 186.93803528 -160.73095703 189.79003906 C-160.71783075 198.79065337 -160.63075681 207.48344399 -158.40869141 216.26074219 C-158.22121338 217.06229736 -158.03373535 217.86385254 -157.84057617 218.68969727 C-157.27169433 221.05688714 -156.66266374 223.40885774 -156.03369141 225.76074219 C-155.81600098 226.58098877 -155.59831055 227.40123535 -155.37402344 228.24633789 C-153.71298847 234.38755665 -151.7479486 240.34262143 -149.40869141 246.26074219 C-148.82307434 247.82238769 -148.23954647 249.38481921 -147.65869141 250.94824219 C-147.24619141 252.04136719 -146.83369141 253.13449219 -146.40869141 254.26074219 C-145.74869141 254.26074219 -145.08869141 254.26074219 -144.40869141 254.26074219 C-144.32619141 255.12699219 -144.24369141 255.99324219 -144.15869141 256.88574219 C-143.29106546 260.79005892 -141.70871155 263.01365492 -139.40869141 266.26074219 C-137.04864937 270.52697202 -135.62728912 274.57382792 -134.40869141 279.26074219 C-133.74869141 279.26074219 -133.08869141 279.26074219 -132.40869141 279.26074219 C-131.74869141 280.91074219 -131.08869141 282.56074219 -130.40869141 284.26074219 C-129.74869141 284.26074219 -129.08869141 284.26074219 -128.40869141 284.26074219 C-128.22306641 285.12699219 -128.03744141 285.99324219 -127.84619141 286.88574219 C-126.20439578 290.74039279 -124.58267057 291.98227208 -121.38916016 294.51074219 C-119.14074586 296.4975067 -117.4266359 298.63450593 -115.59619141 301.01074219 C-104.18096018 315.62486739 -89.01894521 327.4266966 -72.24072266 335.35449219 C-70.36342373 336.28313473 -68.62477317 337.34402291 -66.84619141 338.44824219 C-63.07294707 340.43777102 -60.59657442 340.91887419 -56.40869141 341.26074219 C-56.40869141 341.92074219 -56.40869141 342.58074219 -56.40869141 343.26074219 C-52.24694968 345.07897886 -48.00140179 346.16202475 -43.59619141 347.19824219 C-35.06112489 349.25657505 -35.06112489 349.25657505 -31.03369141 350.88574219 C-21.28875486 354.58209743 -11.6640307 354.54552482 -1.38330078 354.46655273 C1.11354594 354.44807765 3.61002503 354.44604503 6.10693359 354.44628906 C7.69547848 354.44138059 9.28402087 354.43555523 10.87255859 354.42871094 C11.61832153 354.42759811 12.36408447 354.42648529 13.13244629 354.42533875 C16.98928804 354.45794877 16.98928804 354.45794877 20.59130859 353.26074219 C22.33845092 353.0107201 24.0893 352.78651025 25.84130859 352.57324219 C32.32219633 351.61016055 38.57826482 350.08540207 44.90380859 348.38574219 C45.83418945 348.14122314 46.76457031 347.8967041 47.72314453 347.64477539 C52.74189616 346.26448412 57.26498194 344.64479537 61.82641602 342.12353516 C63.72276949 341.19647565 65.53292337 340.70495728 67.59130859 340.26074219 C67.59130859 339.60074219 67.59130859 338.94074219 67.59130859 338.26074219 C68.29255859 338.15761719 68.99380859 338.05449219 69.71630859 337.94824219 C73.00577142 337.16163151 75.57898557 335.79643628 78.59130859 334.26074219 C80.02485405 333.74951458 81.4625312 333.24974702 82.90380859 332.76074219 C84.12068359 332.26574219 85.33755859 331.77074219 86.59130859 331.26074219 C86.92130859 330.27074219 87.25130859 329.28074219 87.59130859 328.26074219 C89.56787109 326.89355469 89.56787109 326.89355469 92.21630859 325.38574219 C100.08014333 320.55671199 106.78686372 314.45975862 113.59130859 308.26074219 C114.37763672 307.54789062 115.16396484 306.83503906 115.97412109 306.10058594 C124.77180979 297.71250623 131.61076637 287.38151934 138.52880859 277.44824219 C139.08463623 276.66022217 139.64046387 275.87220215 140.21313477 275.06030273 C143.51909163 270.24753886 145.70033274 265.77954633 147.59130859 260.26074219 C148.59767624 258.56249678 149.60415459 256.86429963 150.61865234 255.17089844 C152.15642625 252.15093282 152.97525014 248.96547663 153.88037109 245.70996094 C154.59130859 243.26074219 154.59130859 243.26074219 156.02880859 239.63574219 C158.2576418 233.84777743 159.63996376 227.73908488 161.01879883 221.70092773 C161.43581683 219.92348853 161.89113725 218.15490633 162.36889648 216.39282227 C164.89637892 206.2941793 165.08352949 196.48507216 165.03735352 186.11987305 C165.02881175 183.19932183 165.05775884 180.28071256 165.08935547 177.36035156 C165.12375926 167.96182369 164.80379499 159.80375726 161.5559082 150.91088867 C160.21628011 147.23038679 159.71060851 143.69780158 159.15380859 139.82324219 C157.88987703 131.86164618 155.57840832 124.76559833 152.59130859 117.26074219 C152.06150391 115.83568359 152.06150391 115.83568359 151.52099609 114.38183594 C149.68044613 109.51959567 147.58852206 105.49818191 144.59130859 101.26074219 C144.26130859 100.27074219 143.93130859 99.28074219 143.59130859 98.26074219 C142.93130859 97.93074219 142.27130859 97.60074219 141.59130859 97.26074219 C140.53778016 94.95108371 139.53411764 92.61776479 138.59130859 90.26074219 C137.93130859 90.26074219 137.27130859 90.26074219 136.59130859 90.26074219 C136.23359375 89.22820312 136.23359375 89.22820312 135.86865234 88.17480469 C134.34454557 84.69779046 132.35443271 81.70735821 130.15380859 78.63574219 C129.71568848 78.02400146 129.27756836 77.41226074 128.82617188 76.78198242 C122.23635177 67.81632806 114.05058897 60.43506858 105.59130859 53.26074219 C104.93904297 52.68066406 104.28677734 52.10058594 103.61474609 51.50292969 C102.98826172 50.94863281 102.36177734 50.39433594 101.71630859 49.82324219 C101.16201172 49.32953125 100.60771484 48.83582031 100.03662109 48.32714844 C98.62244238 47.06283612 98.62244238 47.06283612 96.59130859 47.26074219 C96.35669922 46.63683594 96.12208984 46.01292969 95.88037109 45.37011719 C94.22307784 42.65818277 92.97714869 42.37098222 89.96630859 41.51074219 C89.14904297 41.26839844 88.33177734 41.02605469 87.48974609 40.77636719 C86.86326172 40.60621094 86.23677734 40.43605469 85.59130859 40.26074219 C85.59130859 39.60074219 85.59130859 38.94074219 85.59130859 38.26074219 C84.62193359 37.80699219 83.65255859 37.35324219 82.65380859 36.88574219 C79.59130859 35.26074219 79.59130859 35.26074219 78.59130859 33.26074219 C76.47167065 32.4205519 74.31874363 31.66367282 72.15380859 30.94824219 C67.84359955 29.48722807 63.7261575 27.93360048 59.71630859 25.76074219 C49.95612907 20.68032033 39.12371936 17.99835777 28.26318359 16.62011719 C25.59130859 16.26074219 25.59130859 16.26074219 23.66114807 15.75132751 C20.21749919 14.93512721 16.70430466 15.01410339 13.18115234 14.95214844 C12.34874023 14.93715805 11.51632812 14.92216766 10.65869141 14.90672302 C7.94870857 14.86702282 5.2390145 14.84207983 2.52880859 14.82324219 C1.61157013 14.81607178 0.69433167 14.80890137 -0.2507019 14.80151367 C-16.36969503 14.73523332 -30.91357895 16.59171939 -46.40869141 21.26074219 Z " fill="#FF8B03" transform="translate(250.40869140625,71.7392578125)"/>
<path d="M0 0 C19.11327807 -0.80276756 31.94953761 0.8508533 48 12 C49.0725 12.639375 50.145 13.27875 51.25 13.9375 C60.35392624 20.76544468 68.53188261 32.14752031 72 43 C72.20802304 44.47391934 72.3770482 45.95405986 72.5 47.4375 C72.665 48.613125 72.83 49.78875 73 51 C74.79927039 52.27489266 74.79927039 52.27489266 77 53 C79.79845822 55.40978347 80.91610846 57.06932824 81.25 60.7734375 C81.25 63.52685509 81.17322874 66.25239963 81 69 C78.69 69 76.38 69 74 69 C74 70.32 74 71.64 74 73 C75.65 73 77.3 73 79 73 C75.25 79.875 75.25 79.875 73 81 C72.28499771 82.87262504 71.57550773 84.74754757 70.89453125 86.6328125 C64.57235753 103.36310626 53.13892896 114.78400633 37.3671875 122.6171875 C34.1828717 123.92489956 31.40537468 124.59632337 28 125 C28 125.66 28 126.32 28 127 C17.3189575 129.81476885 5.5649515 130.59701656 -5 127 C-5.91007812 126.74347656 -6.82015625 126.48695313 -7.7578125 126.22265625 C-23.93363848 121.40300477 -37.72166912 110.38435931 -45.8828125 95.5859375 C-54.19874009 79.21469543 -56.33587206 62.49619353 -51.2578125 44.796875 C-46.17912001 29.46616352 -34.32424663 15.13133341 -20.3125 7.0625 C-18.88829583 6.34786374 -17.45098414 5.65856476 -16 5 C-15.32195312 4.68289062 -14.64390625 4.36578125 -13.9453125 4.0390625 C-9.13913073 2.00064299 -5.20081972 1.72138466 0 2 C0 1.34 0 0.68 0 0 Z " fill="#FEA535" transform="translate(153,186)"/>
<path d="M0 0 C0 0.66 0 1.32 0 2 C0.928125 2.04125 1.85625 2.0825 2.8125 2.125 C12.90834347 3.59645897 21.59255415 11.08884606 28.1875 18.4375 C28.785625 19.283125 29.38375 20.12875 30 21 C30.42152344 21.57234375 30.84304687 22.1446875 31.27734375 22.734375 C34.85316354 27.91672253 36.14861008 32.79883164 37 39 C36.278125 39.226875 35.55625 39.45375 34.8125 39.6875 C31.45979122 41.25209743 29.56877231 43.36536173 27 46 C25.68678304 46.70546682 24.35601217 47.380764 23 48 C21.99406757 46.8803014 20.9954151 45.7540588 20 44.625 C19.443125 43.99851563 18.88625 43.37203125 18.3125 42.7265625 C17 41 17 41 17 39 C16.29875 38.95101562 15.5975 38.90203125 14.875 38.8515625 C9.03265841 38.39116058 3.63906038 37.59596049 -2 36 C-2 35.01 -2 34.02 -2 33 C-2.7734375 33.01160156 -3.546875 33.02320313 -4.34375 33.03515625 C-22.70861332 33.19425779 -22.70861332 33.19425779 -29 29 C-36.79264468 28.00715934 -42.30809413 29.03442615 -49 33 C-49.66 33 -50.32 33 -51 33 C-51.226875 33.53625 -51.45375 34.0725 -51.6875 34.625 C-53 37 -53 37 -55.5 39.9375 C-60.81235363 46.44513319 -60.64171943 52.87823847 -60 61 C-58.83219362 66.2003878 -55.92054524 69.48156196 -52 73 C-51.34 73.66 -50.68 74.32 -50 75 C-42.55354995 76.01493939 -36.22574453 75.55729553 -29.87109375 71.4296875 C-25.97902376 68.45578851 -22.86946672 65.58869105 -21 61 C-20.01 61 -19.02 61 -18 61 C-17.72285156 61.77085937 -17.44570312 62.54171875 -17.16015625 63.3359375 C-16.79792969 64.33882813 -16.43570313 65.34171875 -16.0625 66.375 C-15.70285156 67.37273437 -15.34320313 68.37046875 -14.97265625 69.3984375 C-14.07650708 71.93504165 -14.07650708 71.93504165 -13 74 C-11.68515625 73.89171875 -11.68515625 73.89171875 -10.34375 73.78125 C2.1068535 72.87023023 14.52118079 72.89840641 27 73 C27 72.34 27 71.68 27 71 C29.64 71.33 32.28 71.66 35 72 C33.73161704 81.0392355 26.03237702 89.52406184 19 95 C4.35164253 103.90705986 -10.75208522 107.23064005 -27.75 103.875 C-40.19255647 100.61731249 -50.34406004 92.18042016 -58 82 C-60.71421761 76.98913672 -63 72.74776222 -63 67 C-63.66 67 -64.32 67 -65 67 C-65.77528479 63.57426063 -66.11918778 60.42760755 -66.09765625 56.91796875 C-66.09443359 55.98662109 -66.09121094 55.05527344 -66.08789062 54.09570312 C-66.07951172 53.13599609 -66.07113281 52.17628906 -66.0625 51.1875 C-66.05798828 50.20845703 -66.05347656 49.22941406 -66.04882812 48.22070312 C-66.03708684 45.81373889 -66.02066419 43.40690143 -66 41 C-65.34 41 -64.68 41 -64 41 C-63.9071875 39.0509375 -63.9071875 39.0509375 -63.8125 37.0625 C-62.43881346 25.34037488 -53.24940688 16.24757758 -44.4375 9.125 C-30.69307881 -0.96373749 -16.43454054 -0.29751988 0 0 Z " fill="#FCFBFB" transform="translate(177,198)"/>
<path d="M0 0 C1.35113205 0.97581759 2.68646148 1.97413727 4 3 C5.99771011 3.06444226 7.99883758 3.1202107 9.99609375 3.04296875 C12.74601688 2.98400354 15.29855185 3.50381565 18 4 C20.99666459 4.36532649 23.99751826 4.68640746 27 5 C27 5.99 27 6.98 27 8 C28.093125 8.12375 29.18625 8.2475 30.3125 8.375 C31.03824219 8.47425781 31.76398438 8.57351562 32.51171875 8.67578125 C34.25927671 8.90348503 36.01327146 9.08432019 37.76953125 9.23046875 C45.01191849 10.0726068 45.01191849 10.0726068 48.03515625 12.91015625 C49.50825256 14.88473216 50.81160932 16.84384814 52 19 C55.71866485 17.76044505 57.32283886 15.81445146 60 13 C62.35953094 10.64046906 63.77895617 10.50858587 67 10 C68.60725635 13.21451269 68.05748185 16.43612536 68 20 C67.34 20 66.68 20 66 20 C65.505 22.475 65.505 22.475 65 25 C66.32 25 67.64 25 69 25 C69 26.32 69 27.64 69 29 C67.02 29 65.04 29 63 29 C64.11854586 32.72614153 64.11854586 32.72614153 67 35 C66.125 42.875 66.125 42.875 65 44 C63.47480724 43.91062197 61.95318071 43.75462854 60.4375 43.5625 C59.19806641 43.40974609 59.19806641 43.40974609 57.93359375 43.25390625 C57.29550781 43.17011719 56.65742188 43.08632813 56 43 C56 43.66 56 44.32 56 45 C36.2 45.99 36.2 45.99 16 47 C11 37 11 37 11 33 C10.01 33 9.02 33 8 33 C7.835 33.86625 7.67 34.7325 7.5 35.625 C5.40274122 40.34383225 2.2555614 42.26255158 -2 45 C-3.3303125 45.928125 -3.3303125 45.928125 -4.6875 46.875 C-10.36283443 48.80247207 -17.39650225 49.55621304 -23.03515625 47.12109375 C-27.53276275 43.63573628 -30.23614947 38.29155159 -32 33 C-32.93166582 19.5804289 -32.93166582 19.5804289 -29 14 C-28.5359375 13.28199219 -28.071875 12.56398437 -27.59375 11.82421875 C-20.89196858 2.16669882 -11.79858188 -2.07599681 0 0 Z " fill="#466DA1" transform="translate(148,226)"/>
<path d="M0 0 C1.32 0 2.64 0 4 0 C6.13457576 2.84610101 7.35334574 5.508067 8 9 C10.31902959 9.74540237 11.59352295 10.13204777 13.94946289 9.36669922 C14.62614014 9.24568848 15.30281738 9.12467773 16 9 C18.35106356 10.97573413 20.35875476 12.89183368 22.4375 15.125 C22.99759766 15.70765625 23.55769531 16.2903125 24.13476562 16.890625 C25.24253507 18.0436359 26.34573087 19.20106011 27.4440918 20.36303711 C30.48230406 23.55952436 33.62456289 26.64124898 36.8125 29.6875 C39 32 39 32 39 34 C39.53625 34.20625 40.0725 34.4125 40.625 34.625 C43.91978009 36.53250426 46.59363628 39.04819384 49 42 C49 42.66 49 43.32 49 44 C49.556875 44.226875 50.11375 44.45375 50.6875 44.6875 C53.68041199 46.38617978 55.73527237 48.42072687 58 51 C58 51.99 58 52.98 58 54 C58.66 54 59.32 54 60 54 C60.62397689 64.8675975 60.62397689 64.8675975 58.3125 69.0625 C57.1678125 70.0215625 57.1678125 70.0215625 56 71 C55.29875 71.598125 54.5975 72.19625 53.875 72.8125 C49.45755071 74.63709862 45.69062557 74.89952978 41 74 C39.06434631 72.71656799 39.06434631 72.71656799 37.24633789 71.01000977 C36.55927765 70.37306183 35.87221741 69.73611389 35.16433716 69.0798645 C34.4501059 68.39350922 33.73587463 67.70715393 33 67 C32.28165985 66.32113739 31.5633197 65.64227478 30.82321167 64.94284058 C25.85861428 60.21137697 20.98345809 55.3873638 16.10620117 50.56616211 C14.31797927 48.80476926 12.52263248 47.05058242 10.72045898 45.3034668 C8.10796 42.76965325 5.51879536 40.21396572 2.93359375 37.65234375 C2.12232529 36.87406723 1.31105682 36.09579071 0.47520447 35.29393005 C-1.54406874 33.26724235 -3.39143544 31.36595395 -5 29 C-4.93334961 25.64672852 -4.93334961 25.64672852 -4 23 C-4.33 22.01 -4.66 21.02 -5 20 C-6.0828125 20.12375 -6.0828125 20.12375 -7.1875 20.25 C-10.87110419 19.92256852 -12.38626111 18.53906064 -15 16 C-15 15.34 -15 14.68 -15 14 C-13.06640625 12.34375 -13.06640625 12.34375 -10.5625 10.5 C-7.25143208 8.20089737 -7.25143208 8.20089737 -5 5 C-4.34 5 -3.68 5 -3 5 C-2.690625 4.360625 -2.38125 3.72125 -2.0625 3.0625 C-1 1 -1 1 0 0 Z " fill="#FFA32F" transform="translate(217,290)"/>
<path d="M0 0 C1.65625 1.08984375 1.65625 1.08984375 3.90625 3.08984375 C3.24625 3.41984375 2.58625 3.74984375 1.90625 4.08984375 C1.50887258 10.34853805 2.10202877 14.15699193 4.8828125 19.73828125 C6.60288445 23.69050763 7.23393406 27.85248406 7.90625 32.08984375 C7.24625 32.08984375 6.58625 32.08984375 5.90625 32.08984375 C5.74125 32.95609375 5.57625 33.82234375 5.40625 34.71484375 C3.30899122 39.433676 0.1618114 41.35239533 -4.09375 44.08984375 C-5.4240625 45.01796875 -5.4240625 45.01796875 -6.78125 45.96484375 C-12.45658443 47.89231582 -19.49025225 48.64605679 -25.12890625 46.2109375 C-29.62651275 42.72558003 -32.32989947 37.38139534 -34.09375 32.08984375 C-35.02541582 18.67027265 -35.02541582 18.67027265 -31.09375 13.08984375 C-30.6296875 12.37183594 -30.165625 11.65382812 -29.6875 10.9140625 C-23.12203329 1.45297721 -11.57700426 -5.03254103 0 0 Z " fill="#446CA2" transform="translate(150.09375,226.91015625)"/>
<path d="M0 0 C5.54174566 3.04689848 8.56941497 7.80312701 11.6640625 13.18359375 C12.9840625 11.53359375 14.3040625 9.88359375 15.6640625 8.18359375 C15.22274622 11.18454445 14.57810558 13.34834451 13.1640625 16.05859375 C11.46795778 19.10663742 11.46795778 19.10663742 11.4140625 22.49609375 C10.12498627 28.8340519 6.03723712 33.3623202 0.9765625 37.24609375 C-5.0351358 38.9475178 -11.09788822 39.53637878 -16.97265625 37.08203125 C-25.01234656 32.11204088 -28.17365732 24.50410505 -31.1484375 15.80859375 C-32.32578408 13.82941944 -32.32578408 13.82941944 -35.4609375 13.43359375 C-36.8840625 13.30984375 -36.8840625 13.30984375 -38.3359375 13.18359375 C-38.3359375 12.85359375 -38.3359375 12.52359375 -38.3359375 12.18359375 C-37.4284375 11.93609375 -36.5209375 11.68859375 -35.5859375 11.43359375 C-32.23242261 10.14378033 -30.65885514 8.86388333 -28.3359375 6.18359375 C-28.6659375 9.15359375 -28.9959375 12.12359375 -29.3359375 15.18359375 C-28.6759375 13.86359375 -28.0159375 12.54359375 -27.3359375 11.18359375 C-21.3683784 0.84445066 -11.88738166 -4.15462001 0 0 Z " fill="#456DA3" transform="translate(316.3359375,234.81640625)"/>
<path d="M0 0 C3.63 0 7.26 0 11 0 C10 8.57142857 10 8.57142857 9 12 C9.9590625 11.2575 9.9590625 11.2575 10.9375 10.5 C15.05096456 8.48524185 18.49936472 8.16032924 23 9 C25.5625 10.75 25.5625 10.75 27 14 C27.83803106 20.87965036 27.65385876 27.0320307 24 33 C21.44688307 35.85705942 19.59398617 37.7094296 15.75 38.41015625 C12.031335 38.55082943 9.68484779 38.40088651 6.4375 36.5 C5.963125 36.005 5.48875 35.51 5 35 C5 35.99 5 36.98 5 38 C1.37 38 -2.26 38 -6 38 C-5.54880826 30.51021716 -4.56294944 23.61333939 -2.765625 16.3359375 C-1.52737539 10.94070707 -0.76231669 5.47971176 0 0 Z " fill="#466EA3" transform="translate(342,233)"/>
<path d="M0 0 C1.65234375 1.375 1.65234375 1.375 4.02734375 3.875 C-1.76136724 7.73414066 -6.16938049 8.14179513 -12.97265625 7.875 C-12.64265625 8.865 -12.31265625 9.855 -11.97265625 10.875 C-10.18408203 10.93107422 -10.18408203 10.93107422 -8.359375 10.98828125 C-6.79293725 11.05394032 -5.22653241 11.12038768 -3.66015625 11.1875 C-2.87447266 11.21005859 -2.08878906 11.23261719 -1.27929688 11.25585938 C-0.52197266 11.29130859 0.23535156 11.32675781 1.015625 11.36328125 C2.06036987 11.40255737 2.06036987 11.40255737 3.1262207 11.44262695 C5.55870801 11.99584835 6.50368464 12.93208898 8.02734375 14.875 C8.02734375 15.535 8.02734375 16.195 8.02734375 16.875 C8.68734375 16.875 9.34734375 16.875 10.02734375 16.875 C10.33984375 19.0625 10.33984375 19.0625 10.02734375 21.875 C5.67892499 27.31052345 -1.24813024 32.32288511 -8.3125 33.1484375 C-10.94842477 33.25149621 -13.36263904 33.27654111 -15.97265625 32.875 C-18.59765625 30.375 -18.59765625 30.375 -19.97265625 27.875 C-18.66015625 26.375 -18.66015625 26.375 -16.97265625 24.875 C-15.98265625 24.875 -14.99265625 24.875 -13.97265625 24.875 C-13.97265625 24.215 -13.97265625 23.555 -13.97265625 22.875 C-10.67265625 22.875 -7.37265625 22.875 -3.97265625 22.875 C-3.97265625 21.885 -3.97265625 20.895 -3.97265625 19.875 C-4.92527344 19.93300781 -5.87789063 19.99101562 -6.859375 20.05078125 C-17.05701403 20.4176028 -17.05701403 20.4176028 -21.34765625 17.875 C-23.4408384 14.01066372 -23.89663396 11.17236803 -22.97265625 6.875 C-20.81436567 2.99007696 -18.22148102 0.94566491 -14.03125 -0.61328125 C-9.35898706 -1.77469765 -4.31672387 -2.4618148 0 0 Z " fill="#456DA3" transform="translate(394.97265625,238.125)"/>
<path d="M0 0 C1.78806614 1.62551467 2.92233836 2.81694042 3.875 5.0625 C4.8700445 7.24236524 4.8700445 7.24236524 7.4375 7.9375 C10.72352143 9.29999669 11.49969786 10.84146919 13 14 C13 14.66 13 15.32 13 16 C14.32 15.67 15.64 15.34 17 15 C16.855625 14.443125 16.71125 13.88625 16.5625 13.3125 C15.97230872 10.88615805 15.476571 8.45093655 15 6 C15.66 6 16.32 6 17 6 C22 11.35714286 22 11.35714286 22 15 C22.99 15.33 23.98 15.66 25 16 C28 19.44444444 28 19.44444444 28 22 C28.66 22 29.32 22 30 22 C29.67 21.34 29.34 20.68 29 20 C28.86584528 17.3276379 28.95681459 14.67749512 29 12 C30.98 12 32.96 12 35 12 C35.2475 12.804375 35.495 13.60875 35.75 14.4375 C36.71749527 17.14451824 36.71749527 17.14451824 39 17.8125 C40.9970831 18.03111357 40.9970831 18.03111357 43 18 C44.7265625 20.3359375 44.7265625 20.3359375 46.625 23.375 C47.25664062 24.37273437 47.88828125 25.37046875 48.5390625 26.3984375 C50 29 50 29 50 31 C47.3125 31.4375 47.3125 31.4375 44 31 C40.81678643 27.868546 38.97888849 23.95777698 37 20 C37.66 23.63 38.32 27.26 39 31 C29.70652174 31.48913043 29.70652174 31.48913043 26.5625 29.3125 C25.51406412 27.7608149 24.51379529 26.17556593 23.5625 24.5625 C21.74076607 21.57485635 19.53373757 19.39677879 17 17 C17.41572266 18.01320312 17.41572266 18.01320312 17.83984375 19.046875 C18.20207031 19.93890625 18.56429687 20.8309375 18.9375 21.75 C19.29714844 22.63171875 19.65679687 23.5134375 20.02734375 24.421875 C21 27 21 27 22 31 C19.03 31 16.06 31 13 31 C9.29157976 23.76604052 5.73775311 16.66570871 3 9 C2.443125 7.906875 1.88625 6.81375 1.3125 5.6875 C0 3 0 3 0 0 Z " fill="#19346E" transform="translate(160,234)"/>
<path d="M0 0 C3.63 0 7.26 0 11 0 C11 1.98 11 3.96 11 6 C11.47050781 5.566875 11.94101563 5.13375 12.42578125 4.6875 C13.04839844 4.130625 13.67101562 3.57375 14.3125 3 C14.92738281 2.443125 15.54226562 1.88625 16.17578125 1.3125 C18 0 18 0 21 0 C21 4.29 21 8.58 21 13 C18.94921875 13.48828125 16.8984375 13.9765625 14.84765625 14.46484375 C13.00030102 14.83887569 13.00030102 14.83887569 12 16 C11.84379445 17.41327947 11.74943827 18.8335459 11.68359375 20.25390625 C11.64169922 21.10791016 11.59980469 21.96191406 11.55664062 22.84179688 C11.51732422 23.73962891 11.47800781 24.63746094 11.4375 25.5625 C11.39431641 26.46419922 11.35113281 27.36589844 11.30664062 28.29492188 C11.20022016 30.52975156 11.09957519 32.76485486 11 35 C7.37 35 3.74 35 0 35 C0 23.45 0 11.9 0 0 Z " fill="#466DA3" transform="translate(238,236)"/>
<path d="M0 0 C3.63 0 7.26 0 11 0 C11.41083556 5.66366165 11.73686192 11.3275559 12 17 C12.0633252 18.32233643 12.0633252 18.32233643 12.12792969 19.67138672 C12.24101729 22.34344367 12.31349009 25.01380297 12.375 27.6875 C12.41302734 28.5237793 12.45105469 29.36005859 12.49023438 30.22167969 C12.54783544 34.41131014 12.34780623 37.1280213 9.6640625 40.45703125 C4.94352483 44.96299903 4.94352483 44.96299903 0.8125 45.125 C-0.115625 45.08375 -1.04375 45.0425 -2 45 C-2 42.03 -2 39.06 -2 36 C-1.01 36 -0.02 36 1 36 C0.9278125 34.90945313 0.855625 33.81890625 0.78125 32.6953125 C0.09686674 21.78177834 -0.11631071 10.93320695 0 0 Z " fill="#476FA4" transform="translate(264,236)"/>
<path d="M0 0 C2.27076842 -0.02699725 4.54162821 -0.04639453 6.8125 -0.0625 C8.07707031 -0.07410156 9.34164062 -0.08570313 10.64453125 -0.09765625 C14 0 14 0 17 1 C17 1.99 17 2.98 17 4 C18.093125 4.12375 19.18625 4.2475 20.3125 4.375 C21.03695312 4.47167969 21.76140625 4.56835938 22.5078125 4.66796875 C24.27041885 4.90279875 26.03664489 5.11117222 27.8046875 5.30078125 C36.12050347 6.41631754 36.12050347 6.41631754 39.0625 9.75 C41.80076992 14.34322697 43 17.64061164 43 23 C40.13275314 22.42655063 39.1385485 22.1385485 37 20 C37 18.68 37 17.36 37 16 C35.02 16 33.04 16 31 16 C31.33 19.3 31.66 22.6 32 26 C31.34 26 30.68 26 30 26 C28.64721885 24.01310269 27.31431695 22.01254782 26 20 C25.34 19.67 24.68 19.34 24 19 C22.11858921 16.09949171 20.49905891 13.11343005 19 10 C18.34 10 17.68 10 17 10 C17.7734375 11.36125 17.7734375 11.36125 18.5625 12.75 C20 16 20 16 19.6875 18.375 C19.3471875 19.179375 19.3471875 19.179375 19 20 C17.68 20 16.36 20 15 20 C14.443125 18.88625 13.88625 17.7725 13.3125 16.625 C11.33480753 13.11845306 9.79442895 12.3621027 6 11 C4.94895617 9.36504293 3.94011682 7.70116376 3 6 C2.34 6 1.68 6 1 6 C0.67 4.02 0.34 2.04 0 0 Z " fill="#284378" transform="translate(158,230)"/>
<path d="M0 0 C-0.99 0.495 -0.99 0.495 -2 1 C-1.40362909 2.58628608 -0.79754075 4.16892059 -0.1875 5.75 C0.14894531 6.63171875 0.48539063 7.5134375 0.83203125 8.421875 C1.97377878 10.94212039 3.32903053 12.81246739 5 15 C5.74780522 16.91828296 6.49020501 18.83966448 7.1640625 20.78515625 C8.06053894 23.16039991 9.17303669 25.3575445 10.3125 27.625 C11.79007126 30.88352216 12.05283471 31.71469254 11.375 35.375 C10 38 10 38 8 41 C16.91 40.67 25.82 40.34 35 40 C34.505 40.99 34.505 40.99 34 42 C31.13256836 42.41064453 31.13256836 42.41064453 27.33984375 42.6328125 C26.67537735 42.67437469 26.01091095 42.71593689 25.3263092 42.75875854 C23.19713888 42.88985319 21.067463 43.00756083 18.9375 43.125 C17.49669187 43.21136116 16.05593543 43.29858945 14.61523438 43.38671875 C11.07736829 43.60122308 7.5389295 43.80372589 4 44 C3.19975975 42.42161725 2.40208291 40.8419347 1.60546875 39.26171875 C1.16098389 38.38217529 0.71649902 37.50263184 0.25854492 36.59643555 C-2.50134994 30.90264664 -4.26460551 25.07388073 -6 19 C-6.56105762 17.70770616 -7.12361661 16.41606334 -7.6875 15.125 C-9.36352693 10.76903153 -9.46132508 6.45796638 -8 2 C-4.77208445 -0.1519437 -3.71599191 -0.20086443 0 0 Z " fill="#485996" transform="translate(160,229)"/>
<path d="M0 0 C3.79267614 1.26422538 5.81636499 2.02362423 8.375 5.125 C9.33967181 9.6521879 8.95134521 13.06097807 6.75 17.125 C3.81665313 19.59518684 2.19667321 20.04856654 -1.625 20.125 C-4.90143466 19.41831802 -6.96512865 18.6968885 -9.5 16.5 C-11.1652689 12.98443233 -11.61727206 9.85851285 -10.625 6.125 C-7.74469501 2.02120262 -5.02491503 0.17327293 0 0 Z " fill="#426BA1" transform="translate(269.625,211.875)"/>
<path d="M0 0 C0.33 0 0.66 0 1 0 C1.48519151 5.49236794 -0.68224982 7.90115734 -4.08984375 11.97265625 C-8.23479642 16.3719005 -11.93680753 17.2054959 -17.8125 17.5625 C-24.23483229 17.38698284 -28.39813759 15.44652529 -33 11 C-34.87036161 8.65462592 -35.82897208 6.82111271 -37 4 C-36.67 3.01 -36.34 2.02 -36 1 C-35.44570313 1.42152344 -34.89140625 1.84304688 -34.3203125 2.27734375 C-33.59585937 2.82519531 -32.87140625 3.37304688 -32.125 3.9375 C-31.40570313 4.48277344 -30.68640625 5.02804687 -29.9453125 5.58984375 C-25.29992169 8.95728568 -20.56387751 8.6250776 -15 8 C-9.37154438 6.2686817 -4.03690488 4.41213001 0 0 Z " fill="#446CA1" transform="translate(326,256)"/>
<path d="M0 0 C4.16899143 0.31583268 6.84353641 1.95561556 10.0625 4.625 C11.48291821 7.46583641 11.37702272 9.47977278 11.0625 12.625 C8.83979977 15.61377652 7.64346464 16.52635931 3.93359375 17.15625 C2.80050781 17.1459375 1.66742188 17.135625 0.5 17.125 C-0.63566406 17.1353125 -1.77132813 17.145625 -2.94140625 17.15625 C-5.9375 16.625 -5.9375 16.625 -7.80859375 14.7734375 C-9.39650364 11.75146366 -9.47777864 10.00174148 -8.9375 6.625 C-6.33864555 2.23943311 -5.09763957 0.80914914 0 0 Z " fill="#F7F7F8" transform="translate(306.9375,243.375)"/>
<path d="M0 0 C1.10844919 3.32534757 0.84454356 5.62182575 0 9 C7.43234842 15.68911358 13.48115363 18.88032764 23.75 18.5 C30.36864877 17.48174634 34.93348095 14.49766331 39.171875 9.375 C40.88366114 6.96480512 42.48539175 4.5377211 44 2 C45 5 45 5 43.92578125 7.55859375 C43.39339844 8.50863281 42.86101562 9.45867187 42.3125 10.4375 C41.79300781 11.38496094 41.27351563 12.33242187 40.73828125 13.30859375 C36.46503192 19.92492811 31.46168512 22.07878588 24 24 C17.92758317 24.98291521 13.39626436 24.69135837 8.125 21.375 C3.89336605 18.16531701 0.09480227 14.70051227 -1.9375 9.6875 C-2.96220911 7.62430069 -2.96220911 7.62430069 -6.125 7.25 C-7.07375 7.1675 -8.0225 7.085 -9 7 C-9 6.67 -9 6.34 -9 6 C-8.071875 5.7525 -7.14375 5.505 -6.1875 5.25 C-2.83541675 3.93545755 -1.8122197 3.02036616 0 0 Z " fill="#DD861B" transform="translate(287,241)"/>
<path d="M0 0 C1.78806614 1.62551467 2.92233836 2.81694042 3.875 5.0625 C4.8700445 7.24236524 4.8700445 7.24236524 7.4375 7.9375 C10.72352143 9.29999669 11.49969786 10.84146919 13 14 C13 14.66 13 15.32 13 16 C14.32 15.67 15.64 15.34 17 15 C16.855625 14.443125 16.71125 13.88625 16.5625 13.3125 C15.97230872 10.88615805 15.476571 8.45093655 15 6 C15.66 6 16.32 6 17 6 C19.1875 8.1875 19.1875 8.1875 21 11 C20.875 13.75 20.875 13.75 20 16 C19.34 16.33 18.68 16.66 18 17 C18.51636796 21.44076448 19.65792413 24.23231273 22 28 C22 28.99 22 29.98 22 31 C19.03 31 16.06 31 13 31 C9.29157976 23.76604052 5.73775311 16.66570871 3 9 C2.443125 7.906875 1.88625 6.81375 1.3125 5.6875 C0 3 0 3 0 0 Z " fill="#16326E" transform="translate(160,234)"/>
<path d="M0 0 C2.27076842 -0.02699725 4.54162821 -0.04639453 6.8125 -0.0625 C8.07707031 -0.07410156 9.34164062 -0.08570313 10.64453125 -0.09765625 C14 0 14 0 17 1 C17 1.66 17 2.32 17 3 C15.68 3 14.36 3 13 3 C13.8971875 3.99 13.8971875 3.99 14.8125 5 C17.31000861 8.42515467 19.11333459 11.83184392 20 16 C19.57421875 18.24609375 19.57421875 18.24609375 19 20 C17.68 20 16.36 20 15 20 C14.443125 18.88625 13.88625 17.7725 13.3125 16.625 C11.33480753 13.11845306 9.79442895 12.3621027 6 11 C4.94895617 9.36504293 3.94011682 7.70116376 3 6 C2.34 6 1.68 6 1 6 C0.67 4.02 0.34 2.04 0 0 Z " fill="#233C71" transform="translate(158,230)"/>
<path d="M0 0 C0.33 0 0.66 0 1 0 C1.11162201 6.33268845 0.68414166 12.51231608 0.0625 18.8125 C-0.06801758 20.22305664 -0.06801758 20.22305664 -0.20117188 21.66210938 C-0.87228842 28.61686525 -0.87228842 28.61686525 -2 32 C-2.09185751 33.45741472 -2.13066657 34.9186012 -2.1328125 36.37890625 C-2.13410156 37.21744141 -2.13539062 38.05597656 -2.13671875 38.91992188 C-2.13285156 39.79197266 -2.12898438 40.66402344 -2.125 41.5625 C-2.12886719 42.43841797 -2.13273437 43.31433594 -2.13671875 44.21679688 C-2.13542969 45.05404297 -2.13414063 45.89128906 -2.1328125 46.75390625 C-2.13168457 47.52033447 -2.13055664 48.2867627 -2.12939453 49.07641602 C-2.11868694 51.08443868 -2.11868694 51.08443868 -1 53 C-0.84733388 54.73868744 -0.75067404 56.48247501 -0.68359375 58.2265625 C-0.64169922 59.2578125 -0.59980469 60.2890625 -0.55664062 61.3515625 C-0.51732422 62.43179688 -0.47800781 63.51203125 -0.4375 64.625 C-0.39431641 65.71296875 -0.35113281 66.8009375 -0.30664062 67.921875 C-0.2003547 70.6144517 -0.09831943 73.30712253 0 76 C0.66 76 1.32 76 2 76 C2 78.97 2 81.94 2 85 C1.67 85 1.34 85 1 85 C0.53676507 83.23044256 0.07975792 81.45925488 -0.375 79.6875 C-0.63023438 78.70136719 -0.88546875 77.71523438 -1.1484375 76.69921875 C-1.42945312 75.47847656 -1.71046875 74.25773437 -2 73 C-2.26574829 71.94679565 -2.26574829 71.94679565 -2.53686523 70.87231445 C-4.52118405 61.89622654 -4.33681217 52.82256166 -4.31567383 43.67749023 C-4.31252607 40.83603066 -4.33599205 37.99562751 -4.36132812 35.15429688 C-4.40201723 23.14577866 -3.83230325 11.49690975 0 0 Z " fill="#FFDDB6" transform="translate(94,215)"/>
<path d="M0 0 C1.27875 0.28875 2.5575 0.5775 3.875 0.875 C8.90171927 1.99382464 13.94685368 3.0083596 19 4 C18.01 4.495 18.01 4.495 17 5 C17.33 7.97 17.66 10.94 18 14 C10.54062751 13.38857603 10.54062751 13.38857603 8 11.5625 C7 10 7 10 7 8 C6.34 8 5.68 8 5 8 C3.7109375 6.25 3.7109375 6.25 2.375 4 C1.92898437 3.2575 1.48296875 2.515 1.0234375 1.75 C0.68570313 1.1725 0.34796875 0.595 0 0 Z " fill="#5579AB" transform="translate(170,232)"/>
<path d="M0 0 C0 1.32 0 2.64 0 4 C-0.83144531 4.24234375 -1.66289062 4.4846875 -2.51953125 4.734375 C-3.60621094 5.06953125 -4.69289062 5.4046875 -5.8125 5.75 C-6.89144531 6.07484375 -7.97039062 6.3996875 -9.08203125 6.734375 C-12.23444486 8.10168693 -13.12549228 9.22273856 -15 12 C-17.5625 12.4375 -17.5625 12.4375 -20 12 C-22 9 -22 9 -22 6 C-19.27411167 4.99018911 -16.54487736 3.99196692 -13.8125 3 C-13.04357422 2.71382812 -12.27464844 2.42765625 -11.48242188 2.1328125 C-7.54177643 0.71215062 -4.25848319 -0.40963365 0 0 Z " fill="#E1E8F0" transform="translate(155,248)"/>
<path d="M0 0 C3.12686438 2.08457625 3.94758169 3.28141237 5.6875 6.5 C6.34298828 7.69109375 6.34298828 7.69109375 7.01171875 8.90625 C8 11 8 11 8 13 C9.65 13 11.3 13 13 13 C12.01 14.485 12.01 14.485 11 16 C10.01 16 9.02 16 8 16 C8 16.66 8 17.32 8 18 C4.7 18 1.4 18 -2 18 C-1.67 17.01 -1.34 16.02 -1 15 C-3.31 14.67 -5.62 14.34 -8 14 C-8 13.67 -8 13.34 -8 13 C-4.7 12.67 -1.4 12.34 2 12 C1.34 8.04 0.68 4.08 0 0 Z " fill="#4C75A8" transform="translate(196,253)"/>
<path d="M0 0 C2 2 2 2 2 3 C3.58323688 3.027193 5.16661062 3.04648306 6.75 3.0625 C7.63171875 3.07410156 8.5134375 3.08570313 9.421875 3.09765625 C11.97178948 3.08955644 11.97178948 3.08955644 14.265625 2.43359375 C14.83796875 2.29050781 15.4103125 2.14742188 16 2 C16.33 2.33 16.66 2.66 17 3 C18.34747084 3.23075082 19.70377565 3.41153063 21.0625 3.5625 C22.361875 3.706875 23.66125 3.85125 25 4 C24.67 4.66 24.34 5.32 24 6 C21.45556641 6.42651367 21.45556641 6.42651367 18.1015625 6.66796875 C16.90015625 6.75626953 15.69875 6.84457031 14.4609375 6.93554688 C13.19507813 7.01869141 11.92921875 7.10183594 10.625 7.1875 C9.366875 7.28224609 8.10875 7.37699219 6.8125 7.47460938 C-2.59662829 8.13445724 -2.59662829 8.13445724 -6 7 C-5.195625 6.401875 -4.39125 5.80375 -3.5625 5.1875 C-0.77672016 3.19052724 -0.77672016 3.19052724 0 0 Z " fill="#44699E" transform="translate(171,263)"/>
<path d="M0 0 C6 5 6 5 7 7 C7.07033769 8.87379605 7.0843022 10.75001102 7.0625 12.625 C7.05347656 13.62789062 7.04445312 14.63078125 7.03515625 15.6640625 C7.02355469 16.43492187 7.01195312 17.20578125 7 18 C5.02 18 3.04 18 1 18 C0.67 12.06 0.34 6.12 0 0 Z " fill="#43699D" transform="translate(227,237)"/>
<path d="M0 0 C2 3 2 3 3 5 C3.33 4.34 3.66 3.68 4 3 C5.64363134 2.27840576 7.31050386 1.60648579 9 1 C8.49396008 3.16874252 8.00016187 4.99967627 7 7 C15.91 6.67 24.82 6.34 34 6 C33.67 6.66 33.34 7.32 33 8 C30.13256836 8.41064453 30.13256836 8.41064453 26.33984375 8.6328125 C25.34314415 8.69515579 25.34314415 8.69515579 24.3263092 8.75875854 C22.19713888 8.88985319 20.067463 9.00756083 17.9375 9.125 C16.49669187 9.21136116 15.05593543 9.29858945 13.61523438 9.38671875 C10.07736829 9.60122308 6.5389295 9.80372589 3 10 C0.96564469 6.27034861 0 4.33094958 0 0 Z " fill="#42608D" transform="translate(161,263)"/>
<path d="M0 0 C4.55555556 0.55555556 4.55555556 0.55555556 6 2 C6.45691383 7.25450902 6.45691383 7.25450902 4.8125 9.9375 C3 11 3 11 0.375 10.75 C-2 10 -2 10 -3 9 C-2.4 2.4 -2.4 2.4 0 0 Z " fill="#F4F6F9" transform="translate(352,251)"/>
<path d="M0 0 C0.33 0.66 0.66 1.32 1 2 C1.99 2.33 2.98 2.66 4 3 C3.195625 3.61875 2.39125 4.2375 1.5625 4.875 C-1.03874519 6.74164041 -1.03874519 6.74164041 -2 9 C-2.66 9 -3.32 9 -4 9 C-4.20625 9.556875 -4.4125 10.11375 -4.625 10.6875 C-6.57076492 13.95992282 -8.90407743 15.81464289 -12 18 C-14.875 18.3125 -14.875 18.3125 -17 18 C-14.48447239 15.37965874 -11.84081226 13.01939157 -9.0625 10.6875 C-5.32740044 7.46204954 -2.6929234 4.12353896 0 0 Z " fill="#FFEDD6" transform="translate(216,286)"/>
<path d="M0 0 C3.47931145 -0.31630104 5.42283191 -0.35518036 8.4375 1.5 C10.78829768 5.26127628 9.85594505 7.72027476 9 12 C7.02 12.33 5.04 12.66 3 13 C3.185625 12.2575 3.37125 11.515 3.5625 10.75 C4.00102787 7.99353908 3.7007894 6.62796027 3 4 C3.33 3.01 3.66 2.02 4 1 C2.68 0.67 1.36 0.34 0 0 Z " fill="#FBEDDC" transform="translate(327,237)"/>
<path d="M0 0 C1.65 0 3.3 0 5 0 C8.07692308 5.41538462 8.07692308 5.41538462 7.6875 8.375 C7.460625 8.91125 7.23375 9.4475 7 10 C3 10 3 10 1.25 8.375 C-0.30380397 5.42277246 -0.22432841 3.29014997 0 0 Z " fill="#C06C19" transform="translate(170,240)"/>
<path d="M0 0 C1.1446875 0.3403125 1.1446875 0.3403125 2.3125 0.6875 C2.6425 2.0075 2.9725 3.3275 3.3125 4.6875 C-3.3125 7.6875 -3.3125 7.6875 -6.6875 7.6875 C-6.32553085 5.00892828 -5.94762724 3.07769086 -4.4375 0.8125 C-2.6875 -0.3125 -2.6875 -0.3125 0 0 Z " fill="#E6EBF2" transform="translate(138.6875,240.3125)"/>
<path d="M0 0 C3.57770698 6.67437773 4.27166506 13.52921098 4 21 C4.66 21 5.32 21 6 21 C6 23.97 6 26.94 6 30 C5.67 30 5.34 30 5 30 C-0.41413374 9.31800912 -0.41413374 9.31800912 0 0 Z " fill="#FFCB8E" transform="translate(90,270)"/>
<path d="M0 0 C0.66 0.33 1.32 0.66 2 1 C1.649375 1.515625 1.29875 2.03125 0.9375 2.5625 C-0.37775245 5.98215636 0.31325375 8.4414058 1 12 C1.185625 12.969375 1.37125 13.93875 1.5625 14.9375 C1.706875 15.618125 1.85125 16.29875 2 17 C1.01 16.67 0.02 16.34 -1 16 C-3.43919536 11.12160927 -3.35904875 6.2060335 -2 1 C-1.34 0.67 -0.68 0.34 0 0 Z " fill="#375185" transform="translate(154,230)"/>
<path d="M0 0 C2 2 2 2 2 6 C2.66 6 3.32 6 4 6 C4.06058594 6.62648437 4.12117188 7.25296875 4.18359375 7.8984375 C4.26738281 8.71570313 4.35117187 9.53296875 4.4375 10.375 C4.55931641 11.59316406 4.55931641 11.59316406 4.68359375 12.8359375 C4.89090114 15.04272805 4.89090114 15.04272805 6 17 C6.039992 18.99960012 6.04346799 21.00047242 6 23 C2.14285345 15.55286857 0.50549371 8.34936165 0 0 Z " fill="#FFB55D" transform="translate(409,210)"/>
<path d="M0 0 C0.66 0 1.32 0 2 0 C4.1875 2.1875 4.1875 2.1875 6 5 C5.875 7.75 5.875 7.75 5 10 C2.29120665 11.35439668 -0.00933268 11.06501451 -3 11 C-3.33 9.68 -3.66 8.36 -4 7 C-3.01 7.495 -3.01 7.495 -2 8 C-2 8.66 -2 9.32 -2 10 C-0.68 9.67 0.64 9.34 2 9 C1.855625 8.443125 1.71125 7.88625 1.5625 7.3125 C0.97230872 4.88615805 0.476571 2.45093655 0 0 Z " fill="#283653" transform="translate(175,240)"/>
<path d="M0 0 C1.32 0 2.64 0 4 0 C5.76462683 3.08809695 6 4.23312136 6 8 C3.13275314 7.42655063 2.1385485 7.1385485 0 5 C-0.125 2.375 -0.125 2.375 0 0 Z " fill="#AA5D13" transform="translate(195,245)"/>
<path d="M0 0 C0.99 0 1.98 0 3 0 C3 1.65 3 3.3 3 5 C3.66 5 4.32 5 5 5 C4.34 7.31 3.68 9.62 3 12 C2.01 12 1.02 12 0 12 C0.33 9.69 0.66 7.38 1 5 C0.67 5 0.34 5 0 5 C0 3.35 0 1.7 0 0 Z " fill="#F1E6D9" transform="translate(286,238)"/>
<path d="M0 0 C-1.98 0.66 -3.96 1.32 -6 2 C-6 2.33 -6 2.66 -6 3 C-12.0546875 3.1953125 -12.0546875 3.1953125 -14 3 C-14.66 2.34 -15.32 1.68 -16 1 C-13.63780647 -0.18109676 -11.74989148 -0.35238516 -9.125 -0.625 C-8.26132812 -0.72039062 -7.39765625 -0.81578125 -6.5078125 -0.9140625 C-4.09358507 -0.99679303 -2.29257465 -0.71443024 0 0 Z " fill="#EB8606" transform="translate(316,261)"/>
<path d="M0 0 C1.78806614 1.62551467 2.92233836 2.81694042 3.875 5.0625 C5.41329016 7.71177751 7.15111923 8.10035344 10 9 C9.67 9.99 9.34 10.98 9 12 C5.09965772 10.73502412 3.01438022 9.62588439 1 6 C0.3125 2.75 0.3125 2.75 0 0 Z " fill="#131E3C" transform="translate(160,234)"/>
<path d="M0 0 C1 3 1 3 0.00390625 5.48046875 C-0.47175781 6.37378906 -0.94742187 7.26710937 -1.4375 8.1875 C-2.14712891 9.53908203 -2.14712891 9.53908203 -2.87109375 10.91796875 C-3.24363281 11.60503906 -3.61617188 12.29210937 -4 13 C-7 13 -7 13 -10 12 C-8.9171875 11.2575 -8.9171875 11.2575 -7.8125 10.5 C-4.34111489 7.41432434 -2.2836532 4.00368136 0 0 Z " fill="#E6922E" transform="translate(331,243)"/>
<path d="M0 0 C3.34998521 1.11666174 3.79340222 1.74694925 5.6875 4.5625 C6.12449219 5.20316406 6.56148437 5.84382813 7.01171875 6.50390625 C7.33785156 6.99761719 7.66398438 7.49132812 8 8 C6.68 8 5.36 8 4 8 C3.67 8.66 3.34 9.32 3 10 C0 3.375 0 3.375 0 0 Z " fill="#4068A1" transform="translate(177,251)"/>
<path d="M0 0 C0 0.66 0 1.32 0 2 C-0.68707031 2.10957031 -1.37414062 2.21914062 -2.08203125 2.33203125 C-2.98308594 2.49058594 -3.88414062 2.64914063 -4.8125 2.8125 C-5.70582031 2.96332031 -6.59914063 3.11414063 -7.51953125 3.26953125 C-10.18321256 4.05395393 -11.25690322 4.88627799 -13 7 C-12.68087403 4.02149096 -11.93832742 2.93288572 -9.875 0.6875 C-6.15078417 -1.49845277 -4.11378579 -0.9679496 0 0 Z " fill="#4C73A7" transform="translate(273,213)"/>
<path d="M0 0 C0.66 0.33 1.32 0.66 2 1 C1.01 1.33 0.02 1.66 -1 2 C-1 2.66 -1 3.32 -1 4 C-2.95513161 4.696553 -4.91422476 5.38199565 -6.875 6.0625 C-7.96554687 6.44535156 -9.05609375 6.82820313 -10.1796875 7.22265625 C-13 8 -13 8 -15 7 C-13.75539217 6.32332002 -12.50403104 5.65905281 -11.25 5 C-10.20585937 4.443125 -10.20585937 4.443125 -9.140625 3.875 C-7 3 -7 3 -3 3 C-3 2.34 -3 1.68 -3 1 C-2.01 0.67 -1.02 0.34 0 0 Z " fill="#FFB660" transform="translate(321,409)"/>
<path d="M0 0 C1.65 0 3.3 0 5 0 C5.5625 1.9375 5.5625 1.9375 6 4 C5.67 4.33 5.34 4.66 5 5 C2.66055264 4.71269945 0.3260857 4.38063221 -2 4 C-1.34 2.68 -0.68 1.36 0 0 Z " fill="#D8E1EC" transform="translate(386,257)"/>
<path d="M0 0 C5.47826087 -0.36521739 5.47826087 -0.36521739 7.875 1.3125 C9 3 9 3 9 6 C2.35384615 4.52307692 2.35384615 4.52307692 0.5625 1.875 C0.376875 1.25625 0.19125 0.6375 0 0 Z " fill="#E8880F" transform="translate(290,256)"/>
<path d="M0 0 C2.97 0.495 2.97 0.495 6 1 C6.33 3.64 6.66 6.28 7 9 C6.34 9 5.68 9 5 9 C3.7109375 7.5390625 3.7109375 7.5390625 2.375 5.625 C1.92898437 4.99851563 1.48296875 4.37203125 1.0234375 3.7265625 C0 2 0 2 0 0 Z " fill="#4771A8" transform="translate(183,247)"/>
<path d="M0 0 C0 1.32 0 2.64 0 4 C-1.98 4.33 -3.96 4.66 -6 5 C-6 4.34 -6 3.68 -6 3 C-7.32 2.67 -8.64 2.34 -10 2 C-6.49223216 0.39644899 -3.85645121 -0.22036864 0 0 Z " fill="#D8E0EB" transform="translate(155,248)"/>
<path d="M0 0 C2.64 0.33 5.28 0.66 8 1 C8 1.99 8 2.98 8 4 C4.7 4 1.4 4 -2 4 C-1.34 2.68 -0.68 1.36 0 0 Z " fill="#5A759D" transform="translate(196,267)"/>
<path d="M0 0 C2 3 2 3 3 5 C3.33 4.34 3.66 3.68 4 3 C5.64363134 2.27840576 7.31050386 1.60648579 9 1 C8.8125 2.8125 8.8125 2.8125 8 5 C5.5625 6.8125 5.5625 6.8125 3 8 C2.34 7.67 1.68 7.34 1 7 C0.59270772 4.67843403 0.25561323 2.3431213 0 0 Z " fill="#3A5086" transform="translate(161,263)"/>
<path d="M0 0 C4.29 0.33 8.58 0.66 13 1 C13 1.33 13 1.66 13 2 C12.34773438 2.06058594 11.69546875 2.12117188 11.0234375 2.18359375 C10.14945312 2.26738281 9.27546875 2.35117187 8.375 2.4375 C7.00794922 2.56705078 7.00794922 2.56705078 5.61328125 2.69921875 C2.84579692 2.97359249 2.84579692 2.97359249 -0.4375 3.75 C-3 4 -3 4 -4.875 2.5625 C-5.431875 1.7890625 -5.431875 1.7890625 -6 1 C-4.35 1 -2.7 1 -1 1 C-0.67 1.66 -0.34 2.32 0 3 C0 2.01 0 1.02 0 0 Z " fill="#E19330" transform="translate(299,259)"/>
<path d="M0 0 C0.33 0 0.66 0 1 0 C1 2.64 1 5.28 1 8 C0.34 8 -0.32 8 -1 8 C-1.04898437 8.61488281 -1.09796875 9.22976563 -1.1484375 9.86328125 C-1.22320312 10.67152344 -1.29796875 11.47976563 -1.375 12.3125 C-1.44460938 13.11300781 -1.51421875 13.91351563 -1.5859375 14.73828125 C-2 17 -2 17 -4 20 C-3.13411482 13.21723277 -1.67513028 6.62573852 0 0 Z " fill="#FFBA68" transform="translate(412,287)"/>
<path d="M0 0 C3.51903714 -0.31991247 5.42015168 -0.37169764 8.4375 1.5625 C10 4 10 4 9.75 7.75 C9.5025 8.8225 9.255 9.895 9 11 C8.67 11 8.34 11 8 11 C7.979375 9.906875 7.95875 8.81375 7.9375 7.6875 C7.43885957 4.04267663 7.43885957 4.04267663 5.375 2.8671875 C3.21776965 1.93575266 3.21776965 1.93575266 0 1 C0 0.67 0 0.34 0 0 Z " fill="#E8973A" transform="translate(327,237)"/>
<path d="M0 0 C3.43022354 2.46272459 5.27472607 3.79341119 6 8 C6.66 8.33 7.32 8.66 8 9 C7.67 9.99 7.34 10.98 7 12 C7 11.34 7 10.68 7 10 C6.01 9.67 5.02 9.34 4 9 C3.66666667 7.66666667 3.33333333 6.33333333 3 5 C2.01 4.67 1.02 4.34 0 4 C0 2.68 0 1.36 0 0 Z " fill="#FFC683" transform="translate(115,346)"/>
<path d="M0 0 C1.65 0 3.3 0 5 0 C5 1.65 5 3.3 5 5 C3.35 4.67 1.7 4.34 0 4 C0 2.68 0 1.36 0 0 Z " fill="#E4E8ED" transform="translate(211,255)"/>
<path d="M0 0 C1.98 0 3.96 0 6 0 C6 0.33 6 0.66 6 1 C7.65 1.33 9.3 1.66 11 2 C11 2.33 11 2.66 11 3 C7.04 3 3.08 3 -1 3 C-0.67 2.01 -0.34 1.02 0 0 Z " fill="#EEF2F6" transform="translate(385,246)"/>
<path d="M0 0 C0.33 0 0.66 0 1 0 C1.05451714 2.04136395 1.09302485 4.08315856 1.125 6.125 C1.14820313 7.26195312 1.17140625 8.39890625 1.1953125 9.5703125 C0.99672109 13.05757767 0.2524801 15.7553862 -1 19 C-1.33 19 -1.66 19 -2 19 C-2 16.36 -2 13.72 -2 11 C-1.34 11 -0.68 11 0 11 C0 7.37 0 3.74 0 0 Z " fill="#E6EBF2" transform="translate(236,236)"/>
<path d="M0 0 C4.95 0.99 4.95 0.99 10 2 C10.33 2.99 10.66 3.98 11 5 C13.01508358 5.73323796 13.01508358 5.73323796 15 6 C14.01 6.495 14.01 6.495 13 7 C10.75689987 6.10333658 8.55245679 5.10853317 6.375 4.0625 C5.18648438 3.49660156 3.99796875 2.93070312 2.7734375 2.34765625 C1.85820312 1.90292969 0.94296875 1.45820312 0 1 C0 0.67 0 0.34 0 0 Z " fill="#FFB258" transform="translate(305,95)"/>
<path d="M0 0 C4.96916636 0.51405169 9.29026351 1.23384882 14 3 C10.16455058 4.38076179 6.92847503 3.85712183 3 3 C1.0625 1.4375 1.0625 1.4375 0 0 Z " fill="#FFC27B" transform="translate(201,417)"/>
<path d="M0 0 C1.65 0 3.3 0 5 0 C3.68 2.31 2.36 4.62 1 7 C0.34 7 -0.32 7 -1 7 C-0.67 4.69 -0.34 2.38 0 0 Z " fill="#547199" transform="translate(227,259)"/>
<path d="M0 0 C0.93065133 2.60582371 1.14917407 3.64198224 0.0625 6.25 C-0.288125 6.8275 -0.63875 7.405 -1 8 C-3.64 7.67 -6.28 7.34 -9 7 C-9 6.67 -9 6.34 -9 6 C-8.071875 5.7525 -7.14375 5.505 -6.1875 5.25 C-2.83541675 3.93545755 -1.8122197 3.02036616 0 0 Z " fill="#E68E28" transform="translate(287,241)"/>
<path d="M0 0 C1 2 1 2 0.51171875 4.12890625 C0.23972656 4.93199219 -0.03226562 5.73507813 -0.3125 6.5625 C-0.57675781 7.36816406 -0.84101562 8.17382812 -1.11328125 9.00390625 C-2 11 -2 11 -4 12 C-3.33501617 7.61110675 -1.81242323 4.0188515 0 0 Z " fill="#FFC887" transform="translate(106,181)"/>
<path d="M0 0 C1.32 0 2.64 0 4 0 C4 0.99 4 1.98 4 3 C2.02 3.33 0.04 3.66 -2 4 C-1.34 2.68 -0.68 1.36 0 0 Z " fill="#F0F3F7" transform="translate(145,251)"/>
<path d="M0 0 C2.125 0.375 2.125 0.375 4 1 C2.824375 1.86625 2.824375 1.86625 1.625 2.75 C-0.80047244 4.82897637 -1.85694417 6.09040333 -3 9 C-2.25 2.25 -2.25 2.25 0 0 Z " fill="#D3DCE9" transform="translate(352,251)"/>
<path d="M0 0 C0.99 0 1.98 0 3 0 C3 1.65 3 3.3 3 5 C1.68 5 0.36 5 -1 5 C-0.67 3.35 -0.34 1.7 0 0 Z " fill="#DDDAD7" transform="translate(214,246)"/>
<path d="M0 0 C1.65 0 3.3 0 5 0 C4.01 0.495 4.01 0.495 3 1 C3 2.65 3 4.3 3 6 C1.68 5.67 0.36 5.34 -1 5 C-0.67 3.35 -0.34 1.7 0 0 Z " fill="#53649B" transform="translate(155,229)"/>
</svg>
