<?xml version="1.0" encoding="UTF-8"?>
<svg version="1.1" xmlns="http://www.w3.org/2000/svg" width="512" height="512">
<path d="M0 0 C3.08662554 0.01072591 6.17266928 0.00004105 9.25927734 -0.01269531 C20.53403419 -0.01946938 31.44751182 0.47399026 42.59130859 2.26074219 C42.59130859 2.92074219 42.59130859 3.58074219 42.59130859 4.26074219 C48.03630859 4.75574219 48.03630859 4.75574219 53.59130859 5.26074219 C53.59130859 5.92074219 53.59130859 6.58074219 53.59130859 7.26074219 C56.56130859 7.59074219 59.53130859 7.92074219 62.59130859 8.26074219 C62.59130859 8.92074219 62.59130859 9.58074219 62.59130859 10.26074219 C65.23130859 10.59074219 67.87130859 10.92074219 70.59130859 11.26074219 C70.59130859 11.92074219 70.59130859 12.58074219 70.59130859 13.26074219 C71.29126953 13.36515625 71.99123047 13.46957031 72.71240234 13.57714844 C76.00994039 14.36014594 78.64536186 15.64267365 81.65380859 17.19824219 C83.18714844 17.98521484 83.18714844 17.98521484 84.75146484 18.78808594 C85.68861328 19.2740625 86.62576172 19.76003906 87.59130859 20.26074219 C88.92332267 20.93004086 90.25605958 21.59792073 91.59130859 22.26074219 C91.59130859 22.92074219 91.59130859 23.58074219 91.59130859 24.26074219 C93.24130859 24.59074219 94.89130859 24.92074219 96.59130859 25.26074219 C96.59130859 25.92074219 96.59130859 26.58074219 96.59130859 27.26074219 C98.24130859 27.59074219 99.89130859 27.92074219 101.59130859 28.26074219 C101.59130859 28.92074219 101.59130859 29.58074219 101.59130859 30.26074219 C102.91130859 30.59074219 104.23130859 30.92074219 105.59130859 31.26074219 C105.59130859 31.92074219 105.59130859 32.58074219 105.59130859 33.26074219 C106.91130859 33.59074219 108.23130859 33.92074219 109.59130859 34.26074219 C109.59130859 34.92074219 109.59130859 35.58074219 109.59130859 36.26074219 C110.91130859 36.59074219 112.23130859 36.92074219 113.59130859 37.26074219 C113.59130859 37.92074219 113.59130859 38.58074219 113.59130859 39.26074219 C114.18943359 39.36386719 114.78755859 39.46699219 115.40380859 39.57324219 C117.90389145 40.35898251 118.96665942 41.22993072 120.59130859 43.26074219 C120.59130859 43.92074219 120.59130859 44.58074219 120.59130859 45.26074219 C121.25130859 45.26074219 121.91130859 45.26074219 122.59130859 45.26074219 C123.93026492 46.92289486 125.26261002 48.59037826 126.59130859 50.26074219 C127.82880859 51.25074219 127.82880859 51.25074219 129.09130859 52.26074219 C131.7250186 54.3677102 133.53093892 56.60220067 135.59130859 59.26074219 C136.52523437 60.185 136.52523437 60.185 137.47802734 61.12792969 C139.60806115 63.27764958 141.47691999 65.50346785 143.34130859 67.88574219 C143.95490234 68.66175781 144.56849609 69.43777344 145.20068359 70.23730469 C146.59130859 72.26074219 146.59130859 72.26074219 146.59130859 74.26074219 C147.25130859 74.26074219 147.91130859 74.26074219 148.59130859 74.26074219 C148.92130859 75.91074219 149.25130859 77.56074219 149.59130859 79.26074219 C150.25130859 79.26074219 150.91130859 79.26074219 151.59130859 79.26074219 C151.92130859 80.25074219 152.25130859 81.24074219 152.59130859 82.26074219 C153.25130859 82.59074219 153.91130859 82.92074219 154.59130859 83.26074219 C157.59130859 88.68381911 157.59130859 88.68381911 157.59130859 91.26074219 C158.25130859 91.26074219 158.91130859 91.26074219 159.59130859 91.26074219 C159.92130859 93.24074219 160.25130859 95.22074219 160.59130859 97.26074219 C161.25130859 97.26074219 161.91130859 97.26074219 162.59130859 97.26074219 C162.92130859 99.24074219 163.25130859 101.22074219 163.59130859 103.26074219 C164.25130859 103.26074219 164.91130859 103.26074219 165.59130859 103.26074219 C165.92130859 105.57074219 166.25130859 107.88074219 166.59130859 110.26074219 C167.25130859 110.26074219 167.91130859 110.26074219 168.59130859 110.26074219 C168.92130859 112.90074219 169.25130859 115.54074219 169.59130859 118.26074219 C170.25130859 118.26074219 170.91130859 118.26074219 171.59130859 118.26074219 C173.84810503 126.00487614 176.02482699 133.74678235 177.93505859 141.58496094 C178.33525009 143.21669413 178.74858839 144.84536776 179.18505859 146.46777344 C181.52108321 155.17633579 181.74193777 163.79177619 181.72412109 172.76074219 C181.72555618 174.37432617 181.72555618 174.37432617 181.72702026 176.02050781 C181.7276973 178.2828782 181.72587643 180.54525059 181.72167969 182.80761719 C181.71632473 186.25037034 181.72164097 189.69299305 181.72802734 193.13574219 C181.72736648 195.34407581 181.72608514 197.55240934 181.72412109 199.76074219 C181.72614532 200.77974609 181.72816956 201.79875 181.73025513 202.84863281 C181.70423432 210.86669982 181.19829388 218.50769288 179.12207031 226.26904297 C178.57584638 228.3187646 178.09426449 230.37538787 177.62646484 232.44433594 C175.93556912 239.85358034 174.19306151 247.10592166 171.59130859 254.26074219 C170.93130859 254.26074219 170.27130859 254.26074219 169.59130859 254.26074219 C169.26130859 256.90074219 168.93130859 259.54074219 168.59130859 262.26074219 C167.93130859 262.26074219 167.27130859 262.26074219 166.59130859 262.26074219 C166.26130859 264.57074219 165.93130859 266.88074219 165.59130859 269.26074219 C164.93130859 269.26074219 164.27130859 269.26074219 163.59130859 269.26074219 C163.26130859 271.24074219 162.93130859 273.22074219 162.59130859 275.26074219 C161.93130859 275.26074219 161.27130859 275.26074219 160.59130859 275.26074219 C160.26130859 277.24074219 159.93130859 279.22074219 159.59130859 281.26074219 C158.93130859 281.26074219 158.27130859 281.26074219 157.59130859 281.26074219 C156.51605665 283.91303031 155.49674708 286.54442673 154.59130859 289.26074219 C153.93130859 289.59074219 153.27130859 289.92074219 152.59130859 290.26074219 C152.26130859 291.25074219 151.93130859 292.24074219 151.59130859 293.26074219 C150.93130859 293.26074219 150.27130859 293.26074219 149.59130859 293.26074219 C149.26130859 294.91074219 148.93130859 296.56074219 148.59130859 298.26074219 C147.93130859 298.26074219 147.27130859 298.26074219 146.59130859 298.26074219 C146.28193359 299.28167969 146.28193359 299.28167969 145.96630859 300.32324219 C144.42440555 303.61730779 142.51326221 305.87116442 140.10302734 308.56152344 C138.84932881 309.97071946 137.67713725 311.45193515 136.52880859 312.94824219 C134.43588169 315.44625172 132.13108498 317.22892108 129.59130859 319.26074219 C128.22886063 320.90369414 126.89265984 322.56898556 125.59130859 324.26074219 C123.96630859 326.07324219 123.96630859 326.07324219 122.59130859 327.26074219 C121.93130859 327.26074219 121.27130859 327.26074219 120.59130859 327.26074219 C120.59130859 327.92074219 120.59130859 328.58074219 120.59130859 329.26074219 C116.12072036 333.26074219 116.12072036 333.26074219 113.59130859 333.26074219 C113.59130859 333.92074219 113.59130859 334.58074219 113.59130859 335.26074219 C112.27130859 335.59074219 110.95130859 335.92074219 109.59130859 336.26074219 C109.59130859 336.92074219 109.59130859 337.58074219 109.59130859 338.26074219 C108.27130859 338.59074219 106.95130859 338.92074219 105.59130859 339.26074219 C105.59130859 339.92074219 105.59130859 340.58074219 105.59130859 341.26074219 C104.27130859 341.59074219 102.95130859 341.92074219 101.59130859 342.26074219 C101.59130859 342.92074219 101.59130859 343.58074219 101.59130859 344.26074219 C99.94130859 344.59074219 98.29130859 344.92074219 96.59130859 345.26074219 C96.59130859 345.92074219 96.59130859 346.58074219 96.59130859 347.26074219 C94.94130859 347.59074219 93.29130859 347.92074219 91.59130859 348.26074219 C91.59130859 348.92074219 91.59130859 349.58074219 91.59130859 350.26074219 C89.03244355 351.58076775 86.46963791 352.89188 83.90380859 354.19824219 C83.18257813 354.57142578 82.46134766 354.94460938 81.71826172 355.32910156 C78.02625117 357.20039458 74.75437764 358.74343775 70.59130859 359.26074219 C70.59130859 359.92074219 70.59130859 360.58074219 70.59130859 361.26074219 C67.95130859 361.59074219 65.31130859 361.92074219 62.59130859 362.26074219 C62.59130859 362.92074219 62.59130859 363.58074219 62.59130859 364.26074219 C59.62130859 364.59074219 56.65130859 364.92074219 53.59130859 365.26074219 C53.59130859 365.92074219 53.59130859 366.58074219 53.59130859 367.26074219 C49.96130859 367.59074219 46.33130859 367.92074219 42.59130859 368.26074219 C42.59130859 368.92074219 42.59130859 369.58074219 42.59130859 370.26074219 C30.42571208 372.21132541 18.48675756 372.57225531 6.18261719 372.52148438 C3.09599165 372.51075846 0.0099479 372.52144333 -3.07666016 372.53417969 C-14.351417 372.54095375 -25.26489463 372.04749412 -36.40869141 370.26074219 C-36.40869141 369.60074219 -36.40869141 368.94074219 -36.40869141 368.26074219 C-40.03869141 367.93074219 -43.66869141 367.60074219 -47.40869141 367.26074219 C-47.40869141 366.60074219 -47.40869141 365.94074219 -47.40869141 365.26074219 C-50.37869141 364.93074219 -53.34869141 364.60074219 -56.40869141 364.26074219 C-56.40869141 363.60074219 -56.40869141 362.94074219 -56.40869141 362.26074219 C-59.04869141 361.93074219 -61.68869141 361.60074219 -64.40869141 361.26074219 C-64.40869141 360.60074219 -64.40869141 359.94074219 -64.40869141 359.26074219 C-65.06869141 359.17566406 -65.72869141 359.09058594 -66.40869141 359.00292969 C-70.3931701 358.01718626 -73.77225 356.2576373 -77.40869141 354.38574219 C-78.10736328 354.03382813 -78.80603516 353.68191406 -79.52587891 353.31933594 C-87.36942154 349.33836807 -87.36942154 349.33836807 -90.40869141 347.26074219 C-90.40869141 346.60074219 -90.40869141 345.94074219 -90.40869141 345.26074219 C-92.05869141 344.93074219 -93.70869141 344.60074219 -95.40869141 344.26074219 C-95.40869141 343.60074219 -95.40869141 342.94074219 -95.40869141 342.26074219 C-96.72869141 341.93074219 -98.04869141 341.60074219 -99.40869141 341.26074219 C-99.40869141 340.60074219 -99.40869141 339.94074219 -99.40869141 339.26074219 C-100.17181641 339.15761719 -100.93494141 339.05449219 -101.72119141 338.94824219 C-104.59285624 338.21363025 -105.63911234 337.58913569 -107.40869141 335.26074219 C-107.40869141 334.60074219 -107.40869141 333.94074219 -107.40869141 333.26074219 C-108.72869141 332.93074219 -110.04869141 332.60074219 -111.40869141 332.26074219 C-111.40869141 331.60074219 -111.40869141 330.94074219 -111.40869141 330.26074219 C-112.39869141 329.93074219 -113.38869141 329.60074219 -114.40869141 329.26074219 C-114.40869141 328.60074219 -114.40869141 327.94074219 -114.40869141 327.26074219 C-115.06869141 327.26074219 -115.72869141 327.26074219 -116.40869141 327.26074219 C-118.03369141 325.88574219 -118.03369141 325.88574219 -119.40869141 324.26074219 C-119.40869141 323.60074219 -119.40869141 322.94074219 -119.40869141 322.26074219 C-120.39869141 321.93074219 -121.38869141 321.60074219 -122.40869141 321.26074219 C-122.40869141 320.60074219 -122.40869141 319.94074219 -122.40869141 319.26074219 C-123.39869141 318.93074219 -124.38869141 318.60074219 -125.40869141 318.26074219 C-125.40869141 317.60074219 -125.40869141 316.94074219 -125.40869141 316.26074219 C-126.39869141 315.93074219 -127.38869141 315.60074219 -128.40869141 315.26074219 C-128.40869141 314.60074219 -128.40869141 313.94074219 -128.40869141 313.26074219 C-129.39869141 312.93074219 -130.38869141 312.60074219 -131.40869141 312.26074219 C-132.43481089 310.61002823 -133.43177284 308.94104213 -134.40869141 307.26074219 C-135.08931641 306.60074219 -135.76994141 305.94074219 -136.47119141 305.26074219 C-138.61033219 303.05259686 -139.44446354 301.15342578 -140.40869141 298.26074219 C-141.06869141 298.26074219 -141.72869141 298.26074219 -142.40869141 298.26074219 C-142.40869141 297.27074219 -142.40869141 296.28074219 -142.40869141 295.26074219 C-143.06869141 295.26074219 -143.72869141 295.26074219 -144.40869141 295.26074219 C-148.40869141 289.96662454 -148.40869141 289.96662454 -148.40869141 286.26074219 C-149.06869141 286.26074219 -149.72869141 286.26074219 -150.40869141 286.26074219 C-150.73869141 284.61074219 -151.06869141 282.96074219 -151.40869141 281.26074219 C-152.06869141 281.26074219 -152.72869141 281.26074219 -153.40869141 281.26074219 C-153.73869141 279.28074219 -154.06869141 277.30074219 -154.40869141 275.26074219 C-155.06869141 275.26074219 -155.72869141 275.26074219 -156.40869141 275.26074219 C-156.73869141 273.28074219 -157.06869141 271.30074219 -157.40869141 269.26074219 C-158.06869141 269.26074219 -158.72869141 269.26074219 -159.40869141 269.26074219 C-160.41727563 266.84734423 -161.41571813 264.43055544 -162.40869141 262.01074219 C-162.69486328 261.32882812 -162.98103516 260.64691406 -163.27587891 259.94433594 C-164.70214634 256.44658484 -165.40869141 254.0917403 -165.40869141 250.26074219 C-166.06869141 250.26074219 -166.72869141 250.26074219 -167.40869141 250.26074219 C-167.90369141 245.31074219 -167.90369141 245.31074219 -168.40869141 240.26074219 C-169.06869141 240.26074219 -169.72869141 240.26074219 -170.40869141 240.26074219 C-170.90369141 234.32074219 -170.90369141 234.32074219 -171.40869141 228.26074219 C-172.06869141 228.26074219 -172.72869141 228.26074219 -173.40869141 228.26074219 C-175.35898639 215.34170388 -175.72005886 202.60333543 -175.66943359 189.54980469 C-175.6587078 186.26576277 -175.66939253 182.98226768 -175.68212891 179.69824219 C-175.68888185 167.74013725 -175.19461353 156.09095071 -173.40869141 144.26074219 C-172.74869141 144.26074219 -172.08869141 144.26074219 -171.40869141 144.26074219 C-171.07869141 140.30074219 -170.74869141 136.34074219 -170.40869141 132.26074219 C-169.74869141 132.26074219 -169.08869141 132.26074219 -168.40869141 132.26074219 C-168.07869141 128.96074219 -167.74869141 125.66074219 -167.40869141 122.26074219 C-166.74869141 122.26074219 -166.08869141 122.26074219 -165.40869141 122.26074219 C-165.34681641 121.35324219 -165.28494141 120.44574219 -165.22119141 119.51074219 C-164.43767342 113.75307217 -161.75106421 108.52459842 -159.40869141 103.26074219 C-158.74869141 103.26074219 -158.08869141 103.26074219 -157.40869141 103.26074219 C-157.07869141 101.28074219 -156.74869141 99.30074219 -156.40869141 97.26074219 C-155.74869141 97.26074219 -155.08869141 97.26074219 -154.40869141 97.26074219 C-154.07869141 95.28074219 -153.74869141 93.30074219 -153.40869141 91.26074219 C-152.74869141 91.26074219 -152.08869141 91.26074219 -151.40869141 91.26074219 C-151.07869141 89.61074219 -150.74869141 87.96074219 -150.40869141 86.26074219 C-149.74869141 86.26074219 -149.08869141 86.26074219 -148.40869141 86.26074219 C-148.30556641 85.70386719 -148.20244141 85.14699219 -148.09619141 84.57324219 C-147.26690732 81.78383208 -146.06570085 79.64683579 -144.40869141 77.26074219 C-143.74869141 77.26074219 -143.08869141 77.26074219 -142.40869141 77.26074219 C-142.40869141 76.27074219 -142.40869141 75.28074219 -142.40869141 74.26074219 C-141.74869141 74.26074219 -141.08869141 74.26074219 -140.40869141 74.26074219 C-140.20244141 73.58011719 -139.99619141 72.89949219 -139.78369141 72.19824219 C-138.23293544 68.88526352 -136.28398417 66.60294069 -133.84619141 63.90917969 C-132.21594454 62.11114285 -132.21594454 62.11114285 -130.40869141 59.26074219 C-129.74869141 59.26074219 -129.08869141 59.26074219 -128.40869141 59.26074219 C-128.07869141 58.27074219 -127.74869141 57.28074219 -127.40869141 56.26074219 C-126.74869141 56.26074219 -126.08869141 56.26074219 -125.40869141 56.26074219 C-125.07869141 55.27074219 -124.74869141 54.28074219 -124.40869141 53.26074219 C-123.74869141 53.26074219 -123.08869141 53.26074219 -122.40869141 53.26074219 C-122.07869141 52.27074219 -121.74869141 51.28074219 -121.40869141 50.26074219 C-120.74869141 50.26074219 -120.08869141 50.26074219 -119.40869141 50.26074219 C-119.40869141 49.60074219 -119.40869141 48.94074219 -119.40869141 48.26074219 C-118.03369141 46.63574219 -118.03369141 46.63574219 -116.40869141 45.26074219 C-115.74869141 45.26074219 -115.08869141 45.26074219 -114.40869141 45.26074219 C-114.07869141 44.27074219 -113.74869141 43.28074219 -113.40869141 42.26074219 C-112.74869141 42.26074219 -112.08869141 42.26074219 -111.40869141 42.26074219 C-111.40869141 41.60074219 -111.40869141 40.94074219 -111.40869141 40.26074219 C-110.08869141 39.93074219 -108.76869141 39.60074219 -107.40869141 39.26074219 C-107.40869141 38.60074219 -107.40869141 37.94074219 -107.40869141 37.26074219 C-105.63911234 34.93234868 -104.59285624 34.30785412 -101.72119141 33.57324219 C-100.57650391 33.41855469 -100.57650391 33.41855469 -99.40869141 33.26074219 C-99.40869141 32.60074219 -99.40869141 31.94074219 -99.40869141 31.26074219 C-98.08869141 30.93074219 -96.76869141 30.60074219 -95.40869141 30.26074219 C-95.40869141 29.60074219 -95.40869141 28.94074219 -95.40869141 28.26074219 C-93.75869141 27.93074219 -92.10869141 27.60074219 -90.40869141 27.26074219 C-90.40869141 26.60074219 -90.40869141 25.94074219 -90.40869141 25.26074219 C-83.72315801 20.25036502 -72.850566 13.26074219 -64.40869141 13.26074219 C-64.40869141 12.60074219 -64.40869141 11.94074219 -64.40869141 11.26074219 C-61.76869141 10.93074219 -59.12869141 10.60074219 -56.40869141 10.26074219 C-56.40869141 9.60074219 -56.40869141 8.94074219 -56.40869141 8.26074219 C-51.95369141 7.76574219 -51.95369141 7.76574219 -47.40869141 7.26074219 C-47.40869141 6.60074219 -47.40869141 5.94074219 -47.40869141 5.26074219 C-43.77869141 4.93074219 -40.14869141 4.60074219 -36.40869141 4.26074219 C-36.40869141 3.60074219 -36.40869141 2.94074219 -36.40869141 2.26074219 C-24.24309489 0.31015896 -12.30414038 -0.05077093 0 0 Z " fill="#FEFDFC" transform="translate(239.40869140625,65.7392578125)"/>
<path d="M0 0 C3.08662554 0.01072591 6.17266928 0.00004105 9.25927734 -0.01269531 C20.53403419 -0.01946938 31.44751182 0.47399026 42.59130859 2.26074219 C42.59130859 2.92074219 42.59130859 3.58074219 42.59130859 4.26074219 C48.03630859 4.75574219 48.03630859 4.75574219 53.59130859 5.26074219 C53.59130859 5.92074219 53.59130859 6.58074219 53.59130859 7.26074219 C56.56130859 7.59074219 59.53130859 7.92074219 62.59130859 8.26074219 C62.59130859 8.92074219 62.59130859 9.58074219 62.59130859 10.26074219 C65.23130859 10.59074219 67.87130859 10.92074219 70.59130859 11.26074219 C70.59130859 11.92074219 70.59130859 12.58074219 70.59130859 13.26074219 C71.29126953 13.36515625 71.99123047 13.46957031 72.71240234 13.57714844 C76.00994039 14.36014594 78.64536186 15.64267365 81.65380859 17.19824219 C83.18714844 17.98521484 83.18714844 17.98521484 84.75146484 18.78808594 C85.68861328 19.2740625 86.62576172 19.76003906 87.59130859 20.26074219 C88.92332267 20.93004086 90.25605958 21.59792073 91.59130859 22.26074219 C91.59130859 22.92074219 91.59130859 23.58074219 91.59130859 24.26074219 C93.24130859 24.59074219 94.89130859 24.92074219 96.59130859 25.26074219 C96.59130859 25.92074219 96.59130859 26.58074219 96.59130859 27.26074219 C98.24130859 27.59074219 99.89130859 27.92074219 101.59130859 28.26074219 C101.59130859 28.92074219 101.59130859 29.58074219 101.59130859 30.26074219 C102.91130859 30.59074219 104.23130859 30.92074219 105.59130859 31.26074219 C105.59130859 31.92074219 105.59130859 32.58074219 105.59130859 33.26074219 C106.91130859 33.59074219 108.23130859 33.92074219 109.59130859 34.26074219 C109.59130859 34.92074219 109.59130859 35.58074219 109.59130859 36.26074219 C110.91130859 36.59074219 112.23130859 36.92074219 113.59130859 37.26074219 C113.59130859 37.92074219 113.59130859 38.58074219 113.59130859 39.26074219 C114.18943359 39.36386719 114.78755859 39.46699219 115.40380859 39.57324219 C117.90389145 40.35898251 118.96665942 41.22993072 120.59130859 43.26074219 C120.59130859 43.92074219 120.59130859 44.58074219 120.59130859 45.26074219 C121.25130859 45.26074219 121.91130859 45.26074219 122.59130859 45.26074219 C123.93026492 46.92289486 125.26261002 48.59037826 126.59130859 50.26074219 C127.82880859 51.25074219 127.82880859 51.25074219 129.09130859 52.26074219 C131.7250186 54.3677102 133.53093892 56.60220067 135.59130859 59.26074219 C136.52523437 60.185 136.52523437 60.185 137.47802734 61.12792969 C139.60806115 63.27764958 141.47691999 65.50346785 143.34130859 67.88574219 C143.95490234 68.66175781 144.56849609 69.43777344 145.20068359 70.23730469 C146.59130859 72.26074219 146.59130859 72.26074219 146.59130859 74.26074219 C147.25130859 74.26074219 147.91130859 74.26074219 148.59130859 74.26074219 C148.92130859 75.91074219 149.25130859 77.56074219 149.59130859 79.26074219 C150.25130859 79.26074219 150.91130859 79.26074219 151.59130859 79.26074219 C151.92130859 80.25074219 152.25130859 81.24074219 152.59130859 82.26074219 C153.25130859 82.59074219 153.91130859 82.92074219 154.59130859 83.26074219 C157.59130859 88.68381911 157.59130859 88.68381911 157.59130859 91.26074219 C158.25130859 91.26074219 158.91130859 91.26074219 159.59130859 91.26074219 C159.92130859 93.24074219 160.25130859 95.22074219 160.59130859 97.26074219 C161.25130859 97.26074219 161.91130859 97.26074219 162.59130859 97.26074219 C162.92130859 99.24074219 163.25130859 101.22074219 163.59130859 103.26074219 C164.25130859 103.26074219 164.91130859 103.26074219 165.59130859 103.26074219 C165.92130859 105.57074219 166.25130859 107.88074219 166.59130859 110.26074219 C167.25130859 110.26074219 167.91130859 110.26074219 168.59130859 110.26074219 C168.92130859 112.90074219 169.25130859 115.54074219 169.59130859 118.26074219 C170.25130859 118.26074219 170.91130859 118.26074219 171.59130859 118.26074219 C173.84810503 126.00487614 176.02482699 133.74678235 177.93505859 141.58496094 C178.33525009 143.21669413 178.74858839 144.84536776 179.18505859 146.46777344 C181.52108321 155.17633579 181.74193777 163.79177619 181.72412109 172.76074219 C181.72555618 174.37432617 181.72555618 174.37432617 181.72702026 176.02050781 C181.7276973 178.2828782 181.72587643 180.54525059 181.72167969 182.80761719 C181.71632473 186.25037034 181.72164097 189.69299305 181.72802734 193.13574219 C181.72736648 195.34407581 181.72608514 197.55240934 181.72412109 199.76074219 C181.72614532 200.77974609 181.72816956 201.79875 181.73025513 202.84863281 C181.70423432 210.86669982 181.19829388 218.50769288 179.12207031 226.26904297 C178.57584638 228.3187646 178.09426449 230.37538787 177.62646484 232.44433594 C175.93556912 239.85358034 174.19306151 247.10592166 171.59130859 254.26074219 C170.93130859 254.26074219 170.27130859 254.26074219 169.59130859 254.26074219 C169.26130859 256.90074219 168.93130859 259.54074219 168.59130859 262.26074219 C167.93130859 262.26074219 167.27130859 262.26074219 166.59130859 262.26074219 C166.26130859 264.57074219 165.93130859 266.88074219 165.59130859 269.26074219 C164.93130859 269.26074219 164.27130859 269.26074219 163.59130859 269.26074219 C163.26130859 271.24074219 162.93130859 273.22074219 162.59130859 275.26074219 C161.93130859 275.26074219 161.27130859 275.26074219 160.59130859 275.26074219 C160.26130859 277.24074219 159.93130859 279.22074219 159.59130859 281.26074219 C158.93130859 281.26074219 158.27130859 281.26074219 157.59130859 281.26074219 C156.51605665 283.91303031 155.49674708 286.54442673 154.59130859 289.26074219 C153.93130859 289.59074219 153.27130859 289.92074219 152.59130859 290.26074219 C152.26130859 291.25074219 151.93130859 292.24074219 151.59130859 293.26074219 C150.93130859 293.26074219 150.27130859 293.26074219 149.59130859 293.26074219 C149.26130859 294.91074219 148.93130859 296.56074219 148.59130859 298.26074219 C147.93130859 298.26074219 147.27130859 298.26074219 146.59130859 298.26074219 C146.28193359 299.28167969 146.28193359 299.28167969 145.96630859 300.32324219 C144.42440555 303.61730779 142.51326221 305.87116442 140.10302734 308.56152344 C138.84932881 309.97071946 137.67713725 311.45193515 136.52880859 312.94824219 C134.43588169 315.44625172 132.13108498 317.22892108 129.59130859 319.26074219 C128.22886063 320.90369414 126.89265984 322.56898556 125.59130859 324.26074219 C123.96630859 326.07324219 123.96630859 326.07324219 122.59130859 327.26074219 C121.93130859 327.26074219 121.27130859 327.26074219 120.59130859 327.26074219 C120.59130859 327.92074219 120.59130859 328.58074219 120.59130859 329.26074219 C116.12072036 333.26074219 116.12072036 333.26074219 113.59130859 333.26074219 C113.59130859 333.92074219 113.59130859 334.58074219 113.59130859 335.26074219 C112.27130859 335.59074219 110.95130859 335.92074219 109.59130859 336.26074219 C109.59130859 336.92074219 109.59130859 337.58074219 109.59130859 338.26074219 C108.27130859 338.59074219 106.95130859 338.92074219 105.59130859 339.26074219 C105.59130859 339.92074219 105.59130859 340.58074219 105.59130859 341.26074219 C104.27130859 341.59074219 102.95130859 341.92074219 101.59130859 342.26074219 C101.59130859 342.92074219 101.59130859 343.58074219 101.59130859 344.26074219 C99.94130859 344.59074219 98.29130859 344.92074219 96.59130859 345.26074219 C96.59130859 345.92074219 96.59130859 346.58074219 96.59130859 347.26074219 C94.94130859 347.59074219 93.29130859 347.92074219 91.59130859 348.26074219 C91.59130859 348.92074219 91.59130859 349.58074219 91.59130859 350.26074219 C89.03244355 351.58076775 86.46963791 352.89188 83.90380859 354.19824219 C83.18257813 354.57142578 82.46134766 354.94460938 81.71826172 355.32910156 C78.02625117 357.20039458 74.75437764 358.74343775 70.59130859 359.26074219 C70.59130859 359.92074219 70.59130859 360.58074219 70.59130859 361.26074219 C67.95130859 361.59074219 65.31130859 361.92074219 62.59130859 362.26074219 C62.59130859 362.92074219 62.59130859 363.58074219 62.59130859 364.26074219 C59.62130859 364.59074219 56.65130859 364.92074219 53.59130859 365.26074219 C53.59130859 365.92074219 53.59130859 366.58074219 53.59130859 367.26074219 C49.96130859 367.59074219 46.33130859 367.92074219 42.59130859 368.26074219 C42.59130859 368.92074219 42.59130859 369.58074219 42.59130859 370.26074219 C30.42571208 372.21132541 18.48675756 372.57225531 6.18261719 372.52148438 C3.09599165 372.51075846 0.0099479 372.52144333 -3.07666016 372.53417969 C-14.351417 372.54095375 -25.26489463 372.04749412 -36.40869141 370.26074219 C-36.40869141 369.60074219 -36.40869141 368.94074219 -36.40869141 368.26074219 C-40.03869141 367.93074219 -43.66869141 367.60074219 -47.40869141 367.26074219 C-47.40869141 366.60074219 -47.40869141 365.94074219 -47.40869141 365.26074219 C-50.37869141 364.93074219 -53.34869141 364.60074219 -56.40869141 364.26074219 C-56.40869141 363.60074219 -56.40869141 362.94074219 -56.40869141 362.26074219 C-59.04869141 361.93074219 -61.68869141 361.60074219 -64.40869141 361.26074219 C-64.40869141 360.60074219 -64.40869141 359.94074219 -64.40869141 359.26074219 C-65.06869141 359.17566406 -65.72869141 359.09058594 -66.40869141 359.00292969 C-70.3931701 358.01718626 -73.77225 356.2576373 -77.40869141 354.38574219 C-78.10736328 354.03382813 -78.80603516 353.68191406 -79.52587891 353.31933594 C-87.36942154 349.33836807 -87.36942154 349.33836807 -90.40869141 347.26074219 C-90.40869141 346.60074219 -90.40869141 345.94074219 -90.40869141 345.26074219 C-92.05869141 344.93074219 -93.70869141 344.60074219 -95.40869141 344.26074219 C-95.40869141 343.60074219 -95.40869141 342.94074219 -95.40869141 342.26074219 C-96.72869141 341.93074219 -98.04869141 341.60074219 -99.40869141 341.26074219 C-99.40869141 340.60074219 -99.40869141 339.94074219 -99.40869141 339.26074219 C-100.17181641 339.15761719 -100.93494141 339.05449219 -101.72119141 338.94824219 C-104.59285624 338.21363025 -105.63911234 337.58913569 -107.40869141 335.26074219 C-107.40869141 334.60074219 -107.40869141 333.94074219 -107.40869141 333.26074219 C-108.72869141 332.93074219 -110.04869141 332.60074219 -111.40869141 332.26074219 C-111.40869141 331.60074219 -111.40869141 330.94074219 -111.40869141 330.26074219 C-112.39869141 329.93074219 -113.38869141 329.60074219 -114.40869141 329.26074219 C-114.40869141 328.60074219 -114.40869141 327.94074219 -114.40869141 327.26074219 C-115.06869141 327.26074219 -115.72869141 327.26074219 -116.40869141 327.26074219 C-118.03369141 325.88574219 -118.03369141 325.88574219 -119.40869141 324.26074219 C-119.40869141 323.60074219 -119.40869141 322.94074219 -119.40869141 322.26074219 C-120.39869141 321.93074219 -121.38869141 321.60074219 -122.40869141 321.26074219 C-122.40869141 320.60074219 -122.40869141 319.94074219 -122.40869141 319.26074219 C-123.39869141 318.93074219 -124.38869141 318.60074219 -125.40869141 318.26074219 C-125.40869141 317.60074219 -125.40869141 316.94074219 -125.40869141 316.26074219 C-126.39869141 315.93074219 -127.38869141 315.60074219 -128.40869141 315.26074219 C-128.40869141 314.60074219 -128.40869141 313.94074219 -128.40869141 313.26074219 C-129.39869141 312.93074219 -130.38869141 312.60074219 -131.40869141 312.26074219 C-132.43481089 310.61002823 -133.43177284 308.94104213 -134.40869141 307.26074219 C-135.08931641 306.60074219 -135.76994141 305.94074219 -136.47119141 305.26074219 C-138.61033219 303.05259686 -139.44446354 301.15342578 -140.40869141 298.26074219 C-141.06869141 298.26074219 -141.72869141 298.26074219 -142.40869141 298.26074219 C-142.40869141 297.27074219 -142.40869141 296.28074219 -142.40869141 295.26074219 C-143.06869141 295.26074219 -143.72869141 295.26074219 -144.40869141 295.26074219 C-148.40869141 289.96662454 -148.40869141 289.96662454 -148.40869141 286.26074219 C-149.06869141 286.26074219 -149.72869141 286.26074219 -150.40869141 286.26074219 C-150.73869141 284.61074219 -151.06869141 282.96074219 -151.40869141 281.26074219 C-152.06869141 281.26074219 -152.72869141 281.26074219 -153.40869141 281.26074219 C-153.73869141 279.28074219 -154.06869141 277.30074219 -154.40869141 275.26074219 C-155.06869141 275.26074219 -155.72869141 275.26074219 -156.40869141 275.26074219 C-156.73869141 273.28074219 -157.06869141 271.30074219 -157.40869141 269.26074219 C-158.06869141 269.26074219 -158.72869141 269.26074219 -159.40869141 269.26074219 C-160.41727563 266.84734423 -161.41571813 264.43055544 -162.40869141 262.01074219 C-162.69486328 261.32882812 -162.98103516 260.64691406 -163.27587891 259.94433594 C-164.70214634 256.44658484 -165.40869141 254.0917403 -165.40869141 250.26074219 C-166.06869141 250.26074219 -166.72869141 250.26074219 -167.40869141 250.26074219 C-167.90369141 245.31074219 -167.90369141 245.31074219 -168.40869141 240.26074219 C-169.06869141 240.26074219 -169.72869141 240.26074219 -170.40869141 240.26074219 C-170.90369141 234.32074219 -170.90369141 234.32074219 -171.40869141 228.26074219 C-172.06869141 228.26074219 -172.72869141 228.26074219 -173.40869141 228.26074219 C-175.35898639 215.34170388 -175.72005886 202.60333543 -175.66943359 189.54980469 C-175.6587078 186.26576277 -175.66939253 182.98226768 -175.68212891 179.69824219 C-175.68888185 167.74013725 -175.19461353 156.09095071 -173.40869141 144.26074219 C-172.74869141 144.26074219 -172.08869141 144.26074219 -171.40869141 144.26074219 C-171.07869141 140.30074219 -170.74869141 136.34074219 -170.40869141 132.26074219 C-169.74869141 132.26074219 -169.08869141 132.26074219 -168.40869141 132.26074219 C-168.07869141 128.96074219 -167.74869141 125.66074219 -167.40869141 122.26074219 C-166.74869141 122.26074219 -166.08869141 122.26074219 -165.40869141 122.26074219 C-165.34681641 121.35324219 -165.28494141 120.44574219 -165.22119141 119.51074219 C-164.43767342 113.75307217 -161.75106421 108.52459842 -159.40869141 103.26074219 C-158.74869141 103.26074219 -158.08869141 103.26074219 -157.40869141 103.26074219 C-157.07869141 101.28074219 -156.74869141 99.30074219 -156.40869141 97.26074219 C-155.74869141 97.26074219 -155.08869141 97.26074219 -154.40869141 97.26074219 C-154.07869141 95.28074219 -153.74869141 93.30074219 -153.40869141 91.26074219 C-152.74869141 91.26074219 -152.08869141 91.26074219 -151.40869141 91.26074219 C-151.07869141 89.61074219 -150.74869141 87.96074219 -150.40869141 86.26074219 C-149.74869141 86.26074219 -149.08869141 86.26074219 -148.40869141 86.26074219 C-148.30556641 85.70386719 -148.20244141 85.14699219 -148.09619141 84.57324219 C-147.26690732 81.78383208 -146.06570085 79.64683579 -144.40869141 77.26074219 C-143.74869141 77.26074219 -143.08869141 77.26074219 -142.40869141 77.26074219 C-142.40869141 76.27074219 -142.40869141 75.28074219 -142.40869141 74.26074219 C-141.74869141 74.26074219 -141.08869141 74.26074219 -140.40869141 74.26074219 C-140.20244141 73.58011719 -139.99619141 72.89949219 -139.78369141 72.19824219 C-138.23293544 68.88526352 -136.28398417 66.60294069 -133.84619141 63.90917969 C-132.21594454 62.11114285 -132.21594454 62.11114285 -130.40869141 59.26074219 C-129.74869141 59.26074219 -129.08869141 59.26074219 -128.40869141 59.26074219 C-128.07869141 58.27074219 -127.74869141 57.28074219 -127.40869141 56.26074219 C-126.74869141 56.26074219 -126.08869141 56.26074219 -125.40869141 56.26074219 C-125.07869141 55.27074219 -124.74869141 54.28074219 -124.40869141 53.26074219 C-123.74869141 53.26074219 -123.08869141 53.26074219 -122.40869141 53.26074219 C-122.07869141 52.27074219 -121.74869141 51.28074219 -121.40869141 50.26074219 C-120.74869141 50.26074219 -120.08869141 50.26074219 -119.40869141 50.26074219 C-119.40869141 49.60074219 -119.40869141 48.94074219 -119.40869141 48.26074219 C-118.03369141 46.63574219 -118.03369141 46.63574219 -116.40869141 45.26074219 C-115.74869141 45.26074219 -115.08869141 45.26074219 -114.40869141 45.26074219 C-114.07869141 44.27074219 -113.74869141 43.28074219 -113.40869141 42.26074219 C-112.74869141 42.26074219 -112.08869141 42.26074219 -111.40869141 42.26074219 C-111.40869141 41.60074219 -111.40869141 40.94074219 -111.40869141 40.26074219 C-110.08869141 39.93074219 -108.76869141 39.60074219 -107.40869141 39.26074219 C-107.40869141 38.60074219 -107.40869141 37.94074219 -107.40869141 37.26074219 C-105.63911234 34.93234868 -104.59285624 34.30785412 -101.72119141 33.57324219 C-100.57650391 33.41855469 -100.57650391 33.41855469 -99.40869141 33.26074219 C-99.40869141 32.60074219 -99.40869141 31.94074219 -99.40869141 31.26074219 C-98.08869141 30.93074219 -96.76869141 30.60074219 -95.40869141 30.26074219 C-95.40869141 29.60074219 -95.40869141 28.94074219 -95.40869141 28.26074219 C-93.75869141 27.93074219 -92.10869141 27.60074219 -90.40869141 27.26074219 C-90.40869141 26.60074219 -90.40869141 25.94074219 -90.40869141 25.26074219 C-83.72315801 20.25036502 -72.850566 13.26074219 -64.40869141 13.26074219 C-64.40869141 12.60074219 -64.40869141 11.94074219 -64.40869141 11.26074219 C-61.76869141 10.93074219 -59.12869141 10.60074219 -56.40869141 10.26074219 C-56.40869141 9.60074219 -56.40869141 8.94074219 -56.40869141 8.26074219 C-51.95369141 7.76574219 -51.95369141 7.76574219 -47.40869141 7.26074219 C-47.40869141 6.60074219 -47.40869141 5.94074219 -47.40869141 5.26074219 C-43.77869141 4.93074219 -40.14869141 4.60074219 -36.40869141 4.26074219 C-36.40869141 3.60074219 -36.40869141 2.94074219 -36.40869141 2.26074219 C-24.24309489 0.31015896 -12.30414038 -0.05077093 0 0 Z M-46.40869141 21.26074219 C-46.40869141 21.92074219 -46.40869141 22.58074219 -46.40869141 23.26074219 C-47.27236328 23.37675781 -48.13603516 23.49277344 -49.02587891 23.61230469 C-52.45285667 24.26920805 -55.3237321 25.28115578 -58.53369141 26.63574219 C-59.54689453 27.05597656 -60.56009766 27.47621094 -61.60400391 27.90917969 C-64.17804919 29.14959705 -66.14698106 30.54351766 -68.40869141 32.26074219 C-71.03246447 33.4242036 -73.6951535 34.31100392 -76.40869141 35.26074219 C-76.40869141 35.92074219 -76.40869141 36.58074219 -76.40869141 37.26074219 C-77.33681641 37.42574219 -78.26494141 37.59074219 -79.22119141 37.76074219 C-85.1022411 39.43595028 -89.64993209 43.57718372 -94.40869141 47.26074219 C-95.30201172 47.92460938 -96.19533203 48.58847656 -97.11572266 49.27246094 C-100.34464506 51.66698952 -100.34464506 51.66698952 -103.40869141 54.26074219 C-103.40869141 54.92074219 -103.40869141 55.58074219 -103.40869141 56.26074219 C-103.96041016 56.48761719 -104.51212891 56.71449219 -105.08056641 56.94824219 C-113.60027795 61.75130105 -120.6240597 71.57864586 -126.40869141 79.26074219 C-126.90240234 79.89882812 -127.39611328 80.53691406 -127.90478516 81.19433594 C-130.32707757 84.42166322 -131.94565174 87.52782827 -133.40869141 91.26855469 C-134.72429554 93.88948481 -136.43964696 96.05758751 -138.22119141 98.38574219 C-146.50033232 109.49042477 -151.69586761 123.14334852 -153.81884766 136.81152344 C-154.40869141 139.26074219 -154.40869141 139.26074219 -155.84130859 142.47167969 C-161.10348916 154.62708515 -160.86073166 168.24207053 -160.74487305 181.23510742 C-160.72107631 184.0870355 -160.72436478 186.93803528 -160.73095703 189.79003906 C-160.71783075 198.79065337 -160.63075681 207.48344399 -158.40869141 216.26074219 C-158.22121338 217.06229736 -158.03373535 217.86385254 -157.84057617 218.68969727 C-157.27169433 221.05688714 -156.66266374 223.40885774 -156.03369141 225.76074219 C-155.81600098 226.58098877 -155.59831055 227.40123535 -155.37402344 228.24633789 C-153.71298847 234.38755665 -151.7479486 240.34262143 -149.40869141 246.26074219 C-148.82307434 247.82238769 -148.23954647 249.38481921 -147.65869141 250.94824219 C-147.24619141 252.04136719 -146.83369141 253.13449219 -146.40869141 254.26074219 C-145.74869141 254.26074219 -145.08869141 254.26074219 -144.40869141 254.26074219 C-144.32619141 255.12699219 -144.24369141 255.99324219 -144.15869141 256.88574219 C-143.29106546 260.79005892 -141.70871155 263.01365492 -139.40869141 266.26074219 C-137.04864937 270.52697202 -135.62728912 274.57382792 -134.40869141 279.26074219 C-133.74869141 279.26074219 -133.08869141 279.26074219 -132.40869141 279.26074219 C-131.74869141 280.91074219 -131.08869141 282.56074219 -130.40869141 284.26074219 C-129.74869141 284.26074219 -129.08869141 284.26074219 -128.40869141 284.26074219 C-128.22306641 285.12699219 -128.03744141 285.99324219 -127.84619141 286.88574219 C-126.20439578 290.74039279 -124.58267057 291.98227208 -121.38916016 294.51074219 C-119.14074586 296.4975067 -117.4266359 298.63450593 -115.59619141 301.01074219 C-104.18096018 315.62486739 -89.01894521 327.4266966 -72.24072266 335.35449219 C-70.36342373 336.28313473 -68.62477317 337.34402291 -66.84619141 338.44824219 C-63.07294707 340.43777102 -60.59657442 340.91887419 -56.40869141 341.26074219 C-56.40869141 341.92074219 -56.40869141 342.58074219 -56.40869141 343.26074219 C-52.24694968 345.07897886 -48.00140179 346.16202475 -43.59619141 347.19824219 C-35.06112489 349.25657505 -35.06112489 349.25657505 -31.03369141 350.88574219 C-21.28875486 354.58209743 -11.6640307 354.54552482 -1.38330078 354.46655273 C1.11354594 354.44807765 3.61002503 354.44604503 6.10693359 354.44628906 C7.69547848 354.44138059 9.28402087 354.43555523 10.87255859 354.42871094 C11.61832153 354.42759811 12.36408447 354.42648529 13.13244629 354.42533875 C16.98928804 354.45794877 16.98928804 354.45794877 20.59130859 353.26074219 C22.33845092 353.0107201 24.0893 352.78651025 25.84130859 352.57324219 C32.32219633 351.61016055 38.57826482 350.08540207 44.90380859 348.38574219 C45.83418945 348.14122314 46.76457031 347.8967041 47.72314453 347.64477539 C52.74189616 346.26448412 57.26498194 344.64479537 61.82641602 342.12353516 C63.72276949 341.19647565 65.53292337 340.70495728 67.59130859 340.26074219 C67.59130859 339.60074219 67.59130859 338.94074219 67.59130859 338.26074219 C68.29255859 338.15761719 68.99380859 338.05449219 69.71630859 337.94824219 C73.00577142 337.16163151 75.57898557 335.79643628 78.59130859 334.26074219 C80.02485405 333.74951458 81.4625312 333.24974702 82.90380859 332.76074219 C84.12068359 332.26574219 85.33755859 331.77074219 86.59130859 331.26074219 C86.92130859 330.27074219 87.25130859 329.28074219 87.59130859 328.26074219 C89.24454585 327.56129565 90.90319062 326.86520612 92.60693359 326.29980469 C95.47204364 324.7995699 97.33812022 322.5727947 99.59130859 320.26074219 C101.825475 318.27972152 104.11781943 316.36903065 106.40380859 314.44824219 C119.22673046 303.51818035 128.93050763 291.22997127 138.52880859 277.44824219 C139.08463623 276.66022217 139.64046387 275.87220215 140.21313477 275.06030273 C143.51909163 270.24753886 145.70033274 265.77954633 147.59130859 260.26074219 C148.59767624 258.56249678 149.60415459 256.86429963 150.61865234 255.17089844 C152.15642625 252.15093282 152.97525014 248.96547663 153.88037109 245.70996094 C154.59130859 243.26074219 154.59130859 243.26074219 156.02880859 239.63574219 C158.2576418 233.84777743 159.63996376 227.73908488 161.01879883 221.70092773 C161.43581683 219.92348853 161.89113725 218.15490633 162.36889648 216.39282227 C164.89637892 206.2941793 165.08352949 196.48507216 165.03735352 186.11987305 C165.02881175 183.19932183 165.05775884 180.28071256 165.08935547 177.36035156 C165.12375926 167.96182369 164.80379499 159.80375726 161.5559082 150.91088867 C160.21628011 147.23038679 159.71060851 143.69780158 159.15380859 139.82324219 C157.88987703 131.86164618 155.57840832 124.76559833 152.59130859 117.26074219 C152.06150391 115.83568359 152.06150391 115.83568359 151.52099609 114.38183594 C149.68044613 109.51959567 147.58852206 105.49818191 144.59130859 101.26074219 C144.26130859 100.27074219 143.93130859 99.28074219 143.59130859 98.26074219 C142.93130859 97.93074219 142.27130859 97.60074219 141.59130859 97.26074219 C140.53778016 94.95108371 139.53411764 92.61776479 138.59130859 90.26074219 C137.93130859 90.26074219 137.27130859 90.26074219 136.59130859 90.26074219 C136.23359375 89.22820312 136.23359375 89.22820312 135.86865234 88.17480469 C134.34454557 84.69779046 132.35443271 81.70735821 130.15380859 78.63574219 C129.71568848 78.02400146 129.27756836 77.41226074 128.82617188 76.78198242 C122.23635177 67.81632806 114.05058897 60.43506858 105.59130859 53.26074219 C104.93904297 52.68066406 104.28677734 52.10058594 103.61474609 51.50292969 C102.98826172 50.94863281 102.36177734 50.39433594 101.71630859 49.82324219 C101.16201172 49.32953125 100.60771484 48.83582031 100.03662109 48.32714844 C98.62244238 47.06283612 98.62244238 47.06283612 96.59130859 47.26074219 C96.35669922 46.63683594 96.12208984 46.01292969 95.88037109 45.37011719 C94.22307784 42.65818277 92.97714869 42.37098222 89.96630859 41.51074219 C89.14904297 41.26839844 88.33177734 41.02605469 87.48974609 40.77636719 C86.86326172 40.60621094 86.23677734 40.43605469 85.59130859 40.26074219 C85.59130859 39.60074219 85.59130859 38.94074219 85.59130859 38.26074219 C84.62193359 37.80699219 83.65255859 37.35324219 82.65380859 36.88574219 C79.59130859 35.26074219 79.59130859 35.26074219 78.59130859 33.26074219 C76.47167065 32.4205519 74.31874363 31.66367282 72.15380859 30.94824219 C67.84359955 29.48722807 63.7261575 27.93360048 59.71630859 25.76074219 C49.95612907 20.68032033 39.12371936 17.99835777 28.26318359 16.62011719 C25.59130859 16.26074219 25.59130859 16.26074219 23.66114807 15.75132751 C20.21749919 14.93512721 16.70430466 15.01410339 13.18115234 14.95214844 C12.34874023 14.93715805 11.51632813 14.92216766 10.65869141 14.90672302 C7.94870857 14.86702282 5.2390145 14.84207983 2.52880859 14.82324219 C1.61157013 14.81607178 0.69433167 14.80890137 -0.2507019 14.80151367 C-16.36969503 14.73523332 -30.91357895 16.59171939 -46.40869141 21.26074219 Z " fill="#FF8B03" transform="translate(239.40869140625,65.7392578125)"/>
<path d="M0 0 C7.59 0 15.18 0 23 0 C23.66 3.63 24.32 7.26 25 11 C28.88309699 24.68329414 35.75018034 35.13237999 48.13671875 42.45703125 C59.19723664 48.41733762 70.68404779 49.87273303 83.05078125 47.38671875 C86.37610729 46.32544448 89.09622952 44.93584698 92 43 C91.45730469 42.09378906 90.91460937 41.18757813 90.35546875 40.25390625 C86.45595355 33.64997646 83.05529749 27.43285668 81 20 C80.649375 19.07960937 80.29875 18.15921875 79.9375 17.2109375 C78.28379225 11.54698845 78.88933347 5.86532595 79 0 C86.59 0 94.18 0 102 0 C102.226875 1.711875 102.45375 3.42375 102.6875 5.1875 C103.83868805 12.21141552 106.29517412 18.44998612 109 25 C109.495 26.485 109.495 26.485 110 28 C117.40088628 21.41665349 119.11698077 10.21688362 121 1 C128.26 1 135.52 1 143 1 C142.31897962 13.39457088 140.68054225 24.84076219 135 36 C134.34 36 133.68 36 133 36 C131.92474806 38.65228812 130.90543849 41.28368454 130 44 C143.84213698 49.67882543 156.70388097 49.29926918 170.6171875 44.00390625 C182.70066052 38.56446123 190.62394862 29.20720669 195.75 17.1875 C197.67627885 11.65942164 198.21836152 5.77209952 199 0 C206.59 0 214.18 0 222 0 C222.69145924 19.13037229 216.41868785 35.50007379 203.5 49.6875 C193.15488843 60.20672285 180.37276557 67.53758334 166 71 C165.27554688 71.18433594 164.55109375 71.36867188 163.8046875 71.55859375 C147.65407099 74.10040387 131.40416398 71.83355583 116.97143555 64.24975586 C113.62796486 62.4876086 113.62796486 62.4876086 109.94140625 62.1171875 C107.28950913 63.32308036 104.67161318 64.57850618 102.0625 65.875 C85.46279796 73.51380094 65.92417671 74.82759126 48.390625 69.32421875 C27.65299418 61.22507492 13.17536079 46.60622343 3.90625 26.64453125 C0.34757892 17.73006019 -0.21904236 9.52834247 0 0 Z " fill="#DB9B1F" transform="translate(128,215)"/>
<path d="M0 0 C2.54781842 1.25086729 2.54781842 1.25086729 5.1015625 0.29296875 C5.92140625 -0.14144531 6.74125 -0.57585937 7.5859375 -1.0234375 C8.82730469 -1.60931641 8.82730469 -1.60931641 10.09375 -2.20703125 C11.82482348 -3.03639631 13.55402992 -3.86967075 15.28125 -4.70703125 C24.22655057 -8.27034838 32.41973413 -9.50494807 42.0234375 -9.3984375 C43.06564453 -9.41003906 44.10785156 -9.42164063 45.18164062 -9.43359375 C64.74209645 -9.36083322 80.65809365 -1.3713284 94.8359375 11.7265625 C102.67455462 19.93999915 107.79181911 30.3776083 111.5859375 40.9765625 C111.95525391 42.00136719 111.95525391 42.00136719 112.33203125 43.046875 C114.20602048 49.22457743 113.71912598 55.58351523 113.5859375 61.9765625 C106.3259375 61.9765625 99.0659375 61.9765625 91.5859375 61.9765625 C90.998125 58.3259375 90.998125 58.3259375 90.3984375 54.6015625 C87.94247445 41.0355513 81.59166766 30.60729782 70.0859375 22.6015625 C57.33308341 14.73135709 43.62017975 12.96821365 28.89453125 15.6484375 C26.4114501 16.33476501 23.99528344 17.06696673 21.5859375 17.9765625 C22.05644531 18.70101562 22.52695312 19.42546875 23.01171875 20.171875 C23.94564453 21.62207031 23.94564453 21.62207031 24.8984375 23.1015625 C25.51332031 24.05289063 26.12820313 25.00421875 26.76171875 25.984375 C30.45040404 32.03476672 32.3816585 37.46306877 33.7734375 44.3515625 C33.95068359 45.16367188 34.12792969 45.97578125 34.31054688 46.8125 C35.42018597 52.1593324 35.5859375 56.28029205 35.5859375 61.9765625 C27.9959375 61.9765625 20.4059375 61.9765625 12.5859375 61.9765625 C12.3384375 60.0378125 12.0909375 58.0990625 11.8359375 56.1015625 C10.70825202 48.72327752 8.74177189 42.21031409 4.5859375 35.9765625 C3.9259375 35.9765625 3.2659375 35.9765625 2.5859375 35.9765625 C-2.14749106 45.11822224 -4.35910439 51.42698139 -5.4140625 61.9765625 C-13.0040625 61.9765625 -20.5940625 61.9765625 -28.4140625 61.9765625 C-28.4140625 44.68274607 -24.08550314 32.09048905 -14.4140625 17.9765625 C-15.2390625 17.8528125 -16.0640625 17.7290625 -16.9140625 17.6015625 C-20.4140625 16.9765625 -20.4140625 16.9765625 -24.08984375 15.96484375 C-36.01090881 12.96883061 -48.60949364 14.08180463 -59.4140625 19.9765625 C-70.51048239 26.92044016 -78.150622 36.62099975 -82.4140625 48.9765625 C-83.36454509 53.33141782 -83.9259765 57.5349799 -84.4140625 61.9765625 C-92.0040625 61.9765625 -99.5940625 61.9765625 -107.4140625 61.9765625 C-108.55142136 43.77882073 -101.20434093 27.63510775 -89.4140625 13.9765625 C-88.84300781 13.31011719 -88.27195313 12.64367187 -87.68359375 11.95703125 C-65.54874419 -11.97126028 -27.72676557 -16.38752811 0 0 Z " fill="#DAAD2B" transform="translate(235.4140625,147.0234375)"/>
<path d="M0 0 C0 0.66 0 1.32 0 2 C-0.66 2 -1.32 2 -2 2 C-2.22429687 2.54011719 -2.44859375 3.08023438 -2.6796875 3.63671875 C-5.64667937 8.94745864 -10.24089286 13.28053499 -15 17 C-18.14094171 17.79489562 -20.01888615 17.04561186 -23 16 C-36.18558851 12.23667136 -49.75185153 12.3176538 -62 19 C-73.09641989 25.94387766 -80.7365595 35.64443725 -85 48 C-85.95048259 52.35485532 -86.511914 56.5584174 -87 61 C-94.59 61 -102.18 61 -110 61 C-111.13735886 42.80225823 -103.79027843 26.65854525 -92 13 C-91.42894531 12.33355469 -90.85789063 11.66710937 -90.26953125 10.98046875 C-66.79296777 -14.398247 -29.05487773 -16.23177527 0 0 Z " fill="#D9A61A" transform="translate(238,148)"/>
<path d="M0 0 C7.59 0 15.18 0 23 0 C23.69145924 19.13037229 17.41868785 35.50007379 4.5 49.6875 C-5.84511157 60.20672285 -18.62723443 67.53758334 -33 71 C-33.72445312 71.18433594 -34.44890625 71.36867188 -35.1953125 71.55859375 C-51.94063034 74.19399892 -70.43051772 71.92293651 -85 63 C-85.495 61.515 -85.495 61.515 -86 60 C-84.33333333 58.33333333 -82.66666667 56.66666667 -81 55 C-80.01 53.9790625 -80.01 53.9790625 -79 52.9375 C-77 51 -77 51 -74.375 49 C-72.02539373 47.0213842 -71.23850149 45.72697575 -70 43 C-69.39671875 43.27714844 -68.7934375 43.55429687 -68.171875 43.83984375 C-67.37265625 44.20207031 -66.5734375 44.56429687 -65.75 44.9375 C-64.96109375 45.29714844 -64.1721875 45.65679687 -63.359375 46.02734375 C-52.22325311 50.61822844 -39.2792001 48.15103885 -28.3828125 44.00390625 C-16.29933948 38.56446123 -8.37605138 29.20720669 -3.25 17.1875 C-1.32372115 11.65942164 -0.78163848 5.77209952 0 0 Z " fill="#E7AC24" transform="translate(327,215)"/>
<path d="M0 0 C7.59 0 15.18 0 23 0 C23.226875 1.711875 23.45375 3.42375 23.6875 5.1875 C24.66936619 11.19253672 26.5399417 16.48882181 28.87890625 22.08984375 C30.80308219 27.08465586 30.80308219 27.08465586 31 30 C27.82152084 35.52051644 22.37842971 39.75264621 17 43 C15.68 43 14.36 43 13 43 C8.52163635 35.52187733 4.3381454 28.45575872 2 20 C1.649375 19.07960937 1.29875 18.15921875 0.9375 17.2109375 C-0.71620775 11.54698845 -0.11066653 5.86532595 0 0 Z " fill="#C07817" transform="translate(207,215)"/>
<path d="M0 0 C10.23508922 8.72992904 13.58169587 22.07866373 15 35 C15 37.64 15 40.28 15 43 C7.41 43 -0.18 43 -8 43 C-8.2475 41.06125 -8.495 39.1225 -8.75 37.125 C-10.04075551 28.78053832 -12.12090759 21.29902759 -18 15 C-16.10204493 13.33928931 -14.20389828 11.67880615 -12.3046875 10.01953125 C-10.78517048 8.68802227 -9.2694444 7.35217283 -7.7578125 6.01171875 C-7.05398437 5.38910156 -6.35015625 4.76648438 -5.625 4.125 C-4.97789062 3.55007812 -4.33078125 2.97515625 -3.6640625 2.3828125 C-2 1 -2 1 0 0 Z " fill="#E7CF60" transform="translate(256,166)"/>
<path d="M0 0 C0 12.87 0 25.74 0 39 C1.32 39 2.64 39 4 39 C4 39.99 4 40.98 4 42 C2.01432292 42.22786458 0.02864583 42.45572917 -1.95703125 42.68359375 C-4.19396393 42.97170735 -4.19396393 42.97170735 -7 44 C-7 43.01 -7 42.02 -7 41 C-7.928125 41.495 -7.928125 41.495 -8.875 42 C-13.29417393 43.41413566 -17.40171075 43.61260104 -22 43 C-25.12414 41.24267125 -26.4882268 39.85295533 -28.3125 36.8125 C-29.66208457 31.29147222 -29.88713547 26.77427094 -27.3125 21.625 C-24.39692624 18.31542978 -22.32986029 16.26304874 -17.8203125 15.75390625 C-13.58379749 15.63583944 -10.73771903 15.87263611 -7 18 C-7.05991406 16.04081032 -7.14867138 14.08248471 -7.25 12.125 C-7.29640625 11.03445313 -7.3428125 9.94390625 -7.390625 8.8203125 C-7.68846128 5.8667935 -7.68846128 5.8667935 -10.046875 4.6171875 C-11.01367188 4.31167969 -11.01367188 4.31167969 -12 4 C-12 3.34 -12 2.68 -12 2 C-10.7625 1.67 -9.525 1.34 -8.25 1 C-7.55390625 0.814375 -6.8578125 0.62875 -6.140625 0.4375 C-4 0 -4 0 0 0 Z " fill="#171717" transform="translate(279,300)"/>
<path d="M0 0 C0.68191406 -0.01611328 1.36382812 -0.03222656 2.06640625 -0.04882812 C7.11230243 -0.05363374 10.60524327 1.0762235 15.125 3.3125 C15.125 6.2825 15.125 9.2525 15.125 12.3125 C11.48566873 10.49283437 9.90365751 9.09115751 7.125 6.3125 C3.56228476 3.85545501 0.36974784 3.80020285 -3.875 4.3125 C-7.6211074 6.45435184 -10.38270648 9.24634242 -11.875 13.3125 C-12.09343936 15.98483608 -12.19974486 18.51812107 -12.1875 21.1875 C-12.20361328 21.88230469 -12.21972656 22.57710938 -12.23632812 23.29296875 C-12.24166383 28.95949105 -10.77029547 32.5976173 -7.57421875 37.17578125 C-4.97882243 38.91201189 -2.76085774 38.59914057 0.3125 38.5 C3.1896875 38.4071875 3.1896875 38.4071875 6.125 38.3125 C6.455 34.3525 6.785 30.3925 7.125 26.3125 C5.475 25.9825 3.825 25.6525 2.125 25.3125 C2.125 24.3225 2.125 23.3325 2.125 22.3125 C8.065 22.3125 14.005 22.3125 20.125 22.3125 C20.125 23.3025 20.125 24.2925 20.125 25.3125 C18.805 25.6425 17.485 25.9725 16.125 26.3125 C16.125 30.9325 16.125 35.5525 16.125 40.3125 C7.64053209 43.70628716 -2.43942183 45.105142 -11.3125 42.125 C-17.15648481 39.15174457 -21.72829836 34.62632834 -23.875 28.3125 C-24.75958266 21.82556048 -24.57819635 15.79400442 -21.2109375 10.0625 C-15.52217408 2.6105526 -9.29065454 -0.04341427 0 0 Z " fill="#101010" transform="translate(157.875,300.6875)"/>
<path d="M0 0 C1.11246094 -0.02835937 2.22492188 -0.05671875 3.37109375 -0.0859375 C8.10632749 0.59797631 10.44764313 2.99103975 13.375 6.625 C15.54040373 11.63961917 15.20320916 15.75797213 13.25 20.6875 C10.90259122 24.42596583 8.78802138 26.89035735 4.5625 28.375 C-1.29369975 28.85501637 -5.18644232 28.30347448 -10.4375 25.375 C-14.52248 21.07502105 -15.85522875 17.48483032 -15.7890625 11.5078125 C-15.17322845 7.77175261 -13.11649948 4.9834995 -10.4375 2.375 C-7.04640131 0.12923928 -4.01352202 0.0463991 0 0 Z " fill="#1B1B1B" transform="translate(196.4375,315.625)"/>
<path d="M0 0 C0.33 12.87 0.66 25.74 1 39 C3.97 39.33 6.94 39.66 10 40 C10 28.78 10 17.56 10 6 C8.68 5.67 7.36 5.34 6 5 C6 4.34 6 3.68 6 3 C7.26839526 2.49384702 8.53983102 1.99530901 9.8125 1.5 C10.87404297 1.08234375 10.87404297 1.08234375 11.95703125 0.65625 C14 0 14 0 17 0 C17.33 12.87 17.66 25.74 18 39 C19.32 39.33 20.64 39.66 22 40 C22 40.66 22 41.32 22 42 C11.11 42 0.22 42 -11 42 C-11 41.34 -11 40.68 -11 40 C-9.515 39.505 -9.515 39.505 -8 39 C-7.67 27.78 -7.34 16.56 -7 5 C-8.32 5 -9.64 5 -11 5 C-11 4.34 -11 3.68 -11 3 C-9.73160474 2.49384702 -8.46016898 1.99530901 -7.1875 1.5 C-6.12595703 1.08234375 -6.12595703 1.08234375 -5.04296875 0.65625 C-3 0 -3 0 0 0 Z " fill="#0E0E0E" transform="translate(225,301)"/>
<path d="M0 0 C2.93605799 1.31499122 3.86709442 2.41806167 6 5 C6.33 6.98 6.66 8.96 7 11 C0.73 11 -5.54 11 -12 11 C-11.401875 12.44375 -10.80375 13.8875 -10.1875 15.375 C-9.85105469 16.18710937 -9.51460938 16.99921875 -9.16796875 17.8359375 C-8.05560918 20.30147458 -8.05560918 20.30147458 -5 22 C-0.86830223 22.27544652 2.94280304 21.77279942 7 21 C5.86308867 24.410734 5.4839887 24.63146566 2.4375 26.1875 C-2.02827496 28.25661577 -5.10599544 28.63148446 -10 28 C-13.62425252 26.2220648 -15.53487471 24.6511754 -17.875 21.375 C-19.40190889 16.79427333 -19.95529553 12.76895564 -19 8 C-14.34495718 0.11347486 -8.80089964 -1.09081573 0 0 Z " fill="#101010" transform="translate(305,316)"/>
<path d="M0 0 C4.62 0 9.24 0 14 0 C14 0.66 14 1.32 14 2 C13.34 2 12.68 2 12 2 C14.37629089 6.14670039 14.37629089 6.14670039 18 9 C18.28875 8.401875 18.5775 7.80375 18.875 7.1875 C20 5 20 5 22 2 C21.01 2 20.02 2 19 2 C19 1.34 19 0.68 19 0 C22.63 0 26.26 0 30 0 C30 0.66 30 1.32 30 2 C28.824375 2.12375 28.824375 2.12375 27.625 2.25 C24.88368661 2.70995268 24.88368661 2.70995268 23.875 4.875 C23.441875 5.926875 23.441875 5.926875 23 7 C21.375 8.75 21.375 8.75 20 10 C22.01349525 14.75715911 25.60767132 18.04348655 29.1015625 21.7578125 C31 24 31 24 31 26 C26.38 26 21.76 26 17 26 C17.33 24.35 17.66 22.7 18 21 C16.62485459 19.2912354 16.62485459 19.2912354 15 18 C15 17.34 15 16.68 15 16 C12.4390706 17.79857668 12.4390706 17.79857668 10 20 C10 20.99 10 21.98 10 23 C10.66 23.33 11.32 23.66 12 24 C12 24.66 12 25.32 12 26 C8.04 26 4.08 26 0 26 C0 25.34 0 24.68 0 24 C1.64453125 22.59765625 1.64453125 22.59765625 3.8125 21.0625 C6.43530583 19.19452718 8.78449355 17.34130807 11 15 C9.60609461 11.84280428 7.96365028 9.7187347 5.5 7.3125 C4.8915625 6.71050781 4.283125 6.10851562 3.65625 5.48828125 C2.0547309 3.91687598 2.0547309 3.91687598 0 3 C0 2.01 0 1.02 0 0 Z " fill="#0F0F0F" transform="translate(315,317)"/>
<path d="M0 0 C0 12.87 0 25.74 0 39 C1.32 39 2.64 39 4 39 C4 39.99 4 40.98 4 42 C2.01432292 42.22786458 0.02864583 42.45572917 -1.95703125 42.68359375 C-4.19396393 42.97170735 -4.19396393 42.97170735 -7 44 C-8.27645317 38.94366226 -8.02836813 33.95817681 -7.87304688 28.79492188 C-7.81263412 25.01024051 -7.8746617 22.2088441 -10 19 C-9.01 18.67 -8.02 18.34 -7 18 C-7.05991406 16.04081032 -7.14867138 14.08248471 -7.25 12.125 C-7.29640625 11.03445313 -7.3428125 9.94390625 -7.390625 8.8203125 C-7.68846128 5.8667935 -7.68846128 5.8667935 -10.046875 4.6171875 C-11.01367188 4.31167969 -11.01367188 4.31167969 -12 4 C-12 3.34 -12 2.68 -12 2 C-10.7625 1.67 -9.525 1.34 -8.25 1 C-7.55390625 0.814375 -6.8578125 0.62875 -6.140625 0.4375 C-4 0 -4 0 0 0 Z " fill="#0D0D0D" transform="translate(279,300)"/>
<path d="M0 0 C0.33 12.87 0.66 25.74 1 39 C2.32 39.33 3.64 39.66 5 40 C5 40.66 5 41.32 5 42 C-4.57 42 -14.14 42 -24 42 C-24 41.67 -24 41.34 -24 41 C-15.585 40.505 -15.585 40.505 -7 40 C-7 28.78 -7 17.56 -7 6 C-8.32 5.67 -9.64 5.34 -11 5 C-11 4.34 -11 3.68 -11 3 C-9.73160474 2.49384702 -8.46016898 1.99530901 -7.1875 1.5 C-6.12595703 1.08234375 -6.12595703 1.08234375 -5.04296875 0.65625 C-3 0 -3 0 0 0 Z " fill="#070707" transform="translate(242,301)"/>
<path d="M0 0 C2.9375 0.5 2.9375 0.5 4.59765625 1.53515625 C6.69699786 4.61378258 6.37039234 7.84495865 6.3125 11.4375 C6.32410156 12.15357422 6.33570313 12.86964844 6.34765625 13.60742188 C6.32985656 16.80839979 6.13273617 19.13807096 4.6015625 21.9765625 C2.9375 23.5 2.9375 23.5 -0.0625 23.9375 C-3.0625 23.5 -3.0625 23.5 -4.875 22.125 C-7.30200163 18.80383988 -7.28722357 16.26679402 -7.375 12.1875 C-7.41238281 11.05699219 -7.44976562 9.92648437 -7.48828125 8.76171875 C-6.84671057 3.84693415 -5.02338551 0.82014457 0 0 Z " fill="#F5F5F5" transform="translate(196.0625,317.5)"/>
<path d="M0 0 C2.9375 0.4375 2.9375 0.4375 5.9375 2.4375 C6.18567926 5.37133336 6.26393881 8.07382685 6.1875 11 C6.18234375 11.79341797 6.1771875 12.58683594 6.171875 13.40429688 C6.09154491 19.28345509 6.09154491 19.28345509 4.9375 20.4375 C1.93727718 20.78178787 -0.16385391 21.01160078 -3.0625 20.4375 C-6.37425177 17.20854202 -7.3214892 14.37888928 -7.5625 9.875 C-7.40000385 6.66840921 -6.99125618 5.3032328 -5.4375 2.375 C-3.0625 0.4375 -3.0625 0.4375 0 0 Z " fill="#F8F8F8" transform="translate(265.0625,318.5625)"/>
<path d="M0 0 C-0.86625 0.3403125 -0.86625 0.3403125 -1.75 0.6875 C-4.69283116 2.40415151 -6.11278076 4.15936231 -8 7 C-8.51814593 10.21232376 -8.51814593 10.21232376 -8.3125 13.5625 C-8.28800781 14.67753906 -8.26351562 15.79257812 -8.23828125 16.94140625 C-8.04330491 19.44413537 -7.71961406 21.607137 -7 24 C-4.69 24.66 -2.38 25.32 0 26 C0 26.33 0 26.66 0 27 C-4.66935037 27.46693504 -8.6102711 27.85149069 -12.4375 24.8125 C-16.38910855 20.47536866 -17.53311678 17.00851213 -17.38671875 11.0625 C-16.55094239 6.60502607 -13.66538747 3.32082454 -10.1875 0.5625 C-6.76691811 -0.3170782 -3.52458994 -0.11748633 0 0 Z " fill="#0D0D0D" transform="translate(198,316)"/>
<path d="M0 0 C0.33 0 0.66 0 1 0 C1.11162201 6.33268845 0.68414166 12.51231608 0.0625 18.8125 C-0.06801758 20.22305664 -0.06801758 20.22305664 -0.20117188 21.66210938 C-0.87228842 28.61686525 -0.87228842 28.61686525 -2 32 C-2.09893013 34.94753588 -2.14139182 37.86542302 -2.125 40.8125 C-2.12234131 41.65748047 -2.11968262 42.50246094 -2.11694336 43.37304688 C-2.30707555 55.87343549 -2.30707555 55.87343549 0 68 C0.12781786 70.67394964 0.04391871 73.32095857 0 76 C0.66 76 1.32 76 2 76 C2 78.97 2 81.94 2 85 C1.67 85 1.34 85 1 85 C0.53676507 83.23044256 0.07975792 81.45925488 -0.375 79.6875 C-0.63023438 78.70136719 -0.88546875 77.71523438 -1.1484375 76.69921875 C-1.42945312 75.47847656 -1.71046875 74.25773437 -2 73 C-2.26574829 71.94679565 -2.26574829 71.94679565 -2.53686523 70.87231445 C-4.52118405 61.89622654 -4.33681217 52.82256166 -4.31567383 43.67749023 C-4.31252607 40.83603066 -4.33599205 37.99562751 -4.36132812 35.15429688 C-4.40201723 23.14577866 -3.83230325 11.49690975 0 0 Z " fill="#FFDAB0" transform="translate(83,209)"/>
<path d="M0 0 C4.46031573 -0.44603157 6.52615127 -0.2983492 10.375 2.125 C13.23034176 5.25227907 13.80641369 6.83789425 14 11 C7.88514973 11.09706112 2.06696699 10.77040851 -4 10 C-4 9.67 -4 9.34 -4 9 C-0.37 9 3.26 9 7 9 C5.02253559 4.05633898 4.11167879 2.92145598 0 0 Z " fill="#070707" transform="translate(298,316)"/>
<path d="M0 0 C2.5625 0.3125 2.5625 0.3125 4.375 1.5625 C5.5625 3.3125 5.5625 3.3125 5.5625 7.3125 C1.9325 7.3125 -1.6975 7.3125 -5.4375 7.3125 C-4.07960526 0.52302632 -4.07960526 0.52302632 0 0 Z " fill="#DFDFDF" transform="translate(299.4375,317.6875)"/>
<path d="M0 0 C0.12375 0.639375 0.2475 1.27875 0.375 1.9375 C0.58125 2.618125 0.7875 3.29875 1 4 C1.66 4.33 2.32 4.66 3 5 C3 5.66 3 6.32 3 7 C-0.96 7 -4.92 7 -9 7 C-9 6.34 -9 5.68 -9 5 C-7.5390625 3.7109375 -7.5390625 3.7109375 -5.625 2.375 C-4.99851562 1.92898438 -4.37203125 1.48296875 -3.7265625 1.0234375 C-2 0 -2 0 0 0 Z " fill="#1D1D1D" transform="translate(324,336)"/>
<path d="M0 0 C3.57770698 6.67437773 4.27166506 13.52921098 4 21 C4.66 21 5.32 21 6 21 C6 23.97 6 26.94 6 30 C5.67 30 5.34 30 5 30 C-0.41413374 9.31800912 -0.41413374 9.31800912 0 0 Z " fill="#FFCB8E" transform="translate(79,264)"/>
<path d="M0 0 C2 2 2 2 2 6 C2.66 6 3.32 6 4 6 C4.06058594 6.62648437 4.12117188 7.25296875 4.18359375 7.8984375 C4.26738281 8.71570313 4.35117187 9.53296875 4.4375 10.375 C4.55931641 11.59316406 4.55931641 11.59316406 4.68359375 12.8359375 C4.89090114 15.04272805 4.89090114 15.04272805 6 17 C6.039992 18.99960012 6.04346799 21.00047242 6 23 C2.14285345 15.55286857 0.50549371 8.34936165 0 0 Z " fill="#FFB55D" transform="translate(398,204)"/>
<path d="M0 0 C0.66 0.33 1.32 0.66 2 1 C1.01 1.33 0.02 1.66 -1 2 C-1 2.66 -1 3.32 -1 4 C-2.95513161 4.696553 -4.91422476 5.38199565 -6.875 6.0625 C-7.96554687 6.44535156 -9.05609375 6.82820313 -10.1796875 7.22265625 C-13 8 -13 8 -15 7 C-13.75539217 6.32332002 -12.50403104 5.65905281 -11.25 5 C-10.20585937 4.443125 -10.20585937 4.443125 -9.140625 3.875 C-7 3 -7 3 -3 3 C-3 2.34 -3 1.68 -3 1 C-2.01 0.67 -1.02 0.34 0 0 Z " fill="#FFB660" transform="translate(310,403)"/>
<path d="M0 0 C0.33 0 0.66 0 1 0 C1 2.64 1 5.28 1 8 C0.34 8 -0.32 8 -1 8 C-1.04898437 8.61488281 -1.09796875 9.22976563 -1.1484375 9.86328125 C-1.22320312 10.67152344 -1.29796875 11.47976563 -1.375 12.3125 C-1.44460938 13.11300781 -1.51421875 13.91351563 -1.5859375 14.73828125 C-2 17 -2 17 -4 20 C-3.13411482 13.21723277 -1.67513028 6.62573852 0 0 Z " fill="#FFBA68" transform="translate(401,281)"/>
<path d="M0 0 C3.43022354 2.46272459 5.27472607 3.79341119 6 8 C6.66 8.33 7.32 8.66 8 9 C7.67 9.99 7.34 10.98 7 12 C7 11.34 7 10.68 7 10 C6.01 9.67 5.02 9.34 4 9 C3.66666667 7.66666667 3.33333333 6.33333333 3 5 C2.01 4.67 1.02 4.34 0 4 C0 2.68 0 1.36 0 0 Z " fill="#FFC683" transform="translate(104,340)"/>
<path d="M0 0 C4.95 0.99 4.95 0.99 10 2 C10.33 2.99 10.66 3.98 11 5 C13.01508358 5.73323796 13.01508358 5.73323796 15 6 C14.01 6.495 14.01 6.495 13 7 C10.75689987 6.10333658 8.55245679 5.10853317 6.375 4.0625 C5.18648438 3.49660156 3.99796875 2.93070312 2.7734375 2.34765625 C1.85820312 1.90292969 0.94296875 1.45820312 0 1 C0 0.67 0 0.34 0 0 Z " fill="#FFB258" transform="translate(294,89)"/>
<path d="M0 0 C4.96916636 0.51405169 9.29026351 1.23384882 14 3 C10.16455058 4.38076179 6.92847503 3.85712183 3 3 C1.0625 1.4375 1.0625 1.4375 0 0 Z " fill="#FFC27B" transform="translate(190,411)"/>
<path d="M0 0 C1 2 1 2 0.51171875 4.12890625 C0.23972656 4.93199219 -0.03226562 5.73507813 -0.3125 6.5625 C-0.57675781 7.36816406 -0.84101562 8.17382812 -1.11328125 9.00390625 C-2 11 -2 11 -4 12 C-3.33501617 7.61110675 -1.81242323 4.0188515 0 0 Z " fill="#FFC887" transform="translate(95,175)"/>
</svg>
