<?xml version="1.0" encoding="UTF-8"?>
<svg version="1.1" xmlns="http://www.w3.org/2000/svg" width="512" height="512">
<path d="M0 0 C3.08662554 0.01072591 6.17266928 0.00004105 9.25927734 -0.01269531 C20.53403419 -0.01946938 31.44751182 0.47399026 42.59130859 2.26074219 C42.59130859 2.92074219 42.59130859 3.58074219 42.59130859 4.26074219 C48.03630859 4.75574219 48.03630859 4.75574219 53.59130859 5.26074219 C53.59130859 5.92074219 53.59130859 6.58074219 53.59130859 7.26074219 C56.56130859 7.59074219 59.53130859 7.92074219 62.59130859 8.26074219 C62.59130859 8.92074219 62.59130859 9.58074219 62.59130859 10.26074219 C65.23130859 10.59074219 67.87130859 10.92074219 70.59130859 11.26074219 C70.59130859 11.92074219 70.59130859 12.58074219 70.59130859 13.26074219 C71.29126953 13.36515625 71.99123047 13.46957031 72.71240234 13.57714844 C76.00994039 14.36014594 78.64536186 15.64267365 81.65380859 17.19824219 C83.18714844 17.98521484 83.18714844 17.98521484 84.75146484 18.78808594 C85.68861328 19.2740625 86.62576172 19.76003906 87.59130859 20.26074219 C88.92332267 20.93004086 90.25605958 21.59792073 91.59130859 22.26074219 C91.59130859 22.92074219 91.59130859 23.58074219 91.59130859 24.26074219 C93.24130859 24.59074219 94.89130859 24.92074219 96.59130859 25.26074219 C96.59130859 25.92074219 96.59130859 26.58074219 96.59130859 27.26074219 C98.24130859 27.59074219 99.89130859 27.92074219 101.59130859 28.26074219 C101.59130859 28.92074219 101.59130859 29.58074219 101.59130859 30.26074219 C102.91130859 30.59074219 104.23130859 30.92074219 105.59130859 31.26074219 C105.59130859 31.92074219 105.59130859 32.58074219 105.59130859 33.26074219 C106.91130859 33.59074219 108.23130859 33.92074219 109.59130859 34.26074219 C109.59130859 34.92074219 109.59130859 35.58074219 109.59130859 36.26074219 C110.91130859 36.59074219 112.23130859 36.92074219 113.59130859 37.26074219 C113.59130859 37.92074219 113.59130859 38.58074219 113.59130859 39.26074219 C114.18943359 39.36386719 114.78755859 39.46699219 115.40380859 39.57324219 C117.90389145 40.35898251 118.96665942 41.22993072 120.59130859 43.26074219 C120.59130859 43.92074219 120.59130859 44.58074219 120.59130859 45.26074219 C121.25130859 45.26074219 121.91130859 45.26074219 122.59130859 45.26074219 C123.93026492 46.92289486 125.26261002 48.59037826 126.59130859 50.26074219 C127.82880859 51.25074219 127.82880859 51.25074219 129.09130859 52.26074219 C131.7250186 54.3677102 133.53093892 56.60220067 135.59130859 59.26074219 C136.52523437 60.185 136.52523437 60.185 137.47802734 61.12792969 C139.60806115 63.27764958 141.47691999 65.50346785 143.34130859 67.88574219 C143.95490234 68.66175781 144.56849609 69.43777344 145.20068359 70.23730469 C146.59130859 72.26074219 146.59130859 72.26074219 146.59130859 74.26074219 C147.25130859 74.26074219 147.91130859 74.26074219 148.59130859 74.26074219 C148.92130859 75.91074219 149.25130859 77.56074219 149.59130859 79.26074219 C150.25130859 79.26074219 150.91130859 79.26074219 151.59130859 79.26074219 C151.92130859 80.25074219 152.25130859 81.24074219 152.59130859 82.26074219 C153.25130859 82.59074219 153.91130859 82.92074219 154.59130859 83.26074219 C157.59130859 88.68381911 157.59130859 88.68381911 157.59130859 91.26074219 C158.25130859 91.26074219 158.91130859 91.26074219 159.59130859 91.26074219 C159.92130859 93.24074219 160.25130859 95.22074219 160.59130859 97.26074219 C161.25130859 97.26074219 161.91130859 97.26074219 162.59130859 97.26074219 C162.92130859 99.24074219 163.25130859 101.22074219 163.59130859 103.26074219 C164.25130859 103.26074219 164.91130859 103.26074219 165.59130859 103.26074219 C165.92130859 105.57074219 166.25130859 107.88074219 166.59130859 110.26074219 C167.25130859 110.26074219 167.91130859 110.26074219 168.59130859 110.26074219 C168.92130859 112.90074219 169.25130859 115.54074219 169.59130859 118.26074219 C170.25130859 118.26074219 170.91130859 118.26074219 171.59130859 118.26074219 C173.84810503 126.00487614 176.02482699 133.74678235 177.93505859 141.58496094 C178.33525009 143.21669413 178.74858839 144.84536776 179.18505859 146.46777344 C181.52108321 155.17633579 181.74193777 163.79177619 181.72412109 172.76074219 C181.72555618 174.37432617 181.72555618 174.37432617 181.72702026 176.02050781 C181.7276973 178.2828782 181.72587643 180.54525059 181.72167969 182.80761719 C181.71632473 186.25037034 181.72164097 189.69299305 181.72802734 193.13574219 C181.72736648 195.34407581 181.72608514 197.55240934 181.72412109 199.76074219 C181.72614532 200.77974609 181.72816956 201.79875 181.73025513 202.84863281 C181.70423432 210.86669982 181.19829388 218.50769288 179.12207031 226.26904297 C178.57584638 228.3187646 178.09426449 230.37538787 177.62646484 232.44433594 C175.93556912 239.85358034 174.19306151 247.10592166 171.59130859 254.26074219 C170.93130859 254.26074219 170.27130859 254.26074219 169.59130859 254.26074219 C169.26130859 256.90074219 168.93130859 259.54074219 168.59130859 262.26074219 C167.93130859 262.26074219 167.27130859 262.26074219 166.59130859 262.26074219 C166.26130859 264.57074219 165.93130859 266.88074219 165.59130859 269.26074219 C164.93130859 269.26074219 164.27130859 269.26074219 163.59130859 269.26074219 C163.26130859 271.24074219 162.93130859 273.22074219 162.59130859 275.26074219 C161.93130859 275.26074219 161.27130859 275.26074219 160.59130859 275.26074219 C160.26130859 277.24074219 159.93130859 279.22074219 159.59130859 281.26074219 C158.93130859 281.26074219 158.27130859 281.26074219 157.59130859 281.26074219 C156.51605665 283.91303031 155.49674708 286.54442673 154.59130859 289.26074219 C153.93130859 289.59074219 153.27130859 289.92074219 152.59130859 290.26074219 C152.26130859 291.25074219 151.93130859 292.24074219 151.59130859 293.26074219 C150.93130859 293.26074219 150.27130859 293.26074219 149.59130859 293.26074219 C149.26130859 294.91074219 148.93130859 296.56074219 148.59130859 298.26074219 C147.93130859 298.26074219 147.27130859 298.26074219 146.59130859 298.26074219 C146.28193359 299.28167969 146.28193359 299.28167969 145.96630859 300.32324219 C144.42440555 303.61730779 142.51326221 305.87116442 140.10302734 308.56152344 C138.84932881 309.97071946 137.67713725 311.45193515 136.52880859 312.94824219 C134.43588169 315.44625172 132.13108498 317.22892108 129.59130859 319.26074219 C128.22886063 320.90369414 126.89265984 322.56898556 125.59130859 324.26074219 C123.96630859 326.07324219 123.96630859 326.07324219 122.59130859 327.26074219 C121.93130859 327.26074219 121.27130859 327.26074219 120.59130859 327.26074219 C120.59130859 327.92074219 120.59130859 328.58074219 120.59130859 329.26074219 C116.12072036 333.26074219 116.12072036 333.26074219 113.59130859 333.26074219 C113.59130859 333.92074219 113.59130859 334.58074219 113.59130859 335.26074219 C112.27130859 335.59074219 110.95130859 335.92074219 109.59130859 336.26074219 C109.59130859 336.92074219 109.59130859 337.58074219 109.59130859 338.26074219 C108.27130859 338.59074219 106.95130859 338.92074219 105.59130859 339.26074219 C105.59130859 339.92074219 105.59130859 340.58074219 105.59130859 341.26074219 C104.27130859 341.59074219 102.95130859 341.92074219 101.59130859 342.26074219 C101.59130859 342.92074219 101.59130859 343.58074219 101.59130859 344.26074219 C99.94130859 344.59074219 98.29130859 344.92074219 96.59130859 345.26074219 C96.59130859 345.92074219 96.59130859 346.58074219 96.59130859 347.26074219 C94.94130859 347.59074219 93.29130859 347.92074219 91.59130859 348.26074219 C91.59130859 348.92074219 91.59130859 349.58074219 91.59130859 350.26074219 C89.03244355 351.58076775 86.46963791 352.89188 83.90380859 354.19824219 C83.18257813 354.57142578 82.46134766 354.94460938 81.71826172 355.32910156 C78.02625117 357.20039458 74.75437764 358.74343775 70.59130859 359.26074219 C70.59130859 359.92074219 70.59130859 360.58074219 70.59130859 361.26074219 C67.95130859 361.59074219 65.31130859 361.92074219 62.59130859 362.26074219 C62.59130859 362.92074219 62.59130859 363.58074219 62.59130859 364.26074219 C59.62130859 364.59074219 56.65130859 364.92074219 53.59130859 365.26074219 C53.59130859 365.92074219 53.59130859 366.58074219 53.59130859 367.26074219 C49.96130859 367.59074219 46.33130859 367.92074219 42.59130859 368.26074219 C42.59130859 368.92074219 42.59130859 369.58074219 42.59130859 370.26074219 C30.42571208 372.21132541 18.48675756 372.57225531 6.18261719 372.52148438 C3.09599165 372.51075846 0.0099479 372.52144333 -3.07666016 372.53417969 C-14.351417 372.54095375 -25.26489463 372.04749412 -36.40869141 370.26074219 C-36.40869141 369.60074219 -36.40869141 368.94074219 -36.40869141 368.26074219 C-40.03869141 367.93074219 -43.66869141 367.60074219 -47.40869141 367.26074219 C-47.40869141 366.60074219 -47.40869141 365.94074219 -47.40869141 365.26074219 C-50.37869141 364.93074219 -53.34869141 364.60074219 -56.40869141 364.26074219 C-56.40869141 363.60074219 -56.40869141 362.94074219 -56.40869141 362.26074219 C-59.04869141 361.93074219 -61.68869141 361.60074219 -64.40869141 361.26074219 C-64.40869141 360.60074219 -64.40869141 359.94074219 -64.40869141 359.26074219 C-65.06869141 359.17566406 -65.72869141 359.09058594 -66.40869141 359.00292969 C-70.3931701 358.01718626 -73.77225 356.2576373 -77.40869141 354.38574219 C-78.10736328 354.03382813 -78.80603516 353.68191406 -79.52587891 353.31933594 C-87.36942154 349.33836807 -87.36942154 349.33836807 -90.40869141 347.26074219 C-90.40869141 346.60074219 -90.40869141 345.94074219 -90.40869141 345.26074219 C-92.05869141 344.93074219 -93.70869141 344.60074219 -95.40869141 344.26074219 C-95.40869141 343.60074219 -95.40869141 342.94074219 -95.40869141 342.26074219 C-96.72869141 341.93074219 -98.04869141 341.60074219 -99.40869141 341.26074219 C-99.40869141 340.60074219 -99.40869141 339.94074219 -99.40869141 339.26074219 C-100.17181641 339.15761719 -100.93494141 339.05449219 -101.72119141 338.94824219 C-104.59285624 338.21363025 -105.63911234 337.58913569 -107.40869141 335.26074219 C-107.40869141 334.60074219 -107.40869141 333.94074219 -107.40869141 333.26074219 C-108.72869141 332.93074219 -110.04869141 332.60074219 -111.40869141 332.26074219 C-111.40869141 331.60074219 -111.40869141 330.94074219 -111.40869141 330.26074219 C-112.39869141 329.93074219 -113.38869141 329.60074219 -114.40869141 329.26074219 C-114.40869141 328.60074219 -114.40869141 327.94074219 -114.40869141 327.26074219 C-115.06869141 327.26074219 -115.72869141 327.26074219 -116.40869141 327.26074219 C-118.03369141 325.88574219 -118.03369141 325.88574219 -119.40869141 324.26074219 C-119.40869141 323.60074219 -119.40869141 322.94074219 -119.40869141 322.26074219 C-120.39869141 321.93074219 -121.38869141 321.60074219 -122.40869141 321.26074219 C-122.40869141 320.60074219 -122.40869141 319.94074219 -122.40869141 319.26074219 C-123.39869141 318.93074219 -124.38869141 318.60074219 -125.40869141 318.26074219 C-125.40869141 317.60074219 -125.40869141 316.94074219 -125.40869141 316.26074219 C-126.39869141 315.93074219 -127.38869141 315.60074219 -128.40869141 315.26074219 C-128.40869141 314.60074219 -128.40869141 313.94074219 -128.40869141 313.26074219 C-129.39869141 312.93074219 -130.38869141 312.60074219 -131.40869141 312.26074219 C-132.43481089 310.61002823 -133.43177284 308.94104213 -134.40869141 307.26074219 C-135.08931641 306.60074219 -135.76994141 305.94074219 -136.47119141 305.26074219 C-138.61033219 303.05259686 -139.44446354 301.15342578 -140.40869141 298.26074219 C-141.06869141 298.26074219 -141.72869141 298.26074219 -142.40869141 298.26074219 C-142.40869141 297.27074219 -142.40869141 296.28074219 -142.40869141 295.26074219 C-143.06869141 295.26074219 -143.72869141 295.26074219 -144.40869141 295.26074219 C-148.40869141 289.96662454 -148.40869141 289.96662454 -148.40869141 286.26074219 C-149.06869141 286.26074219 -149.72869141 286.26074219 -150.40869141 286.26074219 C-150.73869141 284.61074219 -151.06869141 282.96074219 -151.40869141 281.26074219 C-152.06869141 281.26074219 -152.72869141 281.26074219 -153.40869141 281.26074219 C-153.73869141 279.28074219 -154.06869141 277.30074219 -154.40869141 275.26074219 C-155.06869141 275.26074219 -155.72869141 275.26074219 -156.40869141 275.26074219 C-156.73869141 273.28074219 -157.06869141 271.30074219 -157.40869141 269.26074219 C-158.06869141 269.26074219 -158.72869141 269.26074219 -159.40869141 269.26074219 C-160.41727563 266.84734423 -161.41571813 264.43055544 -162.40869141 262.01074219 C-162.69486328 261.32882812 -162.98103516 260.64691406 -163.27587891 259.94433594 C-164.70214634 256.44658484 -165.40869141 254.0917403 -165.40869141 250.26074219 C-166.06869141 250.26074219 -166.72869141 250.26074219 -167.40869141 250.26074219 C-167.90369141 245.31074219 -167.90369141 245.31074219 -168.40869141 240.26074219 C-169.06869141 240.26074219 -169.72869141 240.26074219 -170.40869141 240.26074219 C-170.90369141 234.32074219 -170.90369141 234.32074219 -171.40869141 228.26074219 C-172.06869141 228.26074219 -172.72869141 228.26074219 -173.40869141 228.26074219 C-175.35898639 215.34170388 -175.72005886 202.60333543 -175.66943359 189.54980469 C-175.6587078 186.26576277 -175.66939253 182.98226768 -175.68212891 179.69824219 C-175.68888185 167.74013725 -175.19461353 156.09095071 -173.40869141 144.26074219 C-172.74869141 144.26074219 -172.08869141 144.26074219 -171.40869141 144.26074219 C-171.07869141 140.30074219 -170.74869141 136.34074219 -170.40869141 132.26074219 C-169.74869141 132.26074219 -169.08869141 132.26074219 -168.40869141 132.26074219 C-168.07869141 128.96074219 -167.74869141 125.66074219 -167.40869141 122.26074219 C-166.74869141 122.26074219 -166.08869141 122.26074219 -165.40869141 122.26074219 C-165.34681641 121.35324219 -165.28494141 120.44574219 -165.22119141 119.51074219 C-164.43767342 113.75307217 -161.75106421 108.52459842 -159.40869141 103.26074219 C-158.74869141 103.26074219 -158.08869141 103.26074219 -157.40869141 103.26074219 C-157.07869141 101.28074219 -156.74869141 99.30074219 -156.40869141 97.26074219 C-155.74869141 97.26074219 -155.08869141 97.26074219 -154.40869141 97.26074219 C-154.07869141 95.28074219 -153.74869141 93.30074219 -153.40869141 91.26074219 C-152.74869141 91.26074219 -152.08869141 91.26074219 -151.40869141 91.26074219 C-151.07869141 89.61074219 -150.74869141 87.96074219 -150.40869141 86.26074219 C-149.74869141 86.26074219 -149.08869141 86.26074219 -148.40869141 86.26074219 C-148.30556641 85.70386719 -148.20244141 85.14699219 -148.09619141 84.57324219 C-147.26690732 81.78383208 -146.06570085 79.64683579 -144.40869141 77.26074219 C-143.74869141 77.26074219 -143.08869141 77.26074219 -142.40869141 77.26074219 C-142.40869141 76.27074219 -142.40869141 75.28074219 -142.40869141 74.26074219 C-141.74869141 74.26074219 -141.08869141 74.26074219 -140.40869141 74.26074219 C-140.20244141 73.58011719 -139.99619141 72.89949219 -139.78369141 72.19824219 C-138.23293544 68.88526352 -136.28398417 66.60294069 -133.84619141 63.90917969 C-132.21594454 62.11114285 -132.21594454 62.11114285 -130.40869141 59.26074219 C-129.74869141 59.26074219 -129.08869141 59.26074219 -128.40869141 59.26074219 C-128.07869141 58.27074219 -127.74869141 57.28074219 -127.40869141 56.26074219 C-126.74869141 56.26074219 -126.08869141 56.26074219 -125.40869141 56.26074219 C-125.07869141 55.27074219 -124.74869141 54.28074219 -124.40869141 53.26074219 C-123.74869141 53.26074219 -123.08869141 53.26074219 -122.40869141 53.26074219 C-122.07869141 52.27074219 -121.74869141 51.28074219 -121.40869141 50.26074219 C-120.74869141 50.26074219 -120.08869141 50.26074219 -119.40869141 50.26074219 C-119.40869141 49.60074219 -119.40869141 48.94074219 -119.40869141 48.26074219 C-118.03369141 46.63574219 -118.03369141 46.63574219 -116.40869141 45.26074219 C-115.74869141 45.26074219 -115.08869141 45.26074219 -114.40869141 45.26074219 C-114.07869141 44.27074219 -113.74869141 43.28074219 -113.40869141 42.26074219 C-112.74869141 42.26074219 -112.08869141 42.26074219 -111.40869141 42.26074219 C-111.40869141 41.60074219 -111.40869141 40.94074219 -111.40869141 40.26074219 C-110.08869141 39.93074219 -108.76869141 39.60074219 -107.40869141 39.26074219 C-107.40869141 38.60074219 -107.40869141 37.94074219 -107.40869141 37.26074219 C-105.63911234 34.93234868 -104.59285624 34.30785412 -101.72119141 33.57324219 C-100.57650391 33.41855469 -100.57650391 33.41855469 -99.40869141 33.26074219 C-99.40869141 32.60074219 -99.40869141 31.94074219 -99.40869141 31.26074219 C-98.08869141 30.93074219 -96.76869141 30.60074219 -95.40869141 30.26074219 C-95.40869141 29.60074219 -95.40869141 28.94074219 -95.40869141 28.26074219 C-93.75869141 27.93074219 -92.10869141 27.60074219 -90.40869141 27.26074219 C-90.40869141 26.60074219 -90.40869141 25.94074219 -90.40869141 25.26074219 C-83.72315801 20.25036502 -72.850566 13.26074219 -64.40869141 13.26074219 C-64.40869141 12.60074219 -64.40869141 11.94074219 -64.40869141 11.26074219 C-61.76869141 10.93074219 -59.12869141 10.60074219 -56.40869141 10.26074219 C-56.40869141 9.60074219 -56.40869141 8.94074219 -56.40869141 8.26074219 C-51.95369141 7.76574219 -51.95369141 7.76574219 -47.40869141 7.26074219 C-47.40869141 6.60074219 -47.40869141 5.94074219 -47.40869141 5.26074219 C-43.77869141 4.93074219 -40.14869141 4.60074219 -36.40869141 4.26074219 C-36.40869141 3.60074219 -36.40869141 2.94074219 -36.40869141 2.26074219 C-24.24309489 0.31015896 -12.30414038 -0.05077093 0 0 Z " fill="#FDFCFC" transform="translate(248.40869140625,63.7392578125)"/>
<path d="M0 0 C3.08662554 0.01072591 6.17266928 0.00004105 9.25927734 -0.01269531 C20.53403419 -0.01946938 31.44751182 0.47399026 42.59130859 2.26074219 C42.59130859 2.92074219 42.59130859 3.58074219 42.59130859 4.26074219 C48.03630859 4.75574219 48.03630859 4.75574219 53.59130859 5.26074219 C53.59130859 5.92074219 53.59130859 6.58074219 53.59130859 7.26074219 C56.56130859 7.59074219 59.53130859 7.92074219 62.59130859 8.26074219 C62.59130859 8.92074219 62.59130859 9.58074219 62.59130859 10.26074219 C65.23130859 10.59074219 67.87130859 10.92074219 70.59130859 11.26074219 C70.59130859 11.92074219 70.59130859 12.58074219 70.59130859 13.26074219 C71.29126953 13.36515625 71.99123047 13.46957031 72.71240234 13.57714844 C76.00994039 14.36014594 78.64536186 15.64267365 81.65380859 17.19824219 C83.18714844 17.98521484 83.18714844 17.98521484 84.75146484 18.78808594 C85.68861328 19.2740625 86.62576172 19.76003906 87.59130859 20.26074219 C88.92332267 20.93004086 90.25605958 21.59792073 91.59130859 22.26074219 C91.59130859 22.92074219 91.59130859 23.58074219 91.59130859 24.26074219 C93.24130859 24.59074219 94.89130859 24.92074219 96.59130859 25.26074219 C96.59130859 25.92074219 96.59130859 26.58074219 96.59130859 27.26074219 C98.24130859 27.59074219 99.89130859 27.92074219 101.59130859 28.26074219 C101.59130859 28.92074219 101.59130859 29.58074219 101.59130859 30.26074219 C102.91130859 30.59074219 104.23130859 30.92074219 105.59130859 31.26074219 C105.59130859 31.92074219 105.59130859 32.58074219 105.59130859 33.26074219 C106.91130859 33.59074219 108.23130859 33.92074219 109.59130859 34.26074219 C109.59130859 34.92074219 109.59130859 35.58074219 109.59130859 36.26074219 C110.91130859 36.59074219 112.23130859 36.92074219 113.59130859 37.26074219 C113.59130859 37.92074219 113.59130859 38.58074219 113.59130859 39.26074219 C114.18943359 39.36386719 114.78755859 39.46699219 115.40380859 39.57324219 C117.90389145 40.35898251 118.96665942 41.22993072 120.59130859 43.26074219 C120.59130859 43.92074219 120.59130859 44.58074219 120.59130859 45.26074219 C121.25130859 45.26074219 121.91130859 45.26074219 122.59130859 45.26074219 C123.93026492 46.92289486 125.26261002 48.59037826 126.59130859 50.26074219 C127.82880859 51.25074219 127.82880859 51.25074219 129.09130859 52.26074219 C131.7250186 54.3677102 133.53093892 56.60220067 135.59130859 59.26074219 C136.52523437 60.185 136.52523437 60.185 137.47802734 61.12792969 C139.60806115 63.27764958 141.47691999 65.50346785 143.34130859 67.88574219 C143.95490234 68.66175781 144.56849609 69.43777344 145.20068359 70.23730469 C146.59130859 72.26074219 146.59130859 72.26074219 146.59130859 74.26074219 C147.25130859 74.26074219 147.91130859 74.26074219 148.59130859 74.26074219 C148.92130859 75.91074219 149.25130859 77.56074219 149.59130859 79.26074219 C150.25130859 79.26074219 150.91130859 79.26074219 151.59130859 79.26074219 C151.92130859 80.25074219 152.25130859 81.24074219 152.59130859 82.26074219 C153.25130859 82.59074219 153.91130859 82.92074219 154.59130859 83.26074219 C157.59130859 88.68381911 157.59130859 88.68381911 157.59130859 91.26074219 C158.25130859 91.26074219 158.91130859 91.26074219 159.59130859 91.26074219 C159.92130859 93.24074219 160.25130859 95.22074219 160.59130859 97.26074219 C161.25130859 97.26074219 161.91130859 97.26074219 162.59130859 97.26074219 C162.92130859 99.24074219 163.25130859 101.22074219 163.59130859 103.26074219 C164.25130859 103.26074219 164.91130859 103.26074219 165.59130859 103.26074219 C165.92130859 105.57074219 166.25130859 107.88074219 166.59130859 110.26074219 C167.25130859 110.26074219 167.91130859 110.26074219 168.59130859 110.26074219 C168.92130859 112.90074219 169.25130859 115.54074219 169.59130859 118.26074219 C170.25130859 118.26074219 170.91130859 118.26074219 171.59130859 118.26074219 C173.84810503 126.00487614 176.02482699 133.74678235 177.93505859 141.58496094 C178.33525009 143.21669413 178.74858839 144.84536776 179.18505859 146.46777344 C181.52108321 155.17633579 181.74193777 163.79177619 181.72412109 172.76074219 C181.72555618 174.37432617 181.72555618 174.37432617 181.72702026 176.02050781 C181.7276973 178.2828782 181.72587643 180.54525059 181.72167969 182.80761719 C181.71632473 186.25037034 181.72164097 189.69299305 181.72802734 193.13574219 C181.72736648 195.34407581 181.72608514 197.55240934 181.72412109 199.76074219 C181.72614532 200.77974609 181.72816956 201.79875 181.73025513 202.84863281 C181.70423432 210.86669982 181.19829388 218.50769288 179.12207031 226.26904297 C178.57584638 228.3187646 178.09426449 230.37538787 177.62646484 232.44433594 C175.93556912 239.85358034 174.19306151 247.10592166 171.59130859 254.26074219 C170.93130859 254.26074219 170.27130859 254.26074219 169.59130859 254.26074219 C169.26130859 256.90074219 168.93130859 259.54074219 168.59130859 262.26074219 C167.93130859 262.26074219 167.27130859 262.26074219 166.59130859 262.26074219 C166.26130859 264.57074219 165.93130859 266.88074219 165.59130859 269.26074219 C164.93130859 269.26074219 164.27130859 269.26074219 163.59130859 269.26074219 C163.26130859 271.24074219 162.93130859 273.22074219 162.59130859 275.26074219 C161.93130859 275.26074219 161.27130859 275.26074219 160.59130859 275.26074219 C160.26130859 277.24074219 159.93130859 279.22074219 159.59130859 281.26074219 C158.93130859 281.26074219 158.27130859 281.26074219 157.59130859 281.26074219 C156.51605665 283.91303031 155.49674708 286.54442673 154.59130859 289.26074219 C153.93130859 289.59074219 153.27130859 289.92074219 152.59130859 290.26074219 C152.26130859 291.25074219 151.93130859 292.24074219 151.59130859 293.26074219 C150.93130859 293.26074219 150.27130859 293.26074219 149.59130859 293.26074219 C149.26130859 294.91074219 148.93130859 296.56074219 148.59130859 298.26074219 C147.93130859 298.26074219 147.27130859 298.26074219 146.59130859 298.26074219 C146.28193359 299.28167969 146.28193359 299.28167969 145.96630859 300.32324219 C144.42440555 303.61730779 142.51326221 305.87116442 140.10302734 308.56152344 C138.84932881 309.97071946 137.67713725 311.45193515 136.52880859 312.94824219 C134.43588169 315.44625172 132.13108498 317.22892108 129.59130859 319.26074219 C128.22886063 320.90369414 126.89265984 322.56898556 125.59130859 324.26074219 C123.96630859 326.07324219 123.96630859 326.07324219 122.59130859 327.26074219 C121.93130859 327.26074219 121.27130859 327.26074219 120.59130859 327.26074219 C120.59130859 327.92074219 120.59130859 328.58074219 120.59130859 329.26074219 C116.12072036 333.26074219 116.12072036 333.26074219 113.59130859 333.26074219 C113.59130859 333.92074219 113.59130859 334.58074219 113.59130859 335.26074219 C112.27130859 335.59074219 110.95130859 335.92074219 109.59130859 336.26074219 C109.59130859 336.92074219 109.59130859 337.58074219 109.59130859 338.26074219 C108.27130859 338.59074219 106.95130859 338.92074219 105.59130859 339.26074219 C105.59130859 339.92074219 105.59130859 340.58074219 105.59130859 341.26074219 C104.27130859 341.59074219 102.95130859 341.92074219 101.59130859 342.26074219 C101.59130859 342.92074219 101.59130859 343.58074219 101.59130859 344.26074219 C99.94130859 344.59074219 98.29130859 344.92074219 96.59130859 345.26074219 C96.59130859 345.92074219 96.59130859 346.58074219 96.59130859 347.26074219 C94.94130859 347.59074219 93.29130859 347.92074219 91.59130859 348.26074219 C91.59130859 348.92074219 91.59130859 349.58074219 91.59130859 350.26074219 C89.03244355 351.58076775 86.46963791 352.89188 83.90380859 354.19824219 C83.18257813 354.57142578 82.46134766 354.94460938 81.71826172 355.32910156 C78.02625117 357.20039458 74.75437764 358.74343775 70.59130859 359.26074219 C70.59130859 359.92074219 70.59130859 360.58074219 70.59130859 361.26074219 C67.95130859 361.59074219 65.31130859 361.92074219 62.59130859 362.26074219 C62.59130859 362.92074219 62.59130859 363.58074219 62.59130859 364.26074219 C59.62130859 364.59074219 56.65130859 364.92074219 53.59130859 365.26074219 C53.59130859 365.92074219 53.59130859 366.58074219 53.59130859 367.26074219 C49.96130859 367.59074219 46.33130859 367.92074219 42.59130859 368.26074219 C42.59130859 368.92074219 42.59130859 369.58074219 42.59130859 370.26074219 C30.42571208 372.21132541 18.48675756 372.57225531 6.18261719 372.52148438 C3.09599165 372.51075846 0.0099479 372.52144333 -3.07666016 372.53417969 C-14.351417 372.54095375 -25.26489463 372.04749412 -36.40869141 370.26074219 C-36.40869141 369.60074219 -36.40869141 368.94074219 -36.40869141 368.26074219 C-40.03869141 367.93074219 -43.66869141 367.60074219 -47.40869141 367.26074219 C-47.40869141 366.60074219 -47.40869141 365.94074219 -47.40869141 365.26074219 C-50.37869141 364.93074219 -53.34869141 364.60074219 -56.40869141 364.26074219 C-56.40869141 363.60074219 -56.40869141 362.94074219 -56.40869141 362.26074219 C-59.04869141 361.93074219 -61.68869141 361.60074219 -64.40869141 361.26074219 C-64.40869141 360.60074219 -64.40869141 359.94074219 -64.40869141 359.26074219 C-65.06869141 359.17566406 -65.72869141 359.09058594 -66.40869141 359.00292969 C-70.3931701 358.01718626 -73.77225 356.2576373 -77.40869141 354.38574219 C-78.10736328 354.03382813 -78.80603516 353.68191406 -79.52587891 353.31933594 C-87.36942154 349.33836807 -87.36942154 349.33836807 -90.40869141 347.26074219 C-90.40869141 346.60074219 -90.40869141 345.94074219 -90.40869141 345.26074219 C-92.05869141 344.93074219 -93.70869141 344.60074219 -95.40869141 344.26074219 C-95.40869141 343.60074219 -95.40869141 342.94074219 -95.40869141 342.26074219 C-96.72869141 341.93074219 -98.04869141 341.60074219 -99.40869141 341.26074219 C-99.40869141 340.60074219 -99.40869141 339.94074219 -99.40869141 339.26074219 C-100.17181641 339.15761719 -100.93494141 339.05449219 -101.72119141 338.94824219 C-104.59285624 338.21363025 -105.63911234 337.58913569 -107.40869141 335.26074219 C-107.40869141 334.60074219 -107.40869141 333.94074219 -107.40869141 333.26074219 C-108.72869141 332.93074219 -110.04869141 332.60074219 -111.40869141 332.26074219 C-111.40869141 331.60074219 -111.40869141 330.94074219 -111.40869141 330.26074219 C-112.39869141 329.93074219 -113.38869141 329.60074219 -114.40869141 329.26074219 C-114.40869141 328.60074219 -114.40869141 327.94074219 -114.40869141 327.26074219 C-115.06869141 327.26074219 -115.72869141 327.26074219 -116.40869141 327.26074219 C-118.03369141 325.88574219 -118.03369141 325.88574219 -119.40869141 324.26074219 C-119.40869141 323.60074219 -119.40869141 322.94074219 -119.40869141 322.26074219 C-120.39869141 321.93074219 -121.38869141 321.60074219 -122.40869141 321.26074219 C-122.40869141 320.60074219 -122.40869141 319.94074219 -122.40869141 319.26074219 C-123.39869141 318.93074219 -124.38869141 318.60074219 -125.40869141 318.26074219 C-125.40869141 317.60074219 -125.40869141 316.94074219 -125.40869141 316.26074219 C-126.39869141 315.93074219 -127.38869141 315.60074219 -128.40869141 315.26074219 C-128.40869141 314.60074219 -128.40869141 313.94074219 -128.40869141 313.26074219 C-129.39869141 312.93074219 -130.38869141 312.60074219 -131.40869141 312.26074219 C-132.43481089 310.61002823 -133.43177284 308.94104213 -134.40869141 307.26074219 C-135.08931641 306.60074219 -135.76994141 305.94074219 -136.47119141 305.26074219 C-138.61033219 303.05259686 -139.44446354 301.15342578 -140.40869141 298.26074219 C-141.06869141 298.26074219 -141.72869141 298.26074219 -142.40869141 298.26074219 C-142.40869141 297.27074219 -142.40869141 296.28074219 -142.40869141 295.26074219 C-143.06869141 295.26074219 -143.72869141 295.26074219 -144.40869141 295.26074219 C-148.40869141 289.96662454 -148.40869141 289.96662454 -148.40869141 286.26074219 C-149.06869141 286.26074219 -149.72869141 286.26074219 -150.40869141 286.26074219 C-150.73869141 284.61074219 -151.06869141 282.96074219 -151.40869141 281.26074219 C-152.06869141 281.26074219 -152.72869141 281.26074219 -153.40869141 281.26074219 C-153.73869141 279.28074219 -154.06869141 277.30074219 -154.40869141 275.26074219 C-155.06869141 275.26074219 -155.72869141 275.26074219 -156.40869141 275.26074219 C-156.73869141 273.28074219 -157.06869141 271.30074219 -157.40869141 269.26074219 C-158.06869141 269.26074219 -158.72869141 269.26074219 -159.40869141 269.26074219 C-160.41727563 266.84734423 -161.41571813 264.43055544 -162.40869141 262.01074219 C-162.69486328 261.32882812 -162.98103516 260.64691406 -163.27587891 259.94433594 C-164.70214634 256.44658484 -165.40869141 254.0917403 -165.40869141 250.26074219 C-166.06869141 250.26074219 -166.72869141 250.26074219 -167.40869141 250.26074219 C-167.90369141 245.31074219 -167.90369141 245.31074219 -168.40869141 240.26074219 C-169.06869141 240.26074219 -169.72869141 240.26074219 -170.40869141 240.26074219 C-170.90369141 234.32074219 -170.90369141 234.32074219 -171.40869141 228.26074219 C-172.06869141 228.26074219 -172.72869141 228.26074219 -173.40869141 228.26074219 C-175.35898639 215.34170388 -175.72005886 202.60333543 -175.66943359 189.54980469 C-175.6587078 186.26576277 -175.66939253 182.98226768 -175.68212891 179.69824219 C-175.68888185 167.74013725 -175.19461353 156.09095071 -173.40869141 144.26074219 C-172.74869141 144.26074219 -172.08869141 144.26074219 -171.40869141 144.26074219 C-171.07869141 140.30074219 -170.74869141 136.34074219 -170.40869141 132.26074219 C-169.74869141 132.26074219 -169.08869141 132.26074219 -168.40869141 132.26074219 C-168.07869141 128.96074219 -167.74869141 125.66074219 -167.40869141 122.26074219 C-166.74869141 122.26074219 -166.08869141 122.26074219 -165.40869141 122.26074219 C-165.34681641 121.35324219 -165.28494141 120.44574219 -165.22119141 119.51074219 C-164.43767342 113.75307217 -161.75106421 108.52459842 -159.40869141 103.26074219 C-158.74869141 103.26074219 -158.08869141 103.26074219 -157.40869141 103.26074219 C-157.07869141 101.28074219 -156.74869141 99.30074219 -156.40869141 97.26074219 C-155.74869141 97.26074219 -155.08869141 97.26074219 -154.40869141 97.26074219 C-154.07869141 95.28074219 -153.74869141 93.30074219 -153.40869141 91.26074219 C-152.74869141 91.26074219 -152.08869141 91.26074219 -151.40869141 91.26074219 C-151.07869141 89.61074219 -150.74869141 87.96074219 -150.40869141 86.26074219 C-149.74869141 86.26074219 -149.08869141 86.26074219 -148.40869141 86.26074219 C-148.30556641 85.70386719 -148.20244141 85.14699219 -148.09619141 84.57324219 C-147.26690732 81.78383208 -146.06570085 79.64683579 -144.40869141 77.26074219 C-143.74869141 77.26074219 -143.08869141 77.26074219 -142.40869141 77.26074219 C-142.40869141 76.27074219 -142.40869141 75.28074219 -142.40869141 74.26074219 C-141.74869141 74.26074219 -141.08869141 74.26074219 -140.40869141 74.26074219 C-140.20244141 73.58011719 -139.99619141 72.89949219 -139.78369141 72.19824219 C-138.23293544 68.88526352 -136.28398417 66.60294069 -133.84619141 63.90917969 C-132.21594454 62.11114285 -132.21594454 62.11114285 -130.40869141 59.26074219 C-129.74869141 59.26074219 -129.08869141 59.26074219 -128.40869141 59.26074219 C-128.07869141 58.27074219 -127.74869141 57.28074219 -127.40869141 56.26074219 C-126.74869141 56.26074219 -126.08869141 56.26074219 -125.40869141 56.26074219 C-125.07869141 55.27074219 -124.74869141 54.28074219 -124.40869141 53.26074219 C-123.74869141 53.26074219 -123.08869141 53.26074219 -122.40869141 53.26074219 C-122.07869141 52.27074219 -121.74869141 51.28074219 -121.40869141 50.26074219 C-120.74869141 50.26074219 -120.08869141 50.26074219 -119.40869141 50.26074219 C-119.40869141 49.60074219 -119.40869141 48.94074219 -119.40869141 48.26074219 C-118.03369141 46.63574219 -118.03369141 46.63574219 -116.40869141 45.26074219 C-115.74869141 45.26074219 -115.08869141 45.26074219 -114.40869141 45.26074219 C-114.07869141 44.27074219 -113.74869141 43.28074219 -113.40869141 42.26074219 C-112.74869141 42.26074219 -112.08869141 42.26074219 -111.40869141 42.26074219 C-111.40869141 41.60074219 -111.40869141 40.94074219 -111.40869141 40.26074219 C-110.08869141 39.93074219 -108.76869141 39.60074219 -107.40869141 39.26074219 C-107.40869141 38.60074219 -107.40869141 37.94074219 -107.40869141 37.26074219 C-105.63911234 34.93234868 -104.59285624 34.30785412 -101.72119141 33.57324219 C-100.57650391 33.41855469 -100.57650391 33.41855469 -99.40869141 33.26074219 C-99.40869141 32.60074219 -99.40869141 31.94074219 -99.40869141 31.26074219 C-98.08869141 30.93074219 -96.76869141 30.60074219 -95.40869141 30.26074219 C-95.40869141 29.60074219 -95.40869141 28.94074219 -95.40869141 28.26074219 C-93.75869141 27.93074219 -92.10869141 27.60074219 -90.40869141 27.26074219 C-90.40869141 26.60074219 -90.40869141 25.94074219 -90.40869141 25.26074219 C-83.72315801 20.25036502 -72.850566 13.26074219 -64.40869141 13.26074219 C-64.40869141 12.60074219 -64.40869141 11.94074219 -64.40869141 11.26074219 C-61.76869141 10.93074219 -59.12869141 10.60074219 -56.40869141 10.26074219 C-56.40869141 9.60074219 -56.40869141 8.94074219 -56.40869141 8.26074219 C-51.95369141 7.76574219 -51.95369141 7.76574219 -47.40869141 7.26074219 C-47.40869141 6.60074219 -47.40869141 5.94074219 -47.40869141 5.26074219 C-43.77869141 4.93074219 -40.14869141 4.60074219 -36.40869141 4.26074219 C-36.40869141 3.60074219 -36.40869141 2.94074219 -36.40869141 2.26074219 C-24.24309489 0.31015896 -12.30414038 -0.05077093 0 0 Z M-46.40869141 21.26074219 C-46.40869141 21.92074219 -46.40869141 22.58074219 -46.40869141 23.26074219 C-47.27236328 23.37675781 -48.13603516 23.49277344 -49.02587891 23.61230469 C-52.45285667 24.26920805 -55.3237321 25.28115578 -58.53369141 26.63574219 C-59.54689453 27.05597656 -60.56009766 27.47621094 -61.60400391 27.90917969 C-64.17804919 29.14959705 -66.14698106 30.54351766 -68.40869141 32.26074219 C-71.03246447 33.4242036 -73.6951535 34.31100392 -76.40869141 35.26074219 C-76.40869141 35.92074219 -76.40869141 36.58074219 -76.40869141 37.26074219 C-77.33681641 37.42574219 -78.26494141 37.59074219 -79.22119141 37.76074219 C-85.1022411 39.43595028 -89.64993209 43.57718372 -94.40869141 47.26074219 C-95.30201172 47.92460938 -96.19533203 48.58847656 -97.11572266 49.27246094 C-100.34464506 51.66698952 -100.34464506 51.66698952 -103.40869141 54.26074219 C-103.40869141 54.92074219 -103.40869141 55.58074219 -103.40869141 56.26074219 C-103.96041016 56.48761719 -104.51212891 56.71449219 -105.08056641 56.94824219 C-113.60027795 61.75130105 -120.6240597 71.57864586 -126.40869141 79.26074219 C-126.90240234 79.89882812 -127.39611328 80.53691406 -127.90478516 81.19433594 C-130.32707757 84.42166322 -131.94565174 87.52782827 -133.40869141 91.26855469 C-134.72429554 93.88948481 -136.43964696 96.05758751 -138.22119141 98.38574219 C-146.50033232 109.49042477 -151.69586761 123.14334852 -153.81884766 136.81152344 C-154.40869141 139.26074219 -154.40869141 139.26074219 -155.84130859 142.47167969 C-161.10348916 154.62708515 -160.86073166 168.24207053 -160.74487305 181.23510742 C-160.72107631 184.0870355 -160.72436478 186.93803528 -160.73095703 189.79003906 C-160.71783075 198.79065337 -160.63075681 207.48344399 -158.40869141 216.26074219 C-158.22121338 217.06229736 -158.03373535 217.86385254 -157.84057617 218.68969727 C-157.27169433 221.05688714 -156.66266374 223.40885774 -156.03369141 225.76074219 C-155.81600098 226.58098877 -155.59831055 227.40123535 -155.37402344 228.24633789 C-153.71298847 234.38755665 -151.7479486 240.34262143 -149.40869141 246.26074219 C-148.82307434 247.82238769 -148.23954647 249.38481921 -147.65869141 250.94824219 C-147.24619141 252.04136719 -146.83369141 253.13449219 -146.40869141 254.26074219 C-145.74869141 254.26074219 -145.08869141 254.26074219 -144.40869141 254.26074219 C-144.32619141 255.12699219 -144.24369141 255.99324219 -144.15869141 256.88574219 C-143.29106546 260.79005892 -141.70871155 263.01365492 -139.40869141 266.26074219 C-137.04864937 270.52697202 -135.62728912 274.57382792 -134.40869141 279.26074219 C-133.74869141 279.26074219 -133.08869141 279.26074219 -132.40869141 279.26074219 C-131.74869141 280.91074219 -131.08869141 282.56074219 -130.40869141 284.26074219 C-129.74869141 284.26074219 -129.08869141 284.26074219 -128.40869141 284.26074219 C-128.22306641 285.12699219 -128.03744141 285.99324219 -127.84619141 286.88574219 C-126.20439578 290.74039279 -124.58267057 291.98227208 -121.38916016 294.51074219 C-119.14074586 296.4975067 -117.4266359 298.63450593 -115.59619141 301.01074219 C-104.18096018 315.62486739 -89.01894521 327.4266966 -72.24072266 335.35449219 C-70.36342373 336.28313473 -68.62477317 337.34402291 -66.84619141 338.44824219 C-63.07294707 340.43777102 -60.59657442 340.91887419 -56.40869141 341.26074219 C-56.40869141 341.92074219 -56.40869141 342.58074219 -56.40869141 343.26074219 C-52.24694968 345.07897886 -48.00140179 346.16202475 -43.59619141 347.19824219 C-35.06112489 349.25657505 -35.06112489 349.25657505 -31.03369141 350.88574219 C-21.28875486 354.58209743 -11.6640307 354.54552482 -1.38330078 354.46655273 C1.11354594 354.44807765 3.61002503 354.44604503 6.10693359 354.44628906 C7.69547848 354.44138059 9.28402087 354.43555523 10.87255859 354.42871094 C11.61832153 354.42759811 12.36408447 354.42648529 13.13244629 354.42533875 C16.98928804 354.45794877 16.98928804 354.45794877 20.59130859 353.26074219 C22.33845092 353.0107201 24.0893 352.78651025 25.84130859 352.57324219 C32.32219633 351.61016055 38.57826482 350.08540207 44.90380859 348.38574219 C45.83418945 348.14122314 46.76457031 347.8967041 47.72314453 347.64477539 C52.74189616 346.26448412 57.26498194 344.64479537 61.82641602 342.12353516 C63.72276949 341.19647565 65.53292337 340.70495728 67.59130859 340.26074219 C67.59130859 339.60074219 67.59130859 338.94074219 67.59130859 338.26074219 C68.29255859 338.15761719 68.99380859 338.05449219 69.71630859 337.94824219 C73.00577142 337.16163151 75.57898557 335.79643628 78.59130859 334.26074219 C80.02485405 333.74951458 81.4625312 333.24974702 82.90380859 332.76074219 C84.12068359 332.26574219 85.33755859 331.77074219 86.59130859 331.26074219 C86.92130859 330.27074219 87.25130859 329.28074219 87.59130859 328.26074219 C89.24454585 327.56129565 90.90319062 326.86520612 92.60693359 326.29980469 C95.47204364 324.7995699 97.33812022 322.5727947 99.59130859 320.26074219 C101.825475 318.27972152 104.11781943 316.36903065 106.40380859 314.44824219 C119.22673046 303.51818035 128.93050763 291.22997127 138.52880859 277.44824219 C139.08463623 276.66022217 139.64046387 275.87220215 140.21313477 275.06030273 C143.51909163 270.24753886 145.70033274 265.77954633 147.59130859 260.26074219 C148.59767624 258.56249678 149.60415459 256.86429963 150.61865234 255.17089844 C152.15642625 252.15093282 152.97525014 248.96547663 153.88037109 245.70996094 C154.59130859 243.26074219 154.59130859 243.26074219 156.02880859 239.63574219 C158.2576418 233.84777743 159.63996376 227.73908488 161.01879883 221.70092773 C161.43581683 219.92348853 161.89113725 218.15490633 162.36889648 216.39282227 C164.89637892 206.2941793 165.08352949 196.48507216 165.03735352 186.11987305 C165.02881175 183.19932183 165.05775884 180.28071256 165.08935547 177.36035156 C165.12375926 167.96182369 164.80379499 159.80375726 161.5559082 150.91088867 C160.21628011 147.23038679 159.71060851 143.69780158 159.15380859 139.82324219 C157.88987703 131.86164618 155.57840832 124.76559833 152.59130859 117.26074219 C152.06150391 115.83568359 152.06150391 115.83568359 151.52099609 114.38183594 C149.68044613 109.51959567 147.58852206 105.49818191 144.59130859 101.26074219 C144.26130859 100.27074219 143.93130859 99.28074219 143.59130859 98.26074219 C142.93130859 97.93074219 142.27130859 97.60074219 141.59130859 97.26074219 C140.53778016 94.95108371 139.53411764 92.61776479 138.59130859 90.26074219 C137.93130859 90.26074219 137.27130859 90.26074219 136.59130859 90.26074219 C136.23359375 89.22820312 136.23359375 89.22820312 135.86865234 88.17480469 C134.34454557 84.69779046 132.35443271 81.70735821 130.15380859 78.63574219 C129.71568848 78.02400146 129.27756836 77.41226074 128.82617188 76.78198242 C122.23635177 67.81632806 114.05058897 60.43506858 105.59130859 53.26074219 C104.93904297 52.68066406 104.28677734 52.10058594 103.61474609 51.50292969 C102.98826172 50.94863281 102.36177734 50.39433594 101.71630859 49.82324219 C101.16201172 49.32953125 100.60771484 48.83582031 100.03662109 48.32714844 C98.62244238 47.06283612 98.62244238 47.06283612 96.59130859 47.26074219 C96.35669922 46.63683594 96.12208984 46.01292969 95.88037109 45.37011719 C94.22307784 42.65818277 92.97714869 42.37098222 89.96630859 41.51074219 C89.14904297 41.26839844 88.33177734 41.02605469 87.48974609 40.77636719 C86.86326172 40.60621094 86.23677734 40.43605469 85.59130859 40.26074219 C85.59130859 39.60074219 85.59130859 38.94074219 85.59130859 38.26074219 C84.62193359 37.80699219 83.65255859 37.35324219 82.65380859 36.88574219 C79.59130859 35.26074219 79.59130859 35.26074219 78.59130859 33.26074219 C76.47167065 32.4205519 74.31874363 31.66367282 72.15380859 30.94824219 C67.84359955 29.48722807 63.7261575 27.93360048 59.71630859 25.76074219 C49.95612907 20.68032033 39.12371936 17.99835777 28.26318359 16.62011719 C25.59130859 16.26074219 25.59130859 16.26074219 23.66114807 15.75132751 C20.21749919 14.93512721 16.70430466 15.01410339 13.18115234 14.95214844 C12.34874023 14.93715805 11.51632812 14.92216766 10.65869141 14.90672302 C7.94870857 14.86702282 5.2390145 14.84207983 2.52880859 14.82324219 C1.61157013 14.81607178 0.69433167 14.80890137 -0.2507019 14.80151367 C-16.36969503 14.73523332 -30.91357895 16.59171939 -46.40869141 21.26074219 Z " fill="#FF8B03" transform="translate(248.40869140625,63.7392578125)"/>
<path d="M0 0 C3.4375 2 3.4375 2 6 4 C6.99 4.70125 7.98 5.4025 9 6.125 C17.11120512 13.129164 20.13174271 23.45366505 21.31640625 33.75 C21.85092024 45.6127621 17.38355963 56.83472251 10 66 C0.15994317 75.63548184 -11.46896784 78.30079499 -24.86767578 78.31469727 C-36.51113776 78.08857165 -46.08377842 72.89578558 -54.26171875 64.74609375 C-63.43176972 54.18612747 -65.17034233 42.59456822 -64.22314453 29.0546875 C-63.02379209 18.01119715 -56.26565448 9.11314746 -47.8203125 2.27734375 C-33.57027853 -7.7221436 -15.20239312 -7.9435928 0 0 Z " fill="#050505" transform="translate(272,146)"/>
<path d="M0 0 C1.7475328 -0.01640121 3.49500309 -0.04347588 5.2421875 -0.08203125 C17.81784146 -0.35791836 29.47983093 -0.08913661 39.52832031 8.60009766 C43.77121197 13.4536288 45.49361137 19.09276307 45.71582031 25.47509766 C45.04140969 33.83778938 42.49577896 38.71029156 36.40332031 44.35009766 C30.82348838 48.35009766 30.82348838 48.35009766 27.40332031 48.35009766 C29.374835 53.21588992 31.61628774 57.5539852 34.41503906 62.01806641 C35.18023392 63.2529556 35.94520137 64.48798572 36.70996094 65.72314453 C37.90498329 67.64085325 39.10282044 69.556697 40.30493164 71.4699707 C41.47439861 73.33546413 42.63279587 75.20747347 43.79003906 77.08056641 C44.48315186 78.18811279 45.17626465 79.29565918 45.89038086 80.43676758 C47.40332031 83.35009766 47.40332031 83.35009766 47.40332031 87.35009766 C43.08687075 87.69274856 38.81597501 87.9277485 34.48535156 87.81884766 C33.77612549 87.80273438 33.06689941 87.78662109 32.33618164 87.77001953 C29.86794036 87.23378422 28.97458727 86.29149051 27.40332031 84.35009766 C26.71793061 82.69104275 26.0550584 81.02265847 25.40332031 79.35009766 C23.98772863 76.73019663 22.46771868 74.17127248 20.96582031 71.60009766 C17.59566431 65.74374977 14.78753243 59.87776284 12.47363281 53.51025391 C9.35701721 50.25838895 6.05825709 50.59779592 1.69970703 50.39086914 C0.94189941 50.37741455 0.1840918 50.36395996 -0.59667969 50.35009766 C-0.58882446 51.97806274 -0.58882446 51.97806274 -0.58081055 53.63891602 C-0.56276133 57.65127747 -0.55124798 61.66363532 -0.54174805 65.67602539 C-0.53670764 67.41528933 -0.52987539 69.15454902 -0.52124023 70.89379883 C-0.50916177 73.38835702 -0.50344861 75.88285939 -0.49902344 78.37744141 C-0.49386215 79.15973618 -0.48870087 79.94203094 -0.48338318 80.74803162 C-0.48318743 82.6157688 -0.53468274 84.4833897 -0.59667969 86.35009766 C-1.59667969 87.35009766 -1.59667969 87.35009766 -4.72167969 87.48291016 C-6.00042969 87.48033203 -7.27917969 87.47775391 -8.59667969 87.47509766 C-9.87542969 87.47767578 -11.15417969 87.48025391 -12.47167969 87.48291016 C-15.59667969 87.35009766 -15.59667969 87.35009766 -16.59667969 86.35009766 C-16.6971124 83.70809705 -16.73284819 81.09221176 -16.72607422 78.44970703 C-16.72782654 77.6221138 -16.72957886 76.79452057 -16.73138428 75.94184875 C-16.73580362 73.19249404 -16.73286452 70.44320309 -16.72949219 67.69384766 C-16.7301652 65.79195137 -16.73113521 63.89005517 -16.73239136 61.98815918 C-16.73386844 57.9966551 -16.73171344 54.00517336 -16.72705078 50.01367188 C-16.72135349 44.88519259 -16.72463244 39.75676563 -16.73062325 34.62828827 C-16.73422857 30.69935712 -16.7330904 26.77043847 -16.73049545 22.84150696 C-16.72982611 20.94997654 -16.73065488 19.05844501 -16.73297501 17.16691589 C-16.73550107 14.52807589 -16.7316616 11.88932185 -16.72607422 9.25048828 C-16.72809845 8.46084183 -16.73012268 7.67119537 -16.73220825 6.85762024 C-16.69369802 -2.90891732 -7.96141207 0.05457063 0 0 Z " fill="#060606" transform="translate(237.5966796875,276.64990234375)"/>
<path d="M0 0 C1.19418297 -0.00855011 1.19418297 -0.00855011 2.41249084 -0.01727295 C4.10644191 -0.02674497 5.80041158 -0.03326562 7.49438477 -0.03710938 C10.05584398 -0.04671815 12.61646709 -0.07767799 15.17773438 -0.109375 C36.46028088 -0.25308619 36.46028088 -0.25308619 44.66015625 7.640625 C45.47484375 8.40246094 46.28953125 9.16429687 47.12890625 9.94921875 C51.17751079 14.44161264 51.50007204 18.07736529 51.47265625 24.015625 C51.48876953 24.70205078 51.50488281 25.38847656 51.52148438 26.09570312 C51.52731017 32.25357172 49.79015645 36.57004776 46.53515625 41.828125 C40.44637363 47.91690762 32.3148532 51.28084103 23.76171875 51.3984375 C21.7694256 51.38710727 19.77720569 51.36128181 17.78515625 51.328125 C14.27890625 51.286875 10.77265625 51.245625 7.16015625 51.203125 C7.16015625 62.753125 7.16015625 74.303125 7.16015625 86.203125 C4.2938183 87.63629398 1.78780124 87.33512861 -1.40234375 87.328125 C-3.16771484 87.33199219 -3.16771484 87.33199219 -4.96875 87.3359375 C-7.83984375 87.203125 -7.83984375 87.203125 -8.83984375 86.203125 C-8.94027646 83.56112439 -8.97601225 80.9452391 -8.96923828 78.30273438 C-8.9709906 77.47514114 -8.97274292 76.64754791 -8.97454834 75.7948761 C-8.97896768 73.04552138 -8.97602858 70.29623043 -8.97265625 67.546875 C-8.97332927 65.64497871 -8.97429927 63.74308251 -8.97555542 61.84118652 C-8.9770325 57.84968245 -8.9748775 53.85820071 -8.97021484 49.86669922 C-8.96451755 44.73821993 -8.9677965 39.60979298 -8.97378731 34.48131561 C-8.97739264 30.55238446 -8.97625447 26.62346582 -8.97365952 22.6945343 C-8.97299017 20.80300388 -8.97381894 18.91147235 -8.97613907 17.01994324 C-8.97866513 14.38110323 -8.97482566 11.74234919 -8.96923828 9.10351562 C-8.97126251 8.31386917 -8.97328674 7.52422272 -8.97537231 6.71064758 C-8.9454242 -0.88446221 -6.87969829 0.03783379 0 0 Z " fill="#060606" transform="translate(305.83984375,276.796875)"/>
<path d="M0 0 C1.11785889 -0.00315216 2.23571777 -0.00630432 3.38745117 -0.009552 C5.21240112 -0.00651566 5.21240112 -0.00651566 7.07421875 -0.00341797 C8.31341064 -0.00437469 9.55260254 -0.00533142 10.8293457 -0.00631714 C13.45560156 -0.00699921 16.08176508 -0.00564085 18.70800781 -0.00097656 C22.08100589 0.00472073 25.4539244 0.00144151 28.82691956 -0.00454903 C32.03435552 -0.00902317 35.24178175 -0.00589429 38.44921875 -0.00341797 C39.66585205 -0.0054422 40.88248535 -0.00746643 42.13598633 -0.009552 C43.81277466 -0.00482376 43.81277466 -0.00482376 45.5234375 0 C46.51303467 0.00079559 47.50263184 0.00159119 48.5222168 0.00241089 C50.76171875 0.12939453 50.76171875 0.12939453 51.76171875 1.12939453 C51.76171875 5.41939453 51.76171875 9.70939453 51.76171875 14.12939453 C38.23171875 14.45939453 24.70171875 14.78939453 10.76171875 15.12939453 C10.43171875 21.72939453 10.10171875 28.32939453 9.76171875 35.12939453 C22.63171875 35.12939453 35.50171875 35.12939453 48.76171875 35.12939453 C48.76171875 39.74939453 48.76171875 44.36939453 48.76171875 49.12939453 C35.89171875 49.12939453 23.02171875 49.12939453 9.76171875 49.12939453 C9.76171875 56.71939453 9.76171875 64.30939453 9.76171875 72.12939453 C12.85417969 72.11779297 15.94664062 72.10619141 19.1328125 72.09423828 C22.11466367 72.08644852 25.09651372 72.0803713 28.07836914 72.07446289 C30.15715031 72.06942165 32.23592791 72.06258879 34.31469727 72.05395508 C37.29574461 72.04188031 40.27674524 72.03616429 43.2578125 72.03173828 C44.66092934 72.02399635 44.66092934 72.02399635 46.09239197 72.01609802 C46.95320877 72.01602249 47.81402557 72.01594696 48.70092773 72.01586914 C49.4625975 72.01364853 50.22426727 72.01142792 51.00901794 72.00914001 C52.76171875 72.12939453 52.76171875 72.12939453 53.76171875 73.12939453 C53.86064815 75.2942025 53.89142975 77.46233238 53.88671875 79.62939453 C53.89058594 81.40830078 53.89058594 81.40830078 53.89453125 83.22314453 C53.76171875 86.12939453 53.76171875 86.12939453 52.76171875 87.12939453 C50.9927184 87.23356246 49.21956167 87.26793273 47.44750977 87.2746582 C46.31285782 87.28103806 45.17820587 87.28741791 44.00917053 87.29399109 C42.77380051 87.29510391 41.53843048 87.29621674 40.265625 87.29736328 C39.00660873 87.30069168 37.74759247 87.30402008 36.45042419 87.30744934 C33.7812854 87.31252397 31.11224834 87.31528867 28.44311523 87.31469727 C25.0185916 87.31459563 21.59427524 87.32824654 18.16980076 87.34546947 C14.91008311 87.35924569 11.65036783 87.35867779 8.390625 87.35986328 C7.15727921 87.3670488 5.92393341 87.37423431 4.6532135 87.38163757 C2.94650734 87.37702263 2.94650734 87.37702263 1.20532227 87.37231445 C0.20018082 87.37373947 -0.80496063 87.37516449 -1.84056091 87.37663269 C-4.23828125 87.12939453 -4.23828125 87.12939453 -6.23828125 85.12939453 C-6.4315163 82.4542644 -6.50056097 79.88309084 -6.48120117 77.20727539 C-6.48309952 76.3892897 -6.48499786 75.57130402 -6.48695374 74.72853088 C-6.49066716 72.01700341 -6.47995015 69.30574206 -6.46875 66.59423828 C-6.46755851 64.71619193 -6.46710497 62.83814498 -6.46736145 60.96009827 C-6.46579566 57.02161944 -6.45749805 53.08323139 -6.4440918 49.14477539 C-6.42709015 44.08469926 -6.42327773 39.02472289 -6.42403698 33.96462154 C-6.42376568 30.08629903 -6.41829108 26.20799852 -6.41103554 22.3296833 C-6.40784328 20.46327443 -6.40588017 18.59686305 -6.40514183 16.73045158 C-6.4029848 14.12763044 -6.39425484 11.52491727 -6.38354492 8.92211914 C-6.38399811 8.14339447 -6.38445129 7.3646698 -6.38491821 6.56234741 C-6.34733707 0.3477929 -6.1354673 0.00493265 0 0 Z " fill="#070707" transform="translate(153.23828125,276.87060546875)"/>
<path d="M0 0 C20.18348046 -0.02363725 40.36695674 -0.04123453 60.55044842 -0.05181217 C69.93215611 -0.05686456 79.31385473 -0.06370967 88.69555664 -0.07543945 C139.80587946 -0.13807842 190.89592427 0.18340949 242 1 C242 5.29 242 9.58 242 14 C192.48892019 14.17468077 142.99267728 13.71016504 93.4856354 13.10923576 C83.25474864 12.9852095 73.02381003 12.86572838 62.79286659 12.74648476 C41.86185318 12.50243524 20.9309054 12.25313395 0 12 C0 8.04 0 4.08 0 0 Z " fill="#030303" transform="translate(128,240)"/>
<path d="M0 0 C41.61290323 0 41.61290323 0 49.546875 7.453125 C54.90290013 13.69131897 55.50507706 18.41155291 55.37890625 26.51171875 C54.67488117 32.9931043 51.67071234 36.29131692 47.25 40.8125 C43.32012941 43.4576052 39.52237733 44.7251203 35 46 C34.01 46.33 33.02 46.66 32 47 C30.59175107 47.08021999 29.18002769 47.10765977 27.76953125 47.09765625 C27.04612549 47.09515869 26.32271973 47.09266113 25.57739258 47.09008789 C24.20877075 47.07643188 24.20877075 47.07643188 22.8125 47.0625 C19.904375 47.041875 16.99625 47.02125 14 47 C14 57.56 14 68.12 14 79 C9.38 79 4.76 79 0 79 C0 52.93 0 26.86 0 0 Z " fill="#040404" transform="translate(145,143)"/>
<path d="M0 0 C1.06335571 0.01244751 1.06335571 0.01244751 2.14819336 0.02514648 C9.93659695 0.27702143 14.22042558 2.5275849 19.875 7.625 C26.50590793 14.83250862 27.91962366 21.92430477 27.63671875 31.640625 C26.61799022 39.19943517 23.33301001 45.76352165 17.75 51 C10.4274979 56.40812247 3.10494486 57.31934797 -5.875 56.4375 C-13.62025267 54.24301174 -19.74252445 48.91493827 -23.875 42.0625 C-27.40208656 34.21653195 -27.32842953 24.52770475 -24.98828125 16.33203125 C-20.29790454 6.03190167 -11.38831193 -0.17106039 0 0 Z " fill="#FAFAFA" transform="translate(249.875,154.5625)"/>
<path d="M0 0 C1.890625 1.41796875 1.890625 1.41796875 3 3 C2.78938122 6.39707717 1.16339057 8.28731256 -1.0625 10.75 C-1.61035156 11.36359375 -2.15820312 11.9771875 -2.72265625 12.609375 C-3.14417969 13.06828125 -3.56570313 13.5271875 -4 14 C-6.37259141 12.82139087 -8.72179648 11.61700595 -11.0625 10.375 C-15.88123694 8.33510272 -20.86341613 8.39756115 -26 9 C-29.11937969 10.37252707 -30.4897715 10.979543 -32 14 C-32.48731968 18.22343724 -32.28064801 20.47879656 -30.25 24.25 C-26.95614262 27.77516759 -22.8972294 28.14080437 -18.3359375 29.109375 C-10.4802567 31.2066762 -1.45808536 35.39822951 3.10546875 42.4296875 C5.33571453 48.83799197 5.24235185 56.93770663 3.26171875 63.4140625 C-0.31047106 70.0880303 -6.08433367 74.32803801 -13 77 C-24.9564913 79.94580221 -36.56615739 77.9204555 -46.96875 71.6328125 C-49.12374485 69.90052818 -49.98682395 68.54395292 -51 66 C-49.76600937 64.63122884 -48.51219377 63.28030834 -47.25 61.9375 C-46.20585937 60.80634766 -46.20585937 60.80634766 -45.140625 59.65234375 C-43 58 -43 58 -40.91015625 58.09375 C-39 59 -39 59 -36.1875 61.5625 C-31.47656556 65.09313496 -26.13827242 64.56071169 -20.5234375 64.56640625 C-16.51653784 63.92228158 -14.84803037 62.83214916 -12 60 C-10.43064406 56.86128812 -10.64798897 54.46144178 -11 51 C-15.29163027 44.3241307 -24.12272377 42.52821322 -31.34375 40.265625 C-37.50452898 38.26092708 -42.78853943 34.6980946 -46.16796875 29.046875 C-49.09306992 22.07057737 -48.73476824 15.03226118 -46 8 C-35.19278099 -7.31022694 -15.62495499 -9.06349513 0 0 Z " fill="#060606" transform="translate(351,146)"/>
<path d="M0 0 C3.135 -0.0825 6.27 -0.165 9.5 -0.25 C10.47130859 -0.28641602 11.44261719 -0.32283203 12.44335938 -0.36035156 C18.39118503 -0.43536482 23.12433563 0.41424188 28 4 C30.46355497 7.69533245 30.67991175 10.71068017 30 15 C27.65879912 18.90200147 25.12131227 21.13053876 21 23 C17.38603844 23.36411118 13.81491522 23.28177998 10.1875 23.1875 C6.825625 23.125625 3.46375 23.06375 0 23 C0 15.41 0 7.82 0 0 Z " fill="#F6F6F6" transform="translate(237,291)"/>
<path d="M0 0 C3.01125 -0.061875 6.0225 -0.12375 9.125 -0.1875 C10.06230957 -0.21481201 10.99961914 -0.24212402 11.96533203 -0.27026367 C18.00410143 -0.33007257 21.92004215 0.69003162 26.84375 4.3828125 C28.89430111 7.25081304 28.52339137 10.1456145 28.4140625 13.5546875 C28 16 28 16 25.875 19 C20.13398677 22.99374834 14.86820871 23.27241393 8.125 23.125 C5.44375 23.08375 2.7625 23.0425 0 23 C0 15.41 0 7.82 0 0 Z " fill="#FAFAFA" transform="translate(313,291)"/>
<path d="M0 0 C2.825625 -0.0825 5.65125 -0.165 8.5625 -0.25 C9.43849854 -0.28641602 10.31449707 -0.32283203 11.21704102 -0.36035156 C16.98153091 -0.44107395 20.28345078 0.65317138 25 4 C26.60677955 7.21355911 26.46831682 10.51438483 26 14 C24.02995421 17.62488426 22.73392728 18.73840216 18.84375 20.125 C12.54415111 21.55905503 6.44482995 21.11406779 0 21 C0 14.07 0 7.14 0 0 Z " fill="#FAFAFA" transform="translate(159,156)"/>
<path d="M0 0 C0.33 0 0.66 0 1 0 C1.11162201 6.33268845 0.68414166 12.51231608 0.0625 18.8125 C-0.06801758 20.22305664 -0.06801758 20.22305664 -0.20117188 21.66210938 C-0.87228842 28.61686525 -0.87228842 28.61686525 -2 32 C-2.09893013 34.94753588 -2.14139182 37.86542302 -2.125 40.8125 C-2.12234131 41.65748047 -2.11968262 42.50246094 -2.11694336 43.37304688 C-2.30707555 55.87343549 -2.30707555 55.87343549 0 68 C0.12781786 70.67394964 0.04391871 73.32095857 0 76 C0.66 76 1.32 76 2 76 C2 78.97 2 81.94 2 85 C1.67 85 1.34 85 1 85 C0.53676507 83.23044256 0.07975792 81.45925488 -0.375 79.6875 C-0.63023438 78.70136719 -0.88546875 77.71523438 -1.1484375 76.69921875 C-1.42945312 75.47847656 -1.71046875 74.25773437 -2 73 C-2.26574829 71.94679565 -2.26574829 71.94679565 -2.53686523 70.87231445 C-4.52118405 61.89622654 -4.33681217 52.82256166 -4.31567383 43.67749023 C-4.31252607 40.83603066 -4.33599205 37.99562751 -4.36132812 35.15429688 C-4.40201723 23.14577866 -3.83230325 11.49690975 0 0 Z " fill="#FFDAB0" transform="translate(92,207)"/>
<path d="M0 0 C3.57770698 6.67437773 4.27166506 13.52921098 4 21 C4.66 21 5.32 21 6 21 C6 23.97 6 26.94 6 30 C5.67 30 5.34 30 5 30 C-0.41413374 9.31800912 -0.41413374 9.31800912 0 0 Z " fill="#FFCB8E" transform="translate(88,262)"/>
<path d="M0 0 C2 2 2 2 2 6 C2.66 6 3.32 6 4 6 C4.06058594 6.62648437 4.12117188 7.25296875 4.18359375 7.8984375 C4.26738281 8.71570313 4.35117187 9.53296875 4.4375 10.375 C4.55931641 11.59316406 4.55931641 11.59316406 4.68359375 12.8359375 C4.89090114 15.04272805 4.89090114 15.04272805 6 17 C6.039992 18.99960012 6.04346799 21.00047242 6 23 C2.14285345 15.55286857 0.50549371 8.34936165 0 0 Z " fill="#FFB55D" transform="translate(407,202)"/>
<path d="M0 0 C0.66 0.33 1.32 0.66 2 1 C1.01 1.33 0.02 1.66 -1 2 C-1 2.66 -1 3.32 -1 4 C-2.95513161 4.696553 -4.91422476 5.38199565 -6.875 6.0625 C-7.96554687 6.44535156 -9.05609375 6.82820313 -10.1796875 7.22265625 C-13 8 -13 8 -15 7 C-13.75539217 6.32332002 -12.50403104 5.65905281 -11.25 5 C-10.20585937 4.443125 -10.20585937 4.443125 -9.140625 3.875 C-7 3 -7 3 -3 3 C-3 2.34 -3 1.68 -3 1 C-2.01 0.67 -1.02 0.34 0 0 Z " fill="#FFB660" transform="translate(319,401)"/>
<path d="M0 0 C0.33 0 0.66 0 1 0 C1 2.64 1 5.28 1 8 C0.34 8 -0.32 8 -1 8 C-1.04898437 8.61488281 -1.09796875 9.22976563 -1.1484375 9.86328125 C-1.22320312 10.67152344 -1.29796875 11.47976563 -1.375 12.3125 C-1.44460938 13.11300781 -1.51421875 13.91351563 -1.5859375 14.73828125 C-2 17 -2 17 -4 20 C-3.13411482 13.21723277 -1.67513028 6.62573852 0 0 Z " fill="#FFBA68" transform="translate(410,279)"/>
<path d="M0 0 C3.43022354 2.46272459 5.27472607 3.79341119 6 8 C6.66 8.33 7.32 8.66 8 9 C7.67 9.99 7.34 10.98 7 12 C7 11.34 7 10.68 7 10 C6.01 9.67 5.02 9.34 4 9 C3.66666667 7.66666667 3.33333333 6.33333333 3 5 C2.01 4.67 1.02 4.34 0 4 C0 2.68 0 1.36 0 0 Z " fill="#FFC683" transform="translate(113,338)"/>
<path d="M0 0 C4.95 0.99 4.95 0.99 10 2 C10.33 2.99 10.66 3.98 11 5 C13.01508358 5.73323796 13.01508358 5.73323796 15 6 C14.01 6.495 14.01 6.495 13 7 C10.75689987 6.10333658 8.55245679 5.10853317 6.375 4.0625 C5.18648438 3.49660156 3.99796875 2.93070312 2.7734375 2.34765625 C1.85820312 1.90292969 0.94296875 1.45820312 0 1 C0 0.67 0 0.34 0 0 Z " fill="#FFB258" transform="translate(303,87)"/>
<path d="M0 0 C4.96916636 0.51405169 9.29026351 1.23384882 14 3 C10.16455058 4.38076179 6.92847503 3.85712183 3 3 C1.0625 1.4375 1.0625 1.4375 0 0 Z " fill="#FFC27B" transform="translate(199,409)"/>
<path d="M0 0 C1 2 1 2 0.51171875 4.12890625 C0.23972656 4.93199219 -0.03226562 5.73507813 -0.3125 6.5625 C-0.57675781 7.36816406 -0.84101562 8.17382812 -1.11328125 9.00390625 C-2 11 -2 11 -4 12 C-3.33501617 7.61110675 -1.81242323 4.0188515 0 0 Z " fill="#FFC887" transform="translate(104,173)"/>
</svg>
