<?xml version="1.0" encoding="UTF-8"?>
<svg version="1.1" xmlns="http://www.w3.org/2000/svg" width="512" height="512">
<path d="M0 0 C3.08662554 0.01072591 6.17266928 0.00004105 9.25927734 -0.01269531 C20.53403419 -0.01946938 31.44751182 0.47399026 42.59130859 2.26074219 C42.59130859 2.92074219 42.59130859 3.58074219 42.59130859 4.26074219 C48.03630859 4.75574219 48.03630859 4.75574219 53.59130859 5.26074219 C53.59130859 5.92074219 53.59130859 6.58074219 53.59130859 7.26074219 C56.56130859 7.59074219 59.53130859 7.92074219 62.59130859 8.26074219 C62.59130859 8.92074219 62.59130859 9.58074219 62.59130859 10.26074219 C65.23130859 10.59074219 67.87130859 10.92074219 70.59130859 11.26074219 C70.59130859 11.92074219 70.59130859 12.58074219 70.59130859 13.26074219 C71.29126953 13.36515625 71.99123047 13.46957031 72.71240234 13.57714844 C76.00994039 14.36014594 78.64536186 15.64267365 81.65380859 17.19824219 C83.18714844 17.98521484 83.18714844 17.98521484 84.75146484 18.78808594 C85.68861328 19.2740625 86.62576172 19.76003906 87.59130859 20.26074219 C88.92332267 20.93004086 90.25605958 21.59792073 91.59130859 22.26074219 C91.59130859 22.92074219 91.59130859 23.58074219 91.59130859 24.26074219 C93.24130859 24.59074219 94.89130859 24.92074219 96.59130859 25.26074219 C96.59130859 25.92074219 96.59130859 26.58074219 96.59130859 27.26074219 C98.24130859 27.59074219 99.89130859 27.92074219 101.59130859 28.26074219 C101.59130859 28.92074219 101.59130859 29.58074219 101.59130859 30.26074219 C102.91130859 30.59074219 104.23130859 30.92074219 105.59130859 31.26074219 C105.59130859 31.92074219 105.59130859 32.58074219 105.59130859 33.26074219 C106.91130859 33.59074219 108.23130859 33.92074219 109.59130859 34.26074219 C109.59130859 34.92074219 109.59130859 35.58074219 109.59130859 36.26074219 C110.91130859 36.59074219 112.23130859 36.92074219 113.59130859 37.26074219 C113.59130859 37.92074219 113.59130859 38.58074219 113.59130859 39.26074219 C114.18943359 39.36386719 114.78755859 39.46699219 115.40380859 39.57324219 C117.90389145 40.35898251 118.96665942 41.22993072 120.59130859 43.26074219 C120.59130859 43.92074219 120.59130859 44.58074219 120.59130859 45.26074219 C121.25130859 45.26074219 121.91130859 45.26074219 122.59130859 45.26074219 C123.93026492 46.92289486 125.26261002 48.59037826 126.59130859 50.26074219 C127.82880859 51.25074219 127.82880859 51.25074219 129.09130859 52.26074219 C131.7250186 54.3677102 133.53093892 56.60220067 135.59130859 59.26074219 C136.52523437 60.185 136.52523437 60.185 137.47802734 61.12792969 C139.60806115 63.27764958 141.47691999 65.50346785 143.34130859 67.88574219 C143.95490234 68.66175781 144.56849609 69.43777344 145.20068359 70.23730469 C146.59130859 72.26074219 146.59130859 72.26074219 146.59130859 74.26074219 C147.25130859 74.26074219 147.91130859 74.26074219 148.59130859 74.26074219 C148.92130859 75.91074219 149.25130859 77.56074219 149.59130859 79.26074219 C150.25130859 79.26074219 150.91130859 79.26074219 151.59130859 79.26074219 C151.92130859 80.25074219 152.25130859 81.24074219 152.59130859 82.26074219 C153.25130859 82.59074219 153.91130859 82.92074219 154.59130859 83.26074219 C157.59130859 88.68381911 157.59130859 88.68381911 157.59130859 91.26074219 C158.25130859 91.26074219 158.91130859 91.26074219 159.59130859 91.26074219 C159.92130859 93.24074219 160.25130859 95.22074219 160.59130859 97.26074219 C161.25130859 97.26074219 161.91130859 97.26074219 162.59130859 97.26074219 C162.92130859 99.24074219 163.25130859 101.22074219 163.59130859 103.26074219 C164.25130859 103.26074219 164.91130859 103.26074219 165.59130859 103.26074219 C165.92130859 105.57074219 166.25130859 107.88074219 166.59130859 110.26074219 C167.25130859 110.26074219 167.91130859 110.26074219 168.59130859 110.26074219 C168.92130859 112.90074219 169.25130859 115.54074219 169.59130859 118.26074219 C170.25130859 118.26074219 170.91130859 118.26074219 171.59130859 118.26074219 C173.84810503 126.00487614 176.02482699 133.74678235 177.93505859 141.58496094 C178.33525009 143.21669413 178.74858839 144.84536776 179.18505859 146.46777344 C181.52108321 155.17633579 181.74193777 163.79177619 181.72412109 172.76074219 C181.72555618 174.37432617 181.72555618 174.37432617 181.72702026 176.02050781 C181.7276973 178.2828782 181.72587643 180.54525059 181.72167969 182.80761719 C181.71632473 186.25037034 181.72164097 189.69299305 181.72802734 193.13574219 C181.72736648 195.34407581 181.72608514 197.55240934 181.72412109 199.76074219 C181.72614532 200.77974609 181.72816956 201.79875 181.73025513 202.84863281 C181.70423432 210.86669982 181.19829388 218.50769288 179.12207031 226.26904297 C178.57584638 228.3187646 178.09426449 230.37538787 177.62646484 232.44433594 C175.93556912 239.85358034 174.19306151 247.10592166 171.59130859 254.26074219 C170.93130859 254.26074219 170.27130859 254.26074219 169.59130859 254.26074219 C169.26130859 256.90074219 168.93130859 259.54074219 168.59130859 262.26074219 C167.93130859 262.26074219 167.27130859 262.26074219 166.59130859 262.26074219 C166.26130859 264.57074219 165.93130859 266.88074219 165.59130859 269.26074219 C164.93130859 269.26074219 164.27130859 269.26074219 163.59130859 269.26074219 C163.26130859 271.24074219 162.93130859 273.22074219 162.59130859 275.26074219 C161.93130859 275.26074219 161.27130859 275.26074219 160.59130859 275.26074219 C160.26130859 277.24074219 159.93130859 279.22074219 159.59130859 281.26074219 C158.93130859 281.26074219 158.27130859 281.26074219 157.59130859 281.26074219 C156.51605665 283.91303031 155.49674708 286.54442673 154.59130859 289.26074219 C153.93130859 289.59074219 153.27130859 289.92074219 152.59130859 290.26074219 C152.26130859 291.25074219 151.93130859 292.24074219 151.59130859 293.26074219 C150.93130859 293.26074219 150.27130859 293.26074219 149.59130859 293.26074219 C149.26130859 294.91074219 148.93130859 296.56074219 148.59130859 298.26074219 C147.93130859 298.26074219 147.27130859 298.26074219 146.59130859 298.26074219 C146.28193359 299.28167969 146.28193359 299.28167969 145.96630859 300.32324219 C144.42440555 303.61730779 142.51326221 305.87116442 140.10302734 308.56152344 C138.84932881 309.97071946 137.67713725 311.45193515 136.52880859 312.94824219 C134.43588169 315.44625172 132.13108498 317.22892108 129.59130859 319.26074219 C128.22886063 320.90369414 126.89265984 322.56898556 125.59130859 324.26074219 C123.96630859 326.07324219 123.96630859 326.07324219 122.59130859 327.26074219 C121.93130859 327.26074219 121.27130859 327.26074219 120.59130859 327.26074219 C120.59130859 327.92074219 120.59130859 328.58074219 120.59130859 329.26074219 C116.12072036 333.26074219 116.12072036 333.26074219 113.59130859 333.26074219 C113.59130859 333.92074219 113.59130859 334.58074219 113.59130859 335.26074219 C112.27130859 335.59074219 110.95130859 335.92074219 109.59130859 336.26074219 C109.59130859 336.92074219 109.59130859 337.58074219 109.59130859 338.26074219 C108.27130859 338.59074219 106.95130859 338.92074219 105.59130859 339.26074219 C105.59130859 339.92074219 105.59130859 340.58074219 105.59130859 341.26074219 C104.27130859 341.59074219 102.95130859 341.92074219 101.59130859 342.26074219 C101.59130859 342.92074219 101.59130859 343.58074219 101.59130859 344.26074219 C99.94130859 344.59074219 98.29130859 344.92074219 96.59130859 345.26074219 C96.59130859 345.92074219 96.59130859 346.58074219 96.59130859 347.26074219 C94.94130859 347.59074219 93.29130859 347.92074219 91.59130859 348.26074219 C91.59130859 348.92074219 91.59130859 349.58074219 91.59130859 350.26074219 C89.03244355 351.58076775 86.46963791 352.89188 83.90380859 354.19824219 C83.18257813 354.57142578 82.46134766 354.94460938 81.71826172 355.32910156 C78.02625117 357.20039458 74.75437764 358.74343775 70.59130859 359.26074219 C70.59130859 359.92074219 70.59130859 360.58074219 70.59130859 361.26074219 C67.95130859 361.59074219 65.31130859 361.92074219 62.59130859 362.26074219 C62.59130859 362.92074219 62.59130859 363.58074219 62.59130859 364.26074219 C59.62130859 364.59074219 56.65130859 364.92074219 53.59130859 365.26074219 C53.59130859 365.92074219 53.59130859 366.58074219 53.59130859 367.26074219 C49.96130859 367.59074219 46.33130859 367.92074219 42.59130859 368.26074219 C42.59130859 368.92074219 42.59130859 369.58074219 42.59130859 370.26074219 C30.42571208 372.21132541 18.48675756 372.57225531 6.18261719 372.52148438 C3.09599165 372.51075846 0.0099479 372.52144333 -3.07666016 372.53417969 C-14.351417 372.54095375 -25.26489463 372.04749412 -36.40869141 370.26074219 C-36.40869141 369.60074219 -36.40869141 368.94074219 -36.40869141 368.26074219 C-40.03869141 367.93074219 -43.66869141 367.60074219 -47.40869141 367.26074219 C-47.40869141 366.60074219 -47.40869141 365.94074219 -47.40869141 365.26074219 C-50.37869141 364.93074219 -53.34869141 364.60074219 -56.40869141 364.26074219 C-56.40869141 363.60074219 -56.40869141 362.94074219 -56.40869141 362.26074219 C-59.04869141 361.93074219 -61.68869141 361.60074219 -64.40869141 361.26074219 C-64.40869141 360.60074219 -64.40869141 359.94074219 -64.40869141 359.26074219 C-65.06869141 359.17566406 -65.72869141 359.09058594 -66.40869141 359.00292969 C-70.3931701 358.01718626 -73.77225 356.2576373 -77.40869141 354.38574219 C-78.10736328 354.03382813 -78.80603516 353.68191406 -79.52587891 353.31933594 C-87.36942154 349.33836807 -87.36942154 349.33836807 -90.40869141 347.26074219 C-90.40869141 346.60074219 -90.40869141 345.94074219 -90.40869141 345.26074219 C-92.05869141 344.93074219 -93.70869141 344.60074219 -95.40869141 344.26074219 C-95.40869141 343.60074219 -95.40869141 342.94074219 -95.40869141 342.26074219 C-96.72869141 341.93074219 -98.04869141 341.60074219 -99.40869141 341.26074219 C-99.40869141 340.60074219 -99.40869141 339.94074219 -99.40869141 339.26074219 C-100.17181641 339.15761719 -100.93494141 339.05449219 -101.72119141 338.94824219 C-104.59285624 338.21363025 -105.63911234 337.58913569 -107.40869141 335.26074219 C-107.40869141 334.60074219 -107.40869141 333.94074219 -107.40869141 333.26074219 C-108.72869141 332.93074219 -110.04869141 332.60074219 -111.40869141 332.26074219 C-111.40869141 331.60074219 -111.40869141 330.94074219 -111.40869141 330.26074219 C-112.39869141 329.93074219 -113.38869141 329.60074219 -114.40869141 329.26074219 C-114.40869141 328.60074219 -114.40869141 327.94074219 -114.40869141 327.26074219 C-115.06869141 327.26074219 -115.72869141 327.26074219 -116.40869141 327.26074219 C-118.03369141 325.88574219 -118.03369141 325.88574219 -119.40869141 324.26074219 C-119.40869141 323.60074219 -119.40869141 322.94074219 -119.40869141 322.26074219 C-120.39869141 321.93074219 -121.38869141 321.60074219 -122.40869141 321.26074219 C-122.40869141 320.60074219 -122.40869141 319.94074219 -122.40869141 319.26074219 C-123.39869141 318.93074219 -124.38869141 318.60074219 -125.40869141 318.26074219 C-125.40869141 317.60074219 -125.40869141 316.94074219 -125.40869141 316.26074219 C-126.39869141 315.93074219 -127.38869141 315.60074219 -128.40869141 315.26074219 C-128.40869141 314.60074219 -128.40869141 313.94074219 -128.40869141 313.26074219 C-129.39869141 312.93074219 -130.38869141 312.60074219 -131.40869141 312.26074219 C-132.43481089 310.61002823 -133.43177284 308.94104213 -134.40869141 307.26074219 C-135.08931641 306.60074219 -135.76994141 305.94074219 -136.47119141 305.26074219 C-138.61033219 303.05259686 -139.44446354 301.15342578 -140.40869141 298.26074219 C-141.06869141 298.26074219 -141.72869141 298.26074219 -142.40869141 298.26074219 C-142.40869141 297.27074219 -142.40869141 296.28074219 -142.40869141 295.26074219 C-143.06869141 295.26074219 -143.72869141 295.26074219 -144.40869141 295.26074219 C-148.40869141 289.96662454 -148.40869141 289.96662454 -148.40869141 286.26074219 C-149.06869141 286.26074219 -149.72869141 286.26074219 -150.40869141 286.26074219 C-150.73869141 284.61074219 -151.06869141 282.96074219 -151.40869141 281.26074219 C-152.06869141 281.26074219 -152.72869141 281.26074219 -153.40869141 281.26074219 C-153.73869141 279.28074219 -154.06869141 277.30074219 -154.40869141 275.26074219 C-155.06869141 275.26074219 -155.72869141 275.26074219 -156.40869141 275.26074219 C-156.73869141 273.28074219 -157.06869141 271.30074219 -157.40869141 269.26074219 C-158.06869141 269.26074219 -158.72869141 269.26074219 -159.40869141 269.26074219 C-160.41727563 266.84734423 -161.41571813 264.43055544 -162.40869141 262.01074219 C-162.69486328 261.32882812 -162.98103516 260.64691406 -163.27587891 259.94433594 C-164.70214634 256.44658484 -165.40869141 254.0917403 -165.40869141 250.26074219 C-166.06869141 250.26074219 -166.72869141 250.26074219 -167.40869141 250.26074219 C-167.90369141 245.31074219 -167.90369141 245.31074219 -168.40869141 240.26074219 C-169.06869141 240.26074219 -169.72869141 240.26074219 -170.40869141 240.26074219 C-170.90369141 234.32074219 -170.90369141 234.32074219 -171.40869141 228.26074219 C-172.06869141 228.26074219 -172.72869141 228.26074219 -173.40869141 228.26074219 C-175.35898639 215.34170388 -175.72005886 202.60333543 -175.66943359 189.54980469 C-175.6587078 186.26576277 -175.66939253 182.98226768 -175.68212891 179.69824219 C-175.68888185 167.74013725 -175.19461353 156.09095071 -173.40869141 144.26074219 C-172.74869141 144.26074219 -172.08869141 144.26074219 -171.40869141 144.26074219 C-171.07869141 140.30074219 -170.74869141 136.34074219 -170.40869141 132.26074219 C-169.74869141 132.26074219 -169.08869141 132.26074219 -168.40869141 132.26074219 C-168.07869141 128.96074219 -167.74869141 125.66074219 -167.40869141 122.26074219 C-166.74869141 122.26074219 -166.08869141 122.26074219 -165.40869141 122.26074219 C-165.34681641 121.35324219 -165.28494141 120.44574219 -165.22119141 119.51074219 C-164.43767342 113.75307217 -161.75106421 108.52459842 -159.40869141 103.26074219 C-158.74869141 103.26074219 -158.08869141 103.26074219 -157.40869141 103.26074219 C-157.07869141 101.28074219 -156.74869141 99.30074219 -156.40869141 97.26074219 C-155.74869141 97.26074219 -155.08869141 97.26074219 -154.40869141 97.26074219 C-154.07869141 95.28074219 -153.74869141 93.30074219 -153.40869141 91.26074219 C-152.74869141 91.26074219 -152.08869141 91.26074219 -151.40869141 91.26074219 C-151.07869141 89.61074219 -150.74869141 87.96074219 -150.40869141 86.26074219 C-149.74869141 86.26074219 -149.08869141 86.26074219 -148.40869141 86.26074219 C-148.30556641 85.70386719 -148.20244141 85.14699219 -148.09619141 84.57324219 C-147.26690732 81.78383208 -146.06570085 79.64683579 -144.40869141 77.26074219 C-143.74869141 77.26074219 -143.08869141 77.26074219 -142.40869141 77.26074219 C-142.40869141 76.27074219 -142.40869141 75.28074219 -142.40869141 74.26074219 C-141.74869141 74.26074219 -141.08869141 74.26074219 -140.40869141 74.26074219 C-140.20244141 73.58011719 -139.99619141 72.89949219 -139.78369141 72.19824219 C-138.23293544 68.88526352 -136.28398417 66.60294069 -133.84619141 63.90917969 C-132.21594454 62.11114285 -132.21594454 62.11114285 -130.40869141 59.26074219 C-129.74869141 59.26074219 -129.08869141 59.26074219 -128.40869141 59.26074219 C-128.07869141 58.27074219 -127.74869141 57.28074219 -127.40869141 56.26074219 C-126.74869141 56.26074219 -126.08869141 56.26074219 -125.40869141 56.26074219 C-125.07869141 55.27074219 -124.74869141 54.28074219 -124.40869141 53.26074219 C-123.74869141 53.26074219 -123.08869141 53.26074219 -122.40869141 53.26074219 C-122.07869141 52.27074219 -121.74869141 51.28074219 -121.40869141 50.26074219 C-120.74869141 50.26074219 -120.08869141 50.26074219 -119.40869141 50.26074219 C-119.40869141 49.60074219 -119.40869141 48.94074219 -119.40869141 48.26074219 C-118.03369141 46.63574219 -118.03369141 46.63574219 -116.40869141 45.26074219 C-115.74869141 45.26074219 -115.08869141 45.26074219 -114.40869141 45.26074219 C-114.07869141 44.27074219 -113.74869141 43.28074219 -113.40869141 42.26074219 C-112.74869141 42.26074219 -112.08869141 42.26074219 -111.40869141 42.26074219 C-111.40869141 41.60074219 -111.40869141 40.94074219 -111.40869141 40.26074219 C-110.08869141 39.93074219 -108.76869141 39.60074219 -107.40869141 39.26074219 C-107.40869141 38.60074219 -107.40869141 37.94074219 -107.40869141 37.26074219 C-105.63911234 34.93234868 -104.59285624 34.30785412 -101.72119141 33.57324219 C-100.57650391 33.41855469 -100.57650391 33.41855469 -99.40869141 33.26074219 C-99.40869141 32.60074219 -99.40869141 31.94074219 -99.40869141 31.26074219 C-98.08869141 30.93074219 -96.76869141 30.60074219 -95.40869141 30.26074219 C-95.40869141 29.60074219 -95.40869141 28.94074219 -95.40869141 28.26074219 C-93.75869141 27.93074219 -92.10869141 27.60074219 -90.40869141 27.26074219 C-90.40869141 26.60074219 -90.40869141 25.94074219 -90.40869141 25.26074219 C-83.72315801 20.25036502 -72.850566 13.26074219 -64.40869141 13.26074219 C-64.40869141 12.60074219 -64.40869141 11.94074219 -64.40869141 11.26074219 C-61.76869141 10.93074219 -59.12869141 10.60074219 -56.40869141 10.26074219 C-56.40869141 9.60074219 -56.40869141 8.94074219 -56.40869141 8.26074219 C-51.95369141 7.76574219 -51.95369141 7.76574219 -47.40869141 7.26074219 C-47.40869141 6.60074219 -47.40869141 5.94074219 -47.40869141 5.26074219 C-43.77869141 4.93074219 -40.14869141 4.60074219 -36.40869141 4.26074219 C-36.40869141 3.60074219 -36.40869141 2.94074219 -36.40869141 2.26074219 C-24.24309489 0.31015896 -12.30414038 -0.05077093 0 0 Z " fill="#FEFDFC" transform="translate(252.40869140625,67.7392578125)"/>
<path d="M0 0 C3.08662554 0.01072591 6.17266928 0.00004105 9.25927734 -0.01269531 C20.53403419 -0.01946938 31.44751182 0.47399026 42.59130859 2.26074219 C42.59130859 2.92074219 42.59130859 3.58074219 42.59130859 4.26074219 C48.03630859 4.75574219 48.03630859 4.75574219 53.59130859 5.26074219 C53.59130859 5.92074219 53.59130859 6.58074219 53.59130859 7.26074219 C56.56130859 7.59074219 59.53130859 7.92074219 62.59130859 8.26074219 C62.59130859 8.92074219 62.59130859 9.58074219 62.59130859 10.26074219 C65.23130859 10.59074219 67.87130859 10.92074219 70.59130859 11.26074219 C70.59130859 11.92074219 70.59130859 12.58074219 70.59130859 13.26074219 C71.29126953 13.36515625 71.99123047 13.46957031 72.71240234 13.57714844 C76.00994039 14.36014594 78.64536186 15.64267365 81.65380859 17.19824219 C83.18714844 17.98521484 83.18714844 17.98521484 84.75146484 18.78808594 C85.68861328 19.2740625 86.62576172 19.76003906 87.59130859 20.26074219 C88.92332267 20.93004086 90.25605958 21.59792073 91.59130859 22.26074219 C91.59130859 22.92074219 91.59130859 23.58074219 91.59130859 24.26074219 C93.24130859 24.59074219 94.89130859 24.92074219 96.59130859 25.26074219 C96.59130859 25.92074219 96.59130859 26.58074219 96.59130859 27.26074219 C98.24130859 27.59074219 99.89130859 27.92074219 101.59130859 28.26074219 C101.59130859 28.92074219 101.59130859 29.58074219 101.59130859 30.26074219 C102.91130859 30.59074219 104.23130859 30.92074219 105.59130859 31.26074219 C105.59130859 31.92074219 105.59130859 32.58074219 105.59130859 33.26074219 C106.91130859 33.59074219 108.23130859 33.92074219 109.59130859 34.26074219 C109.59130859 34.92074219 109.59130859 35.58074219 109.59130859 36.26074219 C110.91130859 36.59074219 112.23130859 36.92074219 113.59130859 37.26074219 C113.59130859 37.92074219 113.59130859 38.58074219 113.59130859 39.26074219 C114.18943359 39.36386719 114.78755859 39.46699219 115.40380859 39.57324219 C117.90389145 40.35898251 118.96665942 41.22993072 120.59130859 43.26074219 C120.59130859 43.92074219 120.59130859 44.58074219 120.59130859 45.26074219 C121.25130859 45.26074219 121.91130859 45.26074219 122.59130859 45.26074219 C123.93026492 46.92289486 125.26261002 48.59037826 126.59130859 50.26074219 C127.82880859 51.25074219 127.82880859 51.25074219 129.09130859 52.26074219 C131.7250186 54.3677102 133.53093892 56.60220067 135.59130859 59.26074219 C136.52523437 60.185 136.52523437 60.185 137.47802734 61.12792969 C139.60806115 63.27764958 141.47691999 65.50346785 143.34130859 67.88574219 C143.95490234 68.66175781 144.56849609 69.43777344 145.20068359 70.23730469 C146.59130859 72.26074219 146.59130859 72.26074219 146.59130859 74.26074219 C147.25130859 74.26074219 147.91130859 74.26074219 148.59130859 74.26074219 C148.92130859 75.91074219 149.25130859 77.56074219 149.59130859 79.26074219 C150.25130859 79.26074219 150.91130859 79.26074219 151.59130859 79.26074219 C151.92130859 80.25074219 152.25130859 81.24074219 152.59130859 82.26074219 C153.25130859 82.59074219 153.91130859 82.92074219 154.59130859 83.26074219 C157.59130859 88.68381911 157.59130859 88.68381911 157.59130859 91.26074219 C158.25130859 91.26074219 158.91130859 91.26074219 159.59130859 91.26074219 C159.92130859 93.24074219 160.25130859 95.22074219 160.59130859 97.26074219 C161.25130859 97.26074219 161.91130859 97.26074219 162.59130859 97.26074219 C162.92130859 99.24074219 163.25130859 101.22074219 163.59130859 103.26074219 C164.25130859 103.26074219 164.91130859 103.26074219 165.59130859 103.26074219 C165.92130859 105.57074219 166.25130859 107.88074219 166.59130859 110.26074219 C167.25130859 110.26074219 167.91130859 110.26074219 168.59130859 110.26074219 C168.92130859 112.90074219 169.25130859 115.54074219 169.59130859 118.26074219 C170.25130859 118.26074219 170.91130859 118.26074219 171.59130859 118.26074219 C173.84810503 126.00487614 176.02482699 133.74678235 177.93505859 141.58496094 C178.33525009 143.21669413 178.74858839 144.84536776 179.18505859 146.46777344 C181.52108321 155.17633579 181.74193777 163.79177619 181.72412109 172.76074219 C181.72555618 174.37432617 181.72555618 174.37432617 181.72702026 176.02050781 C181.7276973 178.2828782 181.72587643 180.54525059 181.72167969 182.80761719 C181.71632473 186.25037034 181.72164097 189.69299305 181.72802734 193.13574219 C181.72736648 195.34407581 181.72608514 197.55240934 181.72412109 199.76074219 C181.72614532 200.77974609 181.72816956 201.79875 181.73025513 202.84863281 C181.70423432 210.86669982 181.19829388 218.50769288 179.12207031 226.26904297 C178.57584638 228.3187646 178.09426449 230.37538787 177.62646484 232.44433594 C175.93556912 239.85358034 174.19306151 247.10592166 171.59130859 254.26074219 C170.93130859 254.26074219 170.27130859 254.26074219 169.59130859 254.26074219 C169.26130859 256.90074219 168.93130859 259.54074219 168.59130859 262.26074219 C167.93130859 262.26074219 167.27130859 262.26074219 166.59130859 262.26074219 C166.26130859 264.57074219 165.93130859 266.88074219 165.59130859 269.26074219 C164.93130859 269.26074219 164.27130859 269.26074219 163.59130859 269.26074219 C163.26130859 271.24074219 162.93130859 273.22074219 162.59130859 275.26074219 C161.93130859 275.26074219 161.27130859 275.26074219 160.59130859 275.26074219 C160.26130859 277.24074219 159.93130859 279.22074219 159.59130859 281.26074219 C158.93130859 281.26074219 158.27130859 281.26074219 157.59130859 281.26074219 C156.51605665 283.91303031 155.49674708 286.54442673 154.59130859 289.26074219 C153.93130859 289.59074219 153.27130859 289.92074219 152.59130859 290.26074219 C152.26130859 291.25074219 151.93130859 292.24074219 151.59130859 293.26074219 C150.93130859 293.26074219 150.27130859 293.26074219 149.59130859 293.26074219 C149.26130859 294.91074219 148.93130859 296.56074219 148.59130859 298.26074219 C147.93130859 298.26074219 147.27130859 298.26074219 146.59130859 298.26074219 C146.28193359 299.28167969 146.28193359 299.28167969 145.96630859 300.32324219 C144.42440555 303.61730779 142.51326221 305.87116442 140.10302734 308.56152344 C138.84932881 309.97071946 137.67713725 311.45193515 136.52880859 312.94824219 C134.43588169 315.44625172 132.13108498 317.22892108 129.59130859 319.26074219 C128.22886063 320.90369414 126.89265984 322.56898556 125.59130859 324.26074219 C123.96630859 326.07324219 123.96630859 326.07324219 122.59130859 327.26074219 C121.93130859 327.26074219 121.27130859 327.26074219 120.59130859 327.26074219 C120.59130859 327.92074219 120.59130859 328.58074219 120.59130859 329.26074219 C116.12072036 333.26074219 116.12072036 333.26074219 113.59130859 333.26074219 C113.59130859 333.92074219 113.59130859 334.58074219 113.59130859 335.26074219 C112.27130859 335.59074219 110.95130859 335.92074219 109.59130859 336.26074219 C109.59130859 336.92074219 109.59130859 337.58074219 109.59130859 338.26074219 C108.27130859 338.59074219 106.95130859 338.92074219 105.59130859 339.26074219 C105.59130859 339.92074219 105.59130859 340.58074219 105.59130859 341.26074219 C104.27130859 341.59074219 102.95130859 341.92074219 101.59130859 342.26074219 C101.59130859 342.92074219 101.59130859 343.58074219 101.59130859 344.26074219 C99.94130859 344.59074219 98.29130859 344.92074219 96.59130859 345.26074219 C96.59130859 345.92074219 96.59130859 346.58074219 96.59130859 347.26074219 C94.94130859 347.59074219 93.29130859 347.92074219 91.59130859 348.26074219 C91.59130859 348.92074219 91.59130859 349.58074219 91.59130859 350.26074219 C89.03244355 351.58076775 86.46963791 352.89188 83.90380859 354.19824219 C83.18257813 354.57142578 82.46134766 354.94460938 81.71826172 355.32910156 C78.02625117 357.20039458 74.75437764 358.74343775 70.59130859 359.26074219 C70.59130859 359.92074219 70.59130859 360.58074219 70.59130859 361.26074219 C67.95130859 361.59074219 65.31130859 361.92074219 62.59130859 362.26074219 C62.59130859 362.92074219 62.59130859 363.58074219 62.59130859 364.26074219 C59.62130859 364.59074219 56.65130859 364.92074219 53.59130859 365.26074219 C53.59130859 365.92074219 53.59130859 366.58074219 53.59130859 367.26074219 C49.96130859 367.59074219 46.33130859 367.92074219 42.59130859 368.26074219 C42.59130859 368.92074219 42.59130859 369.58074219 42.59130859 370.26074219 C30.42571208 372.21132541 18.48675756 372.57225531 6.18261719 372.52148438 C3.09599165 372.51075846 0.0099479 372.52144333 -3.07666016 372.53417969 C-14.351417 372.54095375 -25.26489463 372.04749412 -36.40869141 370.26074219 C-36.40869141 369.60074219 -36.40869141 368.94074219 -36.40869141 368.26074219 C-40.03869141 367.93074219 -43.66869141 367.60074219 -47.40869141 367.26074219 C-47.40869141 366.60074219 -47.40869141 365.94074219 -47.40869141 365.26074219 C-50.37869141 364.93074219 -53.34869141 364.60074219 -56.40869141 364.26074219 C-56.40869141 363.60074219 -56.40869141 362.94074219 -56.40869141 362.26074219 C-59.04869141 361.93074219 -61.68869141 361.60074219 -64.40869141 361.26074219 C-64.40869141 360.60074219 -64.40869141 359.94074219 -64.40869141 359.26074219 C-65.06869141 359.17566406 -65.72869141 359.09058594 -66.40869141 359.00292969 C-70.3931701 358.01718626 -73.77225 356.2576373 -77.40869141 354.38574219 C-78.10736328 354.03382813 -78.80603516 353.68191406 -79.52587891 353.31933594 C-87.36942154 349.33836807 -87.36942154 349.33836807 -90.40869141 347.26074219 C-90.40869141 346.60074219 -90.40869141 345.94074219 -90.40869141 345.26074219 C-92.05869141 344.93074219 -93.70869141 344.60074219 -95.40869141 344.26074219 C-95.40869141 343.60074219 -95.40869141 342.94074219 -95.40869141 342.26074219 C-96.72869141 341.93074219 -98.04869141 341.60074219 -99.40869141 341.26074219 C-99.40869141 340.60074219 -99.40869141 339.94074219 -99.40869141 339.26074219 C-100.17181641 339.15761719 -100.93494141 339.05449219 -101.72119141 338.94824219 C-104.59285624 338.21363025 -105.63911234 337.58913569 -107.40869141 335.26074219 C-107.40869141 334.60074219 -107.40869141 333.94074219 -107.40869141 333.26074219 C-108.72869141 332.93074219 -110.04869141 332.60074219 -111.40869141 332.26074219 C-111.40869141 331.60074219 -111.40869141 330.94074219 -111.40869141 330.26074219 C-112.39869141 329.93074219 -113.38869141 329.60074219 -114.40869141 329.26074219 C-114.40869141 328.60074219 -114.40869141 327.94074219 -114.40869141 327.26074219 C-115.06869141 327.26074219 -115.72869141 327.26074219 -116.40869141 327.26074219 C-118.03369141 325.88574219 -118.03369141 325.88574219 -119.40869141 324.26074219 C-119.40869141 323.60074219 -119.40869141 322.94074219 -119.40869141 322.26074219 C-120.39869141 321.93074219 -121.38869141 321.60074219 -122.40869141 321.26074219 C-122.40869141 320.60074219 -122.40869141 319.94074219 -122.40869141 319.26074219 C-123.39869141 318.93074219 -124.38869141 318.60074219 -125.40869141 318.26074219 C-125.40869141 317.60074219 -125.40869141 316.94074219 -125.40869141 316.26074219 C-126.39869141 315.93074219 -127.38869141 315.60074219 -128.40869141 315.26074219 C-128.40869141 314.60074219 -128.40869141 313.94074219 -128.40869141 313.26074219 C-129.39869141 312.93074219 -130.38869141 312.60074219 -131.40869141 312.26074219 C-132.43481089 310.61002823 -133.43177284 308.94104213 -134.40869141 307.26074219 C-135.08931641 306.60074219 -135.76994141 305.94074219 -136.47119141 305.26074219 C-138.61033219 303.05259686 -139.44446354 301.15342578 -140.40869141 298.26074219 C-141.06869141 298.26074219 -141.72869141 298.26074219 -142.40869141 298.26074219 C-142.40869141 297.27074219 -142.40869141 296.28074219 -142.40869141 295.26074219 C-143.06869141 295.26074219 -143.72869141 295.26074219 -144.40869141 295.26074219 C-148.40869141 289.96662454 -148.40869141 289.96662454 -148.40869141 286.26074219 C-149.06869141 286.26074219 -149.72869141 286.26074219 -150.40869141 286.26074219 C-150.73869141 284.61074219 -151.06869141 282.96074219 -151.40869141 281.26074219 C-152.06869141 281.26074219 -152.72869141 281.26074219 -153.40869141 281.26074219 C-153.73869141 279.28074219 -154.06869141 277.30074219 -154.40869141 275.26074219 C-155.06869141 275.26074219 -155.72869141 275.26074219 -156.40869141 275.26074219 C-156.73869141 273.28074219 -157.06869141 271.30074219 -157.40869141 269.26074219 C-158.06869141 269.26074219 -158.72869141 269.26074219 -159.40869141 269.26074219 C-160.41727563 266.84734423 -161.41571813 264.43055544 -162.40869141 262.01074219 C-162.69486328 261.32882812 -162.98103516 260.64691406 -163.27587891 259.94433594 C-164.70214634 256.44658484 -165.40869141 254.0917403 -165.40869141 250.26074219 C-166.06869141 250.26074219 -166.72869141 250.26074219 -167.40869141 250.26074219 C-167.90369141 245.31074219 -167.90369141 245.31074219 -168.40869141 240.26074219 C-169.06869141 240.26074219 -169.72869141 240.26074219 -170.40869141 240.26074219 C-170.90369141 234.32074219 -170.90369141 234.32074219 -171.40869141 228.26074219 C-172.06869141 228.26074219 -172.72869141 228.26074219 -173.40869141 228.26074219 C-175.35898639 215.34170388 -175.72005886 202.60333543 -175.66943359 189.54980469 C-175.6587078 186.26576277 -175.66939253 182.98226768 -175.68212891 179.69824219 C-175.68888185 167.74013725 -175.19461353 156.09095071 -173.40869141 144.26074219 C-172.74869141 144.26074219 -172.08869141 144.26074219 -171.40869141 144.26074219 C-171.07869141 140.30074219 -170.74869141 136.34074219 -170.40869141 132.26074219 C-169.74869141 132.26074219 -169.08869141 132.26074219 -168.40869141 132.26074219 C-168.07869141 128.96074219 -167.74869141 125.66074219 -167.40869141 122.26074219 C-166.74869141 122.26074219 -166.08869141 122.26074219 -165.40869141 122.26074219 C-165.34681641 121.35324219 -165.28494141 120.44574219 -165.22119141 119.51074219 C-164.43767342 113.75307217 -161.75106421 108.52459842 -159.40869141 103.26074219 C-158.74869141 103.26074219 -158.08869141 103.26074219 -157.40869141 103.26074219 C-157.07869141 101.28074219 -156.74869141 99.30074219 -156.40869141 97.26074219 C-155.74869141 97.26074219 -155.08869141 97.26074219 -154.40869141 97.26074219 C-154.07869141 95.28074219 -153.74869141 93.30074219 -153.40869141 91.26074219 C-152.74869141 91.26074219 -152.08869141 91.26074219 -151.40869141 91.26074219 C-151.07869141 89.61074219 -150.74869141 87.96074219 -150.40869141 86.26074219 C-149.74869141 86.26074219 -149.08869141 86.26074219 -148.40869141 86.26074219 C-148.30556641 85.70386719 -148.20244141 85.14699219 -148.09619141 84.57324219 C-147.26690732 81.78383208 -146.06570085 79.64683579 -144.40869141 77.26074219 C-143.74869141 77.26074219 -143.08869141 77.26074219 -142.40869141 77.26074219 C-142.40869141 76.27074219 -142.40869141 75.28074219 -142.40869141 74.26074219 C-141.74869141 74.26074219 -141.08869141 74.26074219 -140.40869141 74.26074219 C-140.20244141 73.58011719 -139.99619141 72.89949219 -139.78369141 72.19824219 C-138.23293544 68.88526352 -136.28398417 66.60294069 -133.84619141 63.90917969 C-132.21594454 62.11114285 -132.21594454 62.11114285 -130.40869141 59.26074219 C-129.74869141 59.26074219 -129.08869141 59.26074219 -128.40869141 59.26074219 C-128.07869141 58.27074219 -127.74869141 57.28074219 -127.40869141 56.26074219 C-126.74869141 56.26074219 -126.08869141 56.26074219 -125.40869141 56.26074219 C-125.07869141 55.27074219 -124.74869141 54.28074219 -124.40869141 53.26074219 C-123.74869141 53.26074219 -123.08869141 53.26074219 -122.40869141 53.26074219 C-122.07869141 52.27074219 -121.74869141 51.28074219 -121.40869141 50.26074219 C-120.74869141 50.26074219 -120.08869141 50.26074219 -119.40869141 50.26074219 C-119.40869141 49.60074219 -119.40869141 48.94074219 -119.40869141 48.26074219 C-118.03369141 46.63574219 -118.03369141 46.63574219 -116.40869141 45.26074219 C-115.74869141 45.26074219 -115.08869141 45.26074219 -114.40869141 45.26074219 C-114.07869141 44.27074219 -113.74869141 43.28074219 -113.40869141 42.26074219 C-112.74869141 42.26074219 -112.08869141 42.26074219 -111.40869141 42.26074219 C-111.40869141 41.60074219 -111.40869141 40.94074219 -111.40869141 40.26074219 C-110.08869141 39.93074219 -108.76869141 39.60074219 -107.40869141 39.26074219 C-107.40869141 38.60074219 -107.40869141 37.94074219 -107.40869141 37.26074219 C-105.63911234 34.93234868 -104.59285624 34.30785412 -101.72119141 33.57324219 C-100.57650391 33.41855469 -100.57650391 33.41855469 -99.40869141 33.26074219 C-99.40869141 32.60074219 -99.40869141 31.94074219 -99.40869141 31.26074219 C-98.08869141 30.93074219 -96.76869141 30.60074219 -95.40869141 30.26074219 C-95.40869141 29.60074219 -95.40869141 28.94074219 -95.40869141 28.26074219 C-93.75869141 27.93074219 -92.10869141 27.60074219 -90.40869141 27.26074219 C-90.40869141 26.60074219 -90.40869141 25.94074219 -90.40869141 25.26074219 C-83.72315801 20.25036502 -72.850566 13.26074219 -64.40869141 13.26074219 C-64.40869141 12.60074219 -64.40869141 11.94074219 -64.40869141 11.26074219 C-61.76869141 10.93074219 -59.12869141 10.60074219 -56.40869141 10.26074219 C-56.40869141 9.60074219 -56.40869141 8.94074219 -56.40869141 8.26074219 C-51.95369141 7.76574219 -51.95369141 7.76574219 -47.40869141 7.26074219 C-47.40869141 6.60074219 -47.40869141 5.94074219 -47.40869141 5.26074219 C-43.77869141 4.93074219 -40.14869141 4.60074219 -36.40869141 4.26074219 C-36.40869141 3.60074219 -36.40869141 2.94074219 -36.40869141 2.26074219 C-24.24309489 0.31015896 -12.30414038 -0.05077093 0 0 Z M-46.40869141 21.26074219 C-46.40869141 21.92074219 -46.40869141 22.58074219 -46.40869141 23.26074219 C-47.27236328 23.37675781 -48.13603516 23.49277344 -49.02587891 23.61230469 C-52.45285667 24.26920805 -55.3237321 25.28115578 -58.53369141 26.63574219 C-59.54689453 27.05597656 -60.56009766 27.47621094 -61.60400391 27.90917969 C-64.17804919 29.14959705 -66.14698106 30.54351766 -68.40869141 32.26074219 C-71.03246447 33.4242036 -73.6951535 34.31100392 -76.40869141 35.26074219 C-76.40869141 35.92074219 -76.40869141 36.58074219 -76.40869141 37.26074219 C-77.33681641 37.42574219 -78.26494141 37.59074219 -79.22119141 37.76074219 C-85.1022411 39.43595028 -89.64993209 43.57718372 -94.40869141 47.26074219 C-95.30201172 47.92460938 -96.19533203 48.58847656 -97.11572266 49.27246094 C-100.34464506 51.66698952 -100.34464506 51.66698952 -103.40869141 54.26074219 C-103.40869141 54.92074219 -103.40869141 55.58074219 -103.40869141 56.26074219 C-103.96041016 56.48761719 -104.51212891 56.71449219 -105.08056641 56.94824219 C-113.60027795 61.75130105 -120.6240597 71.57864586 -126.40869141 79.26074219 C-126.90240234 79.89882812 -127.39611328 80.53691406 -127.90478516 81.19433594 C-130.32707757 84.42166322 -131.94565174 87.52782827 -133.40869141 91.26855469 C-134.72429554 93.88948481 -136.43964696 96.05758751 -138.22119141 98.38574219 C-146.50033232 109.49042477 -151.69586761 123.14334852 -153.81884766 136.81152344 C-154.40869141 139.26074219 -154.40869141 139.26074219 -155.84130859 142.47167969 C-161.10348916 154.62708515 -160.86073166 168.24207053 -160.74487305 181.23510742 C-160.72107631 184.0870355 -160.72436478 186.93803528 -160.73095703 189.79003906 C-160.71783075 198.79065337 -160.63075681 207.48344399 -158.40869141 216.26074219 C-158.22121338 217.06229736 -158.03373535 217.86385254 -157.84057617 218.68969727 C-157.27169433 221.05688714 -156.66266374 223.40885774 -156.03369141 225.76074219 C-155.81600098 226.58098877 -155.59831055 227.40123535 -155.37402344 228.24633789 C-153.71298847 234.38755665 -151.7479486 240.34262143 -149.40869141 246.26074219 C-148.82307434 247.82238769 -148.23954647 249.38481921 -147.65869141 250.94824219 C-147.24619141 252.04136719 -146.83369141 253.13449219 -146.40869141 254.26074219 C-145.74869141 254.26074219 -145.08869141 254.26074219 -144.40869141 254.26074219 C-144.32619141 255.12699219 -144.24369141 255.99324219 -144.15869141 256.88574219 C-143.29106546 260.79005892 -141.70871155 263.01365492 -139.40869141 266.26074219 C-137.04864937 270.52697202 -135.62728912 274.57382792 -134.40869141 279.26074219 C-133.74869141 279.26074219 -133.08869141 279.26074219 -132.40869141 279.26074219 C-131.74869141 280.91074219 -131.08869141 282.56074219 -130.40869141 284.26074219 C-129.74869141 284.26074219 -129.08869141 284.26074219 -128.40869141 284.26074219 C-128.22306641 285.12699219 -128.03744141 285.99324219 -127.84619141 286.88574219 C-126.20439578 290.74039279 -124.58267057 291.98227208 -121.38916016 294.51074219 C-119.14074586 296.4975067 -117.4266359 298.63450593 -115.59619141 301.01074219 C-104.18096018 315.62486739 -89.01894521 327.4266966 -72.24072266 335.35449219 C-70.36342373 336.28313473 -68.62477317 337.34402291 -66.84619141 338.44824219 C-63.07294707 340.43777102 -60.59657442 340.91887419 -56.40869141 341.26074219 C-56.40869141 341.92074219 -56.40869141 342.58074219 -56.40869141 343.26074219 C-52.24694968 345.07897886 -48.00140179 346.16202475 -43.59619141 347.19824219 C-35.06112489 349.25657505 -35.06112489 349.25657505 -31.03369141 350.88574219 C-21.28875486 354.58209743 -11.6640307 354.54552482 -1.38330078 354.46655273 C1.11354594 354.44807765 3.61002503 354.44604503 6.10693359 354.44628906 C7.69547848 354.44138059 9.28402087 354.43555523 10.87255859 354.42871094 C11.61832153 354.42759811 12.36408447 354.42648529 13.13244629 354.42533875 C16.98928804 354.45794877 16.98928804 354.45794877 20.59130859 353.26074219 C22.33845092 353.0107201 24.0893 352.78651025 25.84130859 352.57324219 C32.32219633 351.61016055 38.57826482 350.08540207 44.90380859 348.38574219 C45.83418945 348.14122314 46.76457031 347.8967041 47.72314453 347.64477539 C52.74189616 346.26448412 57.26498194 344.64479537 61.82641602 342.12353516 C63.72276949 341.19647565 65.53292337 340.70495728 67.59130859 340.26074219 C67.59130859 339.60074219 67.59130859 338.94074219 67.59130859 338.26074219 C68.29255859 338.15761719 68.99380859 338.05449219 69.71630859 337.94824219 C73.00577142 337.16163151 75.57898557 335.79643628 78.59130859 334.26074219 C80.02485405 333.74951458 81.4625312 333.24974702 82.90380859 332.76074219 C84.12068359 332.26574219 85.33755859 331.77074219 86.59130859 331.26074219 C86.92130859 330.27074219 87.25130859 329.28074219 87.59130859 328.26074219 C89.24454585 327.56129565 90.90319062 326.86520612 92.60693359 326.29980469 C95.47204364 324.7995699 97.33812022 322.5727947 99.59130859 320.26074219 C101.825475 318.27972152 104.11781943 316.36903065 106.40380859 314.44824219 C119.22673046 303.51818035 128.93050763 291.22997127 138.52880859 277.44824219 C139.08463623 276.66022217 139.64046387 275.87220215 140.21313477 275.06030273 C143.51909163 270.24753886 145.70033274 265.77954633 147.59130859 260.26074219 C148.59767624 258.56249678 149.60415459 256.86429963 150.61865234 255.17089844 C152.15642625 252.15093282 152.97525014 248.96547663 153.88037109 245.70996094 C154.59130859 243.26074219 154.59130859 243.26074219 156.02880859 239.63574219 C158.2576418 233.84777743 159.63996376 227.73908488 161.01879883 221.70092773 C161.43581683 219.92348853 161.89113725 218.15490633 162.36889648 216.39282227 C164.89637892 206.2941793 165.08352949 196.48507216 165.03735352 186.11987305 C165.02881175 183.19932183 165.05775884 180.28071256 165.08935547 177.36035156 C165.12375926 167.96182369 164.80379499 159.80375726 161.5559082 150.91088867 C160.21628011 147.23038679 159.71060851 143.69780158 159.15380859 139.82324219 C157.88987703 131.86164618 155.57840832 124.76559833 152.59130859 117.26074219 C152.06150391 115.83568359 152.06150391 115.83568359 151.52099609 114.38183594 C149.68044613 109.51959567 147.58852206 105.49818191 144.59130859 101.26074219 C144.26130859 100.27074219 143.93130859 99.28074219 143.59130859 98.26074219 C142.93130859 97.93074219 142.27130859 97.60074219 141.59130859 97.26074219 C140.53778016 94.95108371 139.53411764 92.61776479 138.59130859 90.26074219 C137.93130859 90.26074219 137.27130859 90.26074219 136.59130859 90.26074219 C136.23359375 89.22820312 136.23359375 89.22820312 135.86865234 88.17480469 C134.34454557 84.69779046 132.35443271 81.70735821 130.15380859 78.63574219 C129.71568848 78.02400146 129.27756836 77.41226074 128.82617188 76.78198242 C122.23635177 67.81632806 114.05058897 60.43506858 105.59130859 53.26074219 C104.93904297 52.68066406 104.28677734 52.10058594 103.61474609 51.50292969 C102.98826172 50.94863281 102.36177734 50.39433594 101.71630859 49.82324219 C101.16201172 49.32953125 100.60771484 48.83582031 100.03662109 48.32714844 C98.62244238 47.06283612 98.62244238 47.06283612 96.59130859 47.26074219 C96.35669922 46.63683594 96.12208984 46.01292969 95.88037109 45.37011719 C94.22307784 42.65818277 92.97714869 42.37098222 89.96630859 41.51074219 C89.14904297 41.26839844 88.33177734 41.02605469 87.48974609 40.77636719 C86.86326172 40.60621094 86.23677734 40.43605469 85.59130859 40.26074219 C85.59130859 39.60074219 85.59130859 38.94074219 85.59130859 38.26074219 C84.62193359 37.80699219 83.65255859 37.35324219 82.65380859 36.88574219 C79.59130859 35.26074219 79.59130859 35.26074219 78.59130859 33.26074219 C76.47167065 32.4205519 74.31874363 31.66367282 72.15380859 30.94824219 C67.84359955 29.48722807 63.7261575 27.93360048 59.71630859 25.76074219 C49.95612907 20.68032033 39.12371936 17.99835777 28.26318359 16.62011719 C25.59130859 16.26074219 25.59130859 16.26074219 23.66114807 15.75132751 C20.21749919 14.93512721 16.70430466 15.01410339 13.18115234 14.95214844 C12.34874023 14.93715805 11.51632812 14.92216766 10.65869141 14.90672302 C7.94870857 14.86702282 5.2390145 14.84207983 2.52880859 14.82324219 C1.61157013 14.81607178 0.69433167 14.80890137 -0.2507019 14.80151367 C-16.36969503 14.73523332 -30.91357895 16.59171939 -46.40869141 21.26074219 Z " fill="#FF8B03" transform="translate(252.40869140625,67.7392578125)"/>
<path d="M0 0 C5.28 0 10.56 0 16 0 C16.20625 1.4025 16.4125 2.805 16.625 4.25 C19.02743416 16.0941684 25.01953568 25.09700948 34.9375 31.8125 C44.62158088 37.40938325 56.70087903 37.3783654 67.4375 35 C69.2009375 34.505 69.2009375 34.505 71 34 C70.61328125 33.34515625 70.2265625 32.6903125 69.828125 32.015625 C63.87663125 21.58577951 60.63217182 12.01126454 60 0 C65.61 0 71.22 0 77 0 C77.2475 1.835625 77.495 3.67125 77.75 5.5625 C78.6269633 10.94502115 80.04685927 14.47185088 83 19 C83 19.66 83 20.32 83 21 C86.0913641 20.34115827 86.0913641 20.34115827 87.09765625 18.06640625 C89.40415103 12.08072546 90.91564188 6.32542238 92 0 C97.28 0 102.56 0 108 0 C110.14284811 6.42854434 107.12451106 14.38610993 104.53125 20.4140625 C103.51722465 22.41725963 102.47690092 24.40751765 101.40234375 26.37890625 C100.06891498 28.87119233 98.99837682 31.35836181 98 34 C108.23308592 36.87244517 120.36340649 38.27623405 130 33 C130.80953125 32.58621094 131.6190625 32.17242187 132.453125 31.74609375 C141.65026686 26.693173 146.83695631 20.82722177 150.2734375 10.90625 C151.16613594 7.33545624 151.5434666 3.65226722 152 0 C157.61 0 163.22 0 169 0 C168.12691387 16.58863647 162.17078335 29.43663547 150.1875 40.9375 C139.77085636 49.68491261 126.14021445 54.87355667 112.40234375 54.28515625 C103.64431724 53.24558562 95.78059895 51.47252762 88.18359375 46.890625 C84.47120055 45.37644673 81.82078989 46.66680807 78.23828125 48.12109375 C76.79001953 48.77271484 76.79001953 48.77271484 75.3125 49.4375 C60.9027997 55.54001689 47.67780009 54.98105096 33 50 C20.26755022 44.67380195 10.12480568 35.26478373 4.4921875 22.61328125 C1.34409755 14.58115462 -0.12612857 8.57674265 0 0 Z " fill="#DB9A1B" transform="translate(167,207)"/>
<path d="M0 0 C3.41948968 0 6.06830859 -1.47424266 9.125 -2.875 C22.61982793 -8.95655075 36.29769128 -10.03305485 50.515625 -5.44921875 C66.90080113 1.36569195 77.2834781 12.9997922 84.26074219 29.13916016 C86.59063792 35.0039109 87.45300789 39.85431478 86 46 C83.52076199 46.02685095 81.0418116 46.04676547 78.5625 46.0625 C77.85544922 46.07087891 77.14839844 46.07925781 76.41992188 46.08789062 C74.61306441 46.09653588 72.80612397 46.05220011 71 46 C69.13089777 44.13089777 69.20781633 40.94750464 68.75 38.4375 C67.47241979 32.20214585 65.65990349 28.14364815 62 23 C62 22.34 62 21.68 62 21 C61.42636719 20.73058594 60.85273438 20.46117187 60.26171875 20.18359375 C57.94890124 18.9732592 55.93366709 17.58093108 53.8125 16.0625 C43.77452741 9.4192463 32.96655472 8.54090834 21.19140625 10.45703125 C18.84539199 11.0077647 18.84539199 11.0077647 16 12 C17.53889101 15.69333843 19.12759784 19.27654054 21 22.8125 C24.84195532 30.46685714 26.41340545 37.45628741 26 46 C20.72 46 15.44 46 10 46 C8.97460938 40.82421875 8.97460938 40.82421875 7.94921875 35.6484375 C7.02532386 32.09733532 5.7610503 29.20639411 4 26 C3.01 26 2.02 26 1 26 C-2.81679772 32.61578271 -3.96770385 38.42982824 -5 46 C-10.61 46 -16.22 46 -22 46 C-21.53808176 33.22026211 -17.60475506 22.87676685 -11 12 C-21.61458639 8.96726103 -33.75657794 8.0409795 -43.9453125 12.84375 C-46.74726912 14.42051646 -49.36646952 16.15652866 -52 18 C-52.66 18 -53.32 18 -54 18 C-54.226875 18.515625 -54.45375 19.03125 -54.6875 19.5625 C-55.82035874 21.66638051 -57.01311406 23.40759832 -58.4375 25.3125 C-63.07268606 31.74722889 -64.63052968 38.30989745 -66 46 C-71.28 46 -76.56 46 -82 46 C-83.04487624 34.0884109 -78.41376989 22.23087035 -71 13 C-70.18015625 11.95585937 -70.18015625 11.95585937 -69.34375 10.890625 C-52.6641933 -9.27647538 -21.99765797 -14.91579087 0 0 Z " fill="#DAAC28" transform="translate(249,155)"/>
<path d="M0 0 C-0.71799964 4.84649757 -3.60928697 7.73199695 -7.125 10.9375 C-10.90316698 12.3337791 -13.0830314 11.47970554 -16.92578125 10.56640625 C-28.67970271 8.40081716 -39.46849465 9.53033135 -49.5 16.25 C-50.325 16.8275 -51.15 17.405 -52 18 C-52.66 18 -53.32 18 -54 18 C-54.226875 18.515625 -54.45375 19.03125 -54.6875 19.5625 C-55.82035874 21.66638051 -57.01311406 23.40759832 -58.4375 25.3125 C-63.07268606 31.74722889 -64.63052968 38.30989745 -66 46 C-71.28 46 -76.56 46 -82 46 C-83.04487624 34.0884109 -78.41376989 22.23087035 -71 13 C-70.18015625 11.95585937 -70.18015625 11.95585937 -69.34375 10.890625 C-52.96468841 -8.91314947 -21.57812841 -15.44539718 0 0 Z " fill="#D8A416" transform="translate(249,155)"/>
<path d="M0 0 C5.61 0 11.22 0 17 0 C16.12691387 16.58863647 10.17078335 29.43663547 -1.8125 40.9375 C-13.13459699 50.4452702 -27.24736338 54.95178301 -42 54 C-43.33940818 53.69198279 -44.67501481 53.36510703 -46 53 C-46 52.34 -46 51.68 -46 51 C-47.299375 50.9175 -48.59875 50.835 -49.9375 50.75 C-55.14094865 50.19661737 -59.37021568 48.35320007 -64 46 C-61.75836839 41.02109964 -58.55313895 37.05123547 -54 34 C-51.61280534 33.91607519 -49.94592847 34.49714661 -47.6875 35.26171875 C-39.44832829 37.52509586 -29.55757604 37.13792903 -22 33 C-21.19046875 32.58621094 -20.3809375 32.17242187 -19.546875 31.74609375 C-10.34973314 26.693173 -5.16304369 20.82722177 -1.7265625 10.90625 C-0.83386406 7.33545624 -0.4565334 3.65226722 0 0 Z " fill="#E7AB20" transform="translate(319,207)"/>
<path d="M0 0 C4.65178705 3.24543282 8.26603907 7.31838001 9.6875 12.875 C10.55027155 18.937719 9.71337302 23.05495047 6.19140625 28.08203125 C3.13579805 31.72495116 -0.52456988 35.51225816 -5.4140625 36.1484375 C-11.10034045 36.37729698 -14.93171145 35.76103736 -19.62109375 32.4453125 C-22.35932945 29.90311677 -23.72159993 27.24770816 -25.3125 23.875 C-25.6425 23.215 -25.9725 22.555 -26.3125 21.875 C-27.14530169 15.47432419 -26.51623215 10.85314423 -22.74609375 5.56640625 C-16.67426367 -1.59736058 -8.73654228 -2.96712757 0 0 Z " fill="#DE9F1F" transform="translate(295.3125,272.125)"/>
<path d="M0 0 C19.35064935 0 19.35064935 0 25 4 C28.48561754 7.48561754 30.84551026 11.01892023 31.10546875 16.03515625 C30.81670087 22.27040353 28.57023235 26.74840935 24 31 C17 35 17 35 0 35 C0 23.45 0 11.9 0 0 Z " fill="#DC9F26" transform="translate(371,272)"/>
<path d="M0 0 C2.37570543 -0.0816082 4.74855841 -0.14077222 7.125 -0.1875 C7.79015625 -0.21263672 8.4553125 -0.23777344 9.140625 -0.26367188 C14.77437707 -0.34652117 18.74857623 0.96645595 22.9375 4.75 C24.55353613 8.17219415 23.9487301 10.39482561 23 14 C21.0625 16.9375 21.0625 16.9375 19 19 C18.34 19 17.68 19 17 19 C17.55429687 19.81984375 18.10859375 20.6396875 18.6796875 21.484375 C19.76636719 23.10085938 19.76636719 23.10085938 20.875 24.75 C21.59429687 25.81734375 22.31359375 26.8846875 23.0546875 27.984375 C24.54507257 30.29477114 25.85199401 32.51063964 27 35 C22.08836322 35.9647858 22.08836322 35.9647858 19 35 C16.55680445 32.40545605 14.69069352 29.69245547 12.76171875 26.69921875 C11.30470838 24.46685918 9.96469262 22.77124596 8 21 C8.01160156 21.92683594 8.02320313 22.85367187 8.03515625 23.80859375 C8.04417969 25.00613281 8.05320312 26.20367187 8.0625 27.4375 C8.07410156 28.63246094 8.08570313 29.82742188 8.09765625 31.05859375 C8 34 8 34 7 35 C3.5 35.125 3.5 35.125 0 35 C-1.87066038 33.12933962 -1.13051837 29.9743519 -1.1328125 27.48046875 C-1.13376923 26.82548904 -1.13472595 26.17050934 -1.13571167 25.49568176 C-1.13639355 24.1060883 -1.13453873 22.71649168 -1.13037109 21.3269043 C-1.12504844 19.20679476 -1.13030242 17.08689956 -1.13671875 14.96679688 C-1.13605747 13.61718703 -1.13477527 12.26757733 -1.1328125 10.91796875 C-1.13168457 9.68844482 -1.13055664 8.4589209 -1.12939453 7.19213867 C-1.02366972 4.58392743 -0.77559264 2.47273104 0 0 Z " fill="#E6AC23" transform="translate(312,272)"/>
<path d="M0 0 C2.31 0 4.62 0 7 0 C7 4.29 7 8.58 7 13 C11.95 13 16.9 13 22 13 C22 8.71 22 4.42 22 0 C24.64 0 27.28 0 30 0 C30.0246519 4.82380802 30.04283693 9.64757967 30.05493164 14.47143555 C30.05997174 16.11369464 30.06680378 17.75594923 30.07543945 19.39819336 C30.08751926 21.75375479 30.09323139 24.10925709 30.09765625 26.46484375 C30.10281754 27.20339096 30.10797882 27.94193817 30.11329651 28.7028656 C30.1134925 30.46898088 30.06194719 32.23497146 30 34 C29.67 34.33 29.34 34.66 29 35 C26.69 35 24.38 35 22 35 C22 30.05 22 25.1 22 20 C17.05 20 12.1 20 7 20 C7 24.95 7 29.9 7 35 C4.69 35 2.38 35 0 35 C0 23.45 0 11.9 0 0 Z " fill="#D9971D" transform="translate(139,272)"/>
<path d="M0 0 C0.66 0 1.32 0 2 0 C3.00380916 2.79035046 4.0031945 5.58214855 5 8.375 C5.42925781 9.56609375 5.42925781 9.56609375 5.8671875 10.78125 C6.13789063 11.54179687 6.40859375 12.30234375 6.6875 13.0859375 C6.93886719 13.7876709 7.19023437 14.4894043 7.44921875 15.21240234 C8 17 8 17 8 19 C8.66 19 9.32 19 10 19 C10.18175781 18.3709375 10.36351562 17.741875 10.55078125 17.09375 C12.15552584 11.62938892 13.93585454 6.30780262 16 1 C18.31 1 20.62 1 23 1 C19.12918523 13.05717621 14.84909511 24.73507609 9 36 C6.91567501 32.87351251 5.71441389 29.94269132 4.375 26.4375 C3.92898437 25.28121094 3.48296875 24.12492187 3.0234375 22.93359375 C2 20 2 20 2 18 C1.01 18 0.02 18 -1 18 C-1.0825 18.928125 -1.165 19.85625 -1.25 20.8125 C-1.98242925 26.12534498 -4.06686151 31.02778798 -6 36 C-6.66 36 -7.32 36 -8 36 C-15.51362163 17.30696072 -15.51362163 17.30696072 -19 8.375 C-19.391875 7.37210937 -19.78375 6.36921875 -20.1875 5.3359375 C-21 3 -21 3 -21 1 C-18.69 1 -16.38 1 -14 1 C-12.66666667 4.33333333 -11.33333333 7.66666667 -10 11 C-9.62617188 11.87269531 -9.25234375 12.74539063 -8.8671875 13.64453125 C-8 16 -8 16 -8 19 C-7.01 19 -6.02 19 -5 19 C-4.83564453 18.07380859 -4.83564453 18.07380859 -4.66796875 17.12890625 C-3.5622734 11.22287499 -2.04638565 5.64802441 0 0 Z " fill="#E6AB22" transform="translate(243,271)"/>
<path d="M0 0 C2.56518328 3.17117732 4.30763462 6.44680653 6.06640625 10.12109375 C6.9181543 11.89516602 6.9181543 11.89516602 7.78710938 13.70507812 C8.0786792 14.31810791 8.37024902 14.9311377 8.6706543 15.56274414 C9.55900486 17.43015284 10.45371693 19.29440274 11.34960938 21.15820312 C16.0857552 31.0561552 16.0857552 31.0561552 18 36 C15.36 36 12.72 36 10 36 C9.34 34.68 8.68 33.36 8 32 C2.72 32 -2.56 32 -8 32 C-8.66 33.32 -9.32 34.64 -10 36 C-12.31 36 -14.62 36 -17 36 C-14.78330605 28.56210356 -11.59963184 22.01616979 -7.9375 15.1875 C-6.86317748 13.16021124 -5.78895464 11.13286965 -4.71484375 9.10546875 C-4.24167725 8.22012451 -3.76851074 7.33478027 -3.28100586 6.42260742 C-2.15635101 4.29568726 -1.06550846 2.15702022 0 0 Z " fill="#DF9F1C" transform="translate(207,271)"/>
<path d="M0 0 C5.61 0 11.22 0 17 0 C17.2475 1.835625 17.495 3.67125 17.75 5.5625 C18.38354954 9.49328179 19.03005033 12.5781493 21.1875 15.9375 C23 19 23 19 23.0625 21.625 C21.00375274 26.22690564 17.04541467 29.15322671 13 32 C7.84927965 30.10880678 6.62961737 26.08282696 4.39453125 21.375 C1.44074493 14.22634068 0 7.73413369 0 0 Z " fill="#BF7512" transform="translate(227,207)"/>
<path d="M0 0 C7.55171178 9.61526093 11.58965298 20.8138385 11 33 C5.72 33 0.44 33 -5 33 C-6.07421875 27.7265625 -6.07421875 27.7265625 -7.1484375 22.453125 C-7.82484058 19.13750218 -7.82484058 19.13750218 -9.1015625 16.859375 C-10.30539419 14.36796681 -10.36186293 12.7373866 -10 10 C-8.57421875 7.83203125 -8.57421875 7.83203125 -6.6875 5.8125 C-6.07261719 5.13832031 -5.45773437 4.46414062 -4.82421875 3.76953125 C-3 2 -3 2 0 0 Z " fill="#E8CF5E" transform="translate(264,168)"/>
<path d="M0 0 C10.23 0 20.46 0 31 0 C31 1.98 31 3.96 31 6 C27.04 6 23.08 6 19 6 C19 15.57 19 25.14 19 35 C16.36 35 13.72 35 11 35 C11 25.43 11 15.86 11 6 C7.37 6 3.74 6 0 6 C0 4.02 0 2.04 0 0 Z " fill="#DF9E1D" transform="translate(103,272)"/>
<path d="M0 0 C2.64 0 5.28 0 8 0 C8.33 8.91 8.66 17.82 9 27 C13.29 27.33 17.58 27.66 22 28 C22 30.31 22 32.62 22 35 C14.74 35 7.48 35 0 35 C0 23.45 0 11.9 0 0 Z " fill="#D48E16" transform="translate(344,272)"/>
<path d="M0 0 C3.25495893 0.97112972 4.88020446 2.93658744 6.8984375 5.56640625 C8.10487316 9.18571323 8.22112309 11.7587163 7.8984375 15.56640625 C6.25166397 18.68351329 4.82373609 20.85701067 2.0234375 23.00390625 C-1.08902636 23.82779374 -3.02276058 23.50889663 -6.1015625 22.56640625 C-10.10693474 19.09508364 -11.91333816 17.15286851 -12.5390625 11.87890625 C-12.46681653 7.48795693 -10.97360482 4.98061536 -7.94921875 1.86328125 C-5.26726592 -0.01918881 -3.22681321 -0.29053682 0 0 Z " fill="#FDFBF6" transform="translate(289.1015625,277.43359375)"/>
<path d="M0 0 C2.41696872 -0.05411124 4.83271787 -0.09372278 7.25 -0.125 C7.93191406 -0.14175781 8.61382812 -0.15851563 9.31640625 -0.17578125 C13.0608235 -0.21213482 15.82352727 -0.07944349 19 2 C16.50907189 3.24546405 15.58919267 2.7767578 13 2 C13.33 2.99 13.66 3.98 14 5 C12.02 5 10.04 5 8 5 C8.33 9.95 8.66 14.9 9 20 C8.34 20 7.68 20 7 20 C7 24.95 7 29.9 7 35 C4.69 35 2.38 35 0 35 C-1.87066038 33.12933962 -1.13051837 29.9743519 -1.1328125 27.48046875 C-1.13376923 26.82548904 -1.13472595 26.17050934 -1.13571167 25.49568176 C-1.13639355 24.1060883 -1.13453873 22.71649168 -1.13037109 21.3269043 C-1.12504844 19.20679476 -1.13030242 17.08689956 -1.13671875 14.96679688 C-1.13605747 13.61718703 -1.13477527 12.26757733 -1.1328125 10.91796875 C-1.13168457 9.68844482 -1.13055664 8.4589209 -1.12939453 7.19213867 C-1.02366972 4.58392743 -0.77559264 2.47273104 0 0 Z " fill="#C88019" transform="translate(312,272)"/>
<path d="M0 0 C2.64 0 5.28 0 8 0 C8 11.55 8 23.1 8 35 C5.36 35 2.72 35 0 35 C0 23.45 0 11.9 0 0 Z " fill="#EAB42C" transform="translate(178,272)"/>
<path d="M0 0 C9.54464286 0 9.54464286 0 12.92578125 3.2421875 C15.18315284 6.93606828 14.87775802 10.88804129 14 15 C12.0625 18.0625 12.0625 18.0625 9 20 C6.03 20.33 3.06 20.66 0 21 C0 14.07 0 7.14 0 0 Z " fill="#FDFBF6" transform="translate(379,279)"/>
<path d="M0 0 C2.31 0 4.62 0 7 0 C8.33333333 3.33333333 9.66666667 6.66666667 11 10 C11.37382812 10.87269531 11.74765625 11.74539063 12.1328125 12.64453125 C13 15 13 15 13 18 C13.99 18 14.98 18 16 18 C16.12375 17.030625 16.2475 16.06125 16.375 15.0625 C16.684375 13.5465625 16.684375 13.5465625 17 12 C17.66 11.67 18.32 11.34 19 11 C18.85816304 12.75032844 18.71136571 14.50025534 18.5625 16.25 C18.48128906 17.22453125 18.40007812 18.1990625 18.31640625 19.203125 C18.04825343 21.57346352 17.62123621 23.70582849 17 26 C16.835 27.010625 16.67 28.02125 16.5 29.0625 C16 32 16 32 15 35 C14.34 35 13.68 35 13 35 C5.48637837 16.30696072 5.48637837 16.30696072 2 7.375 C1.608125 6.37210937 1.21625 5.36921875 0.8125 4.3359375 C0 2 0 2 0 0 Z " fill="#D08818" transform="translate(222,272)"/>
<path d="M0 0 C2.64 0 5.28 0 8 0 C8.0246519 4.82380802 8.04283693 9.64757967 8.05493164 14.47143555 C8.05997174 16.11369464 8.06680378 17.75594923 8.07543945 19.39819336 C8.08751926 21.75375479 8.09323139 24.10925709 8.09765625 26.46484375 C8.10281754 27.20339096 8.10797882 27.94193817 8.11329651 28.7028656 C8.1134925 30.46898088 8.06194719 32.23497146 8 34 C7.505 34.495 7.505 34.495 7 35 C4.69 35 2.38 35 0 35 C0 30.05 0 25.1 0 20 C0.66 20.33 1.32 20.66 2 21 C2 24.96 2 28.92 2 33 C2.99 33 3.98 33 5 33 C5 22.77 5 12.54 5 2 C4.01 2.495 4.01 2.495 3 3 C2.53248212 5.35599235 2.53248212 5.35599235 2.375 8.0625 C2.30023438 8.98160156 2.22546875 9.90070313 2.1484375 10.84765625 C2.09945312 11.55792969 2.05046875 12.26820313 2 13 C1.01 13 0.02 13 -1 13 C-0.67 8.71 -0.34 4.42 0 0 Z " fill="#F2C039" transform="translate(161,272)"/>
<path d="M0 0 C0.33 0 0.66 0 1 0 C1.11162201 6.33268845 0.68414166 12.51231608 0.0625 18.8125 C-0.06801758 20.22305664 -0.06801758 20.22305664 -0.20117188 21.66210938 C-0.87228842 28.61686525 -0.87228842 28.61686525 -2 32 C-2.09185751 33.45741472 -2.13066657 34.9186012 -2.1328125 36.37890625 C-2.13410156 37.21744141 -2.13539062 38.05597656 -2.13671875 38.91992188 C-2.13285156 39.79197266 -2.12898438 40.66402344 -2.125 41.5625 C-2.12886719 42.43841797 -2.13273437 43.31433594 -2.13671875 44.21679688 C-2.13542969 45.05404297 -2.13414063 45.89128906 -2.1328125 46.75390625 C-2.13168457 47.52033447 -2.13055664 48.2867627 -2.12939453 49.07641602 C-2.11868694 51.08443868 -2.11868694 51.08443868 -1 53 C-0.84733388 54.73868744 -0.75067404 56.48247501 -0.68359375 58.2265625 C-0.64169922 59.2578125 -0.59980469 60.2890625 -0.55664062 61.3515625 C-0.51732422 62.43179688 -0.47800781 63.51203125 -0.4375 64.625 C-0.39431641 65.71296875 -0.35113281 66.8009375 -0.30664062 67.921875 C-0.2003547 70.6144517 -0.09831943 73.30712253 0 76 C0.66 76 1.32 76 2 76 C2 78.97 2 81.94 2 85 C1.67 85 1.34 85 1 85 C0.53676507 83.23044256 0.07975792 81.45925488 -0.375 79.6875 C-0.63023438 78.70136719 -0.88546875 77.71523438 -1.1484375 76.69921875 C-1.42945312 75.47847656 -1.71046875 74.25773437 -2 73 C-2.26574829 71.94679565 -2.26574829 71.94679565 -2.53686523 70.87231445 C-4.52118405 61.89622654 -4.33681217 52.82256166 -4.31567383 43.67749023 C-4.31252607 40.83603066 -4.33599205 37.99562751 -4.36132812 35.15429688 C-4.40201723 23.14577866 -3.83230325 11.49690975 0 0 Z " fill="#FFDDB6" transform="translate(96,211)"/>
<path d="M0 0 C1.32 0 2.64 0 4 0 C4 11.22 4 22.44 4 34 C2.68 34 1.36 34 0 34 C0 22.78 0 11.56 0 0 Z " fill="#CF8511" transform="translate(178,272)"/>
<path d="M0 0 C2.31 0 4.62 0 7 0 C7 4.29 7 8.58 7 13 C6.34 13 5.68 13 5 13 C5 9.37 5 5.74 5 2 C4.01 2.33 3.02 2.66 2 3 C1.67 12.9 1.34 22.8 1 33 C2.32 33 3.64 33 5 33 C5 28.71 5 24.42 5 20 C5.66 20 6.32 20 7 20 C7 24.95 7 29.9 7 35 C4.69 35 2.38 35 0 35 C0 23.45 0 11.9 0 0 Z " fill="#BC6E03" transform="translate(139,272)"/>
<path d="M0 0 C1.65 0 3.3 0 5 0 C4.34 0.66 3.68 1.32 3 2 C2.62653332 5.20538403 2.62653332 5.20538403 2.5859375 8.9765625 C2.56657135 9.66181 2.5472052 10.3470575 2.5272522 11.05307007 C2.46743169 13.24358644 2.42106244 15.4341553 2.375 17.625 C2.33682237 19.10939802 2.29777076 20.59377384 2.2578125 22.078125 C2.16172916 25.71854685 2.07770718 29.35913436 2 33 C2.99 33.33 3.98 33.66 5 34 C3.02 34 1.04 34 -1 34 C-1.02476851 29.80078534 -1.04289246 25.60160971 -1.05493164 21.40234375 C-1.05995206 19.97460184 -1.06676972 18.54686504 -1.07543945 17.11914062 C-1.08760553 15.06378921 -1.09325128 13.00850593 -1.09765625 10.953125 C-1.10289307 9.71723633 -1.10812988 8.48134766 -1.11352539 7.20800781 C-1.02071737 4.5854329 -0.78356673 2.48355406 0 0 Z " fill="#C17F2D" transform="translate(312,272)"/>
<path d="M0 0 C1.98 0 3.96 0 6 0 C6 0.66 6 1.32 6 2 C5.01 2.33 4.02 2.66 3 3 C3 13.23 3 23.46 3 34 C2.01 34 1.02 34 0 34 C0 22.78 0 11.56 0 0 Z " fill="#BC700A" transform="translate(345,272)"/>
<path d="M0 0 C0.33 0 0.66 0 1 0 C1 11.22 1 22.44 1 34 C6.94 33.67 12.88 33.34 19 33 C19.33 31.35 19.66 29.7 20 28 C20.66 28 21.32 28 22 28 C22 30.31 22 32.62 22 35 C14.74 35 7.48 35 0 35 C0 23.45 0 11.9 0 0 Z " fill="#CF9A56" transform="translate(344,272)"/>
<path d="M0 0 C2.31 0 4.62 0 7 0 C8.39431504 2.78863007 8.25660094 4.92078868 8 8 C5 10 5 10 0 10 C0 6.7 0 3.4 0 0 Z " fill="#FDFAF5" transform="translate(320,278)"/>
<path d="M0 0 C0.99 0.33 1.98 0.66 3 1 C3.94921875 3.28515625 3.94921875 3.28515625 4.6875 6.0625 C5.06455078 7.44115234 5.06455078 7.44115234 5.44921875 8.84765625 C5.63097656 9.55792969 5.81273437 10.26820313 6 11 C2.7 11 -0.6 11 -4 11 C-1.125 2.25 -1.125 2.25 0 0 Z " fill="#FBF4E6" transform="translate(206,285)"/>
<path d="M0 0 C2.97 0 5.94 0 9 0 C8.67 0.66 8.34 1.32 8 2 C6.02 2.66 4.04 3.32 2 4 C1.67 13.57 1.34 23.14 1 33 C3.64 33 6.28 33 9 33 C9 33.33 9 33.66 9 34 C6.03 34 3.06 34 0 34 C0 22.78 0 11.56 0 0 Z " fill="#BA6B04" transform="translate(372,272)"/>
<path d="M0 0 C0.99 0.33 1.98 0.66 3 1 C2.57847656 1.47050781 2.15695312 1.94101562 1.72265625 2.42578125 C1.17480469 3.04839844 0.62695312 3.67101562 0.0625 4.3125 C-0.48277344 4.92738281 -1.02804687 5.54226563 -1.58984375 6.17578125 C-4.73137553 10.23975726 -4.51046955 15.09614493 -4 20 C-2.54276115 23.33443944 -2.54276115 23.33443944 -1 26 C-1.33 26.66 -1.66 27.32 -2 28 C-5.41641512 25.04945967 -6.71081024 22.20697451 -7.296875 17.734375 C-7.65981234 11.16117642 -6.11966775 7.09340739 -2 2 C-1.34 1.34 -0.68 0.68 0 0 Z " fill="#BD761A" transform="translate(276,274)"/>
<path d="M0 0 C0.66 0.33 1.32 0.66 2 1 C2 7.6 2 14.2 2 21 C1.34 21.33 0.68 21.66 0 22 C-1.28923485 18.13229545 -1.14505706 14.46562684 -1.125 10.4375 C-1.12886719 9.65697266 -1.13273437 8.87644531 -1.13671875 8.07226562 C-1.12667749 2.25335498 -1.12667749 2.25335498 0 0 Z " fill="#C97D0D" transform="translate(377,278)"/>
<path d="M0 0 C-1.04714924 1.32477959 -2.11344669 2.63443746 -3.1875 3.9375 C-3.77917969 4.66839844 -4.37085938 5.39929688 -4.98046875 6.15234375 C-7.32505203 8.29738803 -8.88391498 8.66094412 -12 9 C-12 6.8125 -12 6.8125 -11 4 C-4.51989893 -1.50663298 -4.51989893 -1.50663298 0 0 Z " fill="#919191" transform="translate(200,333)"/>
<path d="M0 0 C3.57770698 6.67437773 4.27166506 13.52921098 4 21 C4.66 21 5.32 21 6 21 C6 23.97 6 26.94 6 30 C5.67 30 5.34 30 5 30 C-0.41413374 9.31800912 -0.41413374 9.31800912 0 0 Z " fill="#FFCB8E" transform="translate(92,266)"/>
<path d="M0 0 C0 1.98 0 3.96 0 6 C-2.64 6 -5.28 6 -8 6 C-8.33 4.68 -8.66 3.36 -9 2 C-5.5647952 -0.29013653 -4.014669 -0.17842973 0 0 Z " fill="#EEB523" transform="translate(134,272)"/>
<path d="M0 0 C2.97 0 5.94 0 9 0 C7.02 0.99 7.02 0.99 5 2 C5 2.66 5 3.32 5 4 C6.65 4 8.3 4 10 4 C10.33 4.66 10.66 5.32 11 6 C7.37 6 3.74 6 0 6 C0 4.02 0 2.04 0 0 Z " fill="#C77A0A" transform="translate(103,272)"/>
<path d="M0 0 C2.31 0 4.62 0 7 0 C5.02 0.99 5.02 0.99 3 2 C3.27714844 2.55429687 3.55429687 3.10859375 3.83984375 3.6796875 C5.2265625 6.453125 6.61328125 9.2265625 8 12 C4.23145777 10.74381926 3.92041544 9.33985294 2 6 C1.34 5.67 0.68 5.34 0 5 C0 9.29 0 13.58 0 18 C-0.33 18 -0.66 18 -1 18 C-1.02707139 15.75006641 -1.04642829 13.50003905 -1.0625 11.25 C-1.07410156 9.99703125 -1.08570313 8.7440625 -1.09765625 7.453125 C-1.02021027 4.71463499 -0.82780815 2.58119707 0 0 Z " fill="#DD9F32" transform="translate(320,288)"/>
<path d="M0 0 C1.1484375 1.703125 1.1484375 1.703125 2 4 C1.1015625 6.359375 1.1015625 6.359375 -0.375 8.75 C-1.09816406 9.94882812 -1.09816406 9.94882812 -1.8359375 11.171875 C-2.22007812 11.77515625 -2.60421875 12.3784375 -3 13 C-1.68 13 -0.36 13 1 13 C1 13.66 1 14.32 1 15 C-1.31 15 -3.62 15 -6 15 C-4.36041242 9.76727367 -2.61047965 4.84803364 0 0 Z " fill="#C9882F" transform="translate(196,292)"/>
<path d="M0 0 C1.58294782 -0.05437607 3.16644256 -0.09296271 4.75 -0.125 C5.63171875 -0.14820313 6.5134375 -0.17140625 7.421875 -0.1953125 C10.1135858 0.00860498 11.69904974 0.63448279 14 2 C11.50907189 3.24546405 10.58919267 2.7767578 8 2 C8.33 2.99 8.66 3.98 9 5 C3.5 5.36666667 3.5 5.36666667 1.125 3.625 C0 2 0 2 0 0 Z " fill="#D78E0A" transform="translate(317,272)"/>
<path d="M0 0 C0.66 0 1.32 0 2 0 C2 4.95 2 9.9 2 15 C-0.31 15 -2.62 15 -5 15 C-4.67 14.34 -4.34 13.68 -4 13 C-2.68 13 -1.36 13 0 13 C0 8.71 0 4.42 0 0 Z " fill="#C97F13" transform="translate(144,292)"/>
<path d="M0 0 C0.66 0.33 1.32 0.66 2 1 C1.09636719 1.83144531 0.19273437 2.66289062 -0.73828125 3.51953125 C-1.92971816 4.61715423 -3.12112271 5.71481232 -4.3125 6.8125 C-5.20485352 7.63331055 -5.20485352 7.63331055 -6.11523438 8.47070312 C-6.69208984 9.00244141 -7.26894531 9.53417969 -7.86328125 10.08203125 C-8.65665894 10.81256714 -8.65665894 10.81256714 -9.46606445 11.55786133 C-11.0092835 13.00872793 -12.51015856 14.49453768 -14 16 C-14.66 15.67 -15.32 15.34 -16 15 C-11.14267865 9.18671647 -6.28119035 4.25984984 0 0 Z " fill="#E6B72A" transform="translate(193,154)"/>
<path d="M0 0 C0.33 0.66 0.66 1.32 1 2 C0.14453125 3.875 0.14453125 3.875 -1.1875 6 C-1.61417969 6.70125 -2.04085938 7.4025 -2.48046875 8.125 C-4.15205173 10.18762167 -5.56700256 10.99970983 -8 12 C-7.84595887 6.91664275 -4.97931568 4.64245282 -1.49609375 1.35546875 C-1.00238281 0.90816406 -0.50867188 0.46085937 0 0 Z " fill="#C2C2C2" transform="translate(305,337)"/>
<path d="M0 0 C2 2 2 2 2 6 C2.66 6 3.32 6 4 6 C4.06058594 6.62648437 4.12117188 7.25296875 4.18359375 7.8984375 C4.26738281 8.71570313 4.35117187 9.53296875 4.4375 10.375 C4.55931641 11.59316406 4.55931641 11.59316406 4.68359375 12.8359375 C4.89090114 15.04272805 4.89090114 15.04272805 6 17 C6.039992 18.99960012 6.04346799 21.00047242 6 23 C2.14285345 15.55286857 0.50549371 8.34936165 0 0 Z " fill="#FFB55D" transform="translate(411,206)"/>
<path d="M0 0 C2.31 0 4.62 0 7 0 C6.34 1.98 5.68 3.96 5 6 C4.67 4.68 4.34 3.36 4 2 C3.566875 2.433125 3.13375 2.86625 2.6875 3.3125 C1.125 4.875 -0.4375 6.4375 -2 8 C-1.125 2.25 -1.125 2.25 0 0 Z " fill="#F1BE33" transform="translate(259,272)"/>
<path d="M0 0 C0.66 0.33 1.32 0.66 2 1 C1.01 1.33 0.02 1.66 -1 2 C-1 2.66 -1 3.32 -1 4 C-2.95513161 4.696553 -4.91422476 5.38199565 -6.875 6.0625 C-7.96554687 6.44535156 -9.05609375 6.82820313 -10.1796875 7.22265625 C-13 8 -13 8 -15 7 C-13.75539217 6.32332002 -12.50403104 5.65905281 -11.25 5 C-10.20585937 4.443125 -10.20585937 4.443125 -9.140625 3.875 C-7 3 -7 3 -3 3 C-3 2.34 -3 1.68 -3 1 C-2.01 0.67 -1.02 0.34 0 0 Z " fill="#FFB660" transform="translate(323,405)"/>
<path d="M0 0 C0.66 0 1.32 0 2 0 C2 2.31 2 4.62 2 7 C-1.63 7 -5.26 7 -9 7 C-9 6.67 -9 6.34 -9 6 C-6.36 5.67 -3.72 5.34 -1 5 C-0.67 3.35 -0.34 1.7 0 0 Z " fill="#F1BE39" transform="translate(364,300)"/>
<path d="M0 0 C0.99 0.33 1.98 0.66 3 1 C3.92470553 5.71599818 4.22923777 8.67265609 2 13 C1.01 12.67 0.02 12.34 -1 12 C-0.67 11.67 -0.34 11.34 0 11 C0.07226502 9.14712498 0.0838122 7.29166122 0.0625 5.4375 C0.05347656 4.42558594 0.04445313 3.41367187 0.03515625 2.37109375 C0.02355469 1.58863281 0.01195312 0.80617188 0 0 Z " fill="#ECB834" transform="translate(392,283)"/>
<path d="M0 0 C0.66 0 1.32 0 2 0 C1.125 3.875 1.125 3.875 0 5 C1.32 5.66 2.64 6.32 4 7 C1.6875 7.625 1.6875 7.625 -1 8 C-1.99 7.34 -2.98 6.68 -4 6 C-2.84826645 3.53199953 -1.95216435 1.95216435 0 0 Z " fill="#B1B1B1" transform="translate(278,327)"/>
<path d="M0 0 C0.33 0 0.66 0 1 0 C1 2.64 1 5.28 1 8 C0.34 8 -0.32 8 -1 8 C-1.04898437 8.61488281 -1.09796875 9.22976563 -1.1484375 9.86328125 C-1.22320312 10.67152344 -1.29796875 11.47976563 -1.375 12.3125 C-1.44460938 13.11300781 -1.51421875 13.91351563 -1.5859375 14.73828125 C-2 17 -2 17 -4 20 C-3.13411482 13.21723277 -1.67513028 6.62573852 0 0 Z " fill="#FFBA68" transform="translate(414,283)"/>
<path d="M0 0 C2.31 0 4.62 0 7 0 C6.67 0.99 6.34 1.98 6 3 C5.01 2.67 4.02 2.34 3 2 C3.33 3.98 3.66 5.96 4 8 C3.34 8 2.68 8 2 8 C1.34 5.36 0.68 2.72 0 0 Z " fill="#BE7413" transform="translate(222,272)"/>
<path d="M0 0 C0.66 0.33 1.32 0.66 2 1 C1.04882866 2.1725131 0.08882991 3.33787015 -0.875 4.5 C-1.40867188 5.1496875 -1.94234375 5.799375 -2.4921875 6.46875 C-2.98976562 6.9740625 -3.48734375 7.479375 -4 8 C-4.66 8 -5.32 8 -6 8 C-6.66 9.32 -7.32 10.64 -8 12 C-7.84595887 6.91664275 -4.97931568 4.64245282 -1.49609375 1.35546875 C-1.00238281 0.90816406 -0.50867188 0.46085937 0 0 Z " fill="#A9A9A9" transform="translate(200,312)"/>
<path d="M0 0 C3.43022354 2.46272459 5.27472607 3.79341119 6 8 C6.66 8.33 7.32 8.66 8 9 C7.67 9.99 7.34 10.98 7 12 C7 11.34 7 10.68 7 10 C6.01 9.67 5.02 9.34 4 9 C3.66666667 7.66666667 3.33333333 6.33333333 3 5 C2.01 4.67 1.02 4.34 0 4 C0 2.68 0 1.36 0 0 Z " fill="#FFC683" transform="translate(117,342)"/>
<path d="M0 0 C4.95 0.99 4.95 0.99 10 2 C10.33 2.99 10.66 3.98 11 5 C13.01508358 5.73323796 13.01508358 5.73323796 15 6 C14.01 6.495 14.01 6.495 13 7 C10.75689987 6.10333658 8.55245679 5.10853317 6.375 4.0625 C5.18648438 3.49660156 3.99796875 2.93070312 2.7734375 2.34765625 C1.85820312 1.90292969 0.94296875 1.45820312 0 1 C0 0.67 0 0.34 0 0 Z " fill="#FFB258" transform="translate(307,91)"/>
<path d="M0 0 C4.96916636 0.51405169 9.29026351 1.23384882 14 3 C10.16455058 4.38076179 6.92847503 3.85712183 3 3 C1.0625 1.4375 1.0625 1.4375 0 0 Z " fill="#FFC27B" transform="translate(203,413)"/>
<path d="M0 0 C1 2 1 2 0.51171875 4.12890625 C0.23972656 4.93199219 -0.03226562 5.73507813 -0.3125 6.5625 C-0.57675781 7.36816406 -0.84101562 8.17382812 -1.11328125 9.00390625 C-2 11 -2 11 -4 12 C-3.33501617 7.61110675 -1.81242323 4.0188515 0 0 Z " fill="#FFC887" transform="translate(108,177)"/>
<path d="M0 0 C0.99 0.33 1.98 0.66 3 1 C1.02 2.98 -0.96 4.96 -3 7 C-3.66 6.67 -4.32 6.34 -5 6 C-3.35 4.02 -1.7 2.04 0 0 Z " fill="#C67C14" transform="translate(276,274)"/>
<path d="M0 0 C0.66 0 1.32 0 2 0 C2 1.98 2 3.96 2 6 C0.68 5.67 -0.64 5.34 -2 5 C-1.34 3.35 -0.68 1.7 0 0 Z " fill="#F5C43D" transform="translate(132,272)"/>
<path d="M0 0 C0.33 0.66 0.66 1.32 1 2 C-0.65 3.98 -2.3 5.96 -4 8 C-4.33 7.01 -4.66 6.02 -5 5 C-3.35 3.35 -1.7 1.7 0 0 Z " fill="#F9F9F9" transform="translate(303,341)"/>
<path d="M0 0 C0.66 0.33 1.32 0.66 2 1 C2.625 3.0625 2.625 3.0625 3 5 C0.36 5 -2.28 5 -5 5 C-2 3 -2 3 0 3 C0 2.01 0 1.02 0 0 Z " fill="#F4C750" transform="translate(222,302)"/>
<path d="M0 0 C1.65 0 3.3 0 5 0 C4.34 0.66 3.68 1.32 3 2 C3 3.32 3 4.64 3 6 C2.01 6 1.02 6 0 6 C0 4.02 0 2.04 0 0 Z " fill="#B56603" transform="translate(103,272)"/>
</svg>
